<svg width="20" height="20" viewBox="0 0 20 20" fill="none" xmlns="http://www.w3.org/2000/svg">
  <path d="M6.78188 11.5304C7.26676 10.9517 7.6687 10.4673 8.0834 9.99549C9.67841 8.1838 11.4457 6.55454 13.398 5.12658C14.6803 4.18928 16.0393 3.37151 17.4812 2.68583C17.8065 2.52857 18.0426 2.56002 18.2149 2.79906C18.3871 3.03182 18.3744 3.35893 18.1511 3.5791C17.864 3.86217 17.5641 4.12638 17.2642 4.39058C15.2673 6.18339 13.4809 8.15235 11.905 10.3163C10.4185 12.3545 9.12335 14.5058 7.93666 16.7201C7.68784 17.1793 7.35608 17.4687 6.82016 17.4687C6.297 17.4687 5.95886 17.1793 5.7228 16.739C4.42766 14.336 3.11976 11.933 1.81823 9.52998C1.54389 9.02674 1.63959 8.66817 2.11172 8.34106C2.23932 8.253 2.3733 8.15864 2.50728 8.07057C2.8837 7.83153 3.25374 7.86927 3.57274 8.1838C4.55526 9.17142 5.5314 10.1653 6.50754 11.1592C6.59686 11.2536 6.66704 11.3794 6.78188 11.5304Z" fill="#FFFFFF"/>
</svg>
