<svg width="16" height="12" viewBox="0 0 16 12" fill="none" xmlns="http://www.w3.org/2000/svg">
<path d="M3.21415 5.94985L7.45715 1.70685C7.84762 1.31638 7.84762 0.683314 7.45715 0.292849C7.06669 -0.0976164 6.43362 -0.0976163 6.04315 0.292849L1.09326 5.24274C0.702734 5.63327 0.702734 6.26643 1.09326 6.65696L6.04315 11.6068C6.43362 11.9973 7.06669 11.9973 7.45715 11.6068C7.84762 11.2164 7.84762 10.5833 7.45715 10.1929L3.21415 5.94985Z" fill="#006497"/>
<path fill-rule="evenodd" clip-rule="evenodd" d="M16 6C16 5.44772 15.5523 5 15 5H2.5C1.94772 5 1.5 5.44772 1.5 6C1.5 6.55228 1.94772 7 2.5 7H15C15.5523 7 16 6.55228 16 6Z" fill="#006497"/>
</svg>
