<svg width="113" height="31" viewBox="0 0 113 31" fill="none" xmlns="http://www.w3.org/2000/svg">
<path d="M3.76189 30H0.0326989L10.8187 0.625454H14.4905L25.2764 30H21.5473L12.7693 5.2726H12.5398L3.76189 30ZM5.13882 18.5256H20.1703V21.681H5.13882V18.5256ZM26.4295 3.78092V0.625454H48.4604V3.78092H39.2235V30H35.6664V3.78092H26.4295ZM71.63 7.96909C71.4579 6.51566 70.7599 5.38734 69.5359 4.58413C68.312 3.78092 66.8107 3.37932 65.0322 3.37932C63.7318 3.37932 62.5939 3.58968 61.6186 4.01041C60.6528 4.43114 59.8974 5.00964 59.3524 5.74592C58.8169 6.4822 58.5491 7.31887 58.5491 8.25595C58.5491 9.04004 58.7356 9.71416 59.1085 10.2783C59.491 10.8329 59.9787 11.2967 60.5715 11.6696C61.1644 12.033 61.7859 12.3342 62.4361 12.5732C63.0863 12.8027 63.684 12.9892 64.229 13.1326L67.2123 13.9358C67.9773 14.1366 68.8283 14.4139 69.7654 14.7677C70.712 15.1215 71.6157 15.6044 72.4762 16.2163C73.3464 16.8187 74.0635 17.5933 74.6277 18.5399C75.1919 19.4866 75.4739 20.6483 75.4739 22.0253C75.4739 23.6126 75.058 25.0469 74.2261 26.3282C73.4038 27.6095 72.1989 28.6278 70.6116 29.3832C69.0339 30.1386 67.1167 30.5163 64.8601 30.5163C62.7564 30.5163 60.9349 30.1769 59.3954 29.498C57.8655 28.8191 56.6606 27.8724 55.7809 26.6581C54.9108 25.4437 54.4184 24.0333 54.3036 22.4269H57.9754C58.071 23.5361 58.444 24.454 59.0942 25.1807C59.754 25.8979 60.5859 26.4334 61.5899 26.7872C62.6034 27.1314 63.6935 27.3035 64.8601 27.3035C66.2179 27.3035 67.4371 27.0836 68.5176 26.6437C69.5981 26.1943 70.4539 25.5728 71.085 24.7791C71.7161 23.9759 72.0316 23.0388 72.0316 21.9679C72.0316 20.9926 71.7591 20.1989 71.2141 19.587C70.669 18.975 69.9519 18.4778 69.0626 18.0953C68.1733 17.7128 67.2123 17.3781 66.1796 17.0913L62.5652 16.0586C60.2703 15.3988 58.4535 14.4569 57.1148 13.233C55.7762 12.009 55.1068 10.4074 55.1068 8.42807C55.1068 6.7834 55.5515 5.34909 56.4407 4.12516C57.3396 2.89165 58.5444 1.93545 60.0552 1.25655C61.5755 0.568082 63.2728 0.223849 65.1469 0.223849C67.0402 0.223849 68.7231 0.563301 70.1957 1.2422C71.6682 1.91155 72.8348 2.8295 73.6954 3.99607C74.5655 5.16264 75.0245 6.48698 75.0723 7.96909H71.63ZM84.9459 30.2295C84.2383 30.2295 83.6312 29.9761 83.1244 29.4693C82.6176 28.9625 82.3642 28.3553 82.3642 27.6477C82.3642 26.9402 82.6176 26.333 83.1244 25.8262C83.6312 25.3194 84.2383 25.066 84.9459 25.066C85.6535 25.066 86.2607 25.3194 86.7675 25.8262C87.2743 26.333 87.5277 26.9402 87.5277 27.6477C87.5277 28.1163 87.4082 28.5466 87.1691 28.9386C86.9396 29.3307 86.6289 29.6462 86.2368 29.8853C85.8543 30.1147 85.424 30.2295 84.9459 30.2295ZM97.6846 30.2295C96.977 30.2295 96.3698 29.9761 95.863 29.4693C95.3562 28.9625 95.1028 28.3553 95.1028 27.6477C95.1028 26.9402 95.3562 26.333 95.863 25.8262C96.3698 25.3194 96.977 25.066 97.6846 25.066C98.3922 25.066 98.9993 25.3194 99.5061 25.8262C100.013 26.333 100.266 26.9402 100.266 27.6477C100.266 28.1163 100.147 28.5466 99.9077 28.9386C99.6782 29.3307 99.3675 29.6462 98.9754 29.8853C98.593 30.1147 98.1627 30.2295 97.6846 30.2295ZM110.423 30.2295C109.716 30.2295 109.108 29.9761 108.602 29.4693C108.095 28.9625 107.841 28.3553 107.841 27.6477C107.841 26.9402 108.095 26.333 108.602 25.8262C109.108 25.3194 109.716 25.066 110.423 25.066C111.131 25.066 111.738 25.3194 112.245 25.8262C112.752 26.333 113.005 26.9402 113.005 27.6477C113.005 28.1163 112.885 28.5466 112.646 28.9386C112.417 29.3307 112.106 29.6462 111.714 29.8853C111.332 30.1147 110.901 30.2295 110.423 30.2295Z" fill="#006497"/>
</svg>
