<svg width="370" height="29" viewBox="0 0 370 29" fill="none" xmlns="http://www.w3.org/2000/svg">
<g filter="url(#filter0_d_2_20691)">
<mask id="path-1-outside-1_2_20691" maskUnits="userSpaceOnUse" x="-3" y="-3" width="374" height="33" fill="black">
<rect fill="white" x="-3" y="-3" width="374" height="33"/>
<path d="M20.7265 14.8549L27.2899 17.1639C26.7324 19.8669 25.4536 22.0789 23.4537 23.8001C21.4295 25.5333 18.6418 26.4 15.0904 26.4C10.242 26.4 6.65428 25.1334 4.32709 22.6001C1.98778 20.079 0.81812 17.0003 0.81812 13.3641C0.81812 9.70359 1.96353 6.5946 4.25437 4.03712C6.5452 1.47963 9.52085 0.200884 13.1813 0.200884C16.1509 0.200884 18.569 0.934192 20.4356 2.40081V0.709957H26.5081V9.946H20.1993C19.872 8.79453 19.3205 7.88547 18.5448 7.21883C17.7691 6.5643 16.8842 6.23704 15.8903 6.23704C13.151 6.23704 11.7814 8.59454 11.7814 13.3095C11.7814 18.0366 13.1995 20.4002 16.0358 20.4002C18.5205 20.4002 20.0841 18.5518 20.7265 14.8549ZM46.9984 26.2182H39.1259L31.0534 6.7643H29.1808V0.709957H42.7803V6.7643H40.6349L44.3984 17.5457L48.3438 6.7643H46.2711V0.709957H56.4708V6.7643H54.5981L46.9984 26.2182ZM64.6341 26.2182H58.9798V20.6184H64.2705C65.628 22.0486 67.1128 22.7637 68.7249 22.7637C70.3491 22.7637 71.1612 22.4304 71.1612 21.7638C71.1612 21.4244 70.9854 21.1638 70.6339 20.982C70.2703 20.7881 69.3067 20.5032 67.7431 20.1275C66.4825 19.7881 65.0886 19.3942 63.5614 18.9457C62.2403 18.57 61.1979 18.0972 60.4343 17.5276C59.6464 16.9579 59.1192 16.4003 58.8525 15.8549C58.5616 15.3095 58.4161 14.5943 58.4161 13.7095C58.4161 11.7581 59.107 10.3217 60.4888 9.40057C61.8585 8.49151 63.5978 8.03698 65.7068 8.03698C67.8885 8.03698 69.7188 8.44909 71.1975 9.2733V8.36424H76.7792V13.4913H71.6157C70.3309 12.2671 68.8037 11.655 67.034 11.655C65.6401 11.655 64.9432 12.0247 64.9432 12.7641C64.9432 13.1156 65.1492 13.3459 65.5614 13.455C65.9129 13.5641 67.0765 13.8247 69.0521 14.2368C71.2945 14.7095 73.0459 15.1822 74.3065 15.6549C75.555 16.1276 76.4943 16.7518 77.1246 17.5276C77.7428 18.3033 78.0518 19.2548 78.0518 20.382C78.0518 22.4183 77.2943 23.9213 75.7792 24.8909C74.2762 25.8485 72.4217 26.3273 70.2157 26.3273C68.0219 26.3273 66.1613 25.9273 64.6341 25.1273V26.2182ZM111.923 15.4731V20.4547H114.123C115.529 20.4547 116.541 20.2729 117.16 19.9093C117.766 19.5457 118.069 18.9033 118.069 17.9821C118.069 17.1215 117.796 16.4852 117.25 16.0731C116.705 15.6731 115.651 15.4731 114.087 15.4731H111.923ZM111.923 6.25522V10.8732H114.087C115.554 10.8732 116.517 10.6611 116.978 10.2369C117.414 9.81268 117.632 9.25512 117.632 8.56423C117.632 7.97031 117.432 7.437 117.032 6.96429C116.632 6.49158 115.535 6.25522 113.742 6.25522H111.923ZM114.251 26H99.942V19.9457H102.142V6.7643H99.942V0.709957H115.396C118.426 0.709957 120.772 0.885709 122.432 1.23721C124.068 1.60084 125.353 2.32202 126.287 3.40077C127.22 4.50377 127.686 5.78857 127.686 7.25519C127.686 8.68544 127.244 9.8248 126.359 10.6733C125.45 11.5459 124.347 12.152 123.05 12.4914C124.832 13.0247 126.202 13.8489 127.159 14.964C128.129 16.1034 128.614 17.3821 128.614 18.8002C128.614 20.4972 128.068 21.9395 126.977 23.1274C125.887 24.3031 124.39 25.0728 122.487 25.4364C120.608 25.8121 117.863 26 114.251 26ZM140.977 17.1276C140.977 19.9396 141.983 21.3456 143.995 21.3456C146.128 21.3456 147.195 19.9275 147.195 17.0912C147.195 15.7943 146.934 14.7883 146.413 14.0731C145.88 13.358 145.128 13.0004 144.159 13.0004C143.201 13.0004 142.431 13.3519 141.85 14.055C141.268 14.758 140.977 15.7822 140.977 17.1276ZM131.723 17.0912C131.723 14.4974 132.814 12.3096 134.995 10.5278C137.177 8.74605 140.122 7.85517 143.831 7.85517C147.565 7.85517 150.601 8.71574 152.94 10.4369C155.28 12.158 156.449 14.4004 156.449 17.1639C156.449 19.8305 155.334 22.0547 153.104 23.8364C150.874 25.6182 147.928 26.5091 144.268 26.5091C140.316 26.5091 137.238 25.6182 135.032 23.8364C132.826 22.0668 131.723 19.8184 131.723 17.0912ZM173.285 26H159.322V20.4547H161.594V13.9095H159.322V8.36424H170.74V10.6005C172.982 8.8915 175.388 8.03698 177.958 8.03698C180.212 8.03698 181.909 8.6612 183.048 9.90964C184.175 11.1581 184.739 13.1641 184.739 15.9276V20.4547H186.83V26H175.594V18.1639C175.594 16.4549 175.449 15.3276 175.158 14.7822C174.842 14.2489 174.242 13.9822 173.358 13.9822C172.546 13.9822 171.673 14.2913 170.74 14.9095V20.4547H173.285V26ZM201.702 26H189.212V20.4547H191.03V13.9095H189.212V8.36424H200.175V20.4547H201.702V26ZM190.266 3.38259C190.266 2.42505 190.757 1.65538 191.739 1.07358C192.709 0.491783 193.908 0.200884 195.339 0.200884C196.805 0.200884 197.987 0.503904 198.884 1.10994C199.769 1.7281 200.211 2.47959 200.211 3.36441C200.211 4.32195 199.751 5.0795 198.83 5.63706C197.896 6.20674 196.72 6.49158 195.302 6.49158C193.86 6.49158 192.66 6.23098 191.702 5.70979C190.745 5.20071 190.266 4.42498 190.266 3.38259ZM218.629 26H204.357V20.4547H206.593V13.9095H204.357V8.36424H206.593V7.94607C206.593 6.10371 206.987 4.62497 207.775 3.50986C208.55 2.41899 209.581 1.59478 210.865 1.03722C212.138 0.479662 214.235 0.200884 217.156 0.200884C218.465 0.200884 219.756 0.225125 221.029 0.273608V5.20071C220.168 5.11587 219.411 5.07344 218.756 5.07344C217.92 5.07344 217.271 5.18253 216.811 5.40071C216.338 5.631 216.029 5.94008 215.883 6.32795C215.726 6.69157 215.647 7.37034 215.647 8.36424H219.029V13.9095H215.647V20.4547H218.629V26ZM233.519 26H221.029V20.4547H222.847V13.9095H221.029V8.36424H231.992V20.4547H233.519V26ZM222.083 3.38259C222.083 2.42505 222.574 1.65538 223.556 1.07358C224.526 0.491783 225.726 0.200884 227.156 0.200884C228.622 0.200884 229.804 0.503904 230.701 1.10994C231.586 1.7281 232.028 2.47959 232.028 3.36441C232.028 4.32195 231.568 5.0795 230.647 5.63706C229.713 6.20674 228.538 6.49158 227.119 6.49158C225.677 6.49158 224.477 6.23098 223.52 5.70979C222.562 5.20071 222.083 4.42498 222.083 3.38259ZM252.373 18.7639L259.191 20.2911C258.621 22.2547 257.397 23.7819 255.518 24.8728C253.616 25.9636 251.264 26.5091 248.464 26.5091C244.755 26.5091 241.834 25.6727 239.701 24.0001C237.568 22.3274 236.501 20.0851 236.501 17.273C236.501 14.5701 237.495 12.352 239.483 10.6187C241.458 8.89756 243.937 8.03698 246.919 8.03698C249.44 8.03698 251.385 8.53999 252.755 9.54602V8.36424H258.337V15.8913H252.755C252.064 13.8792 250.894 12.8732 249.246 12.8732C248.131 12.8732 247.27 13.3035 246.664 14.164C246.058 15.0489 245.755 16.1216 245.755 17.3821C245.755 18.7518 246.082 19.8305 246.737 20.6184C247.379 21.4062 248.216 21.8001 249.246 21.8001C250.943 21.8001 251.985 20.7881 252.373 18.7639ZM275.972 21.4911V18.273C275.16 17.8366 274.3 17.6185 273.391 17.6185C272.591 17.6185 271.954 17.8366 271.482 18.273C271.009 18.7215 270.773 19.2911 270.773 19.982C270.773 20.6972 271.015 21.2789 271.5 21.7274C271.997 22.188 272.566 22.4183 273.209 22.4183C274.348 22.4183 275.269 22.1092 275.972 21.4911ZM269.118 13.2913L261.955 12.5641C262.742 10.8308 264.015 9.61268 265.773 8.90968C267.506 8.20667 270.063 7.85517 273.445 7.85517C274.694 7.85517 275.809 7.89759 276.79 7.98244C277.784 8.05516 278.669 8.17031 279.445 8.32788C281.057 8.6309 282.251 9.09755 283.027 9.72783C283.802 10.3702 284.342 11.0611 284.645 11.8005C284.96 12.5641 285.117 13.7519 285.117 15.364V20.4547H287.372V26H275.972V24.8C274.397 25.8182 272.288 26.3273 269.645 26.3273C267.161 26.3273 265.288 25.7818 264.027 24.691C262.755 23.6001 262.118 22.3092 262.118 20.8184C262.118 19.1699 262.9 17.8185 264.464 16.764C266.015 15.7094 268.039 15.1822 270.536 15.1822C272.815 15.1822 274.627 15.4791 275.972 16.0731V15.5458C275.972 14.4549 275.894 13.6913 275.736 13.255C275.566 12.7944 275.191 12.4005 274.609 12.0732C274.003 11.7581 273.3 11.6005 272.5 11.6005C271.033 11.6005 269.906 12.1641 269.118 13.2913ZM305.571 17.1094C305.571 16.0064 305.317 15.0852 304.808 14.3459C304.299 13.6186 303.541 13.255 302.535 13.255C300.462 13.255 299.426 14.5943 299.426 17.273C299.426 18.376 299.681 19.2851 300.19 20.0002C300.687 20.7275 301.444 21.0911 302.462 21.0911C303.384 21.0911 304.135 20.7699 304.717 20.1275C305.286 19.4851 305.571 18.479 305.571 17.1094ZM316.953 20.4547V26H305.517V24.8182C303.82 25.8242 301.856 26.3273 299.626 26.3273C297.141 26.3273 294.941 25.5697 293.026 24.0546C291.111 22.5395 290.154 20.3699 290.154 17.5457C290.154 14.5034 291.038 12.152 292.808 10.4914C294.578 8.85513 296.947 8.03698 299.917 8.03698C302.099 8.03698 303.965 8.52181 305.517 9.49147V6.25522H303.262V0.709957H314.662V20.4547H316.953ZM329.116 17.1276C329.116 19.9396 330.122 21.3456 332.134 21.3456C334.267 21.3456 335.334 19.9275 335.334 17.0912C335.334 15.7943 335.073 14.7883 334.552 14.0731C334.019 13.358 333.267 13.0004 332.298 13.0004C331.34 13.0004 330.57 13.3519 329.989 14.055C329.407 14.758 329.116 15.7822 329.116 17.1276ZM319.862 17.0912C319.862 14.4974 320.953 12.3096 323.134 10.5278C325.316 8.74605 328.261 7.85517 331.97 7.85517C335.704 7.85517 338.74 8.71574 341.079 10.4369C343.418 12.158 344.588 14.4004 344.588 17.1639C344.588 19.8305 343.473 22.0547 341.243 23.8364C339.013 25.6182 336.067 26.5091 332.407 26.5091C328.455 26.5091 325.377 25.6182 323.171 23.8364C320.965 22.0668 319.862 19.8184 319.862 17.0912ZM354.042 26.2182H348.388V20.6184H353.679C355.036 22.0486 356.521 22.7637 358.133 22.7637C359.757 22.7637 360.569 22.4304 360.569 21.7638C360.569 21.4244 360.394 21.1638 360.042 20.982C359.679 20.7881 358.715 20.5032 357.151 20.1275C355.891 19.7881 354.497 19.3942 352.97 18.9457C351.649 18.57 350.606 18.0972 349.843 17.5276C349.055 16.9579 348.527 16.4003 348.261 15.8549C347.97 15.3095 347.824 14.5943 347.824 13.7095C347.824 11.7581 348.515 10.3217 349.897 9.40057C351.267 8.49151 353.006 8.03698 355.115 8.03698C357.297 8.03698 359.127 8.44909 360.606 9.2733V8.36424H366.187V13.4913H361.024C359.739 12.2671 358.212 11.655 356.442 11.655C355.048 11.655 354.351 12.0247 354.351 12.7641C354.351 13.1156 354.558 13.3459 354.97 13.455C355.321 13.5641 356.485 13.8247 358.46 14.2368C360.703 14.7095 362.454 15.1822 363.715 15.6549C364.963 16.1276 365.903 16.7518 366.533 17.5276C367.151 18.3033 367.46 19.2548 367.46 20.382C367.46 22.4183 366.703 23.9213 365.187 24.8909C363.684 25.8485 361.83 26.3273 359.624 26.3273C357.43 26.3273 355.57 25.9273 354.042 25.1273V26.2182Z"/>
</mask>
<path d="M20.7265 14.8549L27.2899 17.1639C26.7324 19.8669 25.4536 22.0789 23.4537 23.8001C21.4295 25.5333 18.6418 26.4 15.0904 26.4C10.242 26.4 6.65428 25.1334 4.32709 22.6001C1.98778 20.079 0.81812 17.0003 0.81812 13.3641C0.81812 9.70359 1.96353 6.5946 4.25437 4.03712C6.5452 1.47963 9.52085 0.200884 13.1813 0.200884C16.1509 0.200884 18.569 0.934192 20.4356 2.40081V0.709957H26.5081V9.946H20.1993C19.872 8.79453 19.3205 7.88547 18.5448 7.21883C17.7691 6.5643 16.8842 6.23704 15.8903 6.23704C13.151 6.23704 11.7814 8.59454 11.7814 13.3095C11.7814 18.0366 13.1995 20.4002 16.0358 20.4002C18.5205 20.4002 20.0841 18.5518 20.7265 14.8549ZM46.9984 26.2182H39.1259L31.0534 6.7643H29.1808V0.709957H42.7803V6.7643H40.6349L44.3984 17.5457L48.3438 6.7643H46.2711V0.709957H56.4708V6.7643H54.5981L46.9984 26.2182ZM64.6341 26.2182H58.9798V20.6184H64.2705C65.628 22.0486 67.1128 22.7637 68.7249 22.7637C70.3491 22.7637 71.1612 22.4304 71.1612 21.7638C71.1612 21.4244 70.9854 21.1638 70.6339 20.982C70.2703 20.7881 69.3067 20.5032 67.7431 20.1275C66.4825 19.7881 65.0886 19.3942 63.5614 18.9457C62.2403 18.57 61.1979 18.0972 60.4343 17.5276C59.6464 16.9579 59.1192 16.4003 58.8525 15.8549C58.5616 15.3095 58.4161 14.5943 58.4161 13.7095C58.4161 11.7581 59.107 10.3217 60.4888 9.40057C61.8585 8.49151 63.5978 8.03698 65.7068 8.03698C67.8885 8.03698 69.7188 8.44909 71.1975 9.2733V8.36424H76.7792V13.4913H71.6157C70.3309 12.2671 68.8037 11.655 67.034 11.655C65.6401 11.655 64.9432 12.0247 64.9432 12.7641C64.9432 13.1156 65.1492 13.3459 65.5614 13.455C65.9129 13.5641 67.0765 13.8247 69.0521 14.2368C71.2945 14.7095 73.0459 15.1822 74.3065 15.6549C75.555 16.1276 76.4943 16.7518 77.1246 17.5276C77.7428 18.3033 78.0518 19.2548 78.0518 20.382C78.0518 22.4183 77.2943 23.9213 75.7792 24.8909C74.2762 25.8485 72.4217 26.3273 70.2157 26.3273C68.0219 26.3273 66.1613 25.9273 64.6341 25.1273V26.2182ZM111.923 15.4731V20.4547H114.123C115.529 20.4547 116.541 20.2729 117.16 19.9093C117.766 19.5457 118.069 18.9033 118.069 17.9821C118.069 17.1215 117.796 16.4852 117.25 16.0731C116.705 15.6731 115.651 15.4731 114.087 15.4731H111.923ZM111.923 6.25522V10.8732H114.087C115.554 10.8732 116.517 10.6611 116.978 10.2369C117.414 9.81268 117.632 9.25512 117.632 8.56423C117.632 7.97031 117.432 7.437 117.032 6.96429C116.632 6.49158 115.535 6.25522 113.742 6.25522H111.923ZM114.251 26H99.942V19.9457H102.142V6.7643H99.942V0.709957H115.396C118.426 0.709957 120.772 0.885709 122.432 1.23721C124.068 1.60084 125.353 2.32202 126.287 3.40077C127.22 4.50377 127.686 5.78857 127.686 7.25519C127.686 8.68544 127.244 9.8248 126.359 10.6733C125.45 11.5459 124.347 12.152 123.05 12.4914C124.832 13.0247 126.202 13.8489 127.159 14.964C128.129 16.1034 128.614 17.3821 128.614 18.8002C128.614 20.4972 128.068 21.9395 126.977 23.1274C125.887 24.3031 124.39 25.0728 122.487 25.4364C120.608 25.8121 117.863 26 114.251 26ZM140.977 17.1276C140.977 19.9396 141.983 21.3456 143.995 21.3456C146.128 21.3456 147.195 19.9275 147.195 17.0912C147.195 15.7943 146.934 14.7883 146.413 14.0731C145.88 13.358 145.128 13.0004 144.159 13.0004C143.201 13.0004 142.431 13.3519 141.85 14.055C141.268 14.758 140.977 15.7822 140.977 17.1276ZM131.723 17.0912C131.723 14.4974 132.814 12.3096 134.995 10.5278C137.177 8.74605 140.122 7.85517 143.831 7.85517C147.565 7.85517 150.601 8.71574 152.94 10.4369C155.28 12.158 156.449 14.4004 156.449 17.1639C156.449 19.8305 155.334 22.0547 153.104 23.8364C150.874 25.6182 147.928 26.5091 144.268 26.5091C140.316 26.5091 137.238 25.6182 135.032 23.8364C132.826 22.0668 131.723 19.8184 131.723 17.0912ZM173.285 26H159.322V20.4547H161.594V13.9095H159.322V8.36424H170.74V10.6005C172.982 8.8915 175.388 8.03698 177.958 8.03698C180.212 8.03698 181.909 8.6612 183.048 9.90964C184.175 11.1581 184.739 13.1641 184.739 15.9276V20.4547H186.83V26H175.594V18.1639C175.594 16.4549 175.449 15.3276 175.158 14.7822C174.842 14.2489 174.242 13.9822 173.358 13.9822C172.546 13.9822 171.673 14.2913 170.74 14.9095V20.4547H173.285V26ZM201.702 26H189.212V20.4547H191.03V13.9095H189.212V8.36424H200.175V20.4547H201.702V26ZM190.266 3.38259C190.266 2.42505 190.757 1.65538 191.739 1.07358C192.709 0.491783 193.908 0.200884 195.339 0.200884C196.805 0.200884 197.987 0.503904 198.884 1.10994C199.769 1.7281 200.211 2.47959 200.211 3.36441C200.211 4.32195 199.751 5.0795 198.83 5.63706C197.896 6.20674 196.72 6.49158 195.302 6.49158C193.86 6.49158 192.66 6.23098 191.702 5.70979C190.745 5.20071 190.266 4.42498 190.266 3.38259ZM218.629 26H204.357V20.4547H206.593V13.9095H204.357V8.36424H206.593V7.94607C206.593 6.10371 206.987 4.62497 207.775 3.50986C208.55 2.41899 209.581 1.59478 210.865 1.03722C212.138 0.479662 214.235 0.200884 217.156 0.200884C218.465 0.200884 219.756 0.225125 221.029 0.273608V5.20071C220.168 5.11587 219.411 5.07344 218.756 5.07344C217.92 5.07344 217.271 5.18253 216.811 5.40071C216.338 5.631 216.029 5.94008 215.883 6.32795C215.726 6.69157 215.647 7.37034 215.647 8.36424H219.029V13.9095H215.647V20.4547H218.629V26ZM233.519 26H221.029V20.4547H222.847V13.9095H221.029V8.36424H231.992V20.4547H233.519V26ZM222.083 3.38259C222.083 2.42505 222.574 1.65538 223.556 1.07358C224.526 0.491783 225.726 0.200884 227.156 0.200884C228.622 0.200884 229.804 0.503904 230.701 1.10994C231.586 1.7281 232.028 2.47959 232.028 3.36441C232.028 4.32195 231.568 5.0795 230.647 5.63706C229.713 6.20674 228.538 6.49158 227.119 6.49158C225.677 6.49158 224.477 6.23098 223.52 5.70979C222.562 5.20071 222.083 4.42498 222.083 3.38259ZM252.373 18.7639L259.191 20.2911C258.621 22.2547 257.397 23.7819 255.518 24.8728C253.616 25.9636 251.264 26.5091 248.464 26.5091C244.755 26.5091 241.834 25.6727 239.701 24.0001C237.568 22.3274 236.501 20.0851 236.501 17.273C236.501 14.5701 237.495 12.352 239.483 10.6187C241.458 8.89756 243.937 8.03698 246.919 8.03698C249.44 8.03698 251.385 8.53999 252.755 9.54602V8.36424H258.337V15.8913H252.755C252.064 13.8792 250.894 12.8732 249.246 12.8732C248.131 12.8732 247.27 13.3035 246.664 14.164C246.058 15.0489 245.755 16.1216 245.755 17.3821C245.755 18.7518 246.082 19.8305 246.737 20.6184C247.379 21.4062 248.216 21.8001 249.246 21.8001C250.943 21.8001 251.985 20.7881 252.373 18.7639ZM275.972 21.4911V18.273C275.16 17.8366 274.3 17.6185 273.391 17.6185C272.591 17.6185 271.954 17.8366 271.482 18.273C271.009 18.7215 270.773 19.2911 270.773 19.982C270.773 20.6972 271.015 21.2789 271.5 21.7274C271.997 22.188 272.566 22.4183 273.209 22.4183C274.348 22.4183 275.269 22.1092 275.972 21.4911ZM269.118 13.2913L261.955 12.5641C262.742 10.8308 264.015 9.61268 265.773 8.90968C267.506 8.20667 270.063 7.85517 273.445 7.85517C274.694 7.85517 275.809 7.89759 276.79 7.98244C277.784 8.05516 278.669 8.17031 279.445 8.32788C281.057 8.6309 282.251 9.09755 283.027 9.72783C283.802 10.3702 284.342 11.0611 284.645 11.8005C284.96 12.5641 285.117 13.7519 285.117 15.364V20.4547H287.372V26H275.972V24.8C274.397 25.8182 272.288 26.3273 269.645 26.3273C267.161 26.3273 265.288 25.7818 264.027 24.691C262.755 23.6001 262.118 22.3092 262.118 20.8184C262.118 19.1699 262.9 17.8185 264.464 16.764C266.015 15.7094 268.039 15.1822 270.536 15.1822C272.815 15.1822 274.627 15.4791 275.972 16.0731V15.5458C275.972 14.4549 275.894 13.6913 275.736 13.255C275.566 12.7944 275.191 12.4005 274.609 12.0732C274.003 11.7581 273.3 11.6005 272.5 11.6005C271.033 11.6005 269.906 12.1641 269.118 13.2913ZM305.571 17.1094C305.571 16.0064 305.317 15.0852 304.808 14.3459C304.299 13.6186 303.541 13.255 302.535 13.255C300.462 13.255 299.426 14.5943 299.426 17.273C299.426 18.376 299.681 19.2851 300.19 20.0002C300.687 20.7275 301.444 21.0911 302.462 21.0911C303.384 21.0911 304.135 20.7699 304.717 20.1275C305.286 19.4851 305.571 18.479 305.571 17.1094ZM316.953 20.4547V26H305.517V24.8182C303.82 25.8242 301.856 26.3273 299.626 26.3273C297.141 26.3273 294.941 25.5697 293.026 24.0546C291.111 22.5395 290.154 20.3699 290.154 17.5457C290.154 14.5034 291.038 12.152 292.808 10.4914C294.578 8.85513 296.947 8.03698 299.917 8.03698C302.099 8.03698 303.965 8.52181 305.517 9.49147V6.25522H303.262V0.709957H314.662V20.4547H316.953ZM329.116 17.1276C329.116 19.9396 330.122 21.3456 332.134 21.3456C334.267 21.3456 335.334 19.9275 335.334 17.0912C335.334 15.7943 335.073 14.7883 334.552 14.0731C334.019 13.358 333.267 13.0004 332.298 13.0004C331.34 13.0004 330.57 13.3519 329.989 14.055C329.407 14.758 329.116 15.7822 329.116 17.1276ZM319.862 17.0912C319.862 14.4974 320.953 12.3096 323.134 10.5278C325.316 8.74605 328.261 7.85517 331.97 7.85517C335.704 7.85517 338.74 8.71574 341.079 10.4369C343.418 12.158 344.588 14.4004 344.588 17.1639C344.588 19.8305 343.473 22.0547 341.243 23.8364C339.013 25.6182 336.067 26.5091 332.407 26.5091C328.455 26.5091 325.377 25.6182 323.171 23.8364C320.965 22.0668 319.862 19.8184 319.862 17.0912ZM354.042 26.2182H348.388V20.6184H353.679C355.036 22.0486 356.521 22.7637 358.133 22.7637C359.757 22.7637 360.569 22.4304 360.569 21.7638C360.569 21.4244 360.394 21.1638 360.042 20.982C359.679 20.7881 358.715 20.5032 357.151 20.1275C355.891 19.7881 354.497 19.3942 352.97 18.9457C351.649 18.57 350.606 18.0972 349.843 17.5276C349.055 16.9579 348.527 16.4003 348.261 15.8549C347.97 15.3095 347.824 14.5943 347.824 13.7095C347.824 11.7581 348.515 10.3217 349.897 9.40057C351.267 8.49151 353.006 8.03698 355.115 8.03698C357.297 8.03698 359.127 8.44909 360.606 9.2733V8.36424H366.187V13.4913H361.024C359.739 12.2671 358.212 11.655 356.442 11.655C355.048 11.655 354.351 12.0247 354.351 12.7641C354.351 13.1156 354.558 13.3459 354.97 13.455C355.321 13.5641 356.485 13.8247 358.46 14.2368C360.703 14.7095 362.454 15.1822 363.715 15.6549C364.963 16.1276 365.903 16.7518 366.533 17.5276C367.151 18.3033 367.46 19.2548 367.46 20.382C367.46 22.4183 366.703 23.9213 365.187 24.8909C363.684 25.8485 361.83 26.3273 359.624 26.3273C357.43 26.3273 355.57 25.9273 354.042 25.1273V26.2182Z" fill="white"/>
<path d="M20.7265 14.8549L21.6816 12.1401L18.4734 11.0114L17.8911 14.3622L20.7265 14.8549ZM27.2899 17.1639L30.1085 17.7454L30.6164 15.2834L28.245 14.4491L27.2899 17.1639ZM23.4537 23.8001L25.3256 25.9861L25.331 25.9814L23.4537 23.8001ZM4.32709 22.6001L6.44647 20.6531L6.44162 20.6479L6.43674 20.6426L4.32709 22.6001ZM20.4356 2.40081L18.6576 4.66378L23.3136 8.32205V2.40081H20.4356ZM20.4356 0.709957V-2.16798H17.5577V0.709957H20.4356ZM26.5081 0.709957H29.3861V-2.16798H26.5081V0.709957ZM26.5081 9.946V12.8239H29.3861V9.946H26.5081ZM20.1993 9.946L17.431 10.7328L18.0253 12.8239H20.1993V9.946ZM18.5448 7.21882L20.4205 5.03614L20.4106 5.02765L20.4007 5.01925L18.5448 7.21882ZM19.7714 17.5698L26.3349 19.8788L28.245 14.4491L21.6816 12.1401L19.7714 17.5698ZM24.4713 16.5825C24.0359 18.6935 23.0712 20.3323 21.5764 21.6187L25.331 25.9814C27.8361 23.8256 29.4289 21.0402 30.1085 17.7454L24.4713 16.5825ZM21.5819 21.6141C20.2311 22.7707 18.186 23.5221 15.0904 23.5221V29.2779C19.0975 29.2779 22.628 28.296 25.3256 25.9861L21.5819 21.6141ZM15.0904 23.5221C10.7092 23.5221 8.0355 22.3829 6.44647 20.6531L2.20772 24.5471C5.27307 27.8839 9.77485 29.2779 15.0904 29.2779V23.5221ZM6.43674 20.6426C4.62149 18.6863 3.69605 16.3199 3.69605 13.3641H-2.05981C-2.05981 17.6807 -0.645935 21.4717 2.21744 24.5576L6.43674 20.6426ZM3.69605 13.3641C3.69605 10.3611 4.61303 7.9501 6.39806 5.95729L2.11067 2.11694C-0.685961 5.23911 -2.05981 9.04603 -2.05981 13.3641H3.69605ZM6.39806 5.95729C8.10352 4.05332 10.278 3.07882 13.1813 3.07882V-2.67705C8.76367 -2.67705 4.98688 -1.09406 2.11067 2.11694L6.39806 5.95729ZM13.1813 3.07882C15.6713 3.07882 17.4142 3.68683 18.6576 4.66378L22.2137 0.137836C19.7239 -1.81845 16.6306 -2.67705 13.1813 -2.67705V3.07882ZM23.3136 2.40081V0.709957H17.5577V2.40081H23.3136ZM20.4356 3.58789H26.5081V-2.16798H20.4356V3.58789ZM23.6302 0.709957V9.946H29.3861V0.709957H23.6302ZM26.5081 7.06807H20.1993V12.8239H26.5081V7.06807ZM22.9676 9.15923C22.5129 7.55949 21.693 6.12972 20.4205 5.03614L16.669 9.40151C16.948 9.64122 17.2311 10.0296 17.431 10.7328L22.9676 9.15923ZM20.4007 5.01925C19.1178 3.93681 17.5791 3.35911 15.8903 3.35911V9.11497C16.1894 9.11497 16.4203 9.1918 16.6889 9.41841L20.4007 5.01925ZM15.8903 3.35911C13.5013 3.35911 11.5231 4.4889 10.3202 6.55943C9.25602 8.3911 8.90345 10.7676 8.90345 13.3095H14.6593C14.6593 11.1364 14.9916 9.97672 15.2971 9.45089C15.4246 9.23142 15.512 9.18271 15.5249 9.17532C15.5384 9.16755 15.6285 9.11497 15.8903 9.11497V3.35911ZM8.90345 13.3095C8.90345 15.8669 9.27031 18.2634 10.3772 20.1082C11.6246 22.1872 13.6427 23.2781 16.0358 23.2781V17.5223C15.7343 17.5223 15.6104 17.4625 15.5721 17.4413C15.5377 17.4221 15.4427 17.3633 15.3128 17.1468C15.0015 16.6281 14.6593 15.4792 14.6593 13.3095H8.90345ZM16.0358 23.2781C18.0992 23.2781 19.9243 22.4625 21.2693 20.8725C22.5153 19.3996 23.1973 17.4465 23.562 15.3476L17.8911 14.3622C17.6134 15.9602 17.1924 16.7798 16.8748 17.1552C16.6562 17.4137 16.4571 17.5223 16.0358 17.5223V23.2781ZM46.9984 26.2182V29.0961H48.9638L49.679 27.2654L46.9984 26.2182ZM39.1259 26.2182L36.4677 27.3212L37.2042 29.0961H39.1259V26.2182ZM31.0534 6.7643L33.7116 5.66128L32.9751 3.88636H31.0534V6.7643ZM29.1808 6.7643H26.3029V9.64223H29.1808V6.7643ZM29.1808 0.709957V-2.16798H26.3029V0.709957H29.1808ZM42.7803 0.709957H45.6583V-2.16798H42.7803V0.709957ZM42.7803 6.7643V9.64223H45.6583V6.7643H42.7803ZM40.6349 6.7643V3.88636H36.5821L37.9178 7.71278L40.6349 6.7643ZM44.3984 17.5457L41.6813 18.4942L44.3345 26.095L47.1011 18.5347L44.3984 17.5457ZM48.3438 6.7643L51.0464 7.7533L52.4615 3.88636H48.3438V6.7643ZM46.2711 6.7643H43.3932V9.64223H46.2711V6.7643ZM46.2711 0.709957V-2.16798H43.3932V0.709957H46.2711ZM56.4708 0.709957H59.3487V-2.16798H56.4708V0.709957ZM56.4708 6.7643V9.64223H59.3487V6.7643H56.4708ZM54.5981 6.7643V3.88636H52.6326L51.9174 5.71709L54.5981 6.7643ZM46.9984 23.3402H39.1259V29.0961H46.9984V23.3402ZM41.7841 25.1152L33.7116 5.66128L28.3953 7.86731L36.4677 27.3212L41.7841 25.1152ZM31.0534 3.88636H29.1808V9.64223H31.0534V3.88636ZM32.0587 6.7643V0.709957H26.3029V6.7643H32.0587ZM29.1808 3.58789H42.7803V-2.16798H29.1808V3.58789ZM39.9024 0.709957V6.7643H45.6583V0.709957H39.9024ZM42.7803 3.88636H40.6349V9.64223H42.7803V3.88636ZM37.9178 7.71278L41.6813 18.4942L47.1156 16.5973L43.3521 5.81581L37.9178 7.71278ZM47.1011 18.5347L51.0464 7.7533L45.6411 5.7753L41.6958 16.5567L47.1011 18.5347ZM48.3438 3.88636H46.2711V9.64223H48.3438V3.88636ZM49.149 6.7643V0.709957H43.3932V6.7643H49.149ZM46.2711 3.58789H56.4708V-2.16798H46.2711V3.58789ZM53.5928 0.709957V6.7643H59.3487V0.709957H53.5928ZM56.4708 3.88636H54.5981V9.64223H56.4708V3.88636ZM51.9174 5.71709L44.3177 25.171L49.679 27.2654L57.2787 7.8115L51.9174 5.71709ZM64.6341 26.2182V29.0961H67.512V26.2182H64.6341ZM58.9798 26.2182H56.1018V29.0961H58.9798V26.2182ZM58.9798 20.6184V17.7404H56.1018V20.6184H58.9798ZM64.2705 20.6184L66.3579 18.6371L65.5068 17.7404H64.2705V20.6184ZM70.6339 20.982L69.2796 23.5213L69.2956 23.5299L69.3117 23.5382L70.6339 20.982ZM67.7431 20.1275L66.9949 22.9065L67.0326 22.9166L67.0706 22.9257L67.7431 20.1275ZM63.5614 18.9457L64.3723 16.1844L64.3605 16.1809L64.3487 16.1775L63.5614 18.9457ZM60.4343 17.5276L62.1552 15.2208L62.138 15.208L62.1206 15.1954L60.4343 17.5276ZM58.8525 15.8549L61.438 14.5909L61.4157 14.5453L61.3918 14.5006L58.8525 15.8549ZM60.4888 9.40057L58.8973 7.00272L58.8924 7.00598L60.4888 9.40057ZM71.1975 9.2733L69.7964 11.7871L74.0755 14.1722V9.2733H71.1975ZM71.1975 8.36424V5.48631H68.3196V8.36424H71.1975ZM76.7792 8.36424H79.6571V5.48631H76.7792V8.36424ZM76.7792 13.4913V16.3693H79.6571V13.4913H76.7792ZM71.6157 13.4913L69.6304 15.5749L70.4641 16.3693H71.6157V13.4913ZM65.5614 13.455L66.4144 10.7064L66.3564 10.6884L66.2978 10.6729L65.5614 13.455ZM69.0521 14.2368L69.6458 11.4207L69.6398 11.4195L69.0521 14.2368ZM74.3065 15.6549L75.3256 12.9634L75.317 12.9602L74.3065 15.6549ZM77.1246 17.5276L79.3753 15.734L79.3668 15.7234L79.3582 15.7128L77.1246 17.5276ZM75.7792 24.8909L77.3255 27.3181L77.3306 27.3149L75.7792 24.8909ZM64.6341 25.1273L65.9695 22.5779L61.7562 20.371V25.1273H64.6341ZM64.6341 23.3402H58.9798V29.0961H64.6341V23.3402ZM61.8577 26.2182V20.6184H56.1018V26.2182H61.8577ZM58.9798 23.4963H64.2705V17.7404H58.9798V23.4963ZM62.1831 22.5996C63.9539 24.4653 66.1526 25.6417 68.7249 25.6417V19.8858C68.0731 19.8858 67.3021 19.632 66.3579 18.6371L62.1831 22.5996ZM68.7249 25.6417C69.6478 25.6417 70.7112 25.5594 71.6449 25.1762C72.1389 24.9734 72.7477 24.6253 73.2429 24.0156C73.7765 23.3585 74.0391 22.5661 74.0391 21.7638H68.2832C68.2832 21.2948 68.4443 20.794 68.7749 20.387C69.067 20.0272 69.3713 19.8875 69.4593 19.8514C69.5513 19.8136 69.5522 19.8291 69.4006 19.8499C69.2588 19.8693 69.0392 19.8858 68.7249 19.8858V25.6417ZM74.0391 21.7638C74.0391 21.0686 73.8496 20.3486 73.4154 19.7046C72.9967 19.0839 72.4513 18.6819 71.9561 18.4258L69.3117 23.5382C69.168 23.4639 68.8862 23.2831 68.6433 22.923C68.3848 22.5396 68.2832 22.1196 68.2832 21.7638H74.0391ZM71.9882 18.4426C71.5205 18.1932 70.9327 18.0044 70.4543 17.863C69.9057 17.7009 69.2207 17.5227 68.4156 17.3292L67.0706 22.9257C67.8291 23.108 68.4077 23.2601 68.8227 23.3828C69.0301 23.4441 69.1762 23.4921 69.2721 23.5267C69.3856 23.5676 69.3661 23.5675 69.2796 23.5213L71.9882 18.4426ZM68.4913 17.3485C67.2556 17.0158 65.883 16.628 64.3723 16.1844L62.7506 21.707C64.2943 22.1604 65.7094 22.5604 66.9949 22.9065L68.4913 17.3485ZM64.3487 16.1775C63.2281 15.8588 62.5436 15.5106 62.1552 15.2208L58.7134 19.8343C59.8521 20.6839 61.2524 21.2811 62.7742 21.7139L64.3487 16.1775ZM62.1206 15.1954C61.8358 14.9895 61.6515 14.8237 61.539 14.7047C61.4251 14.5843 61.415 14.5438 61.438 14.5909L56.267 17.1189C56.8298 18.2702 57.7836 19.1624 58.7479 19.8597L62.1206 15.1954ZM61.3918 14.5006C61.3984 14.5129 61.2941 14.3127 61.2941 13.7095H55.5382C55.5382 14.8759 55.7248 16.106 56.3131 17.2092L61.3918 14.5006ZM61.2941 13.7095C61.2941 12.5254 61.6537 12.0828 62.0852 11.7952L58.8924 7.00598C56.5604 8.56065 55.5382 10.9907 55.5382 13.7095H61.2941ZM62.0803 11.7984C62.8612 11.2801 64.0049 10.9149 65.7068 10.9149V5.15905C63.1906 5.15905 60.8557 5.70289 58.8973 7.00272L62.0803 11.7984ZM65.7068 10.9149C67.5362 10.9149 68.8524 11.2609 69.7964 11.7871L72.5987 6.75948C70.5852 5.63723 68.2409 5.15905 65.7068 5.15905V10.9149ZM74.0755 9.2733V8.36424H68.3196V9.2733H74.0755ZM71.1975 11.2422H76.7792V5.48631H71.1975V11.2422ZM73.9012 8.36424V13.4913H79.6571V8.36424H73.9012ZM76.7792 10.6134H71.6157V16.3693H76.7792V10.6134ZM73.601 11.4078C71.7827 9.67527 69.5452 8.7771 67.034 8.7771V14.533C68.0621 14.533 68.8791 14.859 69.6304 15.5749L73.601 11.4078ZM67.034 8.7771C66.1766 8.7771 65.0882 8.8749 64.1173 9.38989C63.5891 9.67007 63.0422 10.103 62.6371 10.7476C62.2258 11.4022 62.0653 12.1092 62.0653 12.7641H67.8211C67.8211 13.0492 67.7477 13.4329 67.5106 13.8102C67.2798 14.1775 66.9942 14.3794 66.8145 14.4747C66.6494 14.5623 66.5596 14.5691 66.6204 14.5583C66.6743 14.5488 66.8047 14.533 67.034 14.533V8.7771ZM62.0653 12.7641C62.0653 13.5438 62.3127 14.4038 62.953 15.1194C63.5483 15.7848 64.2747 16.0914 64.8249 16.2371L66.2978 10.6729C66.4359 10.7094 66.8532 10.8463 67.2425 11.2814C67.6767 11.7668 67.8211 12.3359 67.8211 12.7641H62.0653ZM64.7083 16.2036C65.2263 16.3643 66.5661 16.6581 68.4645 17.0541L69.6398 11.4195C68.6577 11.2146 67.8885 11.0497 67.3266 10.9239C67.0453 10.8609 66.8245 10.8096 66.6595 10.7693C66.4789 10.7252 66.4126 10.7058 66.4144 10.7064L64.7083 16.2036ZM68.4585 17.0528C70.6426 17.5132 72.2327 17.9509 73.296 18.3496L75.317 12.9602C73.8591 12.4135 71.9463 11.9057 69.6458 11.4207L68.4585 17.0528ZM73.2874 18.3464C74.2149 18.6975 74.6711 19.0717 74.891 19.3424L79.3582 15.7128C78.3175 14.4319 76.895 13.5577 75.3256 12.9634L73.2874 18.3464ZM74.8739 19.3211C75.0312 19.5185 75.1739 19.8127 75.1739 20.382H80.9298C80.9298 18.6968 80.4543 17.0881 79.3753 15.734L74.8739 19.3211ZM75.1739 20.382C75.1739 21.5897 74.7955 22.1037 74.2278 22.4669L77.3306 27.3149C79.7931 25.7389 80.9298 23.2469 80.9298 20.382H75.1739ZM74.2328 22.4638C73.2907 23.064 72.0042 23.4493 70.2157 23.4493V29.2052C72.8392 29.2052 75.2617 28.633 77.3255 27.3181L74.2328 22.4638ZM70.2157 23.4493C68.3635 23.4493 66.9876 23.1112 65.9695 22.5779L63.2987 27.6767C65.335 28.7433 67.6803 29.2052 70.2157 29.2052V23.4493ZM61.7562 25.1273V26.2182H67.512V25.1273H61.7562ZM111.923 15.4731V12.5952H109.045V15.4731H111.923ZM111.923 20.4547H109.045V23.3327H111.923V20.4547ZM117.16 19.9093L118.619 22.3899L118.63 22.3835L118.64 22.3771L117.16 19.9093ZM117.25 16.0731L118.985 13.7769L118.969 13.7645L118.952 13.7523L117.25 16.0731ZM111.923 6.25522V3.37729H109.045V6.25522H111.923ZM111.923 10.8732H109.045V13.7512H111.923V10.8732ZM116.978 10.2369L118.928 12.3538L118.956 12.3274L118.984 12.3004L116.978 10.2369ZM99.942 26H97.0641V28.8779H99.942V26ZM99.942 19.9457V17.0677H97.0641V19.9457H99.942ZM102.142 19.9457V22.8236H105.02V19.9457H102.142ZM102.142 6.7643H105.02V3.88636H102.142V6.7643ZM99.942 6.7643H97.0641V9.64223H99.942V6.7643ZM99.942 0.709957V-2.16798H97.0641V0.709957H99.942ZM122.432 1.23721L123.056 -1.57219L123.042 -1.57533L123.028 -1.57833L122.432 1.23721ZM126.287 3.40077L128.484 1.5418L128.473 1.52974L128.463 1.51779L126.287 3.40077ZM126.359 10.6733L124.367 8.59601L124.366 8.59715L126.359 10.6733ZM123.05 12.4914L122.322 9.70719L112.393 12.3054L122.225 15.2484L123.05 12.4914ZM127.159 14.964L129.351 13.0988L129.343 13.0891L127.159 14.964ZM126.977 23.1274L129.087 25.0848L129.092 25.0794L129.097 25.074L126.977 23.1274ZM122.487 25.4364L121.947 22.6096L121.934 22.6119L121.922 22.6143L122.487 25.4364ZM109.045 15.4731V20.4547H114.801V15.4731H109.045ZM111.923 23.3327H114.123V17.5768H111.923V23.3327ZM114.123 23.3327C115.636 23.3327 117.306 23.1624 118.619 22.3899L115.7 17.4287C115.782 17.3805 115.732 17.4312 115.428 17.4858C115.138 17.5378 114.713 17.5768 114.123 17.5768V23.3327ZM118.64 22.3771C120.376 21.3357 120.947 19.5647 120.947 17.9821H115.191C115.191 18.1393 115.163 18.0861 115.238 17.927C115.278 17.8442 115.337 17.7486 115.422 17.6548C115.507 17.561 115.597 17.4905 115.679 17.4415L118.64 22.3771ZM120.947 17.9821C120.947 16.4773 120.434 14.8716 118.985 13.7769L115.516 18.3693C115.457 18.3254 115.396 18.2669 115.34 18.1947C115.283 18.1227 115.244 18.0522 115.219 17.9931C115.169 17.8773 115.191 17.8497 115.191 17.9821H120.947ZM118.952 13.7523C118.189 13.1928 117.315 12.9336 116.587 12.7956C115.823 12.6506 114.975 12.5952 114.087 12.5952V18.351C114.762 18.351 115.224 18.3955 115.514 18.4506C115.841 18.5125 115.766 18.5534 115.549 18.3938L118.952 13.7523ZM114.087 12.5952H111.923V18.351H114.087V12.5952ZM109.045 6.25522V10.8732H114.801V6.25522H109.045ZM111.923 13.7512H114.087V7.99531H111.923V13.7512ZM114.087 13.7512C114.938 13.7512 115.771 13.6915 116.528 13.5248C117.247 13.3665 118.166 13.055 118.928 12.3538L115.028 8.12005C115.19 7.97048 115.324 7.9054 115.364 7.88773C115.404 7.86985 115.389 7.88201 115.291 7.90352C115.085 7.94892 114.702 7.99531 114.087 7.99531V13.7512ZM118.984 12.3004C120.055 11.2591 120.51 9.91749 120.51 8.56423H114.754C114.754 8.60536 114.748 8.55453 114.789 8.45185C114.832 8.34173 114.9 8.24276 114.972 8.17344L118.984 12.3004ZM120.51 8.56423C120.51 7.25872 120.049 6.07356 119.229 5.10531L114.835 8.82327C114.841 8.82944 114.813 8.79781 114.788 8.72932C114.761 8.65914 114.754 8.59743 114.754 8.56423H120.51ZM119.229 5.10531C118.4 4.12478 117.242 3.77554 116.516 3.61912C115.686 3.44038 114.737 3.37729 113.742 3.37729V9.13316C114.54 9.13316 115.036 9.18824 115.303 9.24585C115.432 9.27363 115.439 9.28759 115.37 9.25497C115.305 9.22418 115.074 9.10518 114.835 8.82327L119.229 5.10531ZM113.742 3.37729H111.923V9.13316H113.742V3.37729ZM114.251 23.1221H99.942V28.8779H114.251V23.1221ZM102.82 26V19.9457H97.0641V26H102.82ZM99.942 22.8236H102.142V17.0677H99.942V22.8236ZM105.02 19.9457V6.7643H99.264V19.9457H105.02ZM102.142 3.88636H99.942V9.64223H102.142V3.88636ZM102.82 6.7643V0.709957H97.0641V6.7643H102.82ZM99.942 3.58789H115.396V-2.16798H99.942V3.58789ZM115.396 3.58789C118.356 3.58789 120.467 3.76298 121.836 4.05276L123.028 -1.57833C121.076 -1.99156 118.497 -2.16798 115.396 -2.16798V3.58789ZM121.808 4.04661C122.95 4.30042 123.649 4.75058 124.11 5.28376L128.463 1.51779C127.058 -0.106533 125.187 -1.09875 123.056 -1.57219L121.808 4.04661ZM124.09 5.25975C124.576 5.83461 124.809 6.45804 124.809 7.25519H130.564C130.564 5.1191 129.864 3.17292 128.484 1.5418L124.09 5.25975ZM124.809 7.25519C124.809 8.04334 124.591 8.3814 124.367 8.59601L128.351 12.7505C129.897 11.2682 130.564 9.32755 130.564 7.25519H124.809ZM124.366 8.59715C123.834 9.10806 123.175 9.4839 122.322 9.70719L123.779 15.2756C125.519 14.8201 127.066 13.9838 128.352 12.7494L124.366 8.59715ZM122.225 15.2484C123.618 15.6654 124.461 16.2398 124.976 16.8389L129.343 13.0891C127.942 11.458 126.046 10.3839 123.876 9.7343L122.225 15.2484ZM124.968 16.8293C125.521 17.4792 125.736 18.1053 125.736 18.8002H131.492C131.492 16.6589 130.737 14.7276 129.351 13.0988L124.968 16.8293ZM125.736 18.8002C125.736 19.8175 125.434 20.5535 124.858 21.1807L129.097 25.074C130.703 23.3255 131.492 21.1768 131.492 18.8002H125.736ZM124.868 21.1699C124.275 21.8089 123.375 22.3366 121.947 22.6096L123.027 28.2632C125.404 27.8089 127.498 26.7973 129.087 25.0848L124.868 21.1699ZM121.922 22.6143C120.327 22.9335 117.808 23.1221 114.251 23.1221V28.8779C117.917 28.8779 120.889 28.6908 123.051 28.2584L121.922 22.6143ZM146.413 14.0731L148.739 12.3781L148.73 12.3653L148.72 12.3526L146.413 14.0731ZM135.032 23.8364L136.84 21.5976L136.833 21.5916L135.032 23.8364ZM138.099 17.1276C138.099 18.79 138.381 20.5539 139.391 21.9658C140.528 23.5553 142.235 24.2235 143.995 24.2235V18.4677C143.826 18.4677 143.816 18.4386 143.89 18.4733C143.98 18.515 144.047 18.5811 144.072 18.6164C144.085 18.634 144.026 18.5591 143.965 18.3053C143.904 18.0502 143.855 17.6683 143.855 17.1276H138.099ZM143.995 24.2235C145.761 24.2235 147.505 23.5935 148.695 22.0119C149.768 20.5846 150.073 18.7874 150.073 17.0912H144.317C144.317 17.6293 144.265 18.0051 144.203 18.2526C144.142 18.497 144.083 18.5679 144.095 18.5521C144.119 18.5202 144.174 18.473 144.229 18.4486C144.267 18.4316 144.213 18.4677 143.995 18.4677V24.2235ZM150.073 17.0912C150.073 15.4562 149.751 13.7669 148.739 12.3781L144.087 15.7682C144.118 15.8096 144.317 16.1324 144.317 17.0912H150.073ZM148.72 12.3526C147.591 10.8387 145.945 10.1225 144.159 10.1225V15.8784C144.224 15.8784 144.256 15.8844 144.26 15.8853C144.262 15.8858 144.244 15.8821 144.213 15.8674C144.181 15.8524 144.152 15.8329 144.128 15.813C144.105 15.7937 144.099 15.7834 144.106 15.7936L148.72 12.3526ZM144.159 10.1225C142.392 10.1225 140.791 10.8199 139.633 12.2201L144.067 15.8898C144.088 15.8642 144.097 15.8583 144.092 15.8626C144.086 15.8673 144.074 15.8752 144.059 15.8819C144.044 15.8886 144.039 15.8886 144.05 15.8865C144.061 15.8841 144.096 15.8784 144.159 15.8784V10.1225ZM139.633 12.2201C138.462 13.6349 138.099 15.4201 138.099 17.1276H143.855C143.855 16.6543 143.907 16.3361 143.964 16.1367C143.991 16.0397 144.018 15.977 144.037 15.9403C144.055 15.9045 144.066 15.8906 144.067 15.8898L139.633 12.2201ZM134.601 17.0912C134.601 15.4428 135.238 14.0456 136.816 12.7569L133.175 8.29875C130.39 10.5735 128.845 13.5519 128.845 17.0912H134.601ZM136.816 12.7569C138.341 11.5116 140.574 10.7331 143.831 10.7331V4.97723C139.671 4.97723 136.014 5.98049 133.175 8.29875L136.816 12.7569ZM143.831 10.7331C147.127 10.7331 149.515 11.4894 151.235 12.755L154.646 8.11879C151.687 5.94205 148.003 4.97723 143.831 4.97723V10.7331ZM151.235 12.755C152.881 13.9662 153.571 15.3689 153.571 17.1639H159.327C159.327 13.4319 157.678 10.3499 154.646 8.11879L151.235 12.755ZM153.571 17.1639C153.571 18.887 152.91 20.308 151.307 21.588L154.9 26.0849C157.759 23.8013 159.327 20.774 159.327 17.1639H153.571ZM151.307 21.588C149.716 22.8591 147.462 23.6311 144.268 23.6311V29.387C148.394 29.387 152.031 28.3773 154.9 26.0849L151.307 21.588ZM144.268 23.6311C140.719 23.6311 138.365 22.8297 136.84 21.5976L133.223 26.0753C136.11 28.4067 139.914 29.387 144.268 29.387V23.6311ZM136.833 21.5916C135.278 20.3447 134.601 18.9087 134.601 17.0912H128.845C128.845 20.7281 130.373 23.7889 133.231 26.0813L136.833 21.5916ZM173.285 26V28.8779H176.163V26H173.285ZM159.322 26H156.444V28.8779H159.322V26ZM159.322 20.4547V17.5768H156.444V20.4547H159.322ZM161.594 20.4547V23.3327H164.472V20.4547H161.594ZM161.594 13.9095H164.472V11.0316H161.594V13.9095ZM159.322 13.9095H156.444V16.7874H159.322V13.9095ZM159.322 8.36424V5.48631H156.444V8.36424H159.322ZM170.74 8.36424H173.618V5.48631H170.74V8.36424ZM170.74 10.6005H167.862V16.4125L172.484 12.8894L170.74 10.6005ZM183.048 9.90964L185.184 7.98097L185.179 7.97529L185.174 7.96963L183.048 9.90964ZM184.739 20.4547H181.861V23.3327H184.739V20.4547ZM186.83 20.4547H189.708V17.5768H186.83V20.4547ZM186.83 26V28.8779H189.708V26H186.83ZM175.594 26H172.716V28.8779H175.594V26ZM175.158 14.7822L177.697 13.4279L177.667 13.3723L177.635 13.3181L175.158 14.7822ZM170.74 14.9095L169.15 12.5101L167.862 13.3637V14.9095H170.74ZM170.74 20.4547H167.862V23.3327H170.74V20.4547ZM173.285 20.4547H176.163V17.5768H173.285V20.4547ZM173.285 23.1221H159.322V28.8779H173.285V23.1221ZM162.2 26V20.4547H156.444V26H162.2ZM159.322 23.3327H161.594V17.5768H159.322V23.3327ZM164.472 20.4547V13.9095H158.717V20.4547H164.472ZM161.594 11.0316H159.322V16.7874H161.594V11.0316ZM162.2 13.9095V8.36424H156.444V13.9095H162.2ZM159.322 11.2422H170.74V5.48631H159.322V11.2422ZM167.862 8.36424V10.6005H173.618V8.36424H167.862ZM172.484 12.8894C174.277 11.5232 176.08 10.9149 177.958 10.9149V5.15905C174.696 5.15905 171.687 6.2598 168.995 8.31161L172.484 12.8894ZM177.958 10.9149C179.686 10.9149 180.494 11.3799 180.922 11.8497L185.174 7.96963C183.324 5.9425 180.738 5.15905 177.958 5.15905V10.9149ZM180.912 11.8383C181.336 12.3081 181.861 13.4471 181.861 15.9276H187.617C187.617 12.8811 187.015 10.0081 185.184 7.98097L180.912 11.8383ZM181.861 15.9276V20.4547H187.617V15.9276H181.861ZM184.739 23.3327H186.83V17.5768H184.739V23.3327ZM183.952 20.4547V26H189.708V20.4547H183.952ZM186.83 23.1221H175.594V28.8779H186.83V23.1221ZM178.472 26V18.1639H172.716V26H178.472ZM178.472 18.1639C178.472 17.2409 178.433 16.3985 178.339 15.6684C178.253 14.9992 178.09 14.1658 177.697 13.4279L172.618 16.1365C172.552 16.0127 172.545 15.9566 172.564 16.0268C172.58 16.0881 172.605 16.2087 172.631 16.405C172.682 16.8022 172.716 17.3778 172.716 18.1639H178.472ZM177.635 13.3181C176.597 11.5611 174.779 11.1043 173.358 11.1043V16.8602C173.53 16.8602 173.475 16.8887 173.302 16.8121C173.21 16.771 173.093 16.7035 172.974 16.599C172.853 16.4934 172.754 16.3716 172.68 16.2463L177.635 13.3181ZM173.358 11.1043C171.804 11.1043 170.382 11.6942 169.15 12.5101L172.329 17.3088C172.963 16.8885 173.287 16.8602 173.358 16.8602V11.1043ZM167.862 14.9095V20.4547H173.618V14.9095H167.862ZM170.74 23.3327H173.285V17.5768H170.74V23.3327ZM170.407 20.4547V26H176.163V20.4547H170.407ZM201.702 26V28.8779H204.58V26H201.702ZM189.212 26H186.334V28.8779H189.212V26ZM189.212 20.4547V17.5768H186.334V20.4547H189.212ZM191.03 20.4547V23.3327H193.908V20.4547H191.03ZM191.03 13.9095H193.908V11.0316H191.03V13.9095ZM189.212 13.9095H186.334V16.7874H189.212V13.9095ZM189.212 8.36424V5.48631H186.334V8.36424H189.212ZM200.175 8.36424H203.053V5.48631H200.175V8.36424ZM200.175 20.4547H197.297V23.3327H200.175V20.4547ZM201.702 20.4547H204.58V17.5768H201.702V20.4547ZM191.739 1.07358L193.206 3.54944L193.213 3.54543L193.22 3.54139L191.739 1.07358ZM198.884 1.10994L200.532 -1.24927L200.514 -1.26212L200.495 -1.27468L198.884 1.10994ZM198.83 5.63706L197.339 3.17497L197.33 3.18058L198.83 5.63706ZM191.702 5.70979L193.078 3.18204L193.066 3.17529L193.053 3.16865L191.702 5.70979ZM201.702 23.1221H189.212V28.8779H201.702V23.1221ZM192.09 26V20.4547H186.334V26H192.09ZM189.212 23.3327H191.03V17.5768H189.212V23.3327ZM193.908 20.4547V13.9095H188.152V20.4547H193.908ZM191.03 11.0316H189.212V16.7874H191.03V11.0316ZM192.09 13.9095V8.36424H186.334V13.9095H192.09ZM189.212 11.2422H200.175V5.48631H189.212V11.2422ZM197.297 8.36424V20.4547H203.053V8.36424H197.297ZM200.175 23.3327H201.702V17.5768H200.175V23.3327ZM198.824 20.4547V26H204.58V20.4547H198.824ZM193.144 3.38259C193.144 3.39161 193.143 3.42996 193.127 3.48644C193.11 3.54392 193.086 3.59552 193.061 3.63475C193.011 3.71346 193.008 3.6666 193.206 3.54944L190.272 -1.40228C188.613 -0.419302 187.388 1.19818 187.388 3.38259H193.144ZM193.22 3.54139C193.638 3.29039 194.294 3.07882 195.339 3.07882V-2.67705C193.523 -2.67705 191.779 -2.30682 190.258 -1.39423L193.22 3.54139ZM195.339 3.07882C196.43 3.07882 196.993 3.30578 197.273 3.49457L200.495 -1.27468C198.981 -2.29798 197.181 -2.67705 195.339 -2.67705V3.07882ZM197.236 3.46916C197.418 3.59648 197.431 3.65156 197.399 3.59723C197.383 3.56965 197.364 3.5281 197.35 3.47693C197.336 3.42602 197.333 3.3857 197.333 3.36441H203.089C203.089 1.32748 201.996 -0.226835 200.532 -1.24927L197.236 3.46916ZM197.333 3.36441C197.333 3.37138 197.333 3.34593 197.345 3.29865C197.359 3.24995 197.38 3.1997 197.407 3.15561C197.463 3.06267 197.488 3.08506 197.339 3.17499L200.32 8.09913C201.974 7.09769 203.089 5.47008 203.089 3.36441H197.333ZM197.33 3.18058C196.964 3.40409 196.346 3.61364 195.302 3.61364V9.36951C197.095 9.36951 198.828 9.00939 200.329 8.09354L197.33 3.18058ZM195.302 3.61364C194.191 3.61364 193.499 3.41114 193.078 3.18204L190.327 8.23753C191.821 9.05083 193.529 9.36951 195.302 9.36951V3.61364ZM193.053 3.16865C192.993 3.13675 192.98 3.12129 192.993 3.13299C193.008 3.14641 193.041 3.17995 193.074 3.23466C193.108 3.28988 193.129 3.34282 193.139 3.38152C193.149 3.41781 193.144 3.42236 193.144 3.38259H187.388C187.388 4.35937 187.618 5.35322 188.176 6.2577C188.731 7.15604 189.508 7.80235 190.352 8.25092L193.053 3.16865ZM218.629 26V28.8779H221.507V26H218.629ZM204.357 26H201.479V28.8779H204.357V26ZM204.357 20.4547V17.5768H201.479V20.4547H204.357ZM206.593 20.4547V23.3327H209.471V20.4547H206.593ZM206.593 13.9095H209.471V11.0316H206.593V13.9095ZM204.357 13.9095H201.479V16.7874H204.357V13.9095ZM204.357 8.36424V5.48631H201.479V8.36424H204.357ZM206.593 8.36424V11.2422H209.471V8.36424H206.593ZM207.775 3.50986L205.429 1.84202L205.424 1.8492L207.775 3.50986ZM210.865 1.03722L212.011 3.67729L212.02 3.67328L210.865 1.03722ZM221.029 0.273609H223.907V-2.49678L221.138 -2.60224L221.029 0.273609ZM221.029 5.20071L220.746 8.06476L223.907 8.37634V5.20071H221.029ZM216.811 5.40071L215.579 2.79981L215.564 2.80656L215.55 2.81347L216.811 5.40071ZM215.883 6.32795L218.524 7.47223L218.553 7.40602L218.578 7.33846L215.883 6.32795ZM215.647 8.36424H212.769V11.2422H215.647V8.36424ZM219.029 8.36424H221.907V5.48631H219.029V8.36424ZM219.029 13.9095V16.7874H221.907V13.9095H219.029ZM215.647 13.9095V11.0316H212.769V13.9095H215.647ZM215.647 20.4547H212.769V23.3327H215.647V20.4547ZM218.629 20.4547H221.507V17.5768H218.629V20.4547ZM218.629 23.1221H204.357V28.8779H218.629V23.1221ZM207.235 26V20.4547H201.479V26H207.235ZM204.357 23.3327H206.593V17.5768H204.357V23.3327ZM209.471 20.4547V13.9095H203.715V20.4547H209.471ZM206.593 11.0316H204.357V16.7874H206.593V11.0316ZM207.235 13.9095V8.36424H201.479V13.9095H207.235ZM204.357 11.2422H206.593V5.48631H204.357V11.2422ZM209.471 8.36424V7.94607H203.715V8.36424H209.471ZM209.471 7.94607C209.471 6.4944 209.782 5.65627 210.125 5.17052L205.424 1.8492C204.192 3.59368 203.715 5.71302 203.715 7.94607H209.471ZM210.12 5.17769C210.578 4.53436 211.184 4.03621 212.011 3.67728L209.72 -1.60284C207.977 -0.846655 206.523 0.303614 205.429 1.84203L210.12 5.17769ZM212.02 3.67328C212.71 3.37128 214.29 3.07882 217.156 3.07882V-2.67705C214.18 -2.67705 211.567 -2.41196 209.711 -1.59884L212.02 3.67328ZM217.156 3.07882C218.43 3.07882 219.684 3.1024 220.919 3.14946L221.138 -2.60224C219.828 -2.65215 218.501 -2.67705 217.156 -2.67705V3.07882ZM218.151 0.273609V5.20071H223.907V0.273609H218.151ZM221.311 2.33666C220.385 2.24531 219.529 2.19551 218.756 2.19551V7.95138C219.292 7.95138 219.952 7.98642 220.746 8.06476L221.311 2.33666ZM218.756 2.19551C217.734 2.19551 216.595 2.31859 215.579 2.79981L218.043 8.0016C217.976 8.03323 217.986 8.01592 218.12 7.99331C218.251 7.97131 218.457 7.95138 218.756 7.95138V2.19551ZM215.55 2.81347C214.601 3.27582 213.657 4.06783 213.189 5.31744L218.578 7.33846C218.499 7.55029 218.379 7.72065 218.259 7.84024C218.148 7.95198 218.065 7.99077 218.071 7.98794L215.55 2.81347ZM213.243 5.18366C212.82 6.15923 212.769 7.39925 212.769 8.36424H218.525C218.525 7.93319 218.543 7.63369 218.565 7.44156C218.576 7.34763 218.585 7.3028 218.587 7.29615C218.589 7.28407 218.575 7.35406 218.524 7.47223L213.243 5.18366ZM215.647 11.2422H219.029V5.48631H215.647V11.2422ZM216.151 8.36424V13.9095H221.907V8.36424H216.151ZM219.029 11.0316H215.647V16.7874H219.029V11.0316ZM212.769 13.9095V20.4547H218.525V13.9095H212.769ZM215.647 23.3327H218.629V17.5768H215.647V23.3327ZM215.751 20.4547V26H221.507V20.4547H215.751ZM233.519 26V28.8779H236.397V26H233.519ZM221.029 26H218.151V28.8779H221.029V26ZM221.029 20.4547V17.5768H218.151V20.4547H221.029ZM222.847 20.4547V23.3327H225.725V20.4547H222.847ZM222.847 13.9095H225.725V11.0316H222.847V13.9095ZM221.029 13.9095H218.151V16.7874H221.029V13.9095ZM221.029 8.36424V5.48631H218.151V8.36424H221.029ZM231.992 8.36424H234.87V5.48631H231.992V8.36424ZM231.992 20.4547H229.114V23.3327H231.992V20.4547ZM233.519 20.4547H236.397V17.5768H233.519V20.4547ZM223.556 1.07358L225.023 3.54944L225.03 3.54543L225.037 3.54139L223.556 1.07358ZM230.701 1.10994L232.349 -1.24927L232.331 -1.26212L232.312 -1.27468L230.701 1.10994ZM230.647 5.63706L229.156 3.17497L229.147 3.18058L230.647 5.63706ZM223.52 5.70979L224.895 3.18204L224.883 3.17529L224.871 3.16865L223.52 5.70979ZM233.519 23.1221H221.029V28.8779H233.519V23.1221ZM223.907 26V20.4547H218.151V26H223.907ZM221.029 23.3327H222.847V17.5768H221.029V23.3327ZM225.725 20.4547V13.9095H219.969V20.4547H225.725ZM222.847 11.0316H221.029V16.7874H222.847V11.0316ZM223.907 13.9095V8.36424H218.151V13.9095H223.907ZM221.029 11.2422H231.992V5.48631H221.029V11.2422ZM229.114 8.36424V20.4547H234.87V8.36424H229.114ZM231.992 23.3327H233.519V17.5768H231.992V23.3327ZM230.641 20.4547V26H236.397V20.4547H230.641ZM224.961 3.38259C224.961 3.39161 224.96 3.42996 224.944 3.48644C224.927 3.54392 224.903 3.59552 224.878 3.63475C224.828 3.71346 224.825 3.6666 225.023 3.54944L222.089 -1.40228C220.43 -0.419302 219.205 1.19818 219.205 3.38259H224.961ZM225.037 3.54139C225.455 3.29039 226.111 3.07882 227.156 3.07882V-2.67705C225.34 -2.67705 223.596 -2.30682 222.075 -1.39423L225.037 3.54139ZM227.156 3.07882C228.247 3.07882 228.811 3.30578 229.09 3.49457L232.312 -1.27468C230.798 -2.29798 228.998 -2.67705 227.156 -2.67705V3.07882ZM229.053 3.46916C229.235 3.59648 229.248 3.65156 229.216 3.59723C229.2 3.56965 229.181 3.5281 229.167 3.47693C229.153 3.42602 229.15 3.3857 229.15 3.36441H234.906C234.906 1.32748 233.813 -0.226835 232.349 -1.24927L229.053 3.46916ZM229.15 3.36441C229.15 3.37138 229.15 3.34593 229.163 3.29865C229.176 3.24995 229.197 3.1997 229.224 3.15561C229.28 3.06267 229.305 3.08506 229.156 3.17499L232.137 8.09913C233.791 7.09769 234.906 5.47008 234.906 3.36441H229.15ZM229.147 3.18058C228.781 3.40409 228.163 3.61364 227.119 3.61364V9.36951C228.913 9.36951 230.646 9.00939 232.146 8.09354L229.147 3.18058ZM227.119 3.61364C226.008 3.61364 225.316 3.41114 224.895 3.18204L222.144 8.23753C223.638 9.05083 225.346 9.36951 227.119 9.36951V3.61364ZM224.871 3.16865C224.811 3.13675 224.797 3.12129 224.81 3.13299C224.825 3.14641 224.858 3.17995 224.891 3.23466C224.925 3.28988 224.946 3.34282 224.956 3.38152C224.966 3.41781 224.961 3.42236 224.961 3.38259H219.205C219.205 4.35937 219.435 5.35322 219.993 6.2577C220.548 7.15604 221.325 7.80235 222.169 8.25092L224.871 3.16865ZM252.373 18.7639L253.002 15.9555L250.105 15.3066L249.547 18.2223L252.373 18.7639ZM259.191 20.2911L261.955 21.093L262.808 18.1521L259.82 17.4828L259.191 20.2911ZM255.518 24.8728L256.95 27.3696L256.957 27.3656L256.964 27.3616L255.518 24.8728ZM239.483 10.6187L237.592 8.44872L237.591 8.44957L239.483 10.6187ZM252.755 9.54602L251.051 11.8655L255.633 15.2308V9.54602H252.755ZM252.755 8.36424V5.48631H249.877V8.36424H252.755ZM258.337 8.36424H261.215V5.48631H258.337V8.36424ZM258.337 15.8913V18.7692H261.215V15.8913H258.337ZM252.755 15.8913L250.033 16.8259L250.7 18.7692H252.755V15.8913ZM246.664 14.164L244.311 12.507L244.3 12.5223L244.29 12.5378L246.664 14.164ZM246.737 20.6184L248.967 18.7997L248.959 18.7895L248.951 18.7793L246.737 20.6184ZM251.744 21.5722L258.562 23.0994L259.82 17.4828L253.002 15.9555L251.744 21.5722ZM256.427 19.4892C256.078 20.6942 255.356 21.6392 254.073 22.384L256.964 27.3616C259.438 25.9246 261.165 23.8151 261.955 21.093L256.427 19.4892ZM254.087 22.376C252.725 23.1571 250.898 23.6311 248.464 23.6311V29.387C251.63 29.387 254.507 28.7701 256.95 27.3696L254.087 22.376ZM248.464 23.6311C245.165 23.6311 242.945 22.8869 241.477 21.7353L237.925 26.2648C240.723 28.4586 244.346 29.387 248.464 29.387V23.6311ZM241.477 21.7353C240.069 20.6314 239.379 19.2393 239.379 17.273H233.623C233.623 20.9308 235.066 24.0233 237.925 26.2648L241.477 21.7353ZM239.379 17.273C239.379 15.378 240.031 13.9592 241.374 12.7878L237.591 8.44957C234.959 10.7448 233.623 13.7622 233.623 17.273H239.379ZM241.373 12.7887C242.753 11.5869 244.53 10.9149 246.919 10.9149V5.15905C243.344 5.15905 240.164 6.20816 237.592 8.44872L241.373 12.7887ZM246.919 10.9149C249.109 10.9149 250.363 11.3597 251.051 11.8655L254.459 7.22654C252.408 5.72026 249.771 5.15905 246.919 5.15905V10.9149ZM255.633 9.54602V8.36424H249.877V9.54602H255.633ZM252.755 11.2422H258.337V5.48631H252.755V11.2422ZM255.459 8.36424V15.8913H261.215V8.36424H255.459ZM258.337 13.0133H252.755V18.7692H258.337V13.0133ZM255.477 14.9566C255.026 13.6424 254.328 12.3851 253.236 11.4458C252.092 10.4615 250.708 9.99524 249.246 9.99524V15.7511C249.362 15.7511 249.413 15.768 249.425 15.7722C249.434 15.7754 249.45 15.7813 249.483 15.8096C249.56 15.8763 249.793 16.1281 250.033 16.8259L255.477 14.9566ZM249.246 9.99524C247.26 9.99524 245.493 10.8288 244.311 12.507L249.017 15.8211C249.049 15.7767 249.067 15.7605 249.068 15.7596C249.068 15.7595 249.061 15.765 249.051 15.77C249.042 15.7748 249.045 15.7713 249.07 15.7659C249.096 15.7601 249.152 15.7511 249.246 15.7511V9.99524ZM244.29 12.5378C243.301 13.9809 242.877 15.6454 242.877 17.3821H248.633C248.633 16.5977 248.815 16.1169 249.039 15.7903L244.29 12.5378ZM242.877 17.3821C242.877 19.1959 243.314 21.0013 244.523 22.4574L248.951 18.7793C248.851 18.6597 248.633 18.3076 248.633 17.3821H242.877ZM244.507 22.437C245.704 23.9056 247.364 24.6781 249.246 24.6781V18.9222C249.172 18.9222 249.127 18.9152 249.104 18.9104C249.082 18.9057 249.073 18.9016 249.072 18.9011C249.071 18.9007 249.065 18.898 249.052 18.8872C249.038 18.8759 249.009 18.8501 248.967 18.7997L244.507 22.437ZM249.246 24.6781C250.708 24.6781 252.157 24.2205 253.305 23.1059C254.394 22.049 254.939 20.6637 255.2 19.3055L249.547 18.2223C249.419 18.8882 249.249 19.0211 249.296 18.9763C249.324 18.9484 249.367 18.9226 249.399 18.9108C249.423 18.9019 249.384 18.9222 249.246 18.9222V24.6781ZM275.972 21.4911L277.873 23.6523L278.85 22.7928V21.4911H275.972ZM275.972 18.273H278.85V16.5523L277.335 15.7378L275.972 18.273ZM271.482 18.273L269.53 16.1583L269.515 16.1716L269.501 16.1852L271.482 18.273ZM271.5 21.7274L273.456 19.6167L273.454 19.6147L271.5 21.7274ZM269.118 13.2913L268.827 16.1546L270.509 16.3253L271.477 14.94L269.118 13.2913ZM261.955 12.5641L259.335 11.3732L257.676 15.0224L261.664 15.4273L261.955 12.5641ZM265.773 8.90968L266.842 11.5818L266.854 11.5766L265.773 8.90968ZM276.79 7.98244L276.543 10.8497L276.562 10.8513L276.58 10.8527L276.79 7.98244ZM279.445 8.32788L278.872 11.1482L278.893 11.1524L278.913 11.1563L279.445 8.32788ZM283.027 9.72783L284.862 7.51127L284.852 7.5027L284.841 7.49423L283.027 9.72783ZM284.645 11.8005L281.982 12.8919L281.984 12.8984L284.645 11.8005ZM285.117 20.4547H282.24V23.3327H285.117V20.4547ZM287.372 20.4547H290.25V17.5768H287.372V20.4547ZM287.372 26V28.8779H290.25V26H287.372ZM275.972 26H273.094V28.8779H275.972V26ZM275.972 24.8H278.85V19.514L274.41 22.3828L275.972 24.8ZM264.027 24.691L265.911 22.5147L265.9 22.5059L264.027 24.691ZM264.464 16.764L266.073 19.15L266.081 19.1441L264.464 16.764ZM275.972 16.0731L274.81 18.7059L278.85 20.4894V16.0731H275.972ZM275.736 13.255L278.443 12.2775L278.44 12.2688L278.436 12.2601L275.736 13.255ZM274.609 12.0732L276.02 9.56487L275.978 9.54168L275.936 9.51985L274.609 12.0732ZM278.85 21.4911V18.273H273.094V21.4911H278.85ZM277.335 15.7378C276.11 15.0798 274.782 14.7405 273.391 14.7405V20.4964C273.817 20.4964 274.211 20.5935 274.61 20.8081L277.335 15.7378ZM273.391 14.7405C272.051 14.7405 270.655 15.1191 269.53 16.1583L273.434 20.3877C273.402 20.417 273.366 20.4435 273.33 20.4651C273.293 20.4866 273.264 20.4987 273.247 20.5045C273.214 20.5158 273.25 20.4964 273.391 20.4964V14.7405ZM269.501 16.1852C268.418 17.2127 267.895 18.5549 267.895 19.982H273.65C273.65 19.9696 273.651 20.0351 273.608 20.1395C273.563 20.2476 273.501 20.3237 273.462 20.3608L269.501 16.1852ZM267.895 19.982C267.895 21.4251 268.419 22.7985 269.546 23.8401L273.454 19.6147C273.5 19.6576 273.565 19.7386 273.611 19.8478C273.654 19.9518 273.65 20.0105 273.65 19.982H267.895ZM269.543 23.8382C270.54 24.7623 271.798 25.2962 273.209 25.2962V19.5404C273.24 19.5404 273.305 19.5478 273.378 19.5774C273.449 19.606 273.475 19.6338 273.456 19.6167L269.543 23.8382ZM273.209 25.2962C274.889 25.2962 276.536 24.8274 277.873 23.6523L274.072 19.3298C274.002 19.391 273.807 19.5404 273.209 19.5404V25.2962ZM269.409 10.4281L262.245 9.70088L261.664 15.4273L268.827 16.1546L269.409 10.4281ZM264.575 13.755C265.058 12.6925 265.777 12.0076 266.842 11.5818L264.704 6.23758C262.253 7.21781 260.427 8.96917 259.335 11.3732L264.575 13.755ZM266.854 11.5766C268.07 11.0835 270.184 10.7331 273.445 10.7331V4.97723C269.943 4.97723 266.942 5.32987 264.691 6.24276L266.854 11.5766ZM273.445 10.7331C274.632 10.7331 275.662 10.7735 276.543 10.8497L277.038 5.11519C275.956 5.02164 274.756 4.97723 273.445 4.97723V10.7331ZM276.58 10.8527C277.482 10.9187 278.242 11.0202 278.872 11.1482L280.018 5.50754C279.096 5.32037 278.087 5.19165 277.001 5.11217L276.58 10.8527ZM278.913 11.1563C280.323 11.4212 280.974 11.7678 281.212 11.9614L284.841 7.49423C283.528 6.42731 281.791 5.84059 279.977 5.49948L278.913 11.1563ZM281.191 11.9444C281.696 12.3622 281.899 12.6892 281.982 12.8919L287.308 10.7091C286.785 9.43306 285.909 8.37824 284.862 7.51127L281.191 11.9444ZM281.984 12.8984C282.076 13.1203 282.24 13.839 282.24 15.364H287.995C287.995 13.6649 287.844 12.0079 287.305 10.7026L281.984 12.8984ZM282.24 15.364V20.4547H287.995V15.364H282.24ZM285.117 23.3327H287.372V17.5768H285.117V23.3327ZM284.494 20.4547V26H290.25V20.4547H284.494ZM287.372 23.1221H275.972V28.8779H287.372V23.1221ZM278.85 26V24.8H273.094V26H278.85ZM274.41 22.3828C273.454 23.0009 271.95 23.4493 269.645 23.4493V29.2052C272.625 29.2052 275.339 28.6354 277.534 27.2173L274.41 22.3828ZM269.645 23.4493C267.523 23.4493 266.444 22.9762 265.911 22.5148L262.144 26.8672C264.132 28.5875 266.798 29.2052 269.645 29.2052V23.4493ZM265.9 22.5059C265.177 21.8856 264.996 21.3587 264.996 20.8184H259.24C259.24 23.2597 260.333 25.3145 262.154 26.876L265.9 22.5059ZM264.996 20.8184C264.996 20.2767 265.169 19.7592 266.073 19.15L262.854 14.3779C260.631 15.8777 259.24 18.0631 259.24 20.8184H264.996ZM266.081 19.1441C267.021 18.5055 268.429 18.0601 270.536 18.0601V12.3043C267.65 12.3043 265.009 12.9134 262.846 14.3838L266.081 19.1441ZM270.536 18.0601C272.612 18.0601 273.976 18.3378 274.81 18.7059L277.135 13.4403C275.278 12.6205 273.018 12.3043 270.536 12.3043V18.0601ZM278.85 16.0731V15.5458H273.094V16.0731H278.85ZM278.85 15.5458C278.85 14.4511 278.788 13.2333 278.443 12.2775L273.029 14.2325C272.994 14.1342 273.022 14.171 273.051 14.4503C273.077 14.7028 273.094 15.0617 273.094 15.5458H278.85ZM278.436 12.2601C277.957 10.9591 276.983 10.1065 276.02 9.56487L273.198 14.5815C273.294 14.6357 273.292 14.6502 273.244 14.6005C273.19 14.5439 273.101 14.4273 273.035 14.2499L278.436 12.2601ZM275.936 9.51985C274.855 8.95774 273.683 8.72256 272.5 8.72256V14.4784C272.917 14.4784 273.15 14.5584 273.281 14.6266L275.936 9.51985ZM272.5 8.72256C270.167 8.72256 268.126 9.68664 266.759 11.6427L271.477 14.94C271.686 14.6416 271.899 14.4784 272.5 14.4784V8.72256ZM304.808 14.3459L307.178 12.7138L307.172 12.7046L307.165 12.6955L304.808 14.3459ZM300.19 20.0002L302.566 18.3765L302.55 18.3537L302.534 18.3312L300.19 20.0002ZM304.717 20.1275L306.85 22.0594L306.86 22.0482L306.87 22.0369L304.717 20.1275ZM316.953 20.4547H319.831V17.5768H316.953V20.4547ZM316.953 26V28.8779H319.831V26H316.953ZM305.517 26H302.639V28.8779H305.517V26ZM305.517 24.8182H308.395V19.7663L304.049 22.3426L305.517 24.8182ZM292.808 10.4914L290.854 8.37839L290.847 8.38556L290.839 8.39278L292.808 10.4914ZM305.517 9.49147L303.991 11.932L308.395 14.684V9.49147H305.517ZM305.517 6.25522H308.395V3.37729H305.517V6.25522ZM303.262 6.25522H300.384V9.13316H303.262V6.25522ZM303.262 0.709957V-2.16798H300.384V0.709957H303.262ZM314.662 0.709957H317.54V-2.16798H314.662V0.709957ZM314.662 20.4547H311.784V23.3327H314.662V20.4547ZM308.449 17.1094C308.449 15.5583 308.087 14.0334 307.178 12.7138L302.437 15.9779C302.547 16.1371 302.693 16.4545 302.693 17.1094H308.449ZM307.165 12.6955C306.04 11.0872 304.335 10.377 302.535 10.377V16.1329C302.691 16.1329 302.691 16.1602 302.612 16.1222C302.575 16.1042 302.536 16.079 302.501 16.0493C302.467 16.0201 302.451 15.9983 302.45 15.9962L307.165 12.6955ZM302.535 10.377C300.83 10.377 299.113 10.9658 297.927 12.4983C296.85 13.8907 296.548 15.6425 296.548 17.273H302.304C302.304 16.7795 302.353 16.4448 302.407 16.2339C302.46 16.0272 302.507 15.985 302.479 16.0207C302.44 16.0712 302.373 16.1236 302.314 16.1492C302.271 16.1674 302.323 16.1329 302.535 16.1329V10.377ZM296.548 17.273C296.548 18.8197 296.909 20.3543 297.845 21.6692L302.534 18.3312C302.452 18.2158 302.304 17.9323 302.304 17.273H296.548ZM297.814 21.6239C298.937 23.2677 300.665 23.969 302.462 23.969V18.2131C302.295 18.2131 302.292 18.1838 302.376 18.2238C302.416 18.2432 302.46 18.2712 302.5 18.3058C302.539 18.3398 302.56 18.3677 302.566 18.3765L297.814 21.6239ZM302.462 23.969C304.139 23.969 305.685 23.3456 306.85 22.0594L302.584 18.1956C302.566 18.2153 302.558 18.2198 302.563 18.2165C302.568 18.213 302.576 18.2078 302.586 18.2038C302.595 18.2 302.594 18.2016 302.579 18.2046C302.562 18.2077 302.525 18.2131 302.462 18.2131V23.969ZM306.87 22.0369C308.116 20.6322 308.449 18.7861 308.449 17.1094H302.693C302.693 17.6061 302.64 17.924 302.589 18.1071C302.539 18.2826 302.505 18.2837 302.564 18.218L306.87 22.0369ZM314.075 20.4547V26H319.831V20.4547H314.075ZM316.953 23.1221H305.517V28.8779H316.953V23.1221ZM308.395 26V24.8182H302.639V26H308.395ZM304.049 22.3426C302.852 23.0523 301.409 23.4493 299.626 23.4493V29.2052C302.304 29.2052 304.788 28.5962 306.984 27.2938L304.049 22.3426ZM299.626 23.4493C297.777 23.4493 296.209 22.903 294.812 21.7976L291.241 26.3116C293.674 28.2364 296.505 29.2052 299.626 29.2052V23.4493ZM294.812 21.7976C293.7 20.9178 293.032 19.6452 293.032 17.5457H287.276C287.276 21.0946 288.523 24.1612 291.241 26.3116L294.812 21.7976ZM293.032 17.5457C293.032 15.0835 293.728 13.5752 294.777 12.5901L290.839 8.39278C288.349 10.7288 287.276 13.9234 287.276 17.5457H293.032ZM294.762 12.6045C295.883 11.5678 297.495 10.9149 299.917 10.9149V5.15905C296.399 5.15905 293.272 6.14246 290.854 8.37839L294.762 12.6045ZM299.917 10.9149C301.664 10.9149 302.979 11.2991 303.991 11.932L307.042 7.05099C304.952 5.74454 302.533 5.15905 299.917 5.15905V10.9149ZM308.395 9.49147V6.25522H302.639V9.49147H308.395ZM305.517 3.37729H303.262V9.13316H305.517V3.37729ZM306.14 6.25522V0.709957H300.384V6.25522H306.14ZM303.262 3.58789H314.662V-2.16798H303.262V3.58789ZM311.784 0.709957V20.4547H317.54V0.709957H311.784ZM314.662 23.3327H316.953V17.5768H314.662V23.3327ZM334.552 14.0731L336.878 12.3781L336.869 12.3653L336.859 12.3526L334.552 14.0731ZM323.171 23.8364L324.979 21.5976L324.972 21.5916L323.171 23.8364ZM326.238 17.1276C326.238 18.79 326.52 20.5539 327.53 21.9658C328.667 23.5553 330.374 24.2235 332.134 24.2235V18.4677C331.965 18.4677 331.955 18.4386 332.029 18.4733C332.119 18.515 332.186 18.5811 332.211 18.6164C332.224 18.634 332.165 18.5591 332.104 18.3053C332.043 18.0502 331.994 17.6683 331.994 17.1276H326.238ZM332.134 24.2235C333.9 24.2235 335.644 23.5935 336.834 22.0119C337.907 20.5846 338.212 18.7874 338.212 17.0912H332.456C332.456 17.6293 332.404 18.0051 332.342 18.2526C332.281 18.497 332.222 18.5679 332.234 18.5521C332.258 18.5202 332.313 18.473 332.368 18.4486C332.406 18.4316 332.352 18.4677 332.134 18.4677V24.2235ZM338.212 17.0912C338.212 15.4562 337.89 13.7669 336.878 12.3781L332.226 15.7682C332.257 15.8096 332.456 16.1324 332.456 17.0912H338.212ZM336.859 12.3526C335.73 10.8387 334.084 10.1225 332.298 10.1225V15.8784C332.363 15.8784 332.395 15.8844 332.399 15.8853C332.401 15.8858 332.383 15.8821 332.352 15.8674C332.32 15.8524 332.291 15.8329 332.267 15.813C332.244 15.7937 332.237 15.7834 332.245 15.7936L336.859 12.3526ZM332.298 10.1225C330.531 10.1225 328.93 10.8199 327.772 12.2201L332.206 15.8898C332.227 15.8642 332.236 15.8583 332.231 15.8626C332.225 15.8673 332.213 15.8752 332.198 15.8819C332.183 15.8886 332.178 15.8886 332.189 15.8865C332.2 15.8841 332.235 15.8784 332.298 15.8784V10.1225ZM327.772 12.2201C326.601 13.6349 326.238 15.4201 326.238 17.1276H331.994C331.994 16.6543 332.046 16.3361 332.103 16.1367C332.13 16.0397 332.157 15.977 332.176 15.9403C332.194 15.9045 332.205 15.8906 332.206 15.8898L327.772 12.2201ZM322.74 17.0912C322.74 15.4428 323.377 14.0456 324.955 12.7569L321.314 8.29875C318.529 10.5735 316.984 13.5519 316.984 17.0912H322.74ZM324.955 12.7569C326.48 11.5116 328.713 10.7331 331.97 10.7331V4.97723C327.81 4.97723 324.153 5.98049 321.314 8.29875L324.955 12.7569ZM331.97 10.7331C335.266 10.7331 337.654 11.4894 339.374 12.755L342.785 8.11879C339.826 5.94205 336.142 4.97723 331.97 4.97723V10.7331ZM339.374 12.755C341.02 13.9662 341.71 15.3689 341.71 17.1639H347.466C347.466 13.4319 345.817 10.3499 342.785 8.11879L339.374 12.755ZM341.71 17.1639C341.71 18.887 341.049 20.308 339.446 21.588L343.039 26.0849C345.898 23.8013 347.466 20.774 347.466 17.1639H341.71ZM339.446 21.588C337.855 22.8591 335.601 23.6311 332.407 23.6311V29.387C336.533 29.387 340.17 28.3773 343.039 26.0849L339.446 21.588ZM332.407 23.6311C328.858 23.6311 326.504 22.8297 324.979 21.5976L321.362 26.0753C324.249 28.4067 328.053 29.387 332.407 29.387V23.6311ZM324.972 21.5916C323.417 20.3447 322.74 18.9087 322.74 17.0912H316.984C316.984 20.7281 318.512 23.7889 321.37 26.0813L324.972 21.5916ZM354.042 26.2182V29.0961H356.92V26.2182H354.042ZM348.388 26.2182H345.51V29.0961H348.388V26.2182ZM348.388 20.6184V17.7404H345.51V20.6184H348.388ZM353.679 20.6184L355.766 18.6371L354.915 17.7404H353.679V20.6184ZM360.042 20.982L358.688 23.5213L358.704 23.5299L358.72 23.5382L360.042 20.982ZM357.151 20.1275L356.403 22.9065L356.441 22.9166L356.479 22.9257L357.151 20.1275ZM352.97 18.9457L353.781 16.1844L353.769 16.1809L353.757 16.1775L352.97 18.9457ZM349.843 17.5276L351.563 15.2208L351.546 15.208L351.529 15.1954L349.843 17.5276ZM348.261 15.8549L350.846 14.5909L350.824 14.5453L350.8 14.5006L348.261 15.8549ZM349.897 9.40057L348.306 7.00272L348.301 7.00598L349.897 9.40057ZM360.606 9.2733L359.205 11.7871L363.484 14.1722V9.2733H360.606ZM360.606 8.36424V5.48631H357.728V8.36424H360.606ZM366.187 8.36424H369.065V5.48631H366.187V8.36424ZM366.187 13.4913V16.3693H369.065V13.4913H366.187ZM361.024 13.4913L359.039 15.5749L359.872 16.3693H361.024V13.4913ZM354.97 13.455L355.823 10.7064L355.765 10.6884L355.706 10.6729L354.97 13.455ZM358.46 14.2368L359.054 11.4207L359.048 11.4195L358.46 14.2368ZM363.715 15.6549L364.734 12.9634L364.725 12.9602L363.715 15.6549ZM366.533 17.5276L368.784 15.734L368.775 15.7234L368.766 15.7128L366.533 17.5276ZM365.187 24.8909L366.734 27.3181L366.739 27.3149L365.187 24.8909ZM354.042 25.1273L355.378 22.5779L351.164 20.371V25.1273H354.042ZM354.042 23.3402H348.388V29.0961H354.042V23.3402ZM351.266 26.2182V20.6184H345.51V26.2182H351.266ZM348.388 23.4963H353.679V17.7404H348.388V23.4963ZM351.591 22.5996C353.362 24.4653 355.561 25.6417 358.133 25.6417V19.8858C357.481 19.8858 356.71 19.632 355.766 18.6371L351.591 22.5996ZM358.133 25.6417C359.056 25.6417 360.12 25.5594 361.053 25.1762C361.547 24.9734 362.156 24.6253 362.651 24.0156C363.185 23.3585 363.447 22.5661 363.447 21.7638H357.691C357.691 21.2948 357.853 20.794 358.183 20.387C358.475 20.0272 358.78 19.8875 358.868 19.8514C358.96 19.8136 358.96 19.8291 358.809 19.8499C358.667 19.8693 358.447 19.8858 358.133 19.8858V25.6417ZM363.447 21.7638C363.447 21.0686 363.258 20.3486 362.824 19.7046C362.405 19.0839 361.86 18.6819 361.364 18.4258L358.72 23.5382C358.576 23.4639 358.294 23.2831 358.052 22.923C357.793 22.5396 357.691 22.1196 357.691 21.7638H363.447ZM361.397 18.4426C360.929 18.1932 360.341 18.0044 359.863 17.863C359.314 17.7009 358.629 17.5227 357.824 17.3292L356.479 22.9257C357.237 23.108 357.816 23.2601 358.231 23.3828C358.438 23.4441 358.585 23.4921 358.68 23.5267C358.794 23.5676 358.774 23.5675 358.688 23.5213L361.397 18.4426ZM357.9 17.3485C356.664 17.0158 355.291 16.628 353.781 16.1844L352.159 21.707C353.703 22.1604 355.118 22.5604 356.403 22.9065L357.9 17.3485ZM353.757 16.1775C352.636 15.8588 351.952 15.5106 351.563 15.2208L348.122 19.8343C349.26 20.6839 350.661 21.2811 352.182 21.7139L353.757 16.1775ZM351.529 15.1954C351.244 14.9895 351.06 14.8237 350.947 14.7047C350.833 14.5843 350.823 14.5438 350.846 14.5909L345.675 17.1189C346.238 18.2702 347.192 19.1624 348.156 19.8597L351.529 15.1954ZM350.8 14.5006C350.807 14.5129 350.702 14.3127 350.702 13.7095H344.946C344.946 14.8759 345.133 16.106 345.721 17.2092L350.8 14.5006ZM350.702 13.7095C350.702 12.5254 351.062 12.0828 351.493 11.7952L348.301 7.00598C345.969 8.56065 344.946 10.9907 344.946 13.7095H350.702ZM351.489 11.7984C352.269 11.2801 353.413 10.9149 355.115 10.9149V5.15905C352.599 5.15905 350.264 5.70289 348.306 7.00272L351.489 11.7984ZM355.115 10.9149C356.944 10.9149 358.261 11.2609 359.205 11.7871L362.007 6.75948C359.993 5.63723 357.649 5.15905 355.115 5.15905V10.9149ZM363.484 9.2733V8.36424H357.728V9.2733H363.484ZM360.606 11.2422H366.187V5.48631H360.606V11.2422ZM363.309 8.36424V13.4913H369.065V8.36424H363.309ZM366.187 10.6134H361.024V16.3693H366.187V10.6134ZM363.009 11.4078C361.191 9.67527 358.953 8.7771 356.442 8.7771V14.533C357.47 14.533 358.287 14.859 359.039 15.5749L363.009 11.4078ZM356.442 8.7771C355.585 8.7771 354.496 8.8749 353.526 9.38989C352.997 9.67007 352.45 10.103 352.045 10.7476C351.634 11.4022 351.474 12.1092 351.474 12.7641H357.229C357.229 13.0492 357.156 13.4329 356.919 13.8102C356.688 14.1775 356.402 14.3794 356.223 14.4747C356.058 14.5623 355.968 14.5691 356.029 14.5583C356.083 14.5488 356.213 14.533 356.442 14.533V8.7771ZM351.474 12.7641C351.474 13.5438 351.721 14.4038 352.361 15.1194C352.957 15.7848 353.683 16.0914 354.233 16.2371L355.706 10.6729C355.844 10.7094 356.261 10.8463 356.651 11.2814C357.085 11.7668 357.229 12.3359 357.229 12.7641H351.474ZM354.117 16.2036C354.635 16.3643 355.974 16.6581 357.873 17.0541L359.048 11.4195C358.066 11.2146 357.297 11.0497 356.735 10.9239C356.454 10.8609 356.233 10.8096 356.068 10.7693C355.887 10.7252 355.821 10.7058 355.823 10.7064L354.117 16.2036ZM357.867 17.0528C360.051 17.5132 361.641 17.9509 362.704 18.3496L364.725 12.9602C363.267 12.4135 361.355 11.9057 359.054 11.4207L357.867 17.0528ZM362.696 18.3464C363.623 18.6975 364.079 19.0717 364.299 19.3424L368.766 15.7128C367.726 14.4319 366.303 13.5577 364.734 12.9634L362.696 18.3464ZM364.282 19.3211C364.439 19.5185 364.582 19.8127 364.582 20.382H370.338C370.338 18.6968 369.863 17.0881 368.784 15.734L364.282 19.3211ZM364.582 20.382C364.582 21.5897 364.204 22.1037 363.636 22.4669L366.739 27.3149C369.201 25.7389 370.338 23.2469 370.338 20.382H364.582ZM363.641 22.4638C362.699 23.064 361.413 23.4493 359.624 23.4493V29.2052C362.247 29.2052 364.67 28.633 366.734 27.3181L363.641 22.4638ZM359.624 23.4493C357.772 23.4493 356.396 23.1112 355.378 22.5779L352.707 27.6767C354.743 28.7433 357.089 29.2052 359.624 29.2052V23.4493ZM351.164 25.1273V26.2182H356.92V25.1273H351.164Z" fill="#006497" mask="url(#path-1-outside-1_2_20691)"/>
</g>
<defs>
<filter id="filter0_d_2_20691" x="0.818115" y="0.201172" width="369.109" height="28.7744" filterUnits="userSpaceOnUse" color-interpolation-filters="sRGB">
<feFlood flood-opacity="0" result="BackgroundImageFix"/>
<feColorMatrix in="SourceAlpha" type="matrix" values="0 0 0 0 0 0 0 0 0 0 0 0 0 0 0 0 0 0 127 0" result="hardAlpha"/>
<feOffset dx="2.4668" dy="2.4668"/>
<feComposite in2="hardAlpha" operator="out"/>
<feColorMatrix type="matrix" values="0 0 0 0 0 0 0 0 0 0 0 0 0 0 0 0 0 0 0.25 0"/>
<feBlend mode="normal" in2="BackgroundImageFix" result="effect1_dropShadow_2_20691"/>
<feBlend mode="normal" in="SourceGraphic" in2="effect1_dropShadow_2_20691" result="shape"/>
</filter>
</defs>
</svg>
