<svg width="346" height="277" viewBox="0 0 346 277" fill="none" xmlns="http://www.w3.org/2000/svg">
<g clip-path="url(#clip0_2_20482)">
<path d="M142.624 138.316H343.809C345.023 138.316 346 137.34 346 136.128V132.859C346 131.646 345.023 130.671 343.809 130.671H142.624C141.41 130.671 140.433 131.646 140.433 132.859V136.128C140.459 137.34 141.436 138.316 142.624 138.316Z" fill="#2E5B9A"/>
<path d="M90.8234 28.1802C88.104 37.7755 94.7573 47.6609 102.097 49.7434C109.437 51.8259 114.665 45.2884 117.384 35.693C120.103 26.0977 116.381 16.6341 109.041 14.5516C101.727 12.4955 93.5692 18.5848 90.8234 28.1802Z" fill="#F09959"/>
<path d="M131.958 214.103C131.958 214.103 113.16 243.258 110.625 244.524C108.09 245.789 101.727 246.105 104.13 250.85C106.506 255.595 107.457 274.285 109.675 275.234C111.892 276.183 130.928 278.397 128.077 275.234C125.225 272.071 123.456 273.653 122.031 267.959C120.579 262.265 118.572 251.483 121.265 249.269C123.958 247.054 140.459 227.099 140.459 227.099L131.958 214.103Z" fill="#F09959"/>
<path d="M226.557 226.625C226.557 226.625 249.395 264.215 253.645 267.59C257.87 270.964 271.836 276.051 260.404 276.895C248.972 277.738 243.481 273.099 236.299 270.99C229.118 268.881 220.22 267.616 223.6 262.107C226.979 256.623 225.58 244.629 218.293 237.011C210.98 229.419 226.557 226.625 226.557 226.625Z" fill="#F09959"/>
<path d="M109.965 139.449C109.965 139.449 166.518 137.973 188.96 156.347C202.082 176.196 233.817 234.77 236.273 241.229C234.583 242.916 225.052 245.974 220.828 245.552C208.339 230.684 191.838 217.847 185.29 206.195C177.211 191.828 174.703 184.658 161.608 183.393C148.486 182.128 118.862 177.91 109.991 177.91C101.067 177.884 109.965 139.449 109.965 139.449Z" fill="#6791C9"/>
<path d="M60.6457 277H63.6028L84.8565 188.428H78.3352L60.6457 277Z" fill="#2E5B9A"/>
<path d="M149.436 277H146.479L122.084 185.291H128.605L149.436 277Z" fill="#2E5B9A"/>
<path d="M77.728 135.574L110.599 141.242C110.599 141.242 154.294 141.637 174.281 145.354C192.445 148.728 195.138 169.343 174.281 197.733C162.426 213.866 152.42 226.73 131.932 241.229C126.73 237.406 124.724 235.957 123.298 226.783C124.777 224.753 128.605 212.047 129.819 209.569C141.146 185.924 156.274 177.33 156.486 175.01C153.951 170.898 89.2393 196.468 76.3814 181.416C64.078 167.049 77.728 135.574 77.728 135.574Z" fill="#75A1DE"/>
<path d="M76.3814 61.2367C85.0413 60.0241 93.8596 61.6585 102.124 67.6424C109.331 74.9707 117.49 87.0704 116.988 107.026C116.354 132.358 120.922 133.993 116.169 140.978C96.315 149.15 62.3619 184.342 70.3617 146.62C76.1438 119.31 57.6623 98.9855 72.5795 68.6968C73.7676 66.2189 75.2725 63.8464 76.3814 61.2367Z" fill="#F37168"/>
<path d="M116.962 116.568C117.358 129.775 119.206 133.676 117.78 137.815C109.675 138.632 94.8893 141.875 91.193 147.041C86.9687 152.946 82.7179 153.79 84.6981 149.44C86.6783 145.064 91.8795 138.869 83.8532 117.623C75.827 96.3494 71.9987 82.0091 79.8929 67.2206L116.962 116.568Z" fill="#D54A41"/>
<path d="M76.3814 61.2367C81.7147 48.6362 83.0348 34.4804 83.0348 34.4804L97.0015 38.5927C97.0015 38.5927 89.0809 56.3336 96.6847 62.6602C98.2952 64.0046 100.17 65.639 102.124 67.616C93.8596 61.6585 85.0413 60.0241 76.3814 61.2367Z" fill="#F09959"/>
<path d="M82.5859 37.8283C83.4044 37.0902 84.4605 36.1675 85.543 35.2185L96.9223 38.5664C96.9223 38.5927 96.9487 38.6191 96.9487 38.6191C96.6847 39.2518 93.7804 46.0001 93.3844 52.5113C89.9785 50.4551 86.2822 47.1073 82.0315 41.2552C82.2691 39.9635 82.4539 38.8036 82.5859 37.8283Z" fill="#E38540"/>
<path d="M86.1766 65.2172C100.566 70.2258 98.9553 85.3569 112.183 107.658C119.021 119.204 125.384 119.02 125.384 119.02C125.384 119.02 141.489 119.152 160.921 116.779C173.092 115.303 173.858 118.914 165.409 121.919C148.354 128.009 130.638 134.573 116.354 132.991C102.071 131.409 77.6487 95.0314 76.3814 85.5678C74.6389 72.4665 78.9424 62.6866 86.1766 65.2172Z" fill="#F09959"/>
<path d="M93.5956 192.118C94.4933 192.118 95.4174 192.118 96.3414 192.092C108.064 191.802 116.037 190.194 122.453 188.876C129.925 187.347 134.07 186.53 138.849 188.797C140.697 189.667 142.888 188.902 143.786 187.057C144.657 185.212 143.892 183.024 142.044 182.128C135.021 178.78 129.133 179.966 120.975 181.627C114.849 182.866 107.219 184.421 96.1566 184.685C83.774 185.001 76.223 183.156 72.3947 178.912C68.9888 175.142 67.9856 168.789 69.2529 158.93C69.6753 155.556 70.1241 152.762 70.4937 150.284C71.5762 143.298 72.2891 138.685 71.3914 131.568C70.573 124.951 68.3816 116.146 63.2859 99.0382C62.7051 97.0875 60.6458 95.9803 58.692 96.5603C56.7382 97.1402 55.6293 99.1964 56.2102 101.147C65.6886 132.991 65.2133 136.102 63.1804 149.15C62.7843 151.654 62.3619 154.528 61.913 157.981C60.3553 170.133 61.9395 178.332 66.9031 183.841C71.9987 189.535 80.3153 192.118 93.5956 192.118Z" fill="#2E5B9A"/>
<path d="M224.999 258.311C240.154 265.718 248.312 269.962 253.17 269.54C254.305 269.435 255.256 269.329 256.074 269.198C261.487 272.387 270.12 276.157 260.404 276.869C248.972 277.712 243.481 273.073 236.299 270.964C229.118 268.855 220.22 267.59 223.6 262.08C224.233 261.052 224.709 259.76 224.999 258.311Z" fill="#D54A41"/>
<path d="M108.962 245.13C109.331 257.124 110.995 268.987 118.334 271.227C120.288 271.834 122.057 271.913 123.615 271.702C124.777 273.125 126.176 273.152 128.077 275.234C130.928 278.397 111.892 276.183 109.675 275.234C107.457 274.285 106.506 255.595 104.13 250.85C102.15 246.949 106.084 246.026 108.962 245.13Z" fill="#D54A41"/>
<path d="M167.363 131.726H215.521C216.946 131.726 218.266 130.882 218.874 129.59L238.332 87.7558C239.203 85.9105 238.385 83.7225 236.537 82.8526C234.689 81.9827 232.497 82.7999 231.626 84.6452L213.144 124.318H167.337C165.304 124.318 163.64 125.979 163.64 128.009C163.667 130.065 165.33 131.726 167.363 131.726Z" fill="#75A1DE"/>
<path d="M157.278 117.201C167.02 117.069 176.657 111.27 181.462 112.113C186.267 112.957 201.924 123.791 199.943 124.213C197.963 124.635 185.554 118.203 185.132 118.123C184.709 118.018 182.016 122.578 175.389 124.239C168.762 125.9 175.337 119.283 154.796 125.478C141.436 129.511 157.278 117.201 157.278 117.201Z" fill="#F09959"/>
<path d="M77.8072 49.7434L76.3814 61.2367C76.3814 61.2367 88.9753 61.9748 95.2326 65.5072C101.49 69.0395 110.757 79.1885 110.757 79.1885L103.206 66.1926L102.124 57.8889L77.8072 49.7434Z" fill="#F2E5DE"/>
<path d="M83.1668 63.8201C92.5132 62.0803 96.8431 70.4367 102.916 84.0916C108.988 97.7465 119.338 114.327 121.397 116.489C123.456 118.624 156.089 116.489 156.089 116.489C156.089 116.489 157.066 125.926 156.089 127.06C155.113 128.193 149.463 128.035 149.463 128.035C149.463 128.035 147.218 129.828 145.08 131.251C142.968 132.675 125.041 135.363 116.724 134.915C108.407 134.494 100.777 133.782 99.6681 132.517C98.5328 131.251 75.827 96.323 74.4277 83.8016C73.002 71.2802 78.388 64.7163 83.1668 63.8201Z" fill="#F2E5DE"/>
<path d="M110.757 6.37975C128.446 7.2233 125.674 33.7951 125.674 33.7951C125.674 33.7951 121.08 35.2185 111.443 33.6369C112.183 30.7899 111.866 23.488 111.866 23.488C111.866 23.488 110.757 29.3928 109.331 33.0042C107.298 33.9269 105.001 33.1097 101.094 32.1607C99.0873 40.5962 93.4108 44.1812 89.5297 45.3938C85.2261 46.7382 80.685 48.3463 75.6158 45.8156C70.5466 43.285 73.3188 17.3722 76.0382 12.1528C80.0777 4.3236 86.8103 -2.66203 98.4536 1.02849C104.236 2.87376 110.757 6.37975 110.757 6.37975Z" fill="#303C60"/>
<path d="M79.9721 37.9337L72.7379 48.4781C72.7379 48.4781 80.7642 68.486 57.4511 77.5277C39.1808 84.6188 41.3458 97.1139 49.5833 109.688C57.8208 122.262 44.6461 133.228 44.6461 133.228C44.6461 133.228 42.6395 119.31 24.8973 116.674C0.712929 113.089 -6.15165 80.6647 11.9338 64.4527C26.8774 51.0351 31.4186 62.1593 41.557 50.1124C51.669 38.0655 70.7842 46.211 70.7842 46.211L77.7807 36.0094L79.9721 37.9337Z" fill="#303C60"/>
<path d="M3.61712 97.1402C3.72273 97.1402 3.82835 97.1139 3.93397 97.0611C4.25079 96.903 4.3564 96.5076 4.19798 96.1912C-1.8745 85.0933 3.08908 71.6493 5.57089 68.0115C5.83491 67.616 6.09893 67.247 6.36295 66.8252C8.81835 63.0029 11.8546 58.2579 28.1447 55.3319C32.0786 54.6201 35.2469 52.3004 38.5999 49.8225C45.5437 44.7348 53.4116 38.9618 70.5201 46.8173C70.837 46.9755 71.233 46.8173 71.365 46.501C71.5234 46.1847 71.365 45.7892 71.0482 45.6574C53.2531 37.4856 45.0685 43.4959 37.8343 48.7944C34.5869 51.1669 31.5242 53.4075 27.9071 54.0666C11.0625 57.0981 7.84148 62.1066 5.25407 66.1398C4.99005 66.5352 4.75243 66.9307 4.4884 67.2997C1.87459 71.122 -3.32664 85.1987 3.03628 96.8239C3.16829 97.0084 3.37949 97.1402 3.61712 97.1402Z" fill="#303C60"/>
<path d="M83.8532 48.7417C85.0149 48.7417 86.2558 48.6362 87.6023 48.4517C93.7804 47.5291 102.097 44.0231 102.757 24.3051C102.757 23.9624 102.493 23.6461 102.123 23.6461C101.754 23.6461 101.463 23.9097 101.463 24.2788C101.199 32.3979 99.5889 38.4082 96.6583 42.1514C94.4405 44.9984 91.5098 46.5801 87.4175 47.2127C81.6882 48.0563 77.8863 47.0018 76.1438 44.0758C75.959 43.7595 75.5629 43.6804 75.2725 43.8649C74.9557 44.0494 74.8765 44.4448 75.0613 44.7348C76.6455 47.3709 79.6025 48.7417 83.8532 48.7417Z" fill="#303C60"/>
<path d="M324.429 277H319.677L301.196 135.891H311.651L324.429 277Z" fill="#2E5B9A"/>
</g>
<defs>
<clipPath id="clip0_2_20482">
<rect width="346" height="277" fill="white" transform="matrix(-1 0 0 1 346 0)"/>
</clipPath>
</defs>
</svg>
