<svg width="233" height="85" viewBox="0 0 233 85" fill="none" xmlns="http://www.w3.org/2000/svg">
<path d="M203.522 82.5678C218.787 82.5678 231.162 70.9868 231.162 56.7009C231.162 42.415 218.787 30.834 203.522 30.834C188.256 30.834 175.881 42.415 175.881 56.7009C175.881 70.9868 188.256 82.5678 203.522 82.5678Z" fill="white"/>
<path d="M227.317 62.0265C230.456 49.6721 222.298 37.2758 209.097 34.3386C195.895 31.4014 182.649 39.0356 179.511 51.39C176.372 63.7445 184.53 76.1408 197.731 79.078C210.933 82.0152 224.179 74.381 227.317 62.0265Z" fill="#246BFD"/>
<mask id="mask0_2_20441" style="mask-type:luminance" maskUnits="userSpaceOnUse" x="178" y="33" width="50" height="47">
<path d="M227.317 62.0277C230.455 49.6735 222.298 37.2773 209.096 34.3402C195.895 31.4031 182.649 39.0372 179.511 51.3914C176.372 63.7456 184.53 76.1418 197.731 79.0789C210.932 82.016 224.178 74.3819 227.317 62.0277Z" fill="white"/>
</mask>
<g mask="url(#mask0_2_20441)">
<path d="M218.263 56.7003C217.495 55.6944 216.421 54.8321 215.499 53.9699C213.964 52.5329 213.349 51.6706 213.349 49.6588C213.196 47.7906 212.735 45.3476 211.967 43.6231C211.2 42.1861 209.664 41.0364 208.128 40.8927C206.286 38.8809 203.522 38.3061 200.604 39.312C197.533 40.3179 195.844 43.0483 194.922 45.7787C194.462 47.2158 194.155 48.6528 194.001 49.9462C193.694 51.8143 192.926 53.3951 192.158 54.9758C191.237 56.9877 190.469 59.4307 191.851 61.2989C192.773 62.4485 194.308 63.167 195.383 64.0293C197.994 66.0411 198.915 69.9212 202.14 70.9271C203.368 71.3582 204.75 71.2145 205.979 71.0708C208.896 70.6397 211.814 69.9212 214.578 68.9153C216.728 68.053 218.877 67.0471 219.952 65.0352C221.027 63.167 220.72 60.8678 219.645 58.9996C219.338 58.1374 218.877 57.4188 218.263 56.7003Z" fill="#202263"/>
<path d="M187.859 65.035C192.926 59.7179 200.297 59.7179 200.297 59.7179L207.668 59.5742C207.668 59.5742 214.271 60.4364 218.263 63.4543C230.087 72.5077 231.623 86.8782 231.623 86.8782C231.623 86.8782 180.027 78.8307 180.027 78.5433C179.874 78.1122 184.48 68.6276 187.859 65.035Z" fill="#FB3F68"/>
<path d="M208.435 46.641C209.971 52.2455 207.207 56.5566 204.904 56.8441C201.525 57.2752 199.683 55.8381 198.761 52.964C198.301 51.6707 197.686 47.0721 199.068 45.7788C201.372 43.4795 207.207 41.755 208.435 46.641Z" fill="#FEB2A3"/>
<path d="M199.068 43.0483C198.454 43.4795 197.993 44.0543 197.533 44.6291C197.072 45.3476 196.918 46.4973 197.686 47.0721C198.147 47.3595 198.607 47.3595 199.068 47.3595C200.604 47.0721 201.832 45.7787 203.368 45.635C203.828 45.635 204.136 45.635 204.596 45.4913C205.057 45.3476 205.518 45.2039 205.978 44.7728C206.592 44.198 207.667 46.7847 207.975 47.0721C208.435 47.5032 209.203 47.9343 209.971 47.9343C210.124 47.9343 210.431 47.9343 210.585 47.7906C210.739 47.6469 210.739 47.5032 210.739 47.5032C211.046 45.4913 209.664 43.4795 207.821 42.4735C205.978 41.4676 203.675 41.3239 201.679 41.8987C200.45 42.1861 199.222 42.9046 199.068 44.0543" fill="#202263"/>
<path d="M200.604 54.1139L200.297 59.2873C200.297 59.2873 199.529 61.5865 204.136 61.5865C208.743 61.5865 207.668 59.2873 207.668 59.2873L206.9 53.5391" fill="#FEB2A3"/>
</g>
<path d="M7.57468 52.5338H162.361L148.848 41.8996V7.41039C148.848 3.67406 145.623 0.65625 141.631 0.65625H7.57468C3.58217 0.65625 0.357437 3.67406 0.357437 7.41039V45.636C0.357437 49.3723 3.58217 52.5338 7.57468 52.5338Z" fill="white"/>
<path d="M132.264 7.40999L130.882 10.7152L127.196 10.8589C126.429 10.8589 126.121 11.7211 126.736 12.1523L129.653 14.3078L128.732 17.6131C128.578 18.3316 129.346 18.7627 129.96 18.4753L133.032 16.6071L136.103 18.4753C136.717 18.9064 137.485 18.3316 137.331 17.6131L136.41 14.3078L139.327 12.1523C139.942 11.7211 139.635 10.8589 138.867 10.8589L135.181 10.7152L133.799 7.40999C133.492 6.69146 132.571 6.69146 132.264 7.40999Z" fill="#FDC943"/>
<path d="M109.23 7.40999L107.848 10.7152L104.163 10.8589C103.395 10.8589 103.088 11.7211 103.702 12.1523L106.62 14.3078L105.698 17.6131C105.545 18.3316 106.313 18.7627 106.927 18.4753L109.998 16.6071L113.069 18.4753C113.683 18.9064 114.451 18.3316 114.298 17.6131L113.376 14.3078L116.294 12.1523C116.908 11.7211 116.601 10.8589 115.833 10.8589L112.148 10.7152L110.766 7.40999C110.459 6.69146 109.384 6.69146 109.23 7.40999Z" fill="#FDC943"/>
<path d="M86.0427 7.40999L84.6607 10.7152L80.9753 10.8589C80.2075 10.8589 79.9004 11.7211 80.5146 12.1523L83.4322 14.3078L82.5109 17.6131C82.3573 18.3316 83.1251 18.7627 83.7393 18.4753L86.8105 16.6071L89.8816 18.4753C90.4959 18.9064 91.2637 18.3316 91.1101 17.6131L90.1888 14.3078L93.1064 12.1523C93.7206 11.7211 93.4135 10.8589 92.6457 10.8589L88.9603 10.7152L87.5783 7.40999C87.2711 6.69146 86.3498 6.69146 86.0427 7.40999Z" fill="#FDC943"/>
<path d="M63.7768 8.55942L62.7019 11.0024L62.3948 11.7209H61.627L58.7094 11.8646L60.8592 13.5891L61.4734 14.0202L61.3199 14.7387L60.5521 17.3254L63.009 15.8884L63.6232 15.4573L64.2375 15.8884L66.6944 17.3254L65.9266 14.7387L65.773 14.0202L66.3873 13.5891L68.5371 11.8646L65.773 11.7209H65.0052L64.6981 11.0024L63.7768 8.55942ZM63.7768 6.83496C64.0839 6.83496 64.391 6.97867 64.5446 7.26608L65.9266 10.5713L69.612 10.715C70.3798 10.715 70.6869 11.5772 70.0727 12.0083L67.1551 14.1639L68.0764 17.4691C68.23 18.044 67.7693 18.4751 67.3086 18.4751C67.1551 18.4751 67.0015 18.4751 66.8479 18.3314L63.7768 16.4632L60.7056 18.3314C60.5521 18.4751 60.3985 18.4751 60.245 18.4751C59.7843 18.4751 59.3236 18.044 59.4772 17.4691L60.3985 14.1639L57.4809 12.0083C56.8667 11.5772 57.1738 10.715 57.9416 10.715L61.627 10.5713L63.009 7.26608C63.1625 6.97867 63.4697 6.83496 63.7768 6.83496Z" fill="#FDC943"/>
<path d="M40.5898 8.55942L39.5149 11.0024L39.2078 11.7209H38.44L35.5224 11.8646L37.6722 13.5891L38.2864 14.0202L38.1329 14.7387L37.3651 17.3254L39.822 15.8884L40.4362 15.4573L41.0505 15.8884L43.5074 17.3254L42.7396 14.7387L42.586 14.0202L43.2003 13.5891L45.3501 11.8646L42.4325 11.7209H41.6647L41.3576 11.0024L40.5898 8.55942ZM40.5898 6.83496C40.8969 6.83496 41.204 6.97867 41.3576 7.26608L42.7396 10.5713L46.425 10.715C47.1928 10.715 47.4999 11.5772 46.8856 12.0083L43.9681 14.1639L44.8894 17.4691C45.043 18.044 44.5823 18.4751 44.1216 18.4751C43.9681 18.4751 43.8145 18.4751 43.6609 18.3314L40.5898 16.4632L37.5186 18.3314C37.3651 18.4751 37.2115 18.4751 37.058 18.4751C36.5973 18.4751 36.1366 18.044 36.2902 17.4691L37.2115 14.1639L34.2939 12.0083C33.6797 11.5772 33.9868 10.715 34.7546 10.715L38.44 10.5713L39.822 7.26608C39.9755 6.97867 40.2827 6.83496 40.5898 6.83496Z" fill="#FDC943"/>
<path d="M9.72447 23.6494H139.634V27.242H9.72447V23.6494Z" fill="#A4D4FF"/>
<path d="M9.72447 31.4092H139.634V35.0018H9.72447V31.4092Z" fill="#A4D4FF"/>
<path d="M56.0989 39.3135H139.634V42.9061H56.0989V39.3135Z" fill="#A4D4FF"/>
<path d="M37.365 42.1869C37.365 42.618 37.5186 43.0491 37.6721 43.4802L36.7508 45.2047L38.7471 44.7736C39.2077 45.2047 39.9755 45.3484 40.5897 45.3484C42.4324 45.3484 43.8145 43.9114 43.8145 42.1869C43.8145 40.4624 42.4324 39.0254 40.5897 39.0254C38.9006 39.0254 37.365 40.4624 37.365 42.1869Z" fill="#E5F1FE"/>
<path d="M23.6983 41.0379C23.6983 40.032 24.4661 39.3135 25.541 39.3135C26.6159 39.3135 27.3837 40.032 27.3837 41.0379C27.3837 40.032 28.1515 39.3135 29.2264 39.3135C30.3013 39.3135 31.0691 40.032 31.0691 41.0379C31.0691 41.4691 30.9155 41.9002 30.6084 42.3313L27.5373 45.3491L24.4661 42.3313C23.8519 41.9002 23.6983 41.4691 23.6983 41.0379Z" fill="#E5F1FE"/>
<path d="M9.87809 39.3135H18.7844V40.6068H9.87809V39.3135Z" fill="#E5F1FE"/>
<path d="M9.87809 41.8994H18.7844V43.1928H9.87809V41.8994Z" fill="#E5F1FE"/>
<path d="M9.87809 44.4873H18.7844V45.7806H9.87809V44.4873Z" fill="#E5F1FE"/>
</svg>
