<svg width="231" height="90" viewBox="0 0 231 90" fill="none" xmlns="http://www.w3.org/2000/svg">
<path d="M46.5078 79.6636C60.6374 74.2563 67.4078 59.1535 61.6298 45.9305C55.8519 32.7075 39.7136 26.3715 25.584 31.7787C11.4543 37.1859 4.68395 52.2887 10.4619 65.5118C16.2398 78.7348 32.3781 85.0708 46.5078 79.6636Z" fill="white"/>
<path d="M53.3834 71.9692C62.9782 62.99 62.9782 48.4319 53.3834 39.4527C43.7886 30.4735 28.2324 30.4735 18.6376 39.4527C9.04277 48.4319 9.04277 62.99 18.6376 71.9692C28.2324 80.9483 43.7886 80.9483 53.3834 71.9692Z" fill="#246BFD"/>
<mask id="mask0_2_20405" style="mask-type:luminance" maskUnits="userSpaceOnUse" x="11" y="32" width="50" height="47">
<path d="M53.3839 71.9693C62.9788 62.9901 62.9788 48.4318 53.3839 39.4526C43.789 30.4733 28.2326 30.4733 18.6377 39.4526C9.04284 48.4318 9.04284 62.9901 18.6377 71.9693C28.2326 80.9486 43.789 80.9486 53.3839 71.9693Z" fill="white"/>
</mask>
<g mask="url(#mask0_2_20405)">
<path d="M20.2573 64.0731C25.3247 58.756 32.6955 58.756 32.6955 58.756L40.0663 58.6123C40.0663 58.6123 46.6693 59.4745 50.6618 62.4923C62.4857 71.5458 64.0213 85.9163 64.0213 85.9163C64.0213 85.9163 12.5794 77.7251 12.5794 77.4377C12.4259 77.1503 17.0326 67.6657 20.2573 64.0731Z" fill="#202263"/>
<path d="M31.6204 43.6676C30.6991 44.6735 30.0848 45.6795 29.6241 46.9728C29.0099 48.9847 29.7777 51.284 31.3133 52.721C31.4668 52.8647 31.774 53.1521 31.9275 53.2958C32.2346 53.4395 32.6953 53.5832 33.156 53.727C34.2309 53.8707 35.3058 53.8707 36.3807 53.8707C39.9125 53.727 42.6766 51.7151 42.8301 48.2662C42.8301 47.2602 42.8301 45.9669 42.0623 45.2484C41.2945 44.3861 40.0661 43.955 39.2983 43.0928" fill="#FB3F68"/>
<path d="M40.9875 45.6792C42.5231 51.2837 39.759 55.5948 37.4557 55.8822C34.0774 56.3133 32.2347 54.8763 31.3133 52.0022C30.8527 50.7088 30.2384 46.1103 31.6205 44.8169C33.9238 42.3739 39.759 40.7932 40.9875 45.6792Z" fill="#FEB2A3"/>
<path d="M33.1559 53.152L32.8488 58.3254C32.8488 58.3254 32.081 60.6246 36.6877 60.6246C41.2944 60.6246 40.2195 58.3254 40.2195 58.3254L39.4518 52.5771" fill="#FEB2A3"/>
<path d="M44.0587 43.9544C43.7516 43.2359 42.9838 42.8048 42.216 42.9485C41.9089 42.9485 41.6018 43.0922 41.4482 42.9485C41.2947 42.8048 41.2946 42.6611 41.2946 42.5174C41.1411 40.9366 40.2197 39.4996 38.8377 39.0685C37.1486 38.4936 35.613 40.0744 33.7703 39.4996C32.6954 39.2122 31.3134 38.9248 30.392 39.6433C29.7778 40.0744 29.6243 40.9366 29.01 41.224C28.7029 41.224 28.3958 41.3677 28.0887 41.3677C26.7067 41.5115 25.1711 42.5174 25.0175 43.9544C24.864 44.9604 25.4782 45.8226 26.0924 46.3974C27.1673 47.4034 28.5493 47.8345 29.9314 47.9782C31.1598 48.1219 32.3883 48.1219 33.4632 47.5471C34.0774 47.2597 34.5381 46.6848 34.9988 46.3974C36.2272 45.3915 37.9164 44.9604 39.1448 45.9663C39.6055 46.3974 39.9126 46.9722 40.3733 47.2597C41.4482 48.1219 43.2909 47.4034 43.9051 46.11C44.2122 45.3915 44.2122 44.5293 44.0587 43.9544Z" fill="#FB3F68"/>
</g>
<path d="M223.414 52.1782H68.6277L82.1408 41.544V7.19848C82.1408 3.46214 85.3655 0.444336 89.358 0.444336H223.414C227.406 0.444336 230.631 3.46214 230.631 7.19848V45.424C230.631 49.1604 227.406 52.1782 223.414 52.1782Z" fill="white"/>
<path d="M98.7249 7.05416L100.107 10.3594L103.792 10.5031C104.56 10.5031 104.867 11.3653 104.253 11.7964L101.335 13.952L102.257 17.2572C102.41 17.9758 101.642 18.4069 101.028 18.1195L97.9571 16.2513L94.8859 18.1195C94.2717 18.5506 93.5039 17.9758 93.6575 17.2572L94.5788 13.952L91.6612 11.9401C91.047 11.509 91.3541 10.6468 92.1219 10.6468L95.8073 10.3594L97.1893 7.05416C97.3429 6.47934 98.4178 6.47934 98.7249 7.05416Z" fill="#FDC943"/>
<path d="M121.759 7.05332L123.141 10.3585L126.826 10.5022C127.594 10.5022 127.901 11.3645 127.287 11.7956L124.369 13.9512L125.29 17.2564C125.444 17.9749 124.676 18.406 124.062 18.1186L120.991 16.2505L117.92 18.1186C117.305 18.5497 116.538 17.9749 116.691 17.2564L117.613 13.9512L114.695 11.9393C114.081 11.5082 114.388 10.646 115.156 10.646L118.841 10.5022L120.223 7.19703C120.53 6.4785 121.451 6.4785 121.759 7.05332Z" fill="#FDC943"/>
<path d="M144.946 7.05332L146.328 10.3585L150.013 10.5022C150.781 10.5022 151.088 11.3645 150.474 11.7956L147.557 13.9512L148.478 17.2564C148.631 17.9749 147.864 18.406 147.249 18.1186L144.178 16.2505L141.107 18.1186C140.493 18.5497 139.725 17.9749 139.879 17.2564L140.8 13.9512L137.882 11.9393C137.268 11.5082 137.575 10.646 138.343 10.646L142.028 10.5022L143.411 7.19703C143.718 6.4785 144.639 6.4785 144.946 7.05332Z" fill="#FDC943"/>
<path d="M167.98 7.05332L169.362 10.3585L173.047 10.5022C173.815 10.5022 174.122 11.3645 173.508 11.7956L170.59 13.9512L171.512 17.2564C171.665 17.9749 170.897 18.406 170.283 18.1186L167.212 16.2505L164.141 18.1186C163.527 18.5497 162.759 17.9749 162.912 17.2564L163.834 13.9512L160.916 11.9393C160.302 11.5082 160.609 10.646 161.377 10.646L165.062 10.5022L166.444 7.19703C166.751 6.4785 167.673 6.4785 167.98 7.05332Z" fill="#FDC943"/>
<path d="M190.399 8.2038L191.474 10.6468L191.781 11.3653H192.549L195.466 11.509L193.317 13.2335L192.702 13.6646L192.856 14.3831L193.624 16.9698L191.167 15.5328L190.553 15.1016L189.938 15.5328L187.481 16.9698L188.249 14.3831L188.403 13.6646L187.788 13.2335L185.639 11.509L188.556 11.3653H189.324L189.631 10.6468L190.399 8.2038ZM190.399 6.62305C190.092 6.62305 189.785 6.76675 189.631 7.05416L188.249 10.3594L184.564 10.5031C183.796 10.5031 183.489 11.3653 184.103 11.7964L187.021 13.952L186.099 17.2572C185.946 17.832 186.406 18.2632 186.867 18.2632C187.021 18.2632 187.174 18.2632 187.328 18.1195L190.399 16.2513L193.47 18.1195C193.624 18.2632 193.777 18.2632 193.931 18.2632C194.391 18.2632 194.852 17.832 194.699 17.2572L193.777 13.952L196.695 11.7964C197.309 11.3653 197.002 10.5031 196.234 10.5031L192.549 10.3594L191.167 7.05416C191.013 6.76675 190.706 6.62305 190.399 6.62305Z" fill="#FDC943"/>
<path d="M221.264 23.293H91.3545V26.8856H221.264V23.293Z" fill="#A4D4FF"/>
<path d="M221.264 31.1963H91.3545V34.7889H221.264V31.1963Z" fill="#A4D4FF"/>
<path d="M174.89 39.1006H91.3545V42.6932H174.89V39.1006Z" fill="#A4D4FF"/>
<path d="M193.624 41.8314C193.624 42.2625 193.47 42.6937 193.317 43.1248L194.238 44.8492L192.242 44.4181C191.781 44.8492 191.013 44.9929 190.399 44.9929C188.556 44.9929 187.174 43.5559 187.174 41.8314C187.174 40.107 188.556 38.6699 190.399 38.6699C192.242 38.6699 193.624 40.2507 193.624 41.8314Z" fill="#E5F1FE"/>
<path d="M207.29 40.826C207.29 39.8201 206.523 39.1016 205.448 39.1016C204.373 39.1016 203.605 39.8201 203.605 40.826C203.605 39.8201 202.837 39.1016 201.762 39.1016C200.687 39.1016 199.92 39.8201 199.92 40.826C199.92 41.2571 200.073 41.6883 200.38 42.1194L203.452 45.1372L206.523 42.1194C207.137 41.6883 207.29 41.2571 207.29 40.826Z" fill="#E5F1FE"/>
<path d="M221.111 38.958H212.204V40.2514H221.111V38.958Z" fill="#E5F1FE"/>
<path d="M221.111 41.6885H212.204V42.9818H221.111V41.6885Z" fill="#E5F1FE"/>
<path d="M221.111 44.2754H212.204V45.5687H221.111V44.2754Z" fill="#E5F1FE"/>
</svg>
