<svg width="75" height="31" viewBox="0 0 75 31" fill="none" xmlns="http://www.w3.org/2000/svg">
<path d="M3.5651 30.2295C2.85751 30.2295 2.25032 29.9761 1.74353 29.4693C1.23675 28.9625 0.983352 28.3553 0.983352 27.6477C0.983352 26.9402 1.23675 26.333 1.74353 25.8262C2.25032 25.3194 2.85751 25.066 3.5651 25.066C4.27269 25.066 4.87988 25.3194 5.38667 25.8262C5.89345 26.333 6.14685 26.9402 6.14685 27.6477C6.14685 28.1163 6.02732 28.5466 5.78827 28.9386C5.55878 29.3307 5.24802 29.6462 4.85597 29.8853C4.47349 30.1147 4.0432 30.2295 3.5651 30.2295ZM16.3037 30.2295C15.5961 30.2295 14.9889 29.9761 14.4822 29.4693C13.9754 28.9625 13.722 28.3553 13.722 27.6477C13.722 26.9402 13.9754 26.333 14.4822 25.8262C14.9889 25.3194 15.5961 25.066 16.3037 25.066C17.0113 25.066 17.6185 25.3194 18.1253 25.8262C18.6321 26.333 18.8855 26.9402 18.8855 27.6477C18.8855 28.1163 18.7659 28.5466 18.5269 28.9386C18.2974 29.3307 17.9866 29.6462 17.5946 29.8853C17.2121 30.1147 16.7818 30.2295 16.3037 30.2295ZM29.0424 30.2295C28.3348 30.2295 27.7276 29.9761 27.2208 29.4693C26.714 28.9625 26.4606 28.3553 26.4606 27.6477C26.4606 26.9402 26.714 26.333 27.2208 25.8262C27.7276 25.3194 28.3348 25.066 29.0424 25.066C29.7499 25.066 30.3571 25.3194 30.8639 25.8262C31.3707 26.333 31.6241 26.9402 31.6241 27.6477C31.6241 28.1163 31.5046 28.5466 31.2655 28.9386C31.036 29.3307 30.7253 29.6462 30.3332 29.8853C29.9507 30.1147 29.5205 30.2295 29.0424 30.2295ZM43.33 0.625454V30H39.773V0.625454H43.33ZM53.2825 30H49.5533L60.3393 0.625454H64.0111L74.7971 30H71.0679L62.2899 5.2726H62.0605L53.2825 30ZM54.6595 18.5256H69.691V21.681H54.6595V18.5256Z" fill="#006497"/>
</svg>
