<svg width="130" height="51" viewBox="0 0 130 51" fill="none" xmlns="http://www.w3.org/2000/svg">
<path d="M126.902 43.1458C126.053 43.1458 125.324 42.8452 124.714 42.2441C124.114 41.6343 123.813 40.9044 123.813 40.0542C123.813 39.2126 124.114 38.4912 124.714 37.89C125.324 37.2889 126.053 36.9883 126.902 36.9883C127.726 36.9883 128.447 37.2889 129.065 37.89C129.683 38.4912 129.992 39.2126 129.992 40.0542C129.992 40.621 129.846 41.1405 129.554 41.6129C129.271 42.0766 128.898 42.4502 128.434 42.7336C127.971 43.0084 127.46 43.1458 126.902 43.1458Z" fill="#FDBCB4"/>
<path d="M111.407 43.1982C109.373 43.1982 107.623 42.786 106.155 41.9616C104.697 41.1286 103.573 39.952 102.783 38.4319C101.994 36.9033 101.599 35.0955 101.599 33.0087C101.599 30.9733 101.994 29.1871 102.783 27.6498C103.573 26.1126 104.684 24.9146 106.117 24.0558C107.558 23.197 109.249 22.7676 111.188 22.7676C112.493 22.7676 113.707 22.978 114.831 23.3988C115.964 23.811 116.951 24.4336 117.791 25.2667C118.641 26.0997 119.302 27.1474 119.774 28.4098C120.246 29.6637 120.482 31.1322 120.482 32.8154V34.3226H103.787V30.9218H115.32C115.32 30.1317 115.148 29.4318 114.805 28.8221C114.462 28.2123 113.986 27.7357 113.377 27.3922C112.776 27.0401 112.076 26.864 111.278 26.864C110.446 26.864 109.708 27.0572 109.064 27.4437C108.429 27.8216 107.932 28.3326 107.571 28.9766C107.211 29.6122 107.026 30.3207 107.018 31.1022V34.3355C107.018 35.3145 107.198 36.1604 107.558 36.8732C107.927 37.586 108.447 38.1357 109.116 38.5221C109.785 38.9086 110.579 39.1018 111.497 39.1018C112.106 39.1018 112.664 39.0159 113.171 38.8442C113.677 38.6724 114.11 38.4148 114.471 38.0713C114.831 37.7277 115.106 37.3069 115.294 36.8088L120.366 37.1438C120.108 38.3632 119.581 39.4281 118.783 40.3385C117.993 41.2402 116.972 41.9444 115.719 42.4511C114.475 42.9492 113.038 43.1982 111.407 43.1982Z" fill="#0778B1"/>
<path d="M88.8481 42.8112V23.0246H94.1642V26.477H94.3701C94.7305 25.2489 95.3355 24.3214 96.185 23.6945C97.0345 23.059 98.0128 22.7412 99.1198 22.7412C99.3944 22.7412 99.6904 22.7584 100.008 22.7927C100.325 22.8271 100.604 22.8743 100.845 22.9344V27.8038C100.587 27.7265 100.231 27.6578 99.7762 27.5977C99.3214 27.5376 98.9052 27.5075 98.5277 27.5075C97.721 27.5075 97.0002 27.6836 96.3652 28.0357C95.7388 28.3792 95.2411 28.8601 94.8721 29.4784C94.5117 30.0968 94.3315 30.8096 94.3315 31.6168V42.8112H88.8481Z" fill="#0778B1"/>
<path d="M53.999 42.8112V23.0246H59.315V26.477H59.521C59.8814 25.2489 60.4864 24.3214 61.3359 23.6945C62.1854 23.059 63.1637 22.7412 64.2707 22.7412C64.5453 22.7412 64.8413 22.7584 65.1588 22.7927C65.4763 22.8271 65.7552 22.8743 65.9955 22.9344V27.8038C65.738 27.7265 65.3819 27.6578 64.9271 27.5977C64.4723 27.5376 64.0561 27.5075 63.6786 27.5075C62.8719 27.5075 62.1511 27.6836 61.5161 28.0357C60.8897 28.3792 60.392 28.8601 60.023 29.4784C59.6626 30.0968 59.4824 30.8096 59.4824 31.6168V42.8112H53.999Z" fill="#0778B1"/>
<path d="M41.7084 43.1982C39.6747 43.1982 37.9241 42.786 36.4567 41.9616C34.9979 41.1286 33.8738 39.952 33.0843 38.4319C32.2949 36.9033 31.9001 35.0955 31.9001 33.0087C31.9001 30.9733 32.2949 29.1871 33.0843 27.6498C33.8738 26.1126 34.9851 24.9146 36.4181 24.0558C37.8598 23.197 39.5502 22.7676 41.4896 22.7676C42.7939 22.7676 44.0081 22.978 45.1323 23.3988C46.265 23.811 47.2518 24.4336 48.0928 25.2667C48.9423 26.0997 49.603 27.1474 50.075 28.4098C50.547 29.6637 50.7829 31.1322 50.7829 32.8154V34.3226H34.0883V30.9218H45.6214C45.6214 30.1317 45.4498 29.4318 45.1065 28.8221C44.7633 28.2123 44.287 27.7357 43.6778 27.3922C43.0771 27.0401 42.3777 26.864 41.5797 26.864C40.7473 26.864 40.0093 27.0572 39.3657 27.4437C38.7307 27.8216 38.233 28.3326 37.8726 28.9766C37.5122 29.6122 37.3277 30.3207 37.3191 31.1022V34.3355C37.3191 35.3145 37.4993 36.1604 37.8597 36.8732C38.2287 37.586 38.7479 38.1357 39.4172 38.5221C40.0866 38.9086 40.8803 39.1018 41.7985 39.1018C42.4078 39.1018 42.9655 39.0159 43.4718 38.8442C43.9781 38.6724 44.4115 38.4148 44.7719 38.0713C45.1323 37.7277 45.4069 37.3069 45.5956 36.8088L50.6671 37.1438C50.4097 38.3632 49.8819 39.4281 49.0839 40.3385C48.2944 41.2402 47.2733 41.9444 46.0204 42.4511C44.7761 42.9492 43.3388 43.1982 41.7084 43.1982Z" fill="#0778B1"/>
<path d="M0 42.8118V23.0252H5.22591V26.5162H5.4576C5.8695 25.3568 6.55599 24.4422 7.51708 23.7724C8.47817 23.1025 9.62804 22.7676 10.9667 22.7676C12.3225 22.7676 13.4767 23.1068 14.4292 23.7852C15.3817 24.4551 16.0167 25.3654 16.3342 26.5162H16.5401C16.9435 25.3826 17.6729 24.4766 18.7283 23.7981C19.7924 23.1111 21.0495 22.7676 22.4997 22.7676C24.3447 22.7676 25.8421 23.3559 26.992 24.5324C28.1504 25.7004 28.7297 27.3578 28.7297 29.5048V42.8118H23.2592V30.5869C23.2592 29.4876 22.9674 28.6632 22.3839 28.1136C21.8004 27.5639 21.071 27.2891 20.1957 27.2891C19.2003 27.2891 18.4237 27.6069 17.8659 28.2424C17.3082 28.8693 17.0293 29.698 17.0293 30.7286V42.8118H11.7133V30.4709C11.7133 29.5005 11.4344 28.7276 10.8766 28.1522C10.3274 27.5768 9.6023 27.2891 8.70128 27.2891C8.09201 27.2891 7.54282 27.4437 7.0537 27.7529C6.57315 28.0534 6.19129 28.4785 5.90811 29.0282C5.62494 29.5692 5.48335 30.2047 5.48335 30.9347V42.8118H0Z" fill="#0778B1"/>
<path d="M75.8606 16.8636C76.5297 16.0531 77.0843 15.3747 77.6565 14.714C79.8573 12.1767 82.2957 9.89484 84.9895 7.89494C86.7589 6.58224 88.634 5.43693 90.6235 4.47662C91.0725 4.25637 91.3982 4.30042 91.6359 4.63521C91.8736 4.96118 91.8559 5.4193 91.5478 5.72766C91.1517 6.12411 90.7379 6.49414 90.3242 6.86416C87.5688 9.37504 85.1039 12.1326 82.9296 15.1633C80.8784 18.0178 79.0914 21.0308 77.454 24.132C77.1107 24.7751 76.6529 25.1804 75.9135 25.1804C75.1916 25.1804 74.725 24.7751 74.3993 24.1584C72.6123 20.7929 70.8076 17.4275 69.0118 14.062C68.6333 13.3572 68.7653 12.855 69.4167 12.3969C69.5928 12.2736 69.7777 12.1414 69.9625 12.0181C70.4819 11.6833 70.9925 11.7362 71.4327 12.1767C72.7883 13.5598 74.1352 14.9518 75.4821 16.3438C75.6053 16.476 75.7022 16.6522 75.8606 16.8636Z" fill="#FDBCB4"/>
<path fill-rule="evenodd" clip-rule="evenodd" d="M79.3116 23.1748C79.0364 23.6748 78.7655 24.1778 78.4984 24.6837L78.4959 24.6885C78.2744 25.1034 77.9702 25.5305 77.5268 25.8531C77.0634 26.1901 76.5178 26.362 75.9134 26.362C74.6144 26.362 73.811 25.5732 73.3555 24.7115C73.1217 24.271 72.8875 23.8306 72.6531 23.3902C72.1684 23.572 71.7068 23.7935 71.2682 24.0548C69.8352 24.9136 68.7239 26.1116 67.9344 27.6488C67.145 29.1861 66.7502 30.9724 66.7502 33.0077C66.7502 35.0946 67.145 36.9023 67.9344 38.431C68.7239 39.951 69.848 41.1276 71.3068 41.9606C72.7742 42.7851 74.5248 43.1973 76.5585 43.1973C78.1889 43.1973 79.6262 42.9482 80.8705 42.4501C82.1234 41.9434 83.1445 41.2392 83.934 40.3375C84.732 39.4272 85.2598 38.3623 85.5172 37.1428L80.4457 36.8079C80.257 37.306 79.9824 37.7268 79.622 38.0703C79.2616 38.4138 78.8282 38.6714 78.3219 38.8432C77.8156 39.015 77.2579 39.1008 76.6486 39.1008C75.7304 39.1008 74.9367 38.9076 74.2673 38.5212C73.598 38.1347 73.0788 37.5851 72.7098 36.8723C72.3494 36.1595 72.1692 35.3136 72.1692 34.3345V34.3217H85.633V32.8145C85.633 31.1312 85.3971 29.6627 84.9251 28.4089C84.4531 27.1464 83.7924 26.0987 82.9429 25.2657C82.1019 24.4327 81.1151 23.81 79.9824 23.3978C79.7622 23.3154 79.5386 23.2411 79.3116 23.1748ZM72.7227 28.9757C72.3902 29.5619 72.2075 30.2103 72.1744 30.9208H80.4715C80.4715 30.1307 80.2999 29.4308 79.9566 28.8211C79.6134 28.2113 79.1371 27.7347 78.5279 27.3912C77.9272 27.0391 77.2278 26.863 76.4298 26.863C75.5974 26.863 74.8594 27.0563 74.2158 27.4427C73.5808 27.8206 73.0831 28.3316 72.7227 28.9757Z" fill="#0778B1"/>
</svg>
