<svg width="123" height="46" viewBox="0 0 123 46" fill="none" xmlns="http://www.w3.org/2000/svg">
<g filter="url(#filter0_d_2_20690)">
<mask id="path-1-outside-1_2_20690" maskUnits="userSpaceOnUse" x="-5" y="-5" width="128" height="52" fill="black">
<rect fill="white" x="-5" y="-5" width="128" height="52"/>
<path d="M38.6349 41H0.123372V31.3139H3.75928V10.2256H0.123372V0.539577H23.2478V10.2256H19.4082V31.3139H28.978V24.8275H38.6349V41ZM56.9599 26.8054C56.9599 31.3042 58.5694 33.5537 61.7884 33.5537C65.2013 33.5537 66.9078 31.2848 66.9078 26.7472C66.9078 24.6723 66.4909 23.0628 65.657 21.9187C64.8038 20.7746 63.6015 20.2026 62.0502 20.2026C60.5183 20.2026 59.2869 20.7649 58.3561 21.8896C57.4253 23.0144 56.9599 24.6529 56.9599 26.8054ZM42.1545 26.7472C42.1545 22.5974 43.8997 19.0973 47.3902 16.2467C50.8807 13.3962 55.5928 11.9709 61.5266 11.9709C67.4992 11.9709 72.3568 13.3477 76.0994 16.1013C79.8419 18.8549 81.7132 22.4423 81.7132 26.8636C81.7132 31.1297 79.9292 34.6881 76.3612 37.5386C72.7931 40.3892 68.081 41.8144 62.2247 41.8144C55.9031 41.8144 50.9777 40.3892 47.4484 37.5386C43.9191 34.7074 42.1545 31.1103 42.1545 26.7472ZM96.8386 41.349H87.7925V32.3902H96.2569C98.4287 34.6784 100.804 35.8225 103.383 35.8225C105.982 35.8225 107.281 35.2892 107.281 34.2227C107.281 33.6797 107 33.2628 106.437 32.9719C105.856 32.6616 104.314 32.2059 101.813 31.6048C99.7958 31.0618 97.5658 30.4316 95.1225 29.7141C93.0088 29.113 91.3411 28.3567 90.1194 27.4453C88.859 26.5339 88.0155 25.6419 87.5889 24.7693C87.1235 23.8967 86.8908 22.7526 86.8908 21.337C86.8908 18.215 87.9961 15.9171 90.2067 14.4433C92.398 12.9889 95.1806 12.2618 98.5548 12.2618C102.045 12.2618 104.973 12.9211 107.339 14.2397V12.7853H116.269V20.9879H108.008C105.953 19.0294 103.509 18.0501 100.678 18.0501C98.4481 18.0501 97.3331 18.6416 97.3331 19.8245C97.3331 20.3868 97.6628 20.7552 98.3221 20.9298C98.8844 21.1043 100.746 21.5212 103.907 22.1805C107.494 22.9368 110.296 23.6931 112.313 24.4493C114.31 25.2056 115.813 26.2043 116.822 27.4453C117.811 28.6864 118.305 30.2086 118.305 32.012C118.305 35.2698 117.093 37.6744 114.669 39.2257C112.265 40.7576 109.298 41.5236 105.768 41.5236C102.259 41.5236 99.2819 40.8837 96.8386 39.6038V41.349Z"/>
</mask>
<path d="M38.6349 41H0.123372V31.3139H3.75928V10.2256H0.123372V0.539577H23.2478V10.2256H19.4082V31.3139H28.978V24.8275H38.6349V41ZM56.9599 26.8054C56.9599 31.3042 58.5694 33.5537 61.7884 33.5537C65.2013 33.5537 66.9078 31.2848 66.9078 26.7472C66.9078 24.6723 66.4909 23.0628 65.657 21.9187C64.8038 20.7746 63.6015 20.2026 62.0502 20.2026C60.5183 20.2026 59.2869 20.7649 58.3561 21.8896C57.4253 23.0144 56.9599 24.6529 56.9599 26.8054ZM42.1545 26.7472C42.1545 22.5974 43.8997 19.0973 47.3902 16.2467C50.8807 13.3962 55.5928 11.9709 61.5266 11.9709C67.4992 11.9709 72.3568 13.3477 76.0994 16.1013C79.8419 18.8549 81.7132 22.4423 81.7132 26.8636C81.7132 31.1297 79.9292 34.6881 76.3612 37.5386C72.7931 40.3892 68.081 41.8144 62.2247 41.8144C55.9031 41.8144 50.9777 40.3892 47.4484 37.5386C43.9191 34.7074 42.1545 31.1103 42.1545 26.7472ZM96.8386 41.349H87.7925V32.3902H96.2569C98.4287 34.6784 100.804 35.8225 103.383 35.8225C105.982 35.8225 107.281 35.2892 107.281 34.2227C107.281 33.6797 107 33.2628 106.437 32.9719C105.856 32.6616 104.314 32.2059 101.813 31.6048C99.7958 31.0618 97.5658 30.4316 95.1225 29.7141C93.0088 29.113 91.3411 28.3567 90.1194 27.4453C88.859 26.5339 88.0155 25.6419 87.5889 24.7693C87.1235 23.8967 86.8908 22.7526 86.8908 21.337C86.8908 18.215 87.9961 15.9171 90.2067 14.4433C92.398 12.9889 95.1806 12.2618 98.5548 12.2618C102.045 12.2618 104.973 12.9211 107.339 14.2397V12.7853H116.269V20.9879H108.008C105.953 19.0294 103.509 18.0501 100.678 18.0501C98.4481 18.0501 97.3331 18.6416 97.3331 19.8245C97.3331 20.3868 97.6628 20.7552 98.3221 20.9298C98.8844 21.1043 100.746 21.5212 103.907 22.1805C107.494 22.9368 110.296 23.6931 112.313 24.4493C114.31 25.2056 115.813 26.2043 116.822 27.4453C117.811 28.6864 118.305 30.2086 118.305 32.012C118.305 35.2698 117.093 37.6744 114.669 39.2257C112.265 40.7576 109.298 41.5236 105.768 41.5236C102.259 41.5236 99.2819 40.8837 96.8386 39.6038V41.349Z" fill="white"/>
<path d="M38.6349 41V45.6043H43.2392V41H38.6349ZM0.123372 41H-4.48091V45.6043H0.123372V41ZM0.123372 31.3139V26.7097H-4.48091V31.3139H0.123372ZM3.75928 31.3139V35.9182H8.36356V31.3139H3.75928ZM3.75928 10.2256H8.36356V5.62137H3.75928V10.2256ZM0.123372 10.2256H-4.48091V14.8299H0.123372V10.2256ZM0.123372 0.539577V-4.0647H-4.48091V0.539577H0.123372ZM23.2478 0.539577H27.852V-4.0647H23.2478V0.539577ZM23.2478 10.2256V14.8299H27.852V10.2256H23.2478ZM19.4082 10.2256V5.62137H14.804V10.2256H19.4082ZM19.4082 31.3139H14.804V35.9182H19.4082V31.3139ZM28.978 31.3139V35.9182H33.5822V31.3139H28.978ZM28.978 24.8275V20.2232H24.3737V24.8275H28.978ZM38.6349 24.8275H43.2392V20.2232H38.6349V24.8275ZM38.6349 36.3957H0.123372V45.6043H38.6349V36.3957ZM4.72765 41V31.3139H-4.48091V41H4.72765ZM0.123372 35.9182H3.75928V26.7097H0.123372V35.9182ZM8.36356 31.3139V10.2256H-0.844994V31.3139H8.36356ZM3.75928 5.62137H0.123372V14.8299H3.75928V5.62137ZM4.72765 10.2256V0.539577H-4.48091V10.2256H4.72765ZM0.123372 5.14386H23.2478V-4.0647H0.123372V5.14386ZM18.6435 0.539577V10.2256H27.852V0.539577H18.6435ZM23.2478 5.62137H19.4082V14.8299H23.2478V5.62137ZM14.804 10.2256V31.3139H24.0125V10.2256H14.804ZM19.4082 35.9182H28.978V26.7097H19.4082V35.9182ZM33.5822 31.3139V24.8275H24.3737V31.3139H33.5822ZM28.978 29.4317H38.6349V20.2232H28.978V29.4317ZM34.0307 24.8275V41H43.2392V24.8275H34.0307ZM65.657 21.9187L69.378 19.2069L69.3631 19.1865L69.348 19.1662L65.657 21.9187ZM47.4484 37.5386L50.3414 33.9568L50.3355 33.9519L50.3295 33.9471L47.4484 37.5386ZM52.3557 26.8054C52.3557 29.465 52.8064 32.2871 54.4226 34.5458C56.2421 37.0888 58.9719 38.1579 61.7884 38.1579V28.9494C61.5177 28.9494 61.5013 28.9029 61.6203 28.9583C61.7637 29.0251 61.871 29.1308 61.9115 29.1874C61.9317 29.2155 61.8372 29.0956 61.7404 28.6896C61.643 28.2815 61.5642 27.6704 61.5642 26.8054H52.3557ZM61.7884 38.1579C64.6134 38.1579 67.4044 37.15 69.3076 34.6196C71.0251 32.3362 71.5121 29.4608 71.5121 26.7472H62.3035C62.3035 27.608 62.2211 28.2094 62.1218 28.6053C62.0238 28.9963 61.9293 29.1097 61.9483 29.0844C61.9867 29.0334 62.0744 28.9579 62.1626 28.9188C62.2241 28.8916 62.1366 28.9494 61.7884 28.9494V38.1579ZM71.5121 26.7472C71.5121 24.1315 70.9973 21.4288 69.378 19.2069L61.9361 24.6306C61.9844 24.6969 62.3035 25.2132 62.3035 26.7472H71.5121ZM69.348 19.1662C67.5417 16.7441 64.9086 15.5983 62.0502 15.5983V24.8069C62.1553 24.8069 62.2053 24.8165 62.2117 24.8179C62.2161 24.8188 62.1867 24.8128 62.1372 24.7893C62.0867 24.7652 62.039 24.7341 62.0008 24.7023C61.9638 24.6714 61.954 24.655 61.9661 24.6713L69.348 19.1662ZM62.0502 15.5983C59.2241 15.5983 56.6629 16.714 54.809 18.9541L61.9032 24.8252C61.9372 24.7842 61.9517 24.7747 61.943 24.7816C61.9332 24.7892 61.9142 24.8017 61.8905 24.8125C61.8672 24.8232 61.8589 24.8233 61.8758 24.8198C61.8943 24.8161 61.9493 24.8069 62.0502 24.8069V15.5983ZM54.809 18.9541C52.9358 21.2176 52.3557 24.0737 52.3557 26.8054H61.5642C61.5642 26.0482 61.6475 25.5391 61.7381 25.2201C61.7821 25.065 61.8251 24.9647 61.8548 24.9059C61.8838 24.8486 61.9022 24.8264 61.9032 24.8252L54.809 18.9541ZM46.7588 26.7472C46.7588 24.11 47.7778 21.8747 50.3026 19.8129L44.4779 12.6806C40.0216 16.3198 37.5502 21.0849 37.5502 26.7472H46.7588ZM50.3026 19.8129C52.742 17.8206 56.3154 16.5752 61.5266 16.5752V7.3666C54.8703 7.3666 49.0193 8.97167 44.4779 12.6806L50.3026 19.8129ZM61.5266 16.5752C66.7986 16.5752 70.6188 17.7852 73.3707 19.8099L78.828 12.3926C74.0948 8.91018 68.1998 7.3666 61.5266 7.3666V16.5752ZM73.3707 19.8099C76.0044 21.7477 77.1089 23.9917 77.1089 26.8636H86.3175C86.3175 20.8929 83.6794 15.9621 78.828 12.3926L73.3707 19.8099ZM77.1089 26.8636C77.1089 29.6203 76.0503 31.8937 73.4873 33.9414L79.235 41.1359C83.8081 37.4824 86.3175 32.6392 86.3175 26.8636H77.1089ZM73.4873 33.9414C70.9417 35.975 67.3356 37.2102 62.2247 37.2102V46.4187C68.8263 46.4187 74.6445 44.8033 79.235 41.1359L73.4873 33.9414ZM62.2247 37.2102C56.5473 37.2102 52.782 35.928 50.3414 33.9568L44.5554 41.1205C49.1733 44.8504 55.2589 46.4187 62.2247 46.4187V37.2102ZM50.3295 33.9471C47.8429 31.9524 46.7588 29.655 46.7588 26.7472H37.5502C37.5502 32.5657 39.9954 37.4625 44.5673 41.1301L50.3295 33.9471ZM96.8386 41.349V45.9533H101.443V41.349H96.8386ZM87.7925 41.349H83.1882V45.9533H87.7925V41.349ZM87.7925 32.3902V27.7859H83.1882V32.3902H87.7925ZM96.2569 32.3902L99.5964 29.2205L98.2347 27.7859H96.2569V32.3902ZM106.437 32.9719L104.271 37.0345L104.296 37.0482L104.322 37.0615L106.437 32.9719ZM101.813 31.6048L100.616 36.0508L100.676 36.067L100.737 36.0816L101.813 31.6048ZM95.1225 29.7141L96.4197 25.2964L96.4009 25.2909L96.382 25.2855L95.1225 29.7141ZM90.1194 27.4453L92.8726 23.7549L92.8451 23.7344L92.8173 23.7142L90.1194 27.4453ZM87.5889 24.7693L91.7253 22.747L91.6896 22.6742L91.6515 22.6026L87.5889 24.7693ZM90.2067 14.4433L87.6606 10.6071L87.6527 10.6123L90.2067 14.4433ZM107.339 14.2397L105.097 18.2614L111.943 22.0772V14.2397H107.339ZM107.339 12.7853V8.18105H102.735V12.7853H107.339ZM116.269 12.7853H120.873V8.18105H116.269V12.7853ZM116.269 20.9879V25.5922H120.873V20.9879H116.269ZM108.008 20.9879L104.832 24.3213L106.166 25.5922H108.008V20.9879ZM98.3221 20.9298L99.6868 16.5324L99.5941 16.5036L99.5003 16.4788L98.3221 20.9298ZM103.907 22.1805L104.857 17.6753L104.847 17.6733L103.907 22.1805ZM112.313 24.4493L113.943 20.1434L113.937 20.1408L113.93 20.1382L112.313 24.4493ZM116.822 27.4453L120.422 24.5759L120.409 24.5588L120.395 24.5419L116.822 27.4453ZM114.669 39.2257L117.143 43.1088L117.151 43.1037L114.669 39.2257ZM96.8386 39.6038L98.975 35.5252L92.2343 31.9944V39.6038H96.8386ZM96.8386 36.7448H87.7925V45.9533H96.8386V36.7448ZM92.3967 41.349V32.3902H83.1882V41.349H92.3967ZM87.7925 36.9944H96.2569V27.7859H87.7925V36.9944ZM92.9174 35.5599C95.7504 38.5447 99.2679 40.4267 103.383 40.4267V31.2182C102.34 31.2182 101.107 30.8121 99.5964 29.2205L92.9174 35.5599ZM103.383 40.4267C104.86 40.4267 106.561 40.295 108.055 39.682C108.845 39.3575 109.819 38.8007 110.611 37.8252C111.465 36.774 111.885 35.5063 111.885 34.2227H102.677C102.677 33.4723 102.934 32.6712 103.463 32.02C103.931 31.4444 104.417 31.2209 104.558 31.1631C104.705 31.1027 104.707 31.1275 104.464 31.1607C104.237 31.1917 103.886 31.2182 103.383 31.2182V40.4267ZM111.885 34.2227C111.885 33.1105 111.582 31.9585 110.887 30.9283C110.218 29.9352 109.345 29.2921 108.553 28.8823L104.322 37.0615C104.092 36.9426 103.641 36.6534 103.253 36.0772C102.839 35.4639 102.677 34.7919 102.677 34.2227H111.885ZM108.604 28.9093C107.856 28.5102 106.915 28.2082 106.15 27.982C105.272 27.7226 104.176 27.4375 102.888 27.128L100.737 36.0816C101.95 36.3732 102.876 36.6166 103.54 36.8128C103.872 36.9109 104.105 36.9877 104.259 37.043C104.44 37.1085 104.409 37.1084 104.271 37.0345L108.604 28.9093ZM103.01 27.1588C101.033 26.6266 98.8367 26.0061 96.4197 25.2964L93.8252 34.1319C96.2949 34.8571 98.559 35.4971 100.616 36.0508L103.01 27.1588ZM96.382 25.2855C94.5892 24.7756 93.4941 24.2185 92.8726 23.7549L87.3663 31.1358C89.1882 32.495 91.4284 33.4504 93.8629 34.1428L96.382 25.2855ZM92.8173 23.7142C92.3617 23.3848 92.0669 23.1196 91.8868 22.9292C91.7046 22.7366 91.6884 22.6717 91.7253 22.747L83.4524 26.7915C84.3529 28.6334 85.8787 30.0608 87.4216 31.1764L92.8173 23.7142ZM91.6515 22.6026C91.662 22.6223 91.495 22.3021 91.495 21.337H82.2865C82.2865 23.2031 82.585 25.1711 83.5263 26.936L91.6515 22.6026ZM91.495 21.337C91.495 19.4427 92.0703 18.7346 92.7607 18.2743L87.6527 10.6123C83.9219 13.0996 82.2865 16.9872 82.2865 21.337H91.495ZM92.7529 18.2795C94.0022 17.4503 95.832 16.866 98.5548 16.866V7.65748C94.5293 7.65748 90.7937 8.52755 87.6606 10.6071L92.7529 18.2795ZM98.5548 16.866C101.482 16.866 103.587 17.4196 105.097 18.2614L109.581 10.2179C106.36 8.4225 102.609 7.65748 98.5548 7.65748V16.866ZM111.943 14.2397V12.7853H102.735V14.2397H111.943ZM107.339 17.3896H116.269V8.18105H107.339V17.3896ZM111.665 12.7853V20.9879H120.873V12.7853H111.665ZM116.269 16.3837H108.008V25.5922H116.269V16.3837ZM111.184 17.6546C108.275 14.8828 104.696 13.4459 100.678 13.4459V22.6544C102.323 22.6544 103.63 23.176 104.832 24.3213L111.184 17.6546ZM100.678 13.4459C99.3063 13.4459 97.5651 13.6023 96.0118 14.4262C95.1668 14.8745 94.2918 15.5672 93.6437 16.5984C92.9857 17.6456 92.7288 18.7768 92.7288 19.8245H101.937C101.937 20.2807 101.82 20.8944 101.441 21.498C101.071 22.0856 100.614 22.4087 100.327 22.5612C100.063 22.7013 99.9192 22.7122 100.016 22.695C100.103 22.6797 100.311 22.6544 100.678 22.6544V13.4459ZM92.7288 19.8245C92.7288 21.0718 93.1247 22.4478 94.149 23.5927C95.1015 24.6572 96.2636 25.1477 97.1439 25.3807L99.5003 16.4788C99.7212 16.5373 100.389 16.7563 101.012 17.4524C101.706 18.2289 101.937 19.1394 101.937 19.8245H92.7288ZM96.9574 25.3271C97.786 25.5843 99.9294 26.0543 102.967 26.6878L104.847 17.6733C103.276 17.3455 102.045 17.0817 101.146 16.8804C100.696 16.7796 100.343 16.6975 100.079 16.6331C99.79 16.5626 99.6839 16.5315 99.6868 16.5324L96.9574 25.3271ZM102.957 26.6858C106.451 27.4224 108.995 28.1226 110.696 28.7605L113.93 20.1382C111.597 19.2636 108.537 18.4512 104.857 17.6753L102.957 26.6858ZM110.683 28.7553C112.166 29.3171 112.896 29.9157 113.248 30.3487L120.395 24.5419C118.73 22.4928 116.454 21.0941 113.943 20.1434L110.683 28.7553ZM113.221 30.3147C113.472 30.6306 113.701 31.1013 113.701 32.012H122.909C122.909 29.316 122.149 26.7422 120.422 24.5759L113.221 30.3147ZM113.701 32.012C113.701 33.9442 113.095 34.7664 112.187 35.3476L117.151 43.1037C121.091 40.5823 122.909 36.5954 122.909 32.012H113.701ZM112.195 35.3425C110.688 36.3027 108.63 36.9193 105.768 36.9193V46.1278C109.966 46.1278 113.841 45.2125 117.143 43.1088L112.195 35.3425ZM105.768 36.9193C102.805 36.9193 100.604 36.3784 98.975 35.5252L94.7022 43.6824C97.96 45.3889 101.712 46.1278 105.768 46.1278V36.9193ZM92.2343 39.6038V41.349H101.443V39.6038H92.2343Z" fill="#006497" mask="url(#path-1-outside-1_2_20690)"/>
</g>
<defs>
<filter id="filter0_d_2_20690" x="0.123291" y="0.540039" width="122.128" height="45.2209" filterUnits="userSpaceOnUse" color-interpolation-filters="sRGB">
<feFlood flood-opacity="0" result="BackgroundImageFix"/>
<feColorMatrix in="SourceAlpha" type="matrix" values="0 0 0 0 0 0 0 0 0 0 0 0 0 0 0 0 0 0 127 0" result="hardAlpha"/>
<feOffset dx="3.94652" dy="3.94652"/>
<feComposite in2="hardAlpha" operator="out"/>
<feColorMatrix type="matrix" values="0 0 0 0 0 0 0 0 0 0 0 0 0 0 0 0 0 0 0.25 0"/>
<feBlend mode="normal" in2="BackgroundImageFix" result="effect1_dropShadow_2_20690"/>
<feBlend mode="normal" in="SourceGraphic" in2="effect1_dropShadow_2_20690" result="shape"/>
</filter>
</defs>
</svg>
