<svg width="430" height="71" viewBox="0 0 430 71" fill="none" xmlns="http://www.w3.org/2000/svg">
<g filter="url(#filter0_d_2_20689)">
<mask id="path-1-outside-1_2_20689" maskUnits="userSpaceOnUse" x="-7" y="-7" width="438" height="79" fill="black">
<rect fill="white" x="-7" y="-7" width="438" height="79"/>
<path d="M29.7686 14.9748V26.6936H32.4219C35.9007 26.6936 38.2593 26.5904 39.4975 26.3841C40.8241 26.1777 41.9444 25.5881 42.8584 24.6152C43.7723 23.7013 44.2292 22.4483 44.2292 20.8563C44.2292 19.2643 43.7723 17.9966 42.8584 17.0532C41.9444 16.0803 40.7799 15.4907 39.3648 15.2843C38.0087 15.0779 35.5322 14.9748 31.9355 14.9748H29.7686ZM34.4119 63H0.979993V48.274H5.97709V16.213H0.979993V1.487H34.4119C37.419 1.487 40.205 1.54596 42.7699 1.66389C45.3348 1.75233 47.5312 1.89974 49.359 2.10611C51.1869 2.283 52.8673 2.53359 54.4003 2.85789C58.7046 3.77181 62.1982 5.76181 64.881 8.82788C67.5933 11.9529 68.9494 15.6381 68.9494 19.8834C68.9494 23.0674 68.1239 25.9566 66.473 28.551C64.822 31.1158 62.6551 33.0026 59.9723 34.2114L68.463 48.274H72.8852V63H50.7299L37.3306 37.8818H29.7686V48.274H34.4119V63ZM100.789 41.4196C100.789 48.2593 103.236 51.6791 108.13 51.6791C113.319 51.6791 115.913 48.2298 115.913 41.3312C115.913 38.1766 115.279 35.7297 114.012 33.9903C112.715 32.2509 110.887 31.3812 108.528 31.3812C106.199 31.3812 104.327 32.2361 102.912 33.9461C101.497 35.656 100.789 38.1472 100.789 41.4196ZM78.2803 41.3312C78.2803 35.0221 80.9336 29.7007 86.2403 25.367C91.5469 21.0332 98.7109 18.8663 107.732 18.8663C116.813 18.8663 124.198 20.9595 129.888 25.1458C135.577 29.3322 138.422 34.7863 138.422 41.508C138.422 47.994 135.71 53.4038 130.286 57.7376C124.861 62.0713 117.697 64.2382 108.794 64.2382C99.1826 64.2382 91.6943 62.0713 86.3287 57.7376C80.9631 53.4333 78.2803 47.9645 78.2803 41.3312ZM184.944 45.3996L201.527 49.1142C200.142 53.8902 197.164 57.6049 192.595 60.2582C187.966 62.9116 182.247 64.2382 175.436 64.2382C166.415 64.2382 159.31 62.204 154.121 58.1356C148.933 54.0671 146.338 48.6131 146.338 41.7734C146.338 35.199 148.756 29.8039 153.591 25.5881C158.396 21.4017 164.425 19.3085 171.677 19.3085C177.81 19.3085 182.541 20.532 185.873 22.979V20.1045H199.449V38.4125H185.873C184.192 33.5186 181.347 31.0716 177.338 31.0716C174.626 31.0716 172.532 32.1182 171.058 34.2114C169.584 36.3635 168.847 38.9726 168.847 42.0387C168.847 45.3701 169.643 47.994 171.235 49.9102C172.798 51.8265 174.832 52.7847 177.338 52.7847C181.465 52.7847 184.001 50.323 184.944 45.3996ZM234.606 63H206.878V49.5122H212.362V14.9748H206.79V1.487H234.606V44.3383L248.58 30.6736H240.752V20.1045H268.17V31.7349H263.173L255.125 39.6065L264.809 49.5122H268.303V63H252.339L234.606 44.3383V63ZM305.273 63H274.892V49.5122H279.314V33.5923H274.892V20.1045H301.558V49.5122H305.273V63ZM277.457 7.98765C277.457 5.65862 278.651 3.78655 281.039 2.37144C283.397 0.956334 286.316 0.24878 289.795 0.24878C293.362 0.24878 296.236 0.985815 298.418 2.45989C300.57 3.96344 301.646 5.79129 301.646 7.94343C301.646 10.2725 300.526 12.1151 298.285 13.4712C296.015 14.8568 293.156 15.5496 289.706 15.5496C286.198 15.5496 283.279 14.9158 280.95 13.6481C278.621 12.4099 277.457 10.5231 277.457 7.98765ZM334.238 38.1914H346.753C346.812 37.3069 346.841 36.8058 346.841 36.6878C346.841 34.3588 346.252 32.4278 345.072 30.8947C343.893 29.3912 342.331 28.6394 340.385 28.6394C338.38 28.6394 336.847 29.4649 335.786 31.1158C334.724 32.7963 334.194 34.86 334.194 37.3069C334.194 37.6312 334.209 37.926 334.238 38.1914ZM348.389 49.4238L366.741 51.6791C365.916 53.5954 364.766 55.3201 363.292 56.8531C361.818 58.3567 360.02 59.6686 357.897 60.7889C353.622 63.0884 348.507 64.2382 342.552 64.2382C332.558 64.2382 325.04 62.1598 319.999 58.0029C314.957 53.8755 312.437 48.4657 312.437 41.7734C312.437 35.2285 314.928 29.7744 319.91 25.4112C324.833 21.0479 331.511 18.8663 339.943 18.8663C348.05 18.8663 354.654 20.93 359.754 25.0574C364.766 29.1553 367.434 35.3906 367.758 43.7634H333.973C334.061 50.721 336.656 54.1998 341.756 54.1998C344.822 54.1998 347.033 52.6078 348.389 49.4238ZM390.842 63.5307H377.089V49.9102H389.958C393.26 53.3891 396.871 55.1285 400.792 55.1285C404.743 55.1285 406.718 54.3177 406.718 52.6962C406.718 51.8708 406.291 51.2369 405.436 50.7947C404.551 50.323 402.207 49.6302 398.404 48.7162C395.338 47.8908 391.948 46.9326 388.233 45.8418C385.02 44.9279 382.484 43.7781 380.627 42.3925C378.711 41.0069 377.428 39.6507 376.78 38.324C376.072 36.9974 375.718 35.258 375.718 33.1058C375.718 28.3593 377.399 24.8658 380.76 22.6252C384.091 20.4141 388.322 19.3085 393.452 19.3085C398.758 19.3085 403.21 20.3109 406.807 22.3156V20.1045H420.383V32.5752H407.824C404.699 29.5975 400.984 28.1087 396.68 28.1087C393.289 28.1087 391.594 29.0079 391.594 30.8063C391.594 31.6612 392.095 32.2214 393.098 32.4867C393.953 32.7521 396.783 33.3859 401.588 34.3883C407.042 35.538 411.303 36.6878 414.369 37.8376C417.405 38.9874 419.69 40.5057 421.223 42.3925C422.727 44.2793 423.478 46.5936 423.478 49.3354C423.478 54.2882 421.636 57.9439 417.951 60.3024C414.295 62.6315 409.784 63.796 404.419 63.796C399.082 63.796 394.557 62.8231 390.842 60.8773V63.5307Z"/>
</mask>
<path d="M29.7686 14.9748V26.6936H32.4219C35.9007 26.6936 38.2593 26.5904 39.4975 26.3841C40.8241 26.1777 41.9444 25.5881 42.8584 24.6152C43.7723 23.7013 44.2292 22.4483 44.2292 20.8563C44.2292 19.2643 43.7723 17.9966 42.8584 17.0532C41.9444 16.0803 40.7799 15.4907 39.3648 15.2843C38.0087 15.0779 35.5322 14.9748 31.9355 14.9748H29.7686ZM34.4119 63H0.979993V48.274H5.97709V16.213H0.979993V1.487H34.4119C37.419 1.487 40.205 1.54596 42.7699 1.66389C45.3348 1.75233 47.5312 1.89974 49.359 2.10611C51.1869 2.283 52.8673 2.53359 54.4003 2.85789C58.7046 3.77181 62.1982 5.76181 64.881 8.82788C67.5933 11.9529 68.9494 15.6381 68.9494 19.8834C68.9494 23.0674 68.1239 25.9566 66.473 28.551C64.822 31.1158 62.6551 33.0026 59.9723 34.2114L68.463 48.274H72.8852V63H50.7299L37.3306 37.8818H29.7686V48.274H34.4119V63ZM100.789 41.4196C100.789 48.2593 103.236 51.6791 108.13 51.6791C113.319 51.6791 115.913 48.2298 115.913 41.3312C115.913 38.1766 115.279 35.7297 114.012 33.9903C112.715 32.2509 110.887 31.3812 108.528 31.3812C106.199 31.3812 104.327 32.2361 102.912 33.9461C101.497 35.656 100.789 38.1472 100.789 41.4196ZM78.2803 41.3312C78.2803 35.0221 80.9336 29.7007 86.2403 25.367C91.5469 21.0332 98.7109 18.8663 107.732 18.8663C116.813 18.8663 124.198 20.9595 129.888 25.1458C135.577 29.3322 138.422 34.7863 138.422 41.508C138.422 47.994 135.71 53.4038 130.286 57.7376C124.861 62.0713 117.697 64.2382 108.794 64.2382C99.1826 64.2382 91.6943 62.0713 86.3287 57.7376C80.9631 53.4333 78.2803 47.9645 78.2803 41.3312ZM184.944 45.3996L201.527 49.1142C200.142 53.8902 197.164 57.6049 192.595 60.2582C187.966 62.9116 182.247 64.2382 175.436 64.2382C166.415 64.2382 159.31 62.204 154.121 58.1356C148.933 54.0671 146.338 48.6131 146.338 41.7734C146.338 35.199 148.756 29.8039 153.591 25.5881C158.396 21.4017 164.425 19.3085 171.677 19.3085C177.81 19.3085 182.541 20.532 185.873 22.979V20.1045H199.449V38.4125H185.873C184.192 33.5186 181.347 31.0716 177.338 31.0716C174.626 31.0716 172.532 32.1182 171.058 34.2114C169.584 36.3635 168.847 38.9726 168.847 42.0387C168.847 45.3701 169.643 47.994 171.235 49.9102C172.798 51.8265 174.832 52.7847 177.338 52.7847C181.465 52.7847 184.001 50.323 184.944 45.3996ZM234.606 63H206.878V49.5122H212.362V14.9748H206.79V1.487H234.606V44.3383L248.58 30.6736H240.752V20.1045H268.17V31.7349H263.173L255.125 39.6065L264.809 49.5122H268.303V63H252.339L234.606 44.3383V63ZM305.273 63H274.892V49.5122H279.314V33.5923H274.892V20.1045H301.558V49.5122H305.273V63ZM277.457 7.98765C277.457 5.65862 278.651 3.78655 281.039 2.37144C283.397 0.956334 286.316 0.24878 289.795 0.24878C293.362 0.24878 296.236 0.985815 298.418 2.45989C300.57 3.96344 301.646 5.79129 301.646 7.94343C301.646 10.2725 300.526 12.1151 298.285 13.4712C296.015 14.8568 293.156 15.5496 289.706 15.5496C286.198 15.5496 283.279 14.9158 280.95 13.6481C278.621 12.4099 277.457 10.5231 277.457 7.98765ZM334.238 38.1914H346.753C346.812 37.3069 346.841 36.8058 346.841 36.6878C346.841 34.3588 346.252 32.4278 345.072 30.8947C343.893 29.3912 342.331 28.6394 340.385 28.6394C338.38 28.6394 336.847 29.4649 335.786 31.1158C334.724 32.7963 334.194 34.86 334.194 37.3069C334.194 37.6312 334.209 37.926 334.238 38.1914ZM348.389 49.4238L366.741 51.6791C365.916 53.5954 364.766 55.3201 363.292 56.8531C361.818 58.3567 360.02 59.6686 357.897 60.7889C353.622 63.0884 348.507 64.2382 342.552 64.2382C332.558 64.2382 325.04 62.1598 319.999 58.0029C314.957 53.8755 312.437 48.4657 312.437 41.7734C312.437 35.2285 314.928 29.7744 319.91 25.4112C324.833 21.0479 331.511 18.8663 339.943 18.8663C348.05 18.8663 354.654 20.93 359.754 25.0574C364.766 29.1553 367.434 35.3906 367.758 43.7634H333.973C334.061 50.721 336.656 54.1998 341.756 54.1998C344.822 54.1998 347.033 52.6078 348.389 49.4238ZM390.842 63.5307H377.089V49.9102H389.958C393.26 53.3891 396.871 55.1285 400.792 55.1285C404.743 55.1285 406.718 54.3177 406.718 52.6962C406.718 51.8708 406.291 51.2369 405.436 50.7947C404.551 50.323 402.207 49.6302 398.404 48.7162C395.338 47.8908 391.948 46.9326 388.233 45.8418C385.02 44.9279 382.484 43.7781 380.627 42.3925C378.711 41.0069 377.428 39.6507 376.78 38.324C376.072 36.9974 375.718 35.258 375.718 33.1058C375.718 28.3593 377.399 24.8658 380.76 22.6252C384.091 20.4141 388.322 19.3085 393.452 19.3085C398.758 19.3085 403.21 20.3109 406.807 22.3156V20.1045H420.383V32.5752H407.824C404.699 29.5975 400.984 28.1087 396.68 28.1087C393.289 28.1087 391.594 29.0079 391.594 30.8063C391.594 31.6612 392.095 32.2214 393.098 32.4867C393.953 32.7521 396.783 33.3859 401.588 34.3883C407.042 35.538 411.303 36.6878 414.369 37.8376C417.405 38.9874 419.69 40.5057 421.223 42.3925C422.727 44.2793 423.478 46.5936 423.478 49.3354C423.478 54.2882 421.636 57.9439 417.951 60.3024C414.295 62.6315 409.784 63.796 404.419 63.796C399.082 63.796 394.557 62.8231 390.842 60.8773V63.5307Z" fill="white"/>
<path d="M29.7686 14.9748V7.97475H22.7686V14.9748H29.7686ZM29.7686 26.6936H22.7686V33.6936H29.7686V26.6936ZM39.4975 26.3841L38.4215 19.4673L38.3841 19.4731L38.3467 19.4793L39.4975 26.3841ZM42.8584 24.6152L37.9086 19.6654L37.8313 19.7428L37.7564 19.8225L42.8584 24.6152ZM42.8584 17.0532L37.7564 21.8459L37.7933 21.8851L37.8307 21.9238L42.8584 17.0532ZM39.3648 15.2843L38.3117 22.2046L38.3332 22.2079L38.3547 22.211L39.3648 15.2843ZM34.4119 63V70H41.4119V63H34.4119ZM0.979993 63H-6.02001V70H0.979993V63ZM0.979993 48.274V41.274H-6.02001V48.274H0.979993ZM5.97709 48.274V55.274H12.9771V48.274H5.97709ZM5.97709 16.213H12.9771V9.21297H5.97709V16.213ZM0.979993 16.213H-6.02001V23.213H0.979993V16.213ZM0.979993 1.487V-5.513H-6.02001V1.487H0.979993ZM42.7699 1.66389L42.4484 8.6565L42.4885 8.65834L42.5287 8.65973L42.7699 1.66389ZM49.359 2.10611L48.5737 9.06192L48.6292 9.06818L48.6847 9.07356L49.359 2.10611ZM54.4003 2.85789L55.8542 -3.98947L55.8491 -3.99056L54.4003 2.85789ZM64.881 8.82788L70.1675 4.23957L70.1583 4.22894L70.149 4.21834L64.881 8.82788ZM66.473 28.5509L72.359 32.3397L72.3689 32.3244L72.3786 32.3091L66.473 28.5509ZM59.9723 34.2114L57.0969 27.8292L49.8998 31.0719L53.9799 37.8295L59.9723 34.2114ZM68.463 48.274L62.4705 51.8921L64.5124 55.274H68.463V48.274ZM72.8852 48.274H79.8852V41.274H72.8852V48.274ZM72.8852 63V70H79.8852V63H72.8852ZM50.7299 63L44.5537 66.2947L46.5303 70H50.7299V63ZM37.3306 37.8818L43.5068 34.5871L41.5302 30.8818H37.3306V37.8818ZM29.7686 37.8818V30.8818H22.7686V37.8818H29.7686ZM29.7686 48.274H22.7686V55.274H29.7686V48.274ZM34.4119 48.274H41.4119V41.274H34.4119V48.274ZM22.7686 14.9748V26.6936H36.7686V14.9748H22.7686ZM29.7686 33.6936H32.4219V19.6936H29.7686V33.6936ZM32.4219 33.6936C35.8371 33.6936 38.7551 33.6043 40.6483 33.2888L38.3467 19.4793C37.7634 19.5765 35.9643 19.6936 32.4219 19.6936V33.6936ZM40.5734 33.3009C43.4315 32.8563 45.9717 31.5248 47.9603 29.4079L37.7564 19.8225C37.8022 19.7737 37.9085 19.6789 38.0725 19.5926C38.236 19.5066 38.3683 19.4755 38.4215 19.4673L40.5734 33.3009ZM47.8081 29.5649C50.3258 27.0472 51.2292 23.8482 51.2292 20.8563H37.2292C37.2292 20.9885 37.21 20.8664 37.3102 20.5916C37.42 20.2907 37.6206 19.9535 37.9086 19.6654L47.8081 29.5649ZM51.2292 20.8563C51.2292 17.8555 50.3237 14.6989 47.886 12.1826L37.8307 21.9238C37.5792 21.6642 37.4002 21.3598 37.3013 21.0853C37.2106 20.8337 37.2292 20.7262 37.2292 20.8563H51.2292ZM47.9603 12.2605C45.8829 10.049 43.2363 8.77486 40.375 8.35758L38.3547 22.211C38.3841 22.2153 38.2924 22.2048 38.1375 22.1264C37.977 22.0452 37.8439 21.939 37.7564 21.8459L47.9603 12.2605ZM40.4179 8.36398C38.4701 8.06757 35.4969 7.97475 31.9355 7.97475V21.9748C35.5675 21.9748 37.5473 22.0883 38.3117 22.2046L40.4179 8.36398ZM31.9355 7.97475H29.7686V21.9748H31.9355V7.97475ZM34.4119 56H0.979993V70H34.4119V56ZM7.97999 63V48.274H-6.02001V63H7.97999ZM0.979993 55.274H5.97709V41.274H0.979993V55.274ZM12.9771 48.274V16.213H-1.02291V48.274H12.9771ZM5.97709 9.21297H0.979993V23.213H5.97709V9.21297ZM7.97999 16.213V1.487H-6.02001V16.213H7.97999ZM0.979993 8.487H34.4119V-5.513H0.979993V8.487ZM34.4119 8.487C37.3294 8.487 40.0069 8.54425 42.4484 8.6565L43.0914 -5.32872C40.4032 -5.45232 37.5087 -5.513 34.4119 -5.513V8.487ZM42.5287 8.65973C44.9768 8.74415 46.9814 8.88214 48.5737 9.06192L50.1443 -4.8497C48.0809 -5.08266 45.6928 -5.23948 43.0112 -5.33195L42.5287 8.65973ZM48.6847 9.07356C50.2954 9.22942 51.7133 9.44438 52.9516 9.70633L55.8491 -3.99056C54.0213 -4.3772 52.0784 -4.66343 50.0333 -4.86134L48.6847 9.07356ZM52.9465 9.70523C55.8966 10.3316 58.0077 11.6028 59.613 13.4374L70.149 4.21834C66.3886 -0.0792313 61.5127 -2.78802 55.8542 -3.98946L52.9465 9.70523ZM59.5945 13.4162C61.1707 15.2322 61.9494 17.276 61.9494 19.8834H75.9494C75.9494 14.0002 74.0159 8.67357 70.1675 4.23957L59.5945 13.4162ZM61.9494 19.8834C61.9494 21.7858 61.4774 23.3628 60.5674 24.7928L72.3786 32.3091C74.7705 28.5504 75.9494 24.349 75.9494 19.8834H61.9494ZM60.5869 24.7622C59.6396 26.2339 58.4999 27.1971 57.0969 27.8292L62.8478 40.5935C66.8104 38.8082 70.0044 35.9977 72.359 32.3397L60.5869 24.7622ZM53.9799 37.8295L62.4705 51.8921L74.4554 44.6559L65.9648 30.5933L53.9799 37.8295ZM68.463 55.274H72.8852V41.274H68.463V55.274ZM65.8852 48.274V63H79.8852V48.274H65.8852ZM72.8852 56H50.7299V70H72.8852V56ZM56.9061 59.7053L43.5068 34.5871L31.1544 41.1765L44.5537 66.2947L56.9061 59.7053ZM37.3306 30.8818H29.7686V44.8818H37.3306V30.8818ZM22.7686 37.8818V48.274H36.7686V37.8818H22.7686ZM29.7686 55.274H34.4119V41.274H29.7686V55.274ZM27.4119 48.274V63H41.4119V48.274H27.4119ZM114.012 33.9903L119.669 29.8674L119.646 29.8363L119.623 29.8055L114.012 33.9903ZM86.3287 57.7376L90.7271 52.292L90.718 52.2846L90.7089 52.2773L86.3287 57.7376ZM93.7894 41.4196C93.7894 45.4631 94.4747 49.7535 96.9318 53.1876C99.6981 57.0537 103.848 58.6791 108.13 58.6791V44.6791C107.719 44.6791 107.694 44.6084 107.875 44.6927C108.093 44.7943 108.256 44.9549 108.317 45.0409C108.348 45.0837 108.204 44.9014 108.057 44.2842C107.909 43.6637 107.789 42.7347 107.789 41.4196H93.7894ZM108.13 58.6791C112.425 58.6791 116.668 57.1467 119.562 53.2998C122.173 49.8282 122.913 45.4567 122.913 41.3312H108.913C108.913 42.6399 108.788 43.5541 108.637 44.1561C108.488 44.7505 108.344 44.9229 108.373 44.8845C108.432 44.8069 108.565 44.6922 108.699 44.6327C108.793 44.5913 108.66 44.6791 108.13 44.6791V58.6791ZM122.913 41.3312C122.913 37.3544 122.131 33.2454 119.669 29.8674L108.355 38.1132C108.428 38.214 108.913 38.9989 108.913 41.3312H122.913ZM119.623 29.8055C116.877 26.1232 112.874 24.3812 108.528 24.3812V38.3812C108.688 38.3812 108.764 38.3959 108.774 38.3979C108.78 38.3993 108.736 38.3902 108.66 38.3544C108.584 38.3179 108.511 38.2706 108.453 38.2222C108.397 38.1752 108.382 38.1503 108.4 38.175L119.623 29.8055ZM108.528 24.3812C104.232 24.3812 100.338 26.0774 97.5193 29.4831L108.305 38.409C108.356 38.3467 108.378 38.3323 108.365 38.3427C108.35 38.3542 108.321 38.3733 108.285 38.3898C108.25 38.4059 108.237 38.4061 108.263 38.4009C108.291 38.3951 108.375 38.3812 108.528 38.3812V24.3812ZM97.5193 29.4831C94.6714 32.9243 93.7894 37.2665 93.7894 41.4196H107.789C107.789 40.2684 107.916 39.4944 108.054 39.0094C108.121 38.7736 108.186 38.6212 108.231 38.5318C108.275 38.4446 108.303 38.4109 108.305 38.409L97.5193 29.4831ZM85.2803 41.3312C85.2803 37.3217 86.8296 33.9234 90.668 30.7887L81.8125 19.9452C75.0377 25.4781 71.2803 32.7226 71.2803 41.3312H85.2803ZM90.668 30.7887C94.3768 27.7598 99.8094 25.8663 107.732 25.8663V11.8663C97.6124 11.8663 88.7171 14.3065 81.8125 19.9452L90.668 30.7887ZM107.732 25.8663C115.747 25.8663 121.555 27.7059 125.739 30.7842L134.036 19.5075C126.84 14.213 117.878 11.8663 107.732 11.8663V25.8663ZM125.739 30.7842C129.743 33.7302 131.422 37.1419 131.422 41.508H145.422C145.422 32.4306 141.412 24.9342 134.036 19.5075L125.739 30.7842ZM131.422 41.508C131.422 45.6991 129.813 49.1555 125.916 52.2686L134.655 63.2065C141.607 57.6521 145.422 50.2888 145.422 41.508H131.422ZM125.916 52.2686C122.046 55.3604 116.564 57.2382 108.794 57.2382V71.2382C118.83 71.2382 127.676 68.7822 134.655 63.2065L125.916 52.2686ZM108.794 57.2382C100.162 57.2382 94.4375 55.2888 90.7271 52.292L81.9304 63.1832C88.9512 68.8538 98.2032 71.2382 108.794 71.2382V57.2382ZM90.7089 52.2773C86.9285 49.2447 85.2803 45.7519 85.2803 41.3312H71.2803C71.2803 50.1771 74.9978 57.6219 81.9485 63.1978L90.7089 52.2773ZM184.944 45.3996L186.474 38.5689L179.428 36.9905L178.069 44.0822L184.944 45.3996ZM201.527 49.1143L208.25 51.0647L210.325 43.9116L203.057 42.2835L201.527 49.1143ZM192.595 60.2582L196.076 66.3312L196.093 66.3215L196.109 66.3118L192.595 60.2582ZM153.591 25.5881L148.993 20.31L148.99 20.3121L153.591 25.5881ZM185.873 22.979L181.729 28.6206L192.873 36.8059V22.979H185.873ZM185.873 20.1045V13.1045H178.873V20.1045H185.873ZM199.449 20.1045H206.449V13.1045H199.449V20.1045ZM199.449 38.4125V45.4125H206.449V38.4125H199.449ZM185.873 38.4125L179.252 40.6858L180.875 45.4125H185.873V38.4125ZM171.058 34.2114L165.335 30.1809L165.309 30.2182L165.283 30.2558L171.058 34.2114ZM171.235 49.9102L176.66 45.4867L176.64 45.4618L176.62 45.4371L171.235 49.9102ZM183.414 52.2303L199.997 55.945L203.057 42.2835L186.474 38.5689L183.414 52.2303ZM194.805 47.1638C193.954 50.0948 192.199 52.3933 189.08 54.2047L196.109 66.3118C202.129 62.8165 206.329 57.6857 208.25 51.0647L194.805 47.1638ZM189.113 54.1853C185.799 56.0853 181.356 57.2382 175.436 57.2382V71.2382C183.137 71.2382 190.133 69.7378 196.076 66.3312L189.113 54.1853ZM175.436 57.2382C167.411 57.2382 162.013 55.4279 158.44 52.627L149.802 63.6441C156.607 68.9801 165.419 71.2382 175.436 71.2382V57.2382ZM158.44 52.627C155.016 49.9421 153.338 46.556 153.338 41.7734H139.338C139.338 50.6702 142.849 58.1922 149.802 63.6441L158.44 52.627ZM153.338 41.7734C153.338 37.1642 154.924 33.7131 158.191 30.8641L148.99 20.3121C142.588 25.8947 139.338 33.2339 139.338 41.7734H153.338ZM158.189 30.8661C161.544 27.9431 165.867 26.3085 171.677 26.3085V12.3085C162.983 12.3085 155.248 14.8603 148.993 20.31L158.189 30.8661ZM171.677 26.3085C177.005 26.3085 180.054 27.3904 181.729 28.6206L190.017 17.3373C185.029 13.6736 178.614 12.3085 171.677 12.3085V26.3085ZM192.873 22.979V20.1045H178.873V22.979H192.873ZM185.873 27.1045H199.449V13.1045H185.873V27.1045ZM192.449 20.1045V38.4125H206.449V20.1045H192.449ZM199.449 31.4125H185.873V45.4125H199.449V31.4125ZM192.493 36.1392C191.396 32.9425 189.7 29.8845 187.043 27.5998C184.26 25.2057 180.893 24.0716 177.338 24.0716V38.0716C177.62 38.0716 177.745 38.1128 177.773 38.1229C177.795 38.1307 177.834 38.145 177.914 38.2139C178.103 38.3761 178.669 38.9885 179.252 40.6858L192.493 36.1392ZM177.338 24.0716C172.508 24.0716 168.21 26.099 165.335 30.1809L176.782 38.2418C176.858 38.1338 176.902 38.0944 176.905 38.0923C176.905 38.0921 176.889 38.1054 176.864 38.1175C176.841 38.1292 176.849 38.1207 176.909 38.1075C176.974 38.0935 177.11 38.0716 177.338 38.0716V24.0716ZM165.283 30.2558C162.879 33.7658 161.847 37.8144 161.847 42.0387H175.847C175.847 40.1309 176.29 38.9612 176.834 38.167L165.283 30.2558ZM161.847 42.0387C161.847 46.4504 162.909 50.8417 165.851 54.3834L176.62 45.4371C176.378 45.1462 175.847 44.2899 175.847 42.0387H161.847ZM165.81 54.3338C168.723 57.9059 172.761 59.7847 177.338 59.7847V45.7847C177.159 45.7847 177.048 45.7677 176.992 45.7559C176.939 45.7446 176.918 45.7345 176.916 45.7334C176.913 45.7323 176.898 45.7257 176.866 45.6995C176.831 45.672 176.76 45.6093 176.66 45.4867L165.81 54.3338ZM177.338 59.7847C180.894 59.7847 184.419 58.6716 187.211 55.9606C189.859 53.3899 191.186 50.0205 191.819 46.7169L178.069 44.0822C177.759 45.7021 177.346 46.0253 177.459 45.9162C177.529 45.8483 177.631 45.7857 177.709 45.757C177.768 45.7353 177.674 45.7847 177.338 45.7847V59.7847ZM234.606 63V70H241.606V63H234.606ZM206.878 63H199.878V70H206.878V63ZM206.878 49.5122V42.5122H199.878V49.5122H206.878ZM212.362 49.5122V56.5122H219.362V49.5122H212.362ZM212.362 14.9748H219.362V7.97475H212.362V14.9748ZM206.79 14.9748H199.79V21.9748H206.79V14.9748ZM206.79 1.487V-5.513H199.79V1.487H206.79ZM234.606 1.487H241.606V-5.513H234.606V1.487ZM234.606 44.3383H227.606V60.9737L239.5 49.3431L234.606 44.3383ZM248.58 30.6736L253.474 35.6785L265.751 23.6736H248.58V30.6736ZM240.752 30.6736H233.752V37.6736H240.752V30.6736ZM240.752 20.1045V13.1045H233.752V20.1045H240.752ZM268.17 20.1045H275.17V13.1045H268.17V20.1045ZM268.17 31.7349V38.7349H275.17V31.7349H268.17ZM263.173 31.7349V24.7349H260.319L258.279 26.7305L263.173 31.7349ZM255.125 39.6065L250.23 34.6021L245.227 39.4956L250.119 44.5001L255.125 39.6065ZM264.809 49.5122L259.804 54.4058L261.863 56.5122H264.809V49.5122ZM268.303 49.5122H275.303V42.5122H268.303V49.5122ZM268.303 63V70H275.303V63H268.303ZM252.339 63L247.264 67.8219L249.334 70H252.339V63ZM234.606 44.3383L239.68 39.5164L227.606 26.8097V44.3383H234.606ZM234.606 56H206.878V70H234.606V56ZM213.878 63V49.5122H199.878V63H213.878ZM206.878 56.5122H212.362V42.5122H206.878V56.5122ZM219.362 49.5122V14.9748H205.362V49.5122H219.362ZM212.362 7.97475H206.79V21.9748H212.362V7.97475ZM213.79 14.9748V1.487H199.79V14.9748H213.79ZM206.79 8.487H234.606V-5.513H206.79V8.487ZM227.606 1.487V44.3383H241.606V1.487H227.606ZM239.5 49.3431L253.474 35.6785L243.686 25.6687L229.712 39.3334L239.5 49.3431ZM248.58 23.6736H240.752V37.6736H248.58V23.6736ZM247.752 30.6736V20.1045H233.752V30.6736H247.752ZM240.752 27.1045H268.17V13.1045H240.752V27.1045ZM261.17 20.1045V31.7349H275.17V20.1045H261.17ZM268.17 24.7349H263.173V38.7349H268.17V24.7349ZM258.279 26.7305L250.23 34.6021L260.019 44.6109L268.068 36.7394L258.279 26.7305ZM250.119 44.5001L259.804 54.4058L269.815 44.6187L260.13 34.7129L250.119 44.5001ZM264.809 56.5122H268.303V42.5122H264.809V56.5122ZM261.303 49.5122V63H275.303V49.5122H261.303ZM268.303 56H252.339V70H268.303V56ZM257.413 58.1781L239.68 39.5164L229.531 49.1601L247.264 67.8219L257.413 58.1781ZM227.606 44.3383V63H241.606V44.3383H227.606ZM305.273 63V70H312.273V63H305.273ZM274.892 63H267.892V70H274.892V63ZM274.892 49.5122V42.5122H267.892V49.5122H274.892ZM279.314 49.5122V56.5122H286.314V49.5122H279.314ZM279.314 33.5923H286.314V26.5923H279.314V33.5923ZM274.892 33.5923H267.892V40.5923H274.892V33.5923ZM274.892 20.1045V13.1045H267.892V20.1045H274.892ZM301.558 20.1045H308.558V13.1045H301.558V20.1045ZM301.558 49.5122H294.558V56.5122H301.558V49.5122ZM305.273 49.5122H312.273V42.5122H305.273V49.5122ZM281.039 2.37144L284.607 8.39348L284.624 8.38373L284.64 8.37389L281.039 2.37144ZM298.418 2.45989L302.427 -3.27843L302.382 -3.30968L302.337 -3.34024L298.418 2.45989ZM298.285 13.4712L294.661 7.4827L294.65 7.48948L294.638 7.49631L298.285 13.4712ZM280.95 13.6481L284.297 7.49985L284.267 7.48342L284.236 7.46729L280.95 13.6481ZM305.273 56H274.892V70H305.273V56ZM281.892 63V49.5122H267.892V63H281.892ZM274.892 56.5122H279.314V42.5122H274.892V56.5122ZM286.314 49.5122V33.5923H272.314V49.5122H286.314ZM279.314 26.5923H274.892V40.5923H279.314V26.5923ZM281.892 33.5923V20.1045H267.892V33.5923H281.892ZM274.892 27.1045H301.558V13.1045H274.892V27.1045ZM294.558 20.1045V49.5122H308.558V20.1045H294.558ZM301.558 56.5122H305.273V42.5122H301.558V56.5122ZM298.273 49.5122V63H312.273V49.5122H298.273ZM284.457 7.98766C284.457 8.00959 284.453 8.10287 284.414 8.24025C284.374 8.38005 284.315 8.50556 284.254 8.60097C284.132 8.79243 284.127 8.67846 284.607 8.39348L277.47 -3.6506C273.436 -1.2597 270.457 2.67451 270.457 7.98766H284.457ZM284.64 8.37389C285.658 7.76339 287.253 7.24878 289.795 7.24878V-6.75122C285.379 -6.75122 281.137 -5.85072 277.437 -3.63101L284.64 8.37389ZM289.795 7.24878C292.449 7.24878 293.82 7.80083 294.499 8.26001L302.337 -3.34024C298.653 -5.8292 294.275 -6.75122 289.795 -6.75122V7.24878ZM294.409 8.1982C294.852 8.50788 294.885 8.64186 294.807 8.5097C294.768 8.44265 294.721 8.34158 294.687 8.21712C294.654 8.09328 294.646 7.99522 294.646 7.94343H308.646C308.646 2.98901 305.987 -0.791557 302.427 -3.27843L294.409 8.1982ZM294.646 7.94343C294.646 7.96037 294.645 7.89849 294.676 7.78347C294.708 7.66502 294.76 7.5428 294.825 7.43556C294.962 7.2095 295.022 7.26396 294.661 7.4827L301.91 19.4597C305.934 17.0239 308.646 13.065 308.646 7.94343H294.646ZM294.638 7.49631C293.748 8.03994 292.244 8.54964 289.706 8.54964V22.5496C294.068 22.5496 298.283 21.6737 301.932 19.4461L294.638 7.49631ZM289.706 8.54964C287.003 8.54964 285.321 8.05708 284.297 7.49985L277.604 19.7963C281.238 21.7745 285.393 22.5496 289.706 22.5496V8.54964ZM284.236 7.46729C284.09 7.38968 284.057 7.3521 284.089 7.38055C284.125 7.41319 284.205 7.49478 284.287 7.62785C284.37 7.76214 284.42 7.89092 284.444 7.98503C284.468 8.07331 284.457 8.08438 284.457 7.98766H270.457C270.457 10.3635 271.016 12.7808 272.373 14.9808C273.722 17.1658 275.612 18.7378 277.664 19.8289L284.236 7.46729ZM334.238 38.1914L327.281 38.9644L327.973 45.1914H334.238V38.1914ZM346.753 38.1914V45.1914H353.302L353.737 38.657L346.753 38.1914ZM345.072 30.8947L350.621 26.6267L350.601 26.6007L350.58 26.5747L345.072 30.8947ZM335.786 31.1158L329.898 27.3305L329.882 27.3541L329.867 27.3779L335.786 31.1158ZM348.389 49.4238L349.243 42.4761L344.014 41.8334L341.949 46.6808L348.389 49.4238ZM366.741 51.6791L373.17 54.4485L376.865 45.8706L367.595 44.7314L366.741 51.6791ZM363.292 56.8531L368.29 61.7536L368.314 61.7294L368.338 61.7049L363.292 56.8531ZM357.897 60.7889L354.63 54.5982L354.605 54.6111L354.581 54.6242L357.897 60.7889ZM319.999 58.0029L324.452 52.6021L324.442 52.5943L324.433 52.5866L319.999 58.0029ZM319.91 25.4112L324.522 30.6773L324.537 30.6637L324.553 30.65L319.91 25.4112ZM359.754 25.0574L364.185 19.6383L364.171 19.6271L364.158 19.616L359.754 25.0574ZM367.758 43.7634V50.7634H375.035L374.753 43.4924L367.758 43.7634ZM333.973 43.7634V36.7634H326.883L326.973 43.8523L333.973 43.7634ZM334.238 45.1914H346.753V31.1914H334.238V45.1914ZM353.737 38.657C353.785 37.9457 353.841 37.108 353.841 36.6878H339.841C339.841 36.5823 339.844 36.5092 339.844 36.5088C339.845 36.4947 339.845 36.4948 339.844 36.5152C339.842 36.5557 339.838 36.6281 339.831 36.7411C339.818 36.9648 339.797 37.2902 339.768 37.7257L353.737 38.657ZM353.841 36.6878C353.841 33.1398 352.922 29.6181 350.621 26.6267L339.524 35.1627C339.582 35.2374 339.841 35.5778 339.841 36.6878H353.841ZM350.58 26.5747C348.046 23.3435 344.435 21.6394 340.385 21.6394V35.6394C340.436 35.6394 340.257 35.6437 339.981 35.5111C339.855 35.4503 339.749 35.3797 339.669 35.314C339.591 35.25 339.559 35.208 339.565 35.2147L350.58 26.5747ZM340.385 21.6394C336.06 21.6394 332.28 23.6245 329.898 27.3305L341.674 34.9011C341.646 34.9442 341.455 35.2038 341.05 35.4218C340.652 35.6364 340.364 35.6394 340.385 35.6394V21.6394ZM329.867 27.3779C327.952 30.4104 327.194 33.843 327.194 37.3069H341.194C341.194 35.8769 341.497 35.1821 341.704 34.8538L329.867 27.3779ZM327.194 37.3069C327.194 37.8369 327.218 38.3949 327.281 38.9644L341.195 37.4184C341.198 37.4403 341.197 37.4422 341.196 37.4217C341.195 37.4014 341.194 37.3637 341.194 37.3069H327.194ZM347.535 56.3715L365.888 58.6269L367.595 44.7314L349.243 42.4761L347.535 56.3715ZM360.312 48.9098C359.826 50.0395 359.149 51.0619 358.246 52.0014L368.338 61.7049C370.383 59.5782 372.006 57.1513 373.17 54.4485L360.312 48.9098ZM358.293 51.9526C357.392 52.8726 356.2 53.7694 354.63 54.5982L361.164 66.9796C363.839 65.5678 366.244 63.8408 368.29 61.7536L358.293 51.9526ZM354.581 54.6242C351.532 56.2644 347.609 57.2382 342.552 57.2382V71.2382C349.405 71.2382 355.713 69.9124 361.213 66.9536L354.581 54.6242ZM342.552 57.2382C333.362 57.2382 327.726 55.3017 324.452 52.6021L315.545 63.4037C322.354 69.0179 331.754 71.2382 342.552 71.2382V57.2382ZM324.433 52.5866C321.066 49.83 319.437 46.4329 319.437 41.7734H305.437C305.437 50.4985 308.849 57.921 315.564 63.4192L324.433 52.5866ZM319.437 41.7734C319.437 37.2734 321.036 33.7295 324.522 30.6773L315.298 20.1451C308.819 25.8193 305.437 33.1835 305.437 41.7734H319.437ZM324.553 30.65C327.868 27.712 332.726 25.8663 339.943 25.8663V11.8663C330.296 11.8663 321.799 14.3838 315.267 20.1724L324.553 30.65ZM339.943 25.8663C346.836 25.8663 351.768 27.5998 355.351 30.4988L364.158 19.616C357.54 14.2602 349.264 11.8663 339.943 11.8663V25.8663ZM355.323 30.4765C358.355 32.955 360.493 37.0377 360.764 44.0343L374.753 43.4924C374.376 33.7436 371.178 25.3557 364.185 19.6383L355.323 30.4765ZM367.758 36.7634H333.973V50.7634H367.758V36.7634ZM326.973 43.8523C327.026 47.9869 327.803 52.3294 330.373 55.7755C333.234 59.6109 337.434 61.1998 341.756 61.1998V47.1998C341.272 47.1998 341.172 47.1182 341.284 47.1691C341.434 47.2366 341.557 47.3528 341.596 47.4059C341.606 47.4196 341.45 47.215 341.288 46.5865C341.126 45.9526 340.989 45.0083 340.972 43.6744L326.973 43.8523ZM341.756 61.1998C344.565 61.1998 347.36 60.446 349.804 58.6865C352.192 56.9674 353.784 54.6207 354.829 52.1668L341.949 46.6808C341.638 47.4109 341.447 47.4522 341.624 47.3251C341.706 47.2654 341.801 47.2216 341.873 47.1996C341.938 47.18 341.914 47.1998 341.756 47.1998V61.1998ZM390.842 63.5307V70.5307H397.842V63.5307H390.842ZM377.089 63.5307H370.089V70.5307H377.089V63.5307ZM377.089 49.9102V42.9102H370.089V49.9102H377.089ZM389.958 49.9102L395.035 45.0913L392.965 42.9102H389.958V49.9102ZM405.436 50.7947L402.142 56.9712L402.181 56.9919L402.22 57.0122L405.436 50.7947ZM398.404 48.7162L396.585 55.4756L396.676 55.5003L396.769 55.5225L398.404 48.7162ZM388.233 45.8418L390.206 39.1254L390.177 39.117L390.148 39.1088L388.233 45.8418ZM380.627 42.3925L384.813 36.7818L384.771 36.7506L384.729 36.72L380.627 42.3925ZM376.78 38.324L383.068 35.2496L383.014 35.1388L382.956 35.0299L376.78 38.324ZM380.76 22.6252L376.889 16.7929L376.883 16.7969L376.877 16.8008L380.76 22.6252ZM406.807 22.3156L403.399 28.43L413.807 34.2312V22.3156H406.807ZM406.807 20.1045V13.1045H399.807V20.1045H406.807ZM420.383 20.1045H427.383V13.1045H420.383V20.1045ZM420.383 32.5752V39.5752H427.383V32.5752H420.383ZM407.824 32.5752L402.995 37.643L405.023 39.5752H407.824V32.5752ZM393.098 32.4867L395.173 25.8013L395.032 25.7575L394.889 25.7198L393.098 32.4867ZM401.588 34.3883L403.032 27.5388L403.025 27.5373L403.018 27.5358L401.588 34.3883ZM414.369 37.8376L416.847 31.2912L416.837 31.2872L416.826 31.2833L414.369 37.8376ZM421.223 42.3925L426.697 38.0301L426.677 38.0041L426.656 37.9783L421.223 42.3925ZM417.951 60.3025L421.712 66.2061L421.718 66.2022L421.724 66.1983L417.951 60.3025ZM390.842 60.8773L394.09 54.6765L383.842 49.3085V60.8773H390.842ZM390.842 56.5307H377.089V70.5307H390.842V56.5307ZM384.089 63.5307V49.9102H370.089V63.5307H384.089ZM377.089 56.9102H389.958V42.9102H377.089V56.9102ZM384.881 54.7292C389.188 59.2671 394.536 62.1285 400.792 62.1285V48.1285C399.207 48.1285 397.332 47.511 395.035 45.0913L384.881 54.7292ZM400.792 62.1285C403.037 62.1285 405.624 61.9282 407.895 60.9961C409.096 60.5029 410.577 59.6563 411.782 58.1732C413.079 56.5751 413.718 54.6478 413.718 52.6962H399.718C399.718 51.5555 400.11 50.3375 400.914 49.3474C401.625 48.4724 402.365 48.1325 402.579 48.0447C402.803 47.9528 402.805 47.9906 402.436 48.0411C402.091 48.0883 401.557 48.1285 400.792 48.1285V62.1285ZM413.718 52.6962C413.718 51.0053 413.257 49.254 412.201 47.6878C411.183 46.1779 409.856 45.2002 408.652 44.5772L402.22 57.0122C401.87 56.8314 401.185 56.3917 400.594 55.5157C399.965 54.5833 399.718 53.5617 399.718 52.6962H413.718ZM408.73 44.6182C407.592 44.0115 406.162 43.5524 404.999 43.2084C403.664 42.814 401.998 42.3806 400.04 41.91L396.769 55.5225C398.614 55.9658 400.021 56.3358 401.03 56.6342C401.535 56.7833 401.89 56.9 402.123 56.9841C402.399 57.0837 402.352 57.0834 402.142 56.9712L408.73 44.6182ZM400.224 41.9569C397.219 41.1478 393.88 40.2044 390.206 39.1254L386.261 52.5582C390.016 53.6608 393.458 54.6338 396.585 55.4756L400.224 41.9569ZM390.148 39.1088C387.423 38.3336 385.758 37.4867 384.813 36.7818L376.441 48.0032C379.211 50.0696 382.617 51.5221 386.318 52.5748L390.148 39.1088ZM384.729 36.72C384.036 36.2191 383.588 35.816 383.314 35.5265C383.037 35.2336 383.012 35.135 383.068 35.2496L370.491 41.3985C371.86 44.1987 374.18 46.3688 376.525 48.0649L384.729 36.72ZM382.956 35.0299C382.972 35.0599 382.718 34.5731 382.718 33.1058H368.718C368.718 35.9429 369.172 38.9349 370.603 41.6182L382.956 35.0299ZM382.718 33.1058C382.718 30.2258 383.593 29.1493 384.643 28.4495L376.877 16.8008C371.205 20.5822 368.718 26.4928 368.718 33.1058H382.718ZM384.631 28.4575C386.53 27.1968 389.312 26.3085 393.452 26.3085V12.3085C387.331 12.3085 381.652 13.6313 376.889 16.7929L384.631 28.4575ZM393.452 26.3085C397.901 26.3085 401.102 27.1502 403.399 28.43L410.215 16.2013C405.317 13.4716 399.615 12.3085 393.452 12.3085V26.3085ZM413.807 22.3156V20.1045H399.807V22.3156H413.807ZM406.807 27.1045H420.383V13.1045H406.807V27.1045ZM413.383 20.1045V32.5752H427.383V20.1045H413.383ZM420.383 25.5752H407.824V39.5752H420.383V25.5752ZM412.652 27.5073C408.23 23.2933 402.788 21.1087 396.68 21.1087V35.1087C399.18 35.1087 401.167 35.9017 402.995 37.643L412.652 27.5073ZM396.68 21.1087C394.594 21.1087 391.947 21.3466 389.585 22.5992C388.301 23.2807 386.97 24.3338 385.985 25.9016C384.985 27.4936 384.594 29.2135 384.594 30.8063H398.594C398.594 31.4999 398.416 32.4329 397.839 33.3506C397.277 34.244 396.583 34.7351 396.146 34.967C395.744 35.1801 395.526 35.1965 395.674 35.1704C395.805 35.1472 396.122 35.1087 396.68 35.1087V21.1087ZM384.594 30.8063C384.594 32.7027 385.196 34.7946 386.753 36.5352C388.201 38.1536 389.968 38.8994 391.306 39.2537L394.889 25.7198C395.225 25.8087 396.24 26.1417 397.187 27.2001C398.243 28.3805 398.594 29.7648 398.594 30.8063H384.594ZM391.023 39.1722C392.283 39.5631 395.541 40.2776 400.159 41.2408L403.018 27.5358C400.629 27.0375 398.758 26.6364 397.391 26.3303C396.707 26.1771 396.17 26.0523 395.769 25.9543C395.329 25.8472 395.168 25.7999 395.173 25.8013L391.023 39.1722ZM400.144 41.2377C405.457 42.3577 409.325 43.4221 411.911 44.3919L416.826 31.2833C413.28 29.9536 408.628 28.7184 403.032 27.5388L400.144 41.2377ZM411.89 44.384C414.146 45.2382 415.255 46.1483 415.79 46.8066L426.656 37.9783C424.125 34.863 420.665 32.7365 416.847 31.2912L411.89 44.384ZM415.749 46.7549C416.131 47.2351 416.478 47.9507 416.478 49.3354H430.478C430.478 45.2365 429.322 41.3235 426.697 38.0301L415.749 46.7549ZM416.478 49.3354C416.478 52.2728 415.558 53.5229 414.177 54.4065L421.724 66.1983C427.714 62.365 430.478 56.3036 430.478 49.3354H416.478ZM414.189 54.3988C411.898 55.8587 408.769 56.796 404.419 56.796V70.796C410.8 70.796 416.692 69.4043 421.712 66.2061L414.189 54.3988ZM404.419 56.796C399.913 56.796 396.567 55.9737 394.09 54.6765L387.594 67.0782C392.547 69.6725 398.252 70.796 404.419 70.796V56.796ZM383.842 60.8773V63.5307H397.842V60.8773H383.842Z" fill="#006497" mask="url(#path-1-outside-1_2_20689)"/>
</g>
<defs>
<filter id="filter0_d_2_20689" x="0.97998" y="0.249023" width="428.498" height="69.9893" filterUnits="userSpaceOnUse" color-interpolation-filters="sRGB">
<feFlood flood-opacity="0" result="BackgroundImageFix"/>
<feColorMatrix in="SourceAlpha" type="matrix" values="0 0 0 0 0 0 0 0 0 0 0 0 0 0 0 0 0 0 127 0" result="hardAlpha"/>
<feOffset dx="6" dy="6"/>
<feComposite in2="hardAlpha" operator="out"/>
<feColorMatrix type="matrix" values="0 0 0 0 0 0 0 0 0 0 0 0 0 0 0 0 0 0 0.25 0"/>
<feBlend mode="normal" in2="BackgroundImageFix" result="effect1_dropShadow_2_20689"/>
<feBlend mode="normal" in="SourceGraphic" in2="effect1_dropShadow_2_20689" result="shape"/>
</filter>
</defs>
</svg>
