<svg width="546" height="546" viewBox="0 0 546 546" fill="none" xmlns="http://www.w3.org/2000/svg">
<rect width="546" height="546" rx="24" fill="#BDD0FB"/>
<path d="M459 453H340.581V232.729C340.581 221.929 349.314 213.17 360.082 213.17H439.513C450.281 213.17 459.014 221.929 459.014 232.729V453H459Z" fill="#389AE1"/>
<path d="M424.082 453.001H305.663V218.911C305.663 215.75 308.22 213.185 311.372 213.185H418.373C421.524 213.185 424.082 215.75 424.082 218.911V453.001Z" fill="#81BFEC"/>
<path d="M315.441 256.895C315.046 256.895 314.721 256.569 314.721 256.172V237.973C314.721 228.364 323.496 220.54 334.278 220.54H365.409C365.805 220.54 366.13 220.866 366.13 221.263C366.13 221.66 365.805 221.986 365.409 221.986H334.278C324.302 221.986 316.176 229.158 316.176 237.959V256.158C316.162 256.569 315.837 256.895 315.441 256.895Z" fill="#BDD0FB"/>
<path d="M315.441 276.199C315.046 276.199 314.721 275.873 314.721 275.476V268.064C314.721 267.667 315.046 267.341 315.441 267.341C315.837 267.341 316.162 267.667 316.162 268.064V275.476C316.162 275.873 315.837 276.199 315.441 276.199Z" fill="white"/>
<path d="M344.226 453H223.984V268.447C223.984 265.286 226.542 262.721 229.693 262.721H338.517C341.669 262.721 344.226 265.286 344.226 268.447V453Z" fill="url(#paint0_linear_492_6012)"/>
<path d="M313.689 453H193.433V268.447C193.433 265.286 195.99 262.721 199.142 262.721H307.966C311.117 262.721 313.675 265.286 313.675 268.447V453H313.689Z" fill="url(#paint1_linear_492_6012)"/>
<g opacity="0.68">
<path d="M201.501 298.324C201.106 298.324 200.781 297.998 200.781 297.601V284.094C200.781 276.865 207.366 270.983 215.463 270.983H238.553C238.949 270.983 239.274 271.309 239.274 271.706C239.274 272.103 238.949 272.429 238.553 272.429H215.463C208.157 272.429 202.222 277.659 202.222 284.094V297.601C202.222 297.998 201.897 298.324 201.501 298.324Z" fill="white"/>
<path d="M201.501 312.626C201.106 312.626 200.781 312.3 200.781 311.903V306.404C200.781 306.007 201.106 305.681 201.501 305.681C201.897 305.681 202.222 306.007 202.222 306.404V311.903C202.222 312.314 201.897 312.626 201.501 312.626Z" fill="white"/>
</g>
<path d="M214.161 453H110.552V338.152C110.552 327.352 119.285 318.593 130.053 318.593H194.674C205.442 318.593 214.175 327.352 214.175 338.152V453H214.161Z" fill="#389AE1"/>
<path d="M183.61 453.001H80V324.334C80 321.173 82.5577 318.607 85.709 318.607H177.901C181.052 318.607 183.61 321.173 183.61 324.334V453.001Z" fill="#81BFEC"/>
<path d="M88.5493 356.947C88.1536 356.947 87.8286 356.621 87.8286 356.224V340.293C87.8286 331.831 95.5442 324.957 105.026 324.957H132.271C132.667 324.957 132.992 325.283 132.992 325.68C132.992 326.077 132.667 326.403 132.271 326.403H105.026C96.3356 326.403 89.27 332.639 89.27 340.293V356.224C89.27 356.621 88.9591 356.947 88.5493 356.947Z" fill="#BDD0FB"/>
<path d="M88.5493 373.841C88.1536 373.841 87.8286 373.515 87.8286 373.119V366.627C87.8286 366.23 88.1536 365.904 88.5493 365.904C88.945 365.904 89.27 366.23 89.27 366.627V373.119C89.27 373.515 88.9591 373.841 88.5493 373.841Z" fill="#BDD0FB"/>
<path d="M224.493 160.203L215.223 174.49C219.533 182.909 224.309 187.558 229.1 189.769C229.948 184.525 233.014 180.174 235.247 177.58C226.726 172.704 224.493 160.203 224.493 160.203Z" fill="url(#paint2_linear_492_6012)"/>
<path d="M256.302 175.014C246.82 180.641 240.052 180.315 235.261 177.579C233.014 180.159 229.962 184.524 229.114 189.768C244.333 196.784 259.567 179.11 259.567 179.11L256.302 175.014Z" fill="url(#paint3_linear_492_6012)"/>
<path d="M256.825 177.466C256.825 177.466 254.268 172.987 257.942 169.557C257.942 169.557 259.129 168.197 260.429 170.195C260.429 170.195 264.386 166.595 265.474 168.041C266.562 169.486 269.43 173.086 266.618 177.197C263.792 181.335 258.069 179.479 256.825 177.466Z" fill="url(#paint4_linear_492_6012)"/>
<path d="M260.711 174.985C260.33 174.985 259.92 174.915 259.567 174.702C259.213 174.489 258.775 174.05 258.662 173.157C258.634 172.888 258.818 172.647 259.086 172.618C259.355 172.59 259.595 172.774 259.623 173.044C259.68 173.455 259.821 173.724 260.075 173.88C260.415 174.078 260.923 174.05 261.305 173.965L260.415 171.13C260.33 170.875 260.471 170.606 260.725 170.521C260.98 170.436 261.248 170.578 261.333 170.833L262.379 174.135C262.449 174.376 262.336 174.631 262.096 174.73C261.969 174.773 261.39 174.985 260.711 174.985Z" fill="#F79E6D"/>
<path d="M122.127 270.983C121.307 271.479 120.883 272.528 121.081 273.549C121.858 277.588 124.388 288.261 130.563 294.582C130.973 294.993 131.566 294.965 131.92 294.582C130.351 292.952 128.415 290.16 126.154 285.412C122.664 278.127 122.028 273.634 122.127 270.983Z" fill="url(#paint5_linear_492_6012)"/>
<path d="M130.097 270.827C130.097 270.827 126.112 268.659 122.155 270.955C122.141 270.955 122.141 270.969 122.127 270.969C122.028 273.634 122.678 278.127 126.154 285.412C128.415 290.146 130.351 292.938 131.92 294.582C132.033 294.469 132.118 294.313 132.174 294.129C133.333 290.089 135.778 278.864 130.097 270.827Z" fill="url(#paint6_linear_492_6012)"/>
<path d="M135.834 271.083L132.231 274.555C131.595 275.165 130.62 275.264 129.885 274.782C129.249 274.357 128.528 273.648 128.048 272.514C127.765 271.834 127.892 271.04 128.401 270.502L132.004 266.533C132.866 265.583 134.393 265.739 135.043 266.845L136.173 268.758C136.611 269.495 136.47 270.459 135.834 271.083Z" fill="url(#paint7_linear_492_6012)"/>
<path d="M252.388 253.677C253.222 254.145 254.338 254.003 255.13 253.323C258.253 250.658 266.237 243.161 268.667 234.656C268.823 234.089 268.498 233.593 268.003 233.466C267.367 235.634 265.898 238.71 262.916 243.019C258.323 249.652 254.748 252.444 252.388 253.677Z" fill="url(#paint8_linear_492_6012)"/>
<path d="M248.318 246.803C248.318 246.803 248.403 251.339 252.36 253.663C252.374 253.663 252.374 253.677 252.388 253.677C254.748 252.444 258.323 249.666 262.916 243.033C265.912 238.71 267.367 235.649 268.003 233.48C267.848 233.438 267.664 233.438 267.48 233.48C263.41 234.444 252.473 237.86 248.318 246.803Z" fill="url(#paint9_linear_492_6012)"/>
<path d="M248.036 239.277L251.809 242.565C252.473 243.146 252.656 244.11 252.247 244.889C251.879 245.57 251.243 246.349 250.155 246.93C249.505 247.271 248.714 247.214 248.12 246.76L243.853 243.515C242.835 242.735 242.849 241.204 243.895 240.453L245.69 239.163C246.396 238.653 247.371 238.696 248.036 239.277Z" fill="url(#paint10_linear_492_6012)"/>
<path d="M172.434 205.955C172.434 205.955 165.086 231.085 160.323 242.126C160.323 242.126 152.014 243.402 146.871 246.406C141.727 249.425 130.648 266.122 130.648 266.122C130.648 266.122 133.545 271.635 137.035 272.471L168.576 250.559L193.744 221.206L192.543 207.585L172.434 205.955Z" fill="url(#paint11_linear_492_6012)"/>
<path d="M172.9 203.899L170.752 210.774C170.752 210.774 172.716 228.816 195.397 225.769C218.063 222.722 220.918 219.008 220.918 219.008C220.918 219.008 218.954 230.531 243.74 244.379C243.74 244.379 247.513 241.53 248.332 238.284L230.965 209.569C228.549 205.799 226.302 204.807 221.893 205.501C212.142 207.032 193.871 209.03 191.101 208.548L172.9 203.899Z" fill="url(#paint12_linear_492_6012)"/>
<path d="M190.606 152.747C183.993 153.087 173.55 156.234 166.81 162.47C168.887 164.766 172.08 168.494 174.455 172.179C176.574 170.181 179.627 168.508 183.922 167.445C180.206 181.363 175.825 194.63 170.47 206.961C170.13 207.726 170.512 208.619 171.303 208.903C175.444 210.348 187.653 213.793 197.446 208.251L219.151 177.083C221.483 173.724 223.023 169.883 223.631 165.843L224.493 160.217C224.493 160.202 204.992 152.01 190.606 152.747Z" fill="url(#paint13_linear_492_6012)"/>
<path d="M178.765 199.917C177.818 197.834 174.596 195.878 173.056 195.041C171.713 192.263 166.357 179.805 174.455 172.18C172.081 168.494 168.887 164.753 166.81 162.471C159.023 169.643 156.169 180.939 169.82 196.742C169.071 200.64 171.501 205.176 172.815 205.799C173.423 206.097 180.022 202.695 178.765 199.917Z" fill="url(#paint14_linear_492_6012)"/>
<path d="M205.26 144.47L199.594 155.596C199.255 156.276 199.354 157.098 199.862 157.665C201.233 159.196 204.483 161.691 210.122 159.905C210.743 159.706 211.196 159.154 211.28 158.516L212.764 148.41L205.26 144.47Z" fill="url(#paint15_linear_492_6012)"/>
<path d="M214.714 131.544C214.714 131.544 218.035 139.212 218.261 143.223C218.487 147.248 219.349 149.856 214.714 150.664C210.079 151.472 206.165 149.162 204.059 145.151C204.059 145.151 200.738 138.971 201.487 136.448C202.222 133.925 214.714 131.544 214.714 131.544Z" fill="url(#paint16_linear_492_6012)"/>
<path d="M205.642 142.273L205.911 142.16C206.25 142.018 206.391 141.607 206.221 141.281C205.571 140.02 204.3 137.114 205.939 136.434C208.058 135.555 216.467 133.84 218.275 130.849C220.013 127.972 218.473 124.259 216.156 123.21C216 123.139 215.816 123.196 215.732 123.352L215.534 123.72C215.407 123.975 215.025 123.933 214.954 123.663C214.884 123.408 214.531 123.352 214.389 123.578C213.838 124.471 212.326 125.931 208.299 126.668C202.576 127.731 198.803 130.056 198.704 134.01C198.704 134.265 198.435 134.407 198.209 134.265C197.785 134.01 197.107 133.883 196.202 134.648C194.634 135.966 195.27 139.41 198.718 142.231C198.887 142.358 198.873 142.628 198.704 142.741C198.082 143.152 197.149 144.116 199.566 145.406C202.067 146.738 203.918 146.639 204.639 146.511C204.822 146.483 204.935 146.313 204.893 146.128L204.13 142.642C204.088 142.443 204.243 142.259 204.441 142.259H205.642V142.273Z" fill="#006497"/>
<path d="M205.783 143.011C205.783 143.011 204.512 138.121 202.321 139.481C200.131 140.856 203.452 144.966 205.218 145.151L205.783 143.011Z" fill="url(#paint17_linear_492_6012)"/>
<g clip-path="url(#clip0_492_6012)">
<path d="M384.468 203.102H376.933L365.083 168.423L398.028 166.425L384.468 203.102Z" fill="url(#paint18_linear_492_6012)"/>
<path d="M345.041 103.996C344.999 106.929 344.999 164.227 374.241 173.538C403.484 182.85 416.688 134.352 415.634 99.8291L345.041 103.996Z" fill="url(#paint19_linear_492_6012)"/>
<path d="M404.082 208.359H357.334V214H404.082V208.359Z" fill="url(#paint20_linear_492_6012)"/>
<path d="M404.082 208.36H357.334L369.171 202.039H392.246L404.082 208.36Z" fill="url(#paint21_linear_492_6012)"/>
<path d="M341.651 95.8615C339.088 96.0174 336.979 97.9023 336.979 100.056V104.464C336.979 106.618 339.073 108.276 341.651 108.135L421.787 103.84C424.351 103.699 426.459 101.828 426.459 99.6738V94.6427C426.459 92.4885 424.365 90.8446 421.787 91.0005L341.651 95.8615Z" fill="url(#paint22_linear_492_6012)"/>
<path d="M394.952 178.088C393.086 178.088 391.476 176.912 391.263 175.324C391.035 173.61 392.502 172.065 394.539 171.866C394.923 171.824 421.816 169.004 424.365 154.364C424.793 151.898 424.75 148.667 422.086 147.32C419.878 146.215 416.275 146.569 413.697 148.142C412.229 149.035 410.62 150.608 411.304 153.003C411.788 154.676 410.549 156.362 408.54 156.759C406.546 157.156 404.538 156.121 404.054 154.449C402.814 150.112 404.78 145.861 409.295 143.097C414.309 140.022 421.146 139.554 425.918 141.963C428.71 143.366 433.168 146.966 431.729 155.243C430.305 163.434 423.439 169.982 411.859 174.205C403.555 177.238 395.707 178.017 395.379 178.046C395.237 178.074 395.094 178.088 394.952 178.088Z" fill="url(#paint23_linear_492_6012)"/>
<path d="M367.062 178.088C368.928 178.088 370.538 176.912 370.752 175.324C370.979 173.61 369.512 172.065 367.475 171.866C367.091 171.824 340.199 169.004 337.649 154.364C337.222 151.898 337.264 148.667 339.928 147.32C342.136 146.215 345.739 146.569 348.318 148.142C349.785 149.035 351.394 150.608 350.711 153.003C350.226 154.676 351.465 156.362 353.474 156.759C355.468 157.156 357.476 156.121 357.961 154.449C359.2 150.112 357.234 145.861 352.719 143.097C347.705 140.022 340.868 139.554 336.096 141.963C333.305 143.38 328.832 146.98 330.285 155.257C331.709 163.448 338.575 169.996 350.155 174.219C358.459 177.252 366.307 178.031 366.635 178.06C366.778 178.074 366.92 178.088 367.062 178.088Z" fill="url(#paint24_linear_492_6012)"/>
<path opacity="0.68" d="M399.781 99.4892C399.453 99.4892 399.197 99.2341 399.168 98.9223C399.154 98.5822 399.41 98.2988 399.738 98.2846L406.888 97.9019C407.23 97.8878 407.515 98.1429 407.529 98.4688C407.543 98.8089 407.287 99.0924 406.959 99.1066L399.809 99.4892C399.795 99.4892 399.795 99.4892 399.781 99.4892Z" fill="white"/>
<path opacity="0.68" d="M345.042 102.423C344.714 102.423 344.458 102.168 344.429 101.857C344.415 101.516 344.671 101.233 344.999 101.219L387.744 98.9371C388.072 98.9229 388.371 99.178 388.385 99.504C388.4 99.8441 388.143 100.128 387.816 100.142L345.07 102.423C345.056 102.423 345.056 102.423 345.042 102.423Z" fill="white"/>
<path opacity="0.68" d="M378.144 167.034C378.116 167.034 378.101 167.034 378.073 167.034C370.339 166.141 364.142 159.877 359.684 148.398C355.995 138.917 354.257 127.82 353.445 120.181C353.417 119.855 353.659 119.543 353.987 119.515C354.329 119.487 354.628 119.728 354.656 120.054C356.052 133.163 361.123 163.888 378.215 165.844C378.543 165.886 378.785 166.184 378.757 166.51C378.714 166.807 378.443 167.034 378.144 167.034Z" fill="white"/>
<path opacity="0.68" d="M353.531 114.71C353.217 114.71 352.947 114.469 352.918 114.143C352.804 112.4 352.776 111.394 352.776 111.351C352.762 111.011 353.032 110.742 353.36 110.728C353.716 110.699 353.972 110.983 353.987 111.309C353.987 111.323 354.015 112.343 354.129 114.058C354.158 114.398 353.901 114.682 353.559 114.696C353.559 114.71 353.545 114.71 353.531 114.71Z" fill="white"/>
</g>
<rect y="454" width="546" height="92" fill="#8CADF8"/>
<defs>
<linearGradient id="paint0_linear_492_6012" x1="202.249" y1="358.458" x2="437.837" y2="356.798" gradientUnits="userSpaceOnUse">
<stop stop-color="#FF928E"/>
<stop offset="1" stop-color="#FE7062"/>
</linearGradient>
<linearGradient id="paint1_linear_492_6012" x1="345.446" y1="219.12" x2="49.4423" y2="669.818" gradientUnits="userSpaceOnUse">
<stop stop-color="#FF928E"/>
<stop offset="1" stop-color="#FE7062"/>
</linearGradient>
<linearGradient id="paint2_linear_492_6012" x1="296.07" y1="30.0151" x2="261.18" y2="101.519" gradientUnits="userSpaceOnUse">
<stop stop-color="#FF66AF"/>
<stop offset="1" stop-color="#F8D621"/>
</linearGradient>
<linearGradient id="paint3_linear_492_6012" x1="263.237" y1="172.43" x2="193.586" y2="206.07" gradientUnits="userSpaceOnUse">
<stop stop-color="#EFCFCA"/>
<stop offset="1" stop-color="#FF928E"/>
</linearGradient>
<linearGradient id="paint4_linear_492_6012" x1="263.569" y1="173.117" x2="241.448" y2="195.134" gradientUnits="userSpaceOnUse">
<stop stop-color="#EECDC8"/>
<stop offset="1" stop-color="#FF928E"/>
</linearGradient>
<linearGradient id="paint5_linear_492_6012" x1="121.026" y1="282.928" x2="131.918" y2="282.928" gradientUnits="userSpaceOnUse">
<stop stop-color="#FF66AF"/>
<stop offset="1" stop-color="#E2CE62"/>
</linearGradient>
<linearGradient id="paint6_linear_492_6012" x1="122.114" y1="282.241" x2="133.704" y2="282.241" gradientUnits="userSpaceOnUse">
<stop stop-color="#5D1706"/>
<stop offset="1" stop-color="#913924"/>
</linearGradient>
<linearGradient id="paint7_linear_492_6012" x1="127.9" y1="270.486" x2="136.423" y2="270.486" gradientUnits="userSpaceOnUse">
<stop stop-color="#EFCFCA"/>
<stop offset="1" stop-color="#FF928E"/>
</linearGradient>
<linearGradient id="paint8_linear_492_6012" x1="252.389" y1="243.704" x2="268.717" y2="243.704" gradientUnits="userSpaceOnUse">
<stop stop-color="#FF66AF"/>
<stop offset="1" stop-color="#E2CE62"/>
</linearGradient>
<linearGradient id="paint9_linear_492_6012" x1="248.32" y1="243.551" x2="268.008" y2="243.551" gradientUnits="userSpaceOnUse">
<stop stop-color="#5D1706"/>
<stop offset="1" stop-color="#913924"/>
</linearGradient>
<linearGradient id="paint10_linear_492_6012" x1="243.1" y1="242.979" x2="252.464" y2="242.979" gradientUnits="userSpaceOnUse">
<stop stop-color="#EFCFCA"/>
<stop offset="1" stop-color="#FF928E"/>
</linearGradient>
<linearGradient id="paint11_linear_492_6012" x1="185.287" y1="212.869" x2="71.372" y2="330.784" gradientUnits="userSpaceOnUse">
<stop stop-color="#5D1706"/>
<stop offset="1" stop-color="#913924"/>
</linearGradient>
<linearGradient id="paint12_linear_492_6012" x1="373.185" y1="140.543" x2="242.828" y2="206.249" gradientUnits="userSpaceOnUse">
<stop stop-color="#5D1706"/>
<stop offset="1" stop-color="#913924"/>
</linearGradient>
<linearGradient id="paint13_linear_492_6012" x1="267.663" y1="16.1532" x2="232.773" y2="87.6569" gradientUnits="userSpaceOnUse">
<stop stop-color="#FF66AF"/>
<stop offset="1" stop-color="#FBE881"/>
</linearGradient>
<linearGradient id="paint14_linear_492_6012" x1="176.896" y1="195.249" x2="135.302" y2="121.953" gradientUnits="userSpaceOnUse">
<stop stop-color="#EFCFCA"/>
<stop offset="1" stop-color="#FF928E"/>
</linearGradient>
<linearGradient id="paint15_linear_492_6012" x1="203.071" y1="163.835" x2="207.428" y2="151.448" gradientUnits="userSpaceOnUse">
<stop stop-color="#EFCFCA"/>
<stop offset="1" stop-color="#FF928E"/>
</linearGradient>
<linearGradient id="paint16_linear_492_6012" x1="215.412" y1="138.283" x2="196.356" y2="152.82" gradientUnits="userSpaceOnUse">
<stop stop-color="#EFCFCA"/>
<stop offset="1" stop-color="#FF928E"/>
</linearGradient>
<linearGradient id="paint17_linear_492_6012" x1="213.054" y1="135.191" x2="193.998" y2="149.728" gradientUnits="userSpaceOnUse">
<stop stop-color="#EFCFCA"/>
<stop offset="1" stop-color="#FF928E"/>
</linearGradient>
<linearGradient id="paint18_linear_492_6012" x1="473.833" y1="-32.9831" x2="434.307" y2="55.189" gradientUnits="userSpaceOnUse">
<stop stop-color="#FFB872"/>
<stop offset="1" stop-color="#FE9A26"/>
</linearGradient>
<linearGradient id="paint19_linear_492_6012" x1="364.962" y1="192.789" x2="380.366" y2="109.575" gradientUnits="userSpaceOnUse">
<stop stop-color="#FFB872"/>
<stop offset="1" stop-color="#FE9A26"/>
</linearGradient>
<linearGradient id="paint20_linear_492_6012" x1="381.151" y1="203.913" x2="378.407" y2="249.082" gradientUnits="userSpaceOnUse">
<stop stop-color="#FFB872"/>
<stop offset="1" stop-color="#FE9A26"/>
</linearGradient>
<linearGradient id="paint21_linear_492_6012" x1="473.302" y1="76.587" x2="390.261" y2="195.956" gradientUnits="userSpaceOnUse">
<stop stop-color="#FFB872"/>
<stop offset="1" stop-color="#FE9A26"/>
</linearGradient>
<linearGradient id="paint22_linear_492_6012" x1="384.23" y1="75.2305" x2="398.668" y2="-67.9415" gradientUnits="userSpaceOnUse">
<stop stop-color="#FFB872"/>
<stop offset="0.3458" stop-color="#FFAF59"/>
<stop offset="1" stop-color="#FE9A26"/>
</linearGradient>
<linearGradient id="paint23_linear_492_6012" x1="431.922" y1="136.141" x2="356.466" y2="231.036" gradientUnits="userSpaceOnUse">
<stop stop-color="#FFB872"/>
<stop offset="1" stop-color="#FE9A26"/>
</linearGradient>
<linearGradient id="paint24_linear_492_6012" x1="330.081" y1="136.141" x2="405.538" y2="231.036" gradientUnits="userSpaceOnUse">
<stop stop-color="#FFB872"/>
<stop offset="1" stop-color="#FE9A26"/>
</linearGradient>
<clipPath id="clip0_492_6012">
<rect width="102" height="123" fill="white" transform="translate(330 91)"/>
</clipPath>
</defs>
</svg>
