<svg width="380" height="362" viewBox="0 0 380 362" fill="none" xmlns="http://www.w3.org/2000/svg">
<path d="M379 362H260.581V141.729C260.581 130.929 269.314 122.17 280.082 122.17H359.513C370.281 122.17 379.014 130.929 379.014 141.729V362H379Z" fill="#389AE1"/>
<path d="M344.082 362.001H225.663V127.911C225.663 124.75 228.22 122.185 231.372 122.185H338.373C341.524 122.185 344.082 124.75 344.082 127.911V362.001Z" fill="#81BFEC"/>
<path d="M235.441 165.895C235.046 165.895 234.721 165.569 234.721 165.172V146.973C234.721 137.364 243.496 129.54 254.278 129.54H285.409C285.805 129.54 286.13 129.866 286.13 130.263C286.13 130.66 285.805 130.986 285.409 130.986H254.278C244.302 130.986 236.176 138.158 236.176 146.959V165.158C236.162 165.569 235.837 165.895 235.441 165.895Z" fill="#BDD0FB"/>
<path d="M235.441 185.199C235.046 185.199 234.721 184.873 234.721 184.476V177.064C234.721 176.667 235.046 176.341 235.441 176.341C235.837 176.341 236.162 176.667 236.162 177.064V184.476C236.162 184.873 235.837 185.199 235.441 185.199Z" fill="white"/>
<path d="M264.227 362H143.984V177.447C143.984 174.286 146.542 171.721 149.693 171.721H258.518C261.669 171.721 264.227 174.286 264.227 177.447V362Z" fill="url(#paint0_linear_2_20520)"/>
<path d="M233.689 362H113.433V177.447C113.433 174.286 115.99 171.721 119.142 171.721H227.966C231.117 171.721 233.675 174.286 233.675 177.447V362H233.689Z" fill="url(#paint1_linear_2_20520)"/>
<g opacity="0.68">
<path d="M121.502 207.324C121.106 207.324 120.781 206.998 120.781 206.601V193.094C120.781 185.865 127.366 179.983 135.463 179.983H158.554C158.949 179.983 159.274 180.309 159.274 180.706C159.274 181.103 158.949 181.429 158.554 181.429H135.463C128.157 181.429 122.222 186.659 122.222 193.094V206.601C122.222 206.998 121.897 207.324 121.502 207.324Z" fill="white"/>
<path d="M121.502 221.626C121.106 221.626 120.781 221.3 120.781 220.903V215.404C120.781 215.007 121.106 214.681 121.502 214.681C121.897 214.681 122.222 215.007 122.222 215.404V220.903C122.222 221.314 121.897 221.626 121.502 221.626Z" fill="white"/>
</g>
<path d="M134.161 362H30.5516V247.152C30.5516 236.352 39.2847 227.593 50.0527 227.593H114.675C125.443 227.593 134.176 236.352 134.176 247.152V362H134.161Z" fill="#389AE1"/>
<path d="M103.61 362.001H0V233.334C0 230.173 2.55774 227.607 5.709 227.607H97.9008C101.052 227.607 103.61 230.173 103.61 233.334V362.001Z" fill="#81BFEC"/>
<path d="M8.5493 265.947C8.15363 265.947 7.82861 265.621 7.82861 265.224V249.293C7.82861 240.831 15.5442 233.957 25.0263 233.957H52.2712C52.6669 233.957 52.9919 234.283 52.9919 234.68C52.9919 235.077 52.6669 235.403 52.2712 235.403H25.0263C16.3356 235.403 9.26999 241.639 9.26999 249.293V265.224C9.26999 265.621 8.95911 265.947 8.5493 265.947Z" fill="#BDD0FB"/>
<path d="M8.5493 282.841C8.15363 282.841 7.82861 282.515 7.82861 282.119V275.627C7.82861 275.23 8.15363 274.904 8.5493 274.904C8.94498 274.904 9.26999 275.23 9.26999 275.627V282.119C9.26999 282.515 8.95911 282.841 8.5493 282.841Z" fill="#BDD0FB"/>
<path d="M144.493 69.2031L135.223 83.49C139.533 91.9091 144.309 96.558 149.1 98.7691C149.948 93.5249 153.014 89.1736 155.247 86.5799C146.726 81.7042 144.493 69.2031 144.493 69.2031Z" fill="url(#paint2_linear_2_20520)"/>
<path d="M176.302 84.0137C166.82 89.6406 160.052 89.3146 155.261 86.5791C153.014 89.1587 149.962 93.5241 149.114 98.7683C164.333 105.784 179.567 88.1098 179.567 88.1098L176.302 84.0137Z" fill="url(#paint3_linear_2_20520)"/>
<path d="M176.825 86.466C176.825 86.466 174.267 81.9872 177.942 78.5572C177.942 78.5572 179.129 77.1966 180.429 79.195C180.429 79.195 184.385 75.5949 185.474 77.0406C186.562 78.4863 189.43 82.0864 186.618 86.1967C183.792 90.3354 178.069 88.4787 176.825 86.466Z" fill="url(#paint4_linear_2_20520)"/>
<path d="M180.711 83.9855C180.33 83.9855 179.92 83.9146 179.567 83.702C179.213 83.4894 178.775 83.05 178.662 82.1571C178.634 81.8878 178.818 81.6468 179.086 81.6185C179.355 81.5902 179.595 81.7744 179.623 82.0437C179.68 82.4547 179.821 82.724 180.075 82.8799C180.415 83.0784 180.923 83.05 181.305 82.965L180.415 80.1303C180.33 79.8752 180.471 79.6059 180.725 79.5208C180.98 79.4358 181.248 79.5775 181.333 79.8326L182.379 83.1351C182.449 83.376 182.336 83.6311 182.096 83.7304C181.969 83.7729 181.39 83.9855 180.711 83.9855Z" fill="#F79E6D"/>
<path d="M42.1268 179.983C41.3072 180.479 40.8833 181.528 41.0811 182.549C41.8583 186.588 44.3878 197.261 50.5631 203.582C50.9729 203.993 51.5665 203.965 51.9197 203.582C50.3512 201.952 48.4152 199.16 46.1542 194.412C42.6638 187.127 42.0279 182.634 42.1268 179.983Z" fill="url(#paint5_linear_2_20520)"/>
<path d="M50.0968 179.827C50.0968 179.827 46.1118 177.659 42.1551 179.955C42.141 179.955 42.141 179.969 42.1268 179.969C42.0279 182.634 42.6779 187.127 46.1542 194.412C48.4152 199.146 50.3512 201.938 51.9197 203.582C52.0328 203.469 52.1176 203.313 52.1741 203.129C53.3329 199.089 55.7775 187.864 50.0968 179.827Z" fill="url(#paint6_linear_2_20520)"/>
<path d="M55.834 180.083L52.2306 183.555C51.5947 184.165 50.6196 184.264 49.8848 183.782C49.2489 183.357 48.5282 182.648 48.0478 181.514C47.7651 180.834 47.8923 180.04 48.401 179.502L52.0045 175.533C52.8665 174.583 54.3927 174.739 55.0427 175.845L56.1732 177.758C56.6113 178.495 56.4699 179.459 55.834 180.083Z" fill="url(#paint7_linear_2_20520)"/>
<path d="M172.388 162.677C173.222 163.145 174.338 163.003 175.129 162.323C178.252 159.658 186.237 152.161 188.667 143.656C188.823 143.089 188.498 142.593 188.003 142.466C187.367 144.634 185.897 147.71 182.916 152.019C178.323 158.652 174.748 161.444 172.388 162.677Z" fill="url(#paint8_linear_2_20520)"/>
<path d="M168.318 155.803C168.318 155.803 168.403 160.339 172.36 162.663C172.374 162.663 172.374 162.677 172.388 162.677C174.748 161.444 178.323 158.666 182.916 152.033C185.912 147.71 187.367 144.649 188.003 142.48C187.848 142.438 187.664 142.438 187.48 142.48C183.41 143.444 172.473 146.86 168.318 155.803Z" fill="url(#paint9_linear_2_20520)"/>
<path d="M168.036 148.277L171.809 151.565C172.473 152.146 172.657 153.11 172.247 153.889C171.879 154.57 171.243 155.349 170.155 155.93C169.505 156.271 168.714 156.214 168.12 155.76L163.853 152.515C162.835 151.735 162.85 150.204 163.895 149.453L165.69 148.163C166.396 147.653 167.372 147.696 168.036 148.277Z" fill="url(#paint10_linear_2_20520)"/>
<path d="M92.4339 114.955C92.4339 114.955 85.0856 140.085 80.3234 151.126C80.3234 151.126 72.0143 152.402 66.8705 155.406C61.7268 158.425 50.6479 175.122 50.6479 175.122C50.6479 175.122 53.5448 180.635 57.0352 181.471L88.576 159.559L113.744 130.206L112.543 116.585L92.4339 114.955Z" fill="url(#paint11_linear_2_20520)"/>
<path d="M92.9001 112.899L90.7522 119.774C90.7522 119.774 92.7164 137.816 115.397 134.769C138.063 131.722 140.918 128.008 140.918 128.008C140.918 128.008 138.954 139.531 163.74 153.379C163.74 153.379 167.513 150.53 168.332 147.284L150.965 118.569C148.549 114.799 146.302 113.807 141.893 114.501C132.142 116.032 113.871 118.03 111.101 117.548L92.9001 112.899Z" fill="url(#paint12_linear_2_20520)"/>
<path d="M110.606 61.7471C103.993 62.0873 93.5501 65.2338 86.8096 71.4701C88.8869 73.7663 92.0805 77.4939 94.4545 81.179C96.5742 79.1806 99.6265 77.5081 103.922 76.4451C100.206 90.3635 95.8253 103.63 90.4695 115.961C90.1304 116.726 90.5119 117.619 91.3033 117.903C95.4437 119.348 107.653 122.793 117.446 117.251L139.151 86.0831C141.483 82.7239 143.023 78.8829 143.631 74.8434L144.493 69.2166C144.493 69.2024 124.992 61.0101 110.606 61.7471Z" fill="url(#paint13_linear_2_20520)"/>
<path d="M98.7646 108.917C97.8178 106.834 94.5959 104.878 93.0556 104.041C91.7132 101.263 86.3574 88.8049 94.4546 81.1796C92.0806 77.4945 88.8869 73.7526 86.8096 71.4707C79.0234 78.6425 76.1689 89.9388 89.8196 105.742C89.0706 109.64 91.5012 114.176 92.8154 114.799C93.423 115.097 100.022 111.695 98.7646 108.917Z" fill="url(#paint14_linear_2_20520)"/>
<path d="M125.261 53.4697L119.594 64.596C119.255 65.2763 119.354 66.0983 119.862 66.6653C121.233 68.196 124.483 70.6906 130.122 68.9047C130.743 68.7063 131.196 68.1535 131.28 67.5157L132.764 57.41L125.261 53.4697Z" fill="url(#paint15_linear_2_20520)"/>
<path d="M134.714 40.5439C134.714 40.5439 138.035 48.2118 138.261 52.2229C138.487 56.2482 139.349 58.8562 134.714 59.664C130.079 60.4719 126.165 58.1617 124.059 54.1505C124.059 54.1505 120.739 47.9709 121.488 45.448C122.222 42.9251 134.714 40.5439 134.714 40.5439Z" fill="url(#paint16_linear_2_20520)"/>
<path d="M125.642 51.2733L125.911 51.1599C126.25 51.0181 126.391 50.6071 126.222 50.2811C125.572 49.0197 124.3 46.1141 125.939 45.4338C128.059 44.555 136.467 42.84 138.275 39.8494C140.014 36.9722 138.473 33.2587 136.156 32.2099C136 32.139 135.817 32.1957 135.732 32.3516L135.534 32.7201C135.407 32.9752 135.025 32.9327 134.955 32.6634C134.884 32.4083 134.531 32.3516 134.389 32.5784C133.838 33.4713 132.326 34.9312 128.299 35.6682C122.576 36.7312 118.803 39.0557 118.704 43.0101C118.704 43.2652 118.435 43.4069 118.209 43.2652C117.785 43.0101 117.107 42.8825 116.203 43.6479C114.634 44.966 115.27 48.4102 118.718 51.2307C118.887 51.3583 118.873 51.6276 118.704 51.741C118.082 52.152 117.149 53.1158 119.566 54.4056C122.067 55.7379 123.918 55.6387 124.639 55.5112C124.823 55.4828 124.936 55.3127 124.893 55.1285L124.13 51.6418C124.088 51.4433 124.243 51.2591 124.441 51.2591H125.642V51.2733Z" fill="#006497"/>
<path d="M125.783 52.0105C125.783 52.0105 124.512 47.1207 122.321 48.4813C120.131 49.8562 123.452 53.9665 125.218 54.1507L125.783 52.0105Z" fill="url(#paint17_linear_2_20520)"/>
<g clip-path="url(#clip0_2_20520)">
<path d="M304.468 112.102H296.933L285.083 77.4231L318.028 75.4248L304.468 112.102Z" fill="url(#paint18_linear_2_20520)"/>
<path d="M265.042 12.9957C264.999 15.9293 264.999 73.2273 294.241 82.5384C323.484 91.8495 336.688 43.3524 335.634 8.8291L265.042 12.9957Z" fill="url(#paint19_linear_2_20520)"/>
<path d="M324.082 117.359H277.334V123H324.082V117.359Z" fill="url(#paint20_linear_2_20520)"/>
<path d="M324.082 117.36H277.334L289.17 111.039H312.245L324.082 117.36Z" fill="url(#paint21_linear_2_20520)"/>
<path d="M261.651 4.86151C259.088 5.01741 256.979 6.9023 256.979 9.05647V13.464C256.979 15.6182 259.073 17.2763 261.651 17.1346L341.787 12.8404C344.351 12.6987 346.459 10.828 346.459 8.67382V3.64271C346.459 1.48854 344.365 -0.155425 341.787 0.000468584L261.651 4.86151Z" fill="url(#paint22_linear_2_20520)"/>
<path d="M314.952 87.0881C313.086 87.0881 311.476 85.9118 311.263 84.3245C311.035 82.6096 312.502 81.0649 314.539 80.8665C314.923 80.824 341.816 78.0037 344.365 63.3639C344.793 60.8979 344.75 57.6667 342.086 56.3203C339.879 55.2149 336.275 55.5692 333.697 57.1423C332.23 58.0352 330.62 59.6083 331.304 62.0034C331.788 63.6757 330.549 65.3622 328.54 65.759C326.546 66.1558 324.538 65.1212 324.054 63.4489C322.814 59.1122 324.78 54.8606 329.295 52.097C334.309 49.0217 341.146 48.554 345.918 50.9633C348.71 52.3663 353.168 55.966 351.729 64.2426C350.305 72.4341 343.44 78.9816 331.859 83.2049C323.555 86.2377 315.707 87.0172 315.379 87.0455C315.237 87.0739 315.094 87.0881 314.952 87.0881Z" fill="url(#paint23_linear_2_20520)"/>
<path d="M287.062 87.0881C288.928 87.0881 290.538 85.9118 290.752 84.3245C290.979 82.6096 289.512 81.0649 287.475 80.8665C287.091 80.824 260.199 78.0037 257.649 63.3639C257.222 60.8979 257.264 57.6667 259.928 56.3203C262.136 55.2149 265.739 55.5692 268.318 57.1423C269.785 58.0352 271.394 59.6083 270.711 62.0034C270.226 63.6757 271.465 65.3622 273.474 65.759C275.468 66.1558 277.476 65.1212 277.961 63.4489C279.2 59.1122 277.234 54.8606 272.719 52.097C267.705 49.0217 260.868 48.554 256.096 50.9633C253.305 52.3805 248.832 55.9802 250.285 64.2567C251.709 72.4482 258.575 78.9958 270.155 83.2191C278.459 86.2519 286.307 87.0314 286.635 87.0597C286.778 87.0739 286.92 87.0881 287.062 87.0881Z" fill="url(#paint24_linear_2_20520)"/>
<path opacity="0.68" d="M319.781 8.48921C319.453 8.48921 319.197 8.23411 319.168 7.92232C319.154 7.58219 319.41 7.29875 319.738 7.28458L326.888 6.90193C327.23 6.88776 327.515 7.14286 327.529 7.46882C327.543 7.80895 327.287 8.09239 326.959 8.10656L319.809 8.48921C319.795 8.48921 319.795 8.48921 319.781 8.48921Z" fill="white"/>
<path opacity="0.68" d="M265.042 11.4234C264.714 11.4234 264.458 11.1683 264.429 10.8565C264.415 10.5164 264.671 10.233 264.999 10.2188L307.744 7.93709C308.072 7.92291 308.371 8.17801 308.385 8.50397C308.4 8.8441 308.143 9.12755 307.816 9.14172L265.07 11.4234C265.056 11.4234 265.056 11.4234 265.042 11.4234Z" fill="white"/>
<path opacity="0.68" d="M298.144 76.0341C298.116 76.0341 298.101 76.0341 298.073 76.0341C290.339 75.1413 284.142 68.8772 279.684 57.3978C275.995 47.9166 274.257 36.8198 273.445 29.1811C273.417 28.8551 273.659 28.5433 273.987 28.515C274.329 28.4866 274.628 28.7275 274.656 29.0535C276.052 42.1627 281.123 72.8879 298.215 74.8437C298.543 74.8862 298.785 75.1838 298.757 75.5098C298.714 75.8074 298.443 76.0341 298.144 76.0341Z" fill="white"/>
<path opacity="0.68" d="M273.531 23.7099C273.217 23.7099 272.947 23.469 272.918 23.143C272.804 21.3999 272.776 20.3936 272.776 20.3511C272.762 20.011 273.032 19.7417 273.36 19.7275C273.716 19.6992 273.972 19.9826 273.987 20.3086C273.987 20.3228 274.015 21.3432 274.129 23.058C274.158 23.3981 273.901 23.6816 273.559 23.6957C273.559 23.7099 273.545 23.7099 273.531 23.7099Z" fill="white"/>
</g>
<defs>
<linearGradient id="paint0_linear_2_20520" x1="122.249" y1="267.458" x2="357.838" y2="265.798" gradientUnits="userSpaceOnUse">
<stop stop-color="#FF928E"/>
<stop offset="1" stop-color="#FE7062"/>
</linearGradient>
<linearGradient id="paint1_linear_2_20520" x1="265.447" y1="128.12" x2="-30.5576" y2="578.818" gradientUnits="userSpaceOnUse">
<stop stop-color="#FF928E"/>
<stop offset="1" stop-color="#FE7062"/>
</linearGradient>
<linearGradient id="paint2_linear_2_20520" x1="216.069" y1="-60.9849" x2="181.18" y2="10.5187" gradientUnits="userSpaceOnUse">
<stop stop-color="#FF66AF"/>
<stop offset="1" stop-color="#F8D621"/>
</linearGradient>
<linearGradient id="paint3_linear_2_20520" x1="183.237" y1="81.4299" x2="113.586" y2="115.07" gradientUnits="userSpaceOnUse">
<stop stop-color="#EFCFCA"/>
<stop offset="1" stop-color="#FF928E"/>
</linearGradient>
<linearGradient id="paint4_linear_2_20520" x1="183.569" y1="82.1173" x2="161.448" y2="104.134" gradientUnits="userSpaceOnUse">
<stop stop-color="#EECDC8"/>
<stop offset="1" stop-color="#FF928E"/>
</linearGradient>
<linearGradient id="paint5_linear_2_20520" x1="41.0259" y1="191.928" x2="51.9177" y2="191.928" gradientUnits="userSpaceOnUse">
<stop stop-color="#FF66AF"/>
<stop offset="1" stop-color="#E2CE62"/>
</linearGradient>
<linearGradient id="paint6_linear_2_20520" x1="42.1135" y1="191.241" x2="53.7038" y2="191.241" gradientUnits="userSpaceOnUse">
<stop stop-color="#5D1706"/>
<stop offset="1" stop-color="#913924"/>
</linearGradient>
<linearGradient id="paint7_linear_2_20520" x1="47.8997" y1="179.486" x2="56.4228" y2="179.486" gradientUnits="userSpaceOnUse">
<stop stop-color="#EFCFCA"/>
<stop offset="1" stop-color="#FF928E"/>
</linearGradient>
<linearGradient id="paint8_linear_2_20520" x1="172.389" y1="152.704" x2="188.717" y2="152.704" gradientUnits="userSpaceOnUse">
<stop stop-color="#FF66AF"/>
<stop offset="1" stop-color="#E2CE62"/>
</linearGradient>
<linearGradient id="paint9_linear_2_20520" x1="168.319" y1="152.551" x2="188.007" y2="152.551" gradientUnits="userSpaceOnUse">
<stop stop-color="#5D1706"/>
<stop offset="1" stop-color="#913924"/>
</linearGradient>
<linearGradient id="paint10_linear_2_20520" x1="163.1" y1="151.979" x2="172.464" y2="151.979" gradientUnits="userSpaceOnUse">
<stop stop-color="#EFCFCA"/>
<stop offset="1" stop-color="#FF928E"/>
</linearGradient>
<linearGradient id="paint11_linear_2_20520" x1="105.287" y1="121.869" x2="-8.62802" y2="239.784" gradientUnits="userSpaceOnUse">
<stop stop-color="#5D1706"/>
<stop offset="1" stop-color="#913924"/>
</linearGradient>
<linearGradient id="paint12_linear_2_20520" x1="293.185" y1="49.5434" x2="162.828" y2="115.249" gradientUnits="userSpaceOnUse">
<stop stop-color="#5D1706"/>
<stop offset="1" stop-color="#913924"/>
</linearGradient>
<linearGradient id="paint13_linear_2_20520" x1="187.663" y1="-74.8468" x2="152.773" y2="-3.34312" gradientUnits="userSpaceOnUse">
<stop stop-color="#FF66AF"/>
<stop offset="1" stop-color="#FBE881"/>
</linearGradient>
<linearGradient id="paint14_linear_2_20520" x1="96.8963" y1="104.249" x2="55.3021" y2="30.9533" gradientUnits="userSpaceOnUse">
<stop stop-color="#EFCFCA"/>
<stop offset="1" stop-color="#FF928E"/>
</linearGradient>
<linearGradient id="paint15_linear_2_20520" x1="123.071" y1="72.835" x2="127.428" y2="60.4484" gradientUnits="userSpaceOnUse">
<stop stop-color="#EFCFCA"/>
<stop offset="1" stop-color="#FF928E"/>
</linearGradient>
<linearGradient id="paint16_linear_2_20520" x1="135.412" y1="47.2825" x2="116.356" y2="61.8199" gradientUnits="userSpaceOnUse">
<stop stop-color="#EFCFCA"/>
<stop offset="1" stop-color="#FF928E"/>
</linearGradient>
<linearGradient id="paint17_linear_2_20520" x1="133.054" y1="44.1911" x2="113.998" y2="58.7284" gradientUnits="userSpaceOnUse">
<stop stop-color="#EFCFCA"/>
<stop offset="1" stop-color="#FF928E"/>
</linearGradient>
<linearGradient id="paint18_linear_2_20520" x1="393.833" y1="-123.983" x2="354.307" y2="-35.811" gradientUnits="userSpaceOnUse">
<stop stop-color="#FFB872"/>
<stop offset="1" stop-color="#FE9A26"/>
</linearGradient>
<linearGradient id="paint19_linear_2_20520" x1="284.962" y1="101.789" x2="300.366" y2="18.5746" gradientUnits="userSpaceOnUse">
<stop stop-color="#FFB872"/>
<stop offset="1" stop-color="#FE9A26"/>
</linearGradient>
<linearGradient id="paint20_linear_2_20520" x1="301.151" y1="112.913" x2="298.406" y2="158.082" gradientUnits="userSpaceOnUse">
<stop stop-color="#FFB872"/>
<stop offset="1" stop-color="#FE9A26"/>
</linearGradient>
<linearGradient id="paint21_linear_2_20520" x1="393.302" y1="-14.413" x2="310.261" y2="104.956" gradientUnits="userSpaceOnUse">
<stop stop-color="#FFB872"/>
<stop offset="1" stop-color="#FE9A26"/>
</linearGradient>
<linearGradient id="paint22_linear_2_20520" x1="304.23" y1="-15.7695" x2="318.668" y2="-158.941" gradientUnits="userSpaceOnUse">
<stop stop-color="#FFB872"/>
<stop offset="0.3458" stop-color="#FFAF59"/>
<stop offset="1" stop-color="#FE9A26"/>
</linearGradient>
<linearGradient id="paint23_linear_2_20520" x1="351.923" y1="45.1408" x2="276.466" y2="140.036" gradientUnits="userSpaceOnUse">
<stop stop-color="#FFB872"/>
<stop offset="1" stop-color="#FE9A26"/>
</linearGradient>
<linearGradient id="paint24_linear_2_20520" x1="250.081" y1="45.1408" x2="325.538" y2="140.036" gradientUnits="userSpaceOnUse">
<stop stop-color="#FFB872"/>
<stop offset="1" stop-color="#FE9A26"/>
</linearGradient>
<clipPath id="clip0_2_20520">
<rect width="102" height="123" fill="white" transform="translate(250)"/>
</clipPath>
</defs>
</svg>
