<svg width="519" height="289" viewBox="0 0 519 289" fill="none" xmlns="http://www.w3.org/2000/svg">
<g clip-path="url(#clip0_2_20591)">
<mask id="mask0_2_20591" style="mask-type:luminance" maskUnits="userSpaceOnUse" x="0" y="83" width="94" height="94">
<path d="M51.1 100.7C53.7 100.7 56.2 101 58.5 101.7C61.1 102.4 63.6 103.4 65.9 104.8C70.2 107.3 73.9 111 76.4 115.3C77.6 117.3 78.5 119.4 79.2 121.7C79.3 122 79.4 122.3 79.5 122.7C80.1 125.1 80.5 127.6 80.5 130.1C80.5 132.7 80.2 135.2 79.5 137.5C79.4 137.8 79.3 138.1 79.2 138.5C78.5 140.7 77.6 142.9 76.4 144.9C73.8 149.3 70.2 152.9 65.9 155.4C63.6 156.7 61.2 157.8 58.5 158.5C56.1 159.1 53.6 159.5 51.1 159.5C50.3 159.5 49.5 159.5 48.8 159.4C48 159.5 47.2 159.5 46.4 159.5C43.8 159.5 41.3 159.2 38.9 158.5C37.3 158.1 35.7 157.5 34.2 156.8C33.3 156.4 32.4 155.9 31.6 155.4C27.2 152.9 23.6 149.2 21.1 144.9C19.9 142.9 19 140.8 18.3 138.6C18.2 138.3 18.1 137.9 18 137.6C17.4 135.2 17 132.7 17 130.2C17 127.6 17.3 125.1 18 122.7C18.1 122.4 18.2 122 18.3 121.7C19 119.5 19.9 117.3 21.1 115.4C23.6 111 27.3 107.4 31.6 104.9C32.5 104.4 33.3 103.9 34.2 103.5C35.7 102.8 37.3 102.3 38.9 101.8C41.3 101.2 43.8 100.8 46.3 100.8C47.1 100.8 47.9 100.8 48.7 100.9C49.5 100.8 50.3 100.7 51.1 100.7ZM34.6 85.2996L37 94.5996C35.1 95.0996 33.2 95.7996 31.4 96.5996C30.2 97.0996 28.9 97.7996 27.8 98.4996L24.2 92.3996L23 90.0996L20.5 91.6996L18.1 93.4996L16.9 94.3996L15.8 95.3996L13.6 97.3996L11.6 99.5996L10.6 100.7L9.7 101.9L7.9 104.3L6.3 106.8L14.6 111.7C13.1 114.2 11.9 116.9 11.1 119.8C11 120.2 10.9 120.6 10.8 120.9L6 119.5L1.6 118.4C0.5 122.2 0.2 126.2 0 130.2C0.1 134.1 0.5 138.1 1.6 141.9L6 140.8L10.9 139.5C11 139.9 11.1 140.3 11.2 140.6C12 143.4 13.2 146.1 14.7 148.7L6.4 153.6L8 156.1L9.8 158.5L10.7 159.7L11.7 160.8L13.7 163L15.9 165L17 166L18.2 166.9L20.6 168.7L23.1 170.3L24.4 168.1L28 162C29.2 162.7 30.4 163.3 31.6 163.9C33.4 164.7 35.3 165.4 37.2 165.9L34.8 175.2C38.6 176.3 42.6 176.6 46.6 176.8C47.4 176.8 48.2 176.7 49 176.7C52.2 176.5 55.3 176.1 58.4 175.2L56 165.9C59.3 165.1 62.4 163.8 65.2 162.1L66.3 164L70.1 170.5L72.6 168.9L73.5 168.3L75 167.2L76.2 166.3L77.3 165.3L79.5 163.3L81.5 161.1L82.5 160L83.4 158.8L85.2 156.4L86.8 153.9L78.5 149C80.2 146.2 81.5 143.1 82.3 139.8L86.7 140.9L91.7 142.2C91.8 141.8 91.9 141.4 92 141.1C92.9 137.6 93.1 134 93.2 130.5C93.1 127 92.8 123.4 92 119.9C91.9 119.5 91.8 119.1 91.7 118.7L86.7 120L82.3 121.1C81.5 117.8 80.2 114.7 78.5 111.9L86.8 107L85.2 104.5L83.4 102.1L82.5 100.9L81.5 99.7996L79.5 97.5996L77.3 95.5996L76.2 94.5996L75 93.6996L73.5 92.5996L72.6 91.9996L70.1 90.3996L66 96.5996L64.9 98.4996C62.1 96.7996 59 95.4996 55.7 94.6996L58.1 85.3996C55 84.4996 51.9 84.0996 48.7 83.9996C47.9 83.9996 47.1 83.8996 46.3 83.8996C42.4 83.7996 38.5 84.1996 34.6 85.2996Z" fill="white"/>
</mask>
<g mask="url(#mask0_2_20591)">
<path d="M92.8 83.6992H0V176.499H92.8V83.6992Z" fill="url(#paint0_linear_2_20591)"/>
</g>
<mask id="mask1_2_20591" style="mask-type:luminance" maskUnits="userSpaceOnUse" x="48" y="100" width="33" height="60">
<path d="M48.7 100.8C50.4 100.9 52.0999 101.2 53.7999 101.7C56.3999 102.4 58.9 103.4 61.2 104.8C65.5 107.3 69.1999 111 71.6999 115.3C72.9999 117.6 74.1 120 74.8 122.7C75.4 125.1 75.8 127.6 75.8 130.1C75.8 132.7 75.5 135.2 74.8 137.5C74.1 140.1 73.1 142.6 71.8 144.9C69.2 149.3 65.5999 152.9 61.2999 155.4C58.9999 156.7 56.6 157.8 53.9 158.5C52.3 158.9 50.5999 159.2 48.7999 159.4C49.5999 159.5 50.3999 159.5 51.0999 159.5C53.6999 159.5 56.2 159.2 58.5 158.5C61.1 157.8 63.6 156.8 65.9 155.4C70.2 152.9 73.9 149.2 76.4 144.9C77.6 142.9 78.4999 140.8 79.1999 138.5C79.2999 138.2 79.4 137.9 79.5 137.5C80.1 135.1 80.5 132.6 80.5 130.1C80.5 127.5 80.2 125 79.5 122.7C79.4 122.4 79.2999 122.1 79.1999 121.7C78.4999 119.5 77.6 117.3 76.4 115.3C73.9 110.9 70.2 107.3 65.9 104.8C63.6 103.5 61.2 102.4 58.5 101.7C56.1 101.1 53.5999 100.7 51.0999 100.7C50.2999 100.7 49.5 100.8 48.7 100.8Z" fill="white"/>
</mask>
<g mask="url(#mask1_2_20591)">
<path d="M80.4 100.7H48.7V159.4H80.4V100.7Z" fill="url(#paint1_linear_2_20591)"/>
</g>
<mask id="mask2_2_20591" style="mask-type:luminance" maskUnits="userSpaceOnUse" x="51" y="-1" width="84" height="84">
<path d="M97.5001 15.0998C99.8001 15.0998 102 15.3998 104.1 15.9998C106.4 16.5998 108.6 17.4998 110.6 18.6998C114.5 20.9998 117.7 24.1998 119.9 27.9998C120.9 29.6998 121.7 31.4998 122.3 33.4998C122.4 33.7998 122.5 34.1998 122.6 34.5998C123.2 36.6998 123.4 38.8998 123.4 41.1998C123.4 43.4998 123.1 45.6998 122.6 47.7998C122.5 48.1998 122.4 48.4998 122.3 48.8998C121.7 50.7998 120.9 52.6998 119.9 54.3998C117.6 58.2998 114.4 61.4998 110.6 63.6998C108.6 64.8998 106.4 65.7998 104.1 66.3998C102 66.9998 99.8001 67.2998 97.5001 67.2998C96.7001 67.2998 95.9001 67.2998 95.2001 67.1998C94.4001 67.2998 93.6001 67.2998 92.8001 67.2998C90.5001 67.2998 88.3001 66.9998 86.2001 66.3998C85.0001 66.0998 83.9001 65.6998 82.8001 65.2998C81.7001 64.7998 80.7001 64.2998 79.7001 63.6998C75.8001 61.3998 72.6001 58.1998 70.4001 54.3998C69.4001 52.6998 68.6001 50.8998 68.0001 48.8998C67.9001 48.5998 67.8001 48.1998 67.7001 47.7998C67.1001 45.6998 66.8001 43.4998 66.8001 41.1998C66.8001 38.8998 67.1001 36.6998 67.7001 34.5998C67.8001 34.2998 67.9001 33.8998 68.0001 33.5998C68.6001 31.6998 69.4001 29.7998 70.4001 28.0998C72.7001 24.1998 75.9001 20.9998 79.7001 18.7998C80.7001 18.1998 81.8001 17.6998 82.8001 17.1998C83.8001 16.6998 85.0001 16.3998 86.2001 16.0998C88.3001 15.4998 90.5001 15.1998 92.8001 15.1998C93.6001 15.1998 94.4001 15.1998 95.2001 15.2998C95.9001 15.0998 96.7001 15.0998 97.5001 15.0998ZM82.4001 1.3998L84.6001 9.6998C83.0001 10.0998 81.5001 10.5998 80.1001 11.1998C78.9001 11.6998 77.6001 12.3998 76.5001 12.9998L73.5001 7.7998L72.0001 5.6998L69.8001 6.9998L67.7001 8.5998L66.7001 9.3998L65.7001 10.2998L63.7001 11.9998L61.9001 13.9998L61.0001 14.9998L60.3001 15.9998L58.7001 18.0998L57.3001 20.2998L64.7001 24.5998C63.4001 26.7998 62.4001 29.0998 61.6001 31.5998C61.5001 31.9998 61.4001 32.3998 61.3001 32.6998L57.4001 31.6998L53.0001 30.6998C52.0001 34.0998 51.7001 37.5998 51.6001 41.0998C51.7001 44.5998 52.0001 48.0998 53.0001 51.4998L57.4001 50.3998L61.3001 49.3998C61.4001 49.7998 61.5001 50.1998 61.6001 50.4998C62.3001 52.9998 63.4001 55.2998 64.7001 57.4998L57.3001 61.7998L58.7001 63.9998L60.3001 66.0998L61.1001 67.0998L62.0001 68.0998L63.8001 69.9998L65.7001 71.7998L66.7001 72.6998L67.7001 73.4998L69.8001 75.0998L72.0001 76.4998L73.3001 74.2998L76.3001 69.0998C77.5001 69.7998 78.7001 70.3998 79.9001 70.8998C81.4001 71.4998 82.9001 71.9998 84.4001 72.4998L82.2001 80.7998C85.6001 81.7998 89.1001 82.0998 92.6001 82.1998C93.4001 82.1998 94.2001 82.0998 95.0001 82.0998C97.7001 81.8998 100.4 81.5998 103.1 80.7998L100.9 72.4998C103.8 71.6998 106.5 70.5998 109.1 69.0998L110.2 70.8998L113.5 76.4998L115.8 75.0998L116.9 74.1998L117.9 73.4998L119 72.6998L120 71.7998L121.9 69.9998L123.7 68.0998L124.6 67.0998L125.4 66.0998L127 63.9998L128.4 61.7998L121 57.4998C122.5 54.9998 123.6 52.1998 124.4 49.2998L128.8 50.3998L132.7 51.3998C132.8 50.9998 132.9 50.5998 133 50.2998C133.7 47.2998 134 44.0998 134.1 40.9998C134 37.8998 133.8 34.7998 133 31.6998C132.9 31.2998 132.8 30.8998 132.7 30.5998L128.8 31.5998L124.4 32.6998C123.6 29.7998 122.5 27.0998 121 24.4998L128.4 20.1998L127 17.9998L125.4 15.8998L124.6 14.7998L123.7 13.7998L121.9 11.8998L120 10.0998L119 9.1998L117.9 8.3998L116.9 7.6998L115.7 6.9998L113.4 5.5998L110.1 11.0998L109 12.8998C106.5 11.3998 103.7 10.2998 100.8 9.4998L103 1.1998C100.4 0.399805 97.7001 0.0998047 94.9001 -0.100195C94.1001 -0.100195 93.3001 -0.200195 92.5001 -0.200195C89.3001 0.0998047 85.7001 0.399805 82.4001 1.3998Z" fill="white"/>
</mask>
<g mask="url(#mask2_2_20591)">
<path d="M133.9 0H51.7002V82.2H133.9V0Z" fill="url(#paint2_linear_2_20591)"/>
</g>
<mask id="mask3_2_20591" style="mask-type:luminance" maskUnits="userSpaceOnUse" x="95" y="14" width="29" height="54">
<path d="M95.1001 15.2004C96.5001 15.3004 98.0001 15.6004 99.3001 16.0004C101.6 16.6004 103.8 17.5004 105.8 18.7004C109.7 21.0004 112.9 24.2004 115.1 28.0004C116.3 30.0004 117.2 32.2004 117.8 34.5004C118.4 36.6004 118.6 38.8004 118.6 41.1004C118.6 43.4004 118.3 45.6004 117.8 47.7004C117.2 50.0004 116.3 52.2004 115.1 54.2004C112.8 58.1004 109.6 61.3004 105.8 63.5004C103.8 64.7004 101.6 65.6004 99.3001 66.2004C97.9001 66.6004 96.5001 66.8004 95.1001 67.0004C95.9001 67.1004 96.7001 67.1004 97.4001 67.1004C99.7001 67.1004 101.9 66.8004 104 66.2004C106.3 65.6004 108.5 64.7004 110.5 63.5004C114.4 61.2004 117.6 58.0004 119.8 54.2004C120.8 52.5004 121.6 50.7004 122.2 48.7004C122.3 48.3004 122.4 48.0004 122.5 47.6004C123.1 45.5004 123.3 43.3004 123.3 41.0004C123.3 38.7004 123 36.5004 122.5 34.4004C122.4 34.0004 122.3 33.7004 122.2 33.3004C121.6 31.4004 120.8 29.5004 119.8 27.8004C117.6 23.9004 114.3 20.7004 110.5 18.5004C108.5 17.3004 106.3 16.4004 104 15.8004C101.9 15.2004 99.7001 14.9004 97.4001 14.9004C96.7001 15.1004 95.9001 15.1004 95.1001 15.2004Z" fill="white"/>
</mask>
<g mask="url(#mask3_2_20591)">
<path d="M123.4 15.1006H95.1001V67.1006H123.4V15.1006Z" fill="url(#paint3_linear_2_20591)"/>
</g>
<mask id="mask4_2_20591" style="mask-type:luminance" maskUnits="userSpaceOnUse" x="49" y="182" width="83" height="83">
<path d="M95 197.7C97.3 197.7 99.5 198 101.6 198.6C103.9 199.2 106.1 200.1 108.1 201.3C112 203.6 115.2 206.8 117.4 210.6C118.4 212.3 119.2 214.2 119.8 216.1C119.9 216.4 120 216.8 120.1 217.1C120.7 219.2 120.9 221.4 120.9 223.7C120.9 226 120.6 228.2 120.1 230.3C120 230.6 119.9 231 119.8 231.3C119.2 233.2 118.4 235.1 117.4 236.8C115.1 240.7 111.9 243.9 108.1 246.1C106.1 247.3 103.9 248.2 101.6 248.8C99.5 249.4 97.3 249.7 95 249.7C94.2001 249.7 93.4 249.7 92.6 249.6C91.8 249.7 91 249.7 90.2 249.7C87.9 249.7 85.7 249.4 83.6 248.8C82.4 248.5 81.3 248.1 80.2 247.7C79.1 247.2 78.1 246.7 77.1 246.1C73.2 243.8 70.0001 240.6 67.8001 236.8C66.8001 235.1 66.0001 233.3 65.4001 231.3C65.3001 231 65.2 230.6 65.1 230.2C64.5 228.1 64.3001 225.9 64.3001 223.6C64.3001 221.3 64.6 219.1 65.1 217C65.2 216.6 65.3001 216.3 65.4001 215.9C66.0001 214 66.8001 212.1 67.8001 210.4C70.1001 206.5 73.3 203.3 77.1 201.1C78.1 200.5 79.2 200 80.2 199.5C81.3 199 82.4 198.7 83.6 198.4C85.7 197.8 87.9 197.5 90.2 197.5C91 197.5 91.8 197.5 92.6 197.6C93.5 197.7 94.2001 197.7 95 197.7ZM79.9001 184L82.1 192.3C80.5 192.7 79 193.2 77.6 193.9C76.3 194.4 75.1 195 74 195.7L71 190.5L69.7 188.3L67.5 189.7L65.4001 191.3L64.4001 192.1L63.4001 193L61.5 194.8L59.7001 196.7L58.8 197.7L58 198.7L56.4001 200.8L55 203L62.4001 207.3C61.1001 209.5 60.1 211.8 59.3 214.3C59.2 214.7 59.1 215.1 59 215.4L55.1 214.4L50.7001 213.3C49.7001 216.7 49.4 220.2 49.3 223.7C49.4 227.2 49.7001 230.7 50.7001 234.1L55 233L58.9001 232C59.0001 232.4 59.1 232.8 59.2001 233.1C59.9001 235.6 61 237.9 62.3 240.1L54.9001 244.4L56.3 246.6L57.9001 248.7L58.7001 249.8L59.6 250.8L61.4001 252.7L63.3 254.5L64.3001 255.4L65.3001 256.2L67.4001 257.8L69.6 259.2L70.9001 257L73.9001 251.8C75.1001 252.5 76.3 253.1 77.5 253.6C79 254.2 80.5 254.7 82 255.2L79.8001 263.5C83.2001 264.5 86.7 264.8 90.2 264.9C91 264.9 91.8 264.8 92.6 264.8C95.3 264.6 98 264.3 100.7 263.5L98.5 255.2C101.4 254.4 104.1 253.3 106.7 251.8L107.8 253.6L111.1 259.2L113.3 257.8L114.4 256.9L115.4 256.2L116.4 255.4L117.4 254.5L119.3 252.7L121.1 250.8L122 249.8L122.8 248.7L124.4 246.6L125.8 244.4L118.4 240.1C119.9 237.6 121 234.8 121.8 231.9L126.2 233L130.1 234C130.2 233.6 130.3 233.2 130.4 232.8C131.1 229.8 131.4 226.6 131.5 223.5C131.4 220.4 131.2 217.3 130.4 214.2C130.3 213.8 130.2 213.4 130.1 213.1L126.2 214.1L121.8 215.2C121 212.3 119.9 209.6 118.4 207L125.8 202.7L124.4 200.5L122.8 198.4L122 197.4L121.1 196.4L119.3 194.5L117.4 192.7L116.4 191.8L115.4 191L114.4 190.3L113.3 189.4L111.1 188L107.8 193.5L106.7 195.3C104.2 193.8 101.4 192.7 98.5 191.9L100.7 183.6C98.1 182.8 95.4 182.5 92.6 182.3C91.8 182.3 91 182.2 90.2 182.2C86.8 182.7 83.3001 183 79.9001 184Z" fill="white"/>
</mask>
<g mask="url(#mask4_2_20591)">
<path d="M131.4 182.601H49.2V264.801H131.4V182.601Z" fill="url(#paint4_linear_2_20591)"/>
</g>
<mask id="mask5_2_20591" style="mask-type:luminance" maskUnits="userSpaceOnUse" x="92" y="197" width="29" height="53">
<path d="M92.7 197.8C94.1 197.9 95.6 198.2 96.9 198.6C99.2 199.2 101.4 200.1 103.4 201.3C107.3 203.6 110.5 206.8 112.7 210.6C113.9 212.6 114.8 214.8 115.4 217.1C116 219.2 116.2 221.4 116.2 223.7C116.2 226 115.9 228.2 115.4 230.3C114.8 232.6 113.9 234.8 112.7 236.8C110.4 240.7 107.2 243.9 103.4 246.1C101.4 247.3 99.2 248.2 96.9 248.8C95.5 249.2 94.1 249.4 92.7 249.6C93.5 249.7 94.3 249.7 95.1 249.7C97.4 249.7 99.6 249.4 101.7 248.8C104 248.2 106.2 247.3 108.2 246.1C112.1 243.8 115.3 240.6 117.5 236.8C118.5 235.1 119.3 233.2 119.9 231.3C120 231 120.1 230.6 120.2 230.3C120.8 228.2 121 226 121 223.7C121 221.4 120.7 219.2 120.2 217.1C120.1 216.8 120 216.4 119.9 216.1C119.3 214.2 118.5 212.3 117.5 210.6C115.2 206.7 112 203.5 108.2 201.3C106.2 200.1 104 199.2 101.7 198.6C99.6 198 97.4 197.7 95.1 197.7C94.2 197.7 93.5 197.7 92.7 197.8Z" fill="white"/>
</mask>
<g mask="url(#mask5_2_20591)">
<path d="M121.1 197.7H92.7V249.7H121.1V197.7Z" fill="url(#paint5_linear_2_20591)"/>
</g>
<mask id="mask6_2_20591" style="mask-type:luminance" maskUnits="userSpaceOnUse" x="386" y="23" width="84" height="84">
<path d="M428 38.6C430.3 38.6 432.5 38.9 434.6 39.5C435.8 39.8 436.9 40.2 438 40.6C439.1 41.1 440.1 41.6 441.1 42.2C445 44.5 448.2 47.7 450.4 51.5C451.4 53.2 452.2 55 452.8 57C452.9 57.3 453 57.7 453.1 58.1C453.7 60.2 453.9 62.4 453.9 64.7C453.9 67 453.6 69.2 453.1 71.3C453 71.7 452.9 72 452.8 72.4C452.2 74.3 451.4 76.2 450.4 77.9C448.1 81.8 444.9 85 441.1 87.2C440.1 87.8 439 88.3 438 88.8C436.9 89.3 435.8 89.6 434.6 89.9C432.5 90.5 430.3 90.8 428 90.8C427.2 90.8 426.4 90.8 425.6 90.7C424.8 90.8 424 90.8 423.3 90.8C421 90.8 418.8 90.5 416.7 89.9C414.4 89.3 412.2 88.4 410.2 87.2C406.3 84.9 403.1 81.7 400.9 77.9C399.9 76.2 399.1 74.3 398.5 72.4C398.4 72.1 398.3 71.7 398.2 71.4C397.6 69.3 397.4 67.1 397.4 64.8C397.4 62.5 397.7 60.3 398.2 58.2C398.3 57.9 398.4 57.5 398.5 57.2C399.1 55.3 399.9 53.4 400.9 51.7C403.2 47.8 406.4 44.6 410.2 42.4C412.2 41.2 414.4 40.3 416.7 39.7C418.8 39.1 421 38.8 423.3 38.8C424.1 38.8 424.9 38.8 425.7 38.9C426.4 38.6 427.2 38.6 428 38.6ZM425.7 23.6C423 23.8 420.3 24.1 417.6 24.9L419.8 33.2C416.9 34 414.2 35.1 411.6 36.6L410.5 34.8L407.2 29.2L405 30.6L403.9 31.5L402.9 32.2L401.9 33L400.9 33.9L399 35.7L397.2 37.6L396.3 38.6L395.5 39.7L393.9 41.8L392.5 44L399.9 48.3C398.4 50.8 397.3 53.6 396.5 56.5L392.1 55.4L388.2 54.4C388.1 54.8 388 55.2 387.9 55.6C387.2 58.6 386.9 61.8 386.8 64.9C386.9 68 387.1 71.1 387.9 74.2C388 74.6 388.1 75 388.2 75.3L392.1 74.3L396.5 73.2C397.3 76.1 398.4 78.8 399.9 81.4L392.5 85.7L393.9 87.9L395.5 90L396.3 91L397.2 92L399 93.9L400.9 95.7L401.9 96.6L402.9 97.4L403.9 98.1L405 99L407.2 100.4L410.5 94.9L411.6 93.1C414.1 94.6 416.9 95.7 419.8 96.5L417.6 104.8C420.2 105.6 422.9 105.9 425.7 106.1C426.5 106.1 427.3 106.2 428.1 106.2C431.6 106.1 435.1 105.8 438.5 104.8L436.3 96.5C437.9 96.1 439.4 95.6 440.8 94.9C442.1 94.4 443.3 93.8 444.4 93.1L447.4 98.3L448.7 100.5L450.9 99.1L453 97.5L454 96.7L455 95.8L456.9 94L458.7 92.1L459.6 91.1L460.4 90.1L462 88L463.4 85.8L456 81.5C457.3 79.3 458.3 77 459.1 74.5C459.2 74.1 459.3 73.7 459.4 73.4L463.3 74.4L467.7 75.5C468.7 72.1 469 68.6 469.1 65.1C469 61.6 468.7 58.1 467.7 54.7L463.3 55.9L459.4 56.9C459.3 56.5 459.2 56.1 459.1 55.8C458.4 53.3 457.3 51 456 48.8L463.4 44.5L462 42.3L460.4 40.2L459.6 39.1L458.7 38.1L456.9 36.2L455 34.4L454 33.5L453 32.7L450.9 31.1L448.7 29.7L447.4 31.9L444.4 37.1C443.2 36.4 442 35.8 440.8 35.3C439.3 34.7 437.8 34.2 436.3 33.7L438.5 25.4C435.1 24.4 431.6 24.1 428.1 24C427.2 23.5 426.4 23.6 425.7 23.6Z" fill="white"/>
</mask>
<g mask="url(#mask6_2_20591)">
<path d="M469.1 23.5H386.9V105.7H469.1V23.5Z" fill="url(#paint6_linear_2_20591)"/>
</g>
<mask id="mask7_2_20591" style="mask-type:luminance" maskUnits="userSpaceOnUse" x="397" y="38" width="29" height="53">
<path d="M416.7 39.4C414.4 40 412.2 40.9 410.2 42.1C406.3 44.4 403.1 47.6 400.9 51.4C399.9 53.1 399.1 55 398.5 56.9C398.4 57.2 398.3 57.6 398.2 57.9C397.6 60 397.4 62.2 397.4 64.5C397.4 66.8 397.7 69 398.2 71.1C398.3 71.4 398.4 71.8 398.5 72.1C399.1 74 399.9 75.9 400.9 77.6C403.2 81.5 406.4 84.7 410.2 86.9C412.2 88.1 414.4 89 416.7 89.6C418.8 90.2 421 90.5 423.3 90.5C424.1 90.5 424.9 90.5 425.6 90.4C424.2 90.3 422.7 90 421.4 89.6C419.1 89 416.9 88.1 414.9 86.9C411 84.6 407.8 81.4 405.6 77.6C404.4 75.6 403.5 73.4 402.9 71.1C402.3 69 402.1 66.8 402.1 64.5C402.1 62.2 402.4 60 402.9 57.9C403.5 55.6 404.4 53.4 405.6 51.4C407.9 47.5 411.1 44.3 414.9 42.1C416.9 40.9 419.1 40 421.4 39.4C422.8 39 424.2 38.8 425.6 38.6C424.8 38.5 424 38.5 423.2 38.5C421 38.6 418.8 38.9 416.7 39.4Z" fill="white"/>
</mask>
<g mask="url(#mask7_2_20591)">
<path d="M425.7 38.5996H397.3V90.5996H425.7V38.5996Z" fill="url(#paint7_linear_2_20591)"/>
</g>
<mask id="mask8_2_20591" style="mask-type:luminance" maskUnits="userSpaceOnUse" x="384" y="206" width="83" height="83">
<path d="M425.6 221.2C427.9 221.2 430.1 221.5 432.2 222.1C433.4 222.4 434.5 222.8 435.6 223.2C436.7 223.7 437.7 224.2 438.7 224.8C442.6 227.1 445.8 230.3 448 234.1C449 235.8 449.8 237.6 450.4 239.6C450.5 239.9 450.6 240.3 450.7 240.7C451.3 242.8 451.6 245 451.6 247.3C451.6 249.6 451.3 251.8 450.7 253.9C450.6 254.2 450.5 254.6 450.4 254.9C449.8 256.8 449 258.7 448 260.4C445.7 264.3 442.5 267.5 438.7 269.7C437.7 270.3 436.6 270.8 435.6 271.3C434.5 271.8 433.4 272.1 432.2 272.4C430.1 273 427.9 273.3 425.6 273.3C424.8 273.3 424 273.3 423.2 273.2C422.4 273.3 421.6 273.3 420.9 273.3C418.6 273.3 416.4 273 414.3 272.4C412 271.8 409.8 270.9 407.8 269.7C403.9 267.4 400.7 264.2 398.5 260.4C397.5 258.7 396.7 256.9 396.1 254.9C396 254.6 395.9 254.2 395.8 253.8C395.2 251.7 395 249.5 395 247.2C395 244.9 395.3 242.7 395.8 240.6C395.9 240.2 396 239.9 396.1 239.5C396.7 237.6 397.5 235.7 398.5 234C400.8 230.1 404 226.9 407.8 224.7C409.8 223.5 412 222.6 414.3 222C416.4 221.4 418.6 221.1 420.9 221.1C421.7 221.1 422.5 221.1 423.2 221.2C424 221.2 424.8 221.2 425.6 221.2ZM423.2 206.2C420.5 206.4 417.8 206.7 415.1 207.5L417.3 215.8C414.4 216.6 411.7 217.7 409.1 219.2L408 217.4L404.7 211.8L402.4 213.2L401.3 214.1L400.3 214.8L399.2 215.6L398.2 216.5L396.3 218.3L394.5 220.2L393.6 221.2L392.8 222.2L391.2 224.3L389.8 226.5L397.2 230.8C395.7 233.3 394.6 236.1 393.8 239L389.4 237.9L385.5 236.9C385.4 237.3 385.3 237.7 385.2 238C384.5 241 384.2 244.2 384.1 247.3C384.2 250.4 384.4 253.5 385.2 256.6C385.3 257 385.4 257.4 385.5 257.7L389.4 256.7L393.8 255.6C394.6 258.5 395.7 261.2 397.2 263.8L389.8 268.1L391.2 270.3L392.8 272.4L393.6 273.5L394.5 274.5L396.3 276.4L398.2 278.2L399.2 279.1L400.3 279.9L401.3 280.6L402.4 281.5L404.7 282.9L408 277.4L409.1 275.6C411.6 277.1 414.4 278.2 417.3 279L415.1 287.3C417.7 288.1 420.4 288.4 423.2 288.6C424 288.6 424.8 288.7 425.6 288.7C429.1 288.6 432.6 288.3 436 287.3L433.8 279C435.4 278.6 436.9 278.1 438.3 277.5C439.5 277 440.8 276.3 441.9 275.7L444.9 280.9L446.2 283.1L448.4 281.7L450.5 280.1L451.5 279.3L452.5 278.4L454.4 276.6L456.2 274.7L457.1 273.7L457.9 272.6L459.5 270.5L460.9 268.3L453.5 264C454.8 261.8 455.8 259.5 456.6 257C456.7 256.6 456.8 256.2 456.9 255.9L460.8 256.9L465.2 258C466.2 254.6 466.5 251.1 466.6 247.6C466.5 244.1 466.2 240.6 465.2 237.2L460.8 238.3L456.9 239.3C456.8 238.9 456.7 238.5 456.6 238.2C455.9 235.7 454.8 233.4 453.5 231.2L460.9 226.9L459.5 224.7L457.9 222.6L457.1 221.6L456.2 220.6L454.4 218.7L452.5 216.9L451.5 216L450.5 215.2L448.4 213.6L446.2 212.2L445 214L442 219.2C440.8 218.5 439.6 217.9 438.4 217.4C436.9 216.8 435.4 216.3 433.9 215.8L436.1 207.5C432.7 206.5 429.2 206.2 425.7 206.1C424.8 206.1 424 206.2 423.2 206.2Z" fill="white"/>
</mask>
<g mask="url(#mask8_2_20591)">
<path d="M466.7 206.1H384.5V288.3H466.7V206.1Z" fill="url(#paint8_linear_2_20591)"/>
</g>
<mask id="mask9_2_20591" style="mask-type:luminance" maskUnits="userSpaceOnUse" x="395" y="221" width="29" height="53">
<path d="M414.3 222C412 222.6 409.8 223.5 407.8 224.7C403.9 227 400.7 230.2 398.5 234C397.5 235.7 396.7 237.5 396.1 239.5C396 239.9 395.9 240.2 395.8 240.6C395.2 242.7 395 244.9 395 247.2C395 249.5 395.3 251.7 395.8 253.8C395.9 254.2 396 254.5 396.1 254.9C396.7 256.8 397.5 258.7 398.5 260.4C400.7 264.3 404 267.5 407.8 269.7C409.8 270.9 412 271.8 414.3 272.4C416.4 273 418.6 273.3 420.9 273.3C421.7 273.3 422.5 273.3 423.2 273.2C421.8 273.1 420.3 272.8 419 272.4C416.7 271.8 414.5 270.9 412.5 269.7C408.6 267.4 405.4 264.2 403.2 260.4C402 258.4 401.1 256.2 400.5 253.9C399.9 251.8 399.7 249.6 399.7 247.3C399.7 245 400 242.8 400.5 240.7C401.1 238.4 402 236.2 403.2 234.2C405.5 230.3 408.7 227.1 412.5 224.9C414.5 223.7 416.7 222.8 419 222.2C420.4 221.8 421.8 221.6 423.2 221.4C422.4 221.3 421.6 221.3 420.9 221.3C418.6 221.2 416.4 221.5 414.3 222Z" fill="white"/>
</mask>
<g mask="url(#mask9_2_20591)">
<path d="M423.2 221.2H394.9V273.2H423.2V221.2Z" fill="url(#paint9_linear_2_20591)"/>
</g>
<mask id="mask10_2_20591" style="mask-type:luminance" maskUnits="userSpaceOnUse" x="425" y="111" width="94" height="94">
<path d="M472 128.9C474.6 128.9 477.1 129.2 479.5 129.9C481.1 130.3 482.7 130.9 484.2 131.6C485.1 132 486 132.5 486.8 133C491.2 135.5 494.8 139.2 497.3 143.5C498.5 145.5 499.4 147.6 500.1 149.8C500.2 150.1 500.3 150.5 500.4 150.8C501 153.2 501.4 155.7 501.4 158.2C501.4 160.8 501.1 163.3 500.4 165.7C500.3 166 500.2 166.4 500.1 166.7C499.4 168.9 498.5 171.1 497.3 173C494.8 177.4 491.1 181 486.8 183.5C485.9 184 485.1 184.5 484.2 184.9C482.7 185.6 481.1 186.1 479.5 186.6C477.1 187.2 474.6 187.6 472.1 187.6C471.3 187.6 470.5 187.6 469.7 187.5C468.9 187.6 468.1 187.6 467.3 187.6C464.7 187.6 462.2 187.3 459.9 186.6C457.3 185.9 454.8 184.9 452.5 183.5C448.2 181 444.5 177.3 442 173C440.8 171 439.9 168.9 439.2 166.6C439.1 166.3 439 166 438.9 165.6C438.3 163.2 437.9 160.7 437.9 158.2C437.9 155.6 438.2 153.1 438.9 150.8C439 150.5 439.1 150.2 439.2 149.8C439.9 147.6 440.8 145.4 442 143.4C444.6 139 448.2 135.4 452.5 132.9C454.8 131.6 457.2 130.5 459.9 129.8C462.3 129.2 464.8 128.8 467.3 128.8C468.1 128.8 468.9 128.8 469.7 128.9C470.4 128.9 471.2 128.9 472 128.9ZM469.6 111.9C466.4 112.1 463.3 112.5 460.2 113.4L462.6 122.7C459.3 123.5 456.2 124.8 453.4 126.5L452.3 124.6L448.5 118.1L446 119.7L445.1 120.3L443.6 121.4L442.4 122.3L441.3 123.3L439.1 125.3L437.1 127.5L436.1 128.6L435.2 129.8L433.4 132.2L431.8 134.7L440.1 139.6C438.4 142.4 437.1 145.5 436.3 148.8L431.9 147.7L426.9 146.4C426.8 146.8 426.7 147.2 426.6 147.5C425.7 151 425.5 154.6 425.3 158.1C425.4 161.6 425.7 165.2 426.6 168.7C426.7 169.1 426.8 169.5 426.9 169.9L431.9 168.6L436.3 167.5C437.1 170.8 438.4 173.9 440.1 176.7L431.8 181.6L433.4 184.1L435.2 186.5L436.1 187.7L437.1 188.8L439.1 191L441.3 193L442.4 194L443.6 194.9L445.1 196L446 196.6L448.5 198.2L452.3 191.7L453.4 189.8C456.2 191.5 459.3 192.8 462.6 193.6L460.2 202.9C463.3 203.8 466.4 204.2 469.6 204.3C470.4 204.3 471.2 204.4 472 204.4C475.9 204.3 479.9 203.9 483.8 202.8L481.4 193.5C483.3 193 485.2 192.3 487 191.5C488.2 191 489.5 190.3 490.6 189.6L494.2 195.7L495.5 197.9L498 196.3L500.4 194.5L501.6 193.6L502.7 192.6L504.9 190.6L506.9 188.4L507.9 187.3L508.8 186.1L510.6 183.7L512.2 181.2L503.9 176.3C505.4 173.8 506.6 171.1 507.4 168.2C507.5 167.8 507.6 167.4 507.7 167.1L512.6 168.4L517 169.5C518.1 165.7 518.4 161.7 518.6 157.7C518.5 153.8 518.1 149.8 517 146L512.6 147.1L507.7 148.4C507.6 148 507.5 147.6 507.4 147.3C506.6 144.5 505.4 141.8 503.9 139.2L512.2 134.3L510.6 131.8L508.8 129.4L507.9 128.2L506.9 127.1L504.9 124.9L502.7 122.9L501.6 121.9L500.4 121L498 119.2L495.5 117.6L494.2 119.8L490.6 125.9C489.4 125.2 488.2 124.6 487 124C485.2 123.2 483.3 122.5 481.4 122L483.8 112.7C480 111.6 476 111.3 472 111.1C471.2 111.9 470.4 111.9 469.6 111.9Z" fill="white"/>
</mask>
<g mask="url(#mask10_2_20591)">
<path d="M518.4 111.8H425.6V204.6H518.4V111.8Z" fill="url(#paint10_linear_2_20591)"/>
</g>
<mask id="mask11_2_20591" style="mask-type:luminance" maskUnits="userSpaceOnUse" x="437" y="128" width="33" height="60">
<path d="M459.8 129.8C457.2 130.5 454.7 131.5 452.4 132.9C448.1 135.4 444.4 139.1 441.9 143.4C440.7 145.4 439.8 147.5 439.1 149.8C439 150.1 438.9 150.4 438.8 150.8C438.2 153.2 437.8 155.7 437.8 158.2C437.8 160.8 438.1 163.3 438.8 165.6C438.9 165.9 439 166.2 439.1 166.6C439.8 168.8 440.7 171 441.9 173C444.4 177.4 448.1 181 452.4 183.5C454.7 184.8 457.1 185.9 459.8 186.6C462.2 187.2 464.7 187.6 467.2 187.6C468 187.6 468.8 187.6 469.6 187.5C467.9 187.4 466.1 187.1 464.5 186.6C461.9 185.9 459.4 184.9 457.1 183.5C452.8 181 449.1 177.3 446.6 173C445.3 170.7 444.2 168.3 443.5 165.6C442.9 163.2 442.5 160.7 442.5 158.2C442.5 155.6 442.8 153.1 443.5 150.8C444.2 148.2 445.2 145.7 446.5 143.4C449.1 139 452.7 135.4 457 132.9C459.3 131.6 461.7 130.5 464.4 129.8C466 129.4 467.7 129.1 469.5 128.9C468.7 128.8 467.9 128.8 467.1 128.8C464.7 128.9 462.2 129.2 459.8 129.8Z" fill="white"/>
</mask>
<g mask="url(#mask11_2_20591)">
<path d="M469.6 128.899H437.9V187.599H469.6V128.899Z" fill="url(#paint11_linear_2_20591)"/>
</g>
<mask id="mask12_2_20591" style="mask-type:luminance" maskUnits="userSpaceOnUse" x="102" y="47" width="187" height="84">
<path d="M262.9 55.7996H186.6C146.2 55.7996 111 84.4996 102.9 124C102.3 127.2 104.3 130.2 107.4 130.9C107.8 131 108.2 131 108.6 131C111.3 131 113.7 129.1 114.3 126.3C121.3 92.1996 151.7 67.3996 186.6 67.3996H262.9V76.0996L288 61.5996L262.8 47.0996V55.7996H262.9Z" fill="white"/>
</mask>
<g mask="url(#mask12_2_20591)">
<path d="M288 47.0996H102.2V131H288V47.0996Z" fill="url(#paint12_linear_2_20591)"/>
</g>
<mask id="mask13_2_20591" style="mask-type:luminance" maskUnits="userSpaceOnUse" x="122" y="76" width="136" height="136">
<path d="M235.5 181.9L242.3 187.6C247.2 181.7 251.1 174.9 253.8 167.7L246.4 165C243.8 171.3 240.1 177.1 235.5 181.9ZM249.5 134.2C250.1 137.5 250.5 140.9 250.5 144.4C250.5 147.9 250.2 151.3 249.5 154.6L256.9 155.9C257.5 152.1 257.9 148.3 257.9 144.4C257.9 140.6 257.6 136.7 256.9 132.9L249.5 134.2ZM235.5 106.9C240.1 111.8 243.9 117.5 246.5 123.8L253.9 121.1C251.2 113.9 247.3 107.1 242.4 101.2L235.5 106.9ZM184.5 77.2004C182.7 77.4004 180.8 77.6004 179 77.9004L179.7 82.0004L180.6 87.1004C177.1 87.7004 173.7 88.6004 170.4 89.8004L167.2 81.0004C163.6 82.3004 160.1 84.0004 156.8 85.9004C154.7 87.1004 152.7 88.4004 150.8 89.8004C149.6 90.6004 148.5 91.5004 147.4 92.5004L151.7 97.7004L153.3 99.7004C150.6 101.9 148.1 104.4 145.8 107.2L138.6 101.2C134.1 106.6 130.4 112.7 127.8 119.3C127.6 119.9 127.3 120.5 127.1 121.1L134.9 124L135.8 124.3C134.6 127.6 133.7 131 133.1 134.5L123.9 132.9C123.3 136.7 122.9 140.5 122.9 144.4C122.9 148.2 123.2 152.1 123.9 155.9L133.1 154.3C133.7 157.8 134.6 161.2 135.8 164.5L134.9 164.8L127.1 167.7C127.3 168.3 127.6 168.9 127.8 169.5C130.4 176 134.1 182.2 138.6 187.6L145.8 181.6C148 184.3 150.5 186.8 153.3 189.1L151.7 191.1L147.4 196.3C148.5 197.2 149.7 198.1 150.8 199C152.7 200.4 154.7 201.7 156.8 202.9C160.1 204.8 163.6 206.5 167.2 207.8L170.4 199.1C173.7 200.3 177.1 201.2 180.6 201.8L179.7 206.9L179 211C180.8 211.3 182.7 211.5 184.5 211.7C186.5 211.9 188.5 212 190.5 212C194.3 212 198.2 211.7 202 211L200.4 201.8C203.9 201.2 207.3 200.3 210.6 199.1L213.4 206.6L213.8 207.8C215.5 207.2 217.1 206.5 218.7 205.8C220.6 204.9 222.4 204 224.2 202.9C227.5 201 230.7 198.8 233.6 196.3L227.6 189.1C228.8 188.1 229.9 187.1 231 186C225 191.1 217.8 194.9 209.9 197C205.5 198.2 200.8 198.8 196 198.8C171.8 198.8 151.4 183.1 144.3 161.3C144.3 161.3 144.3 161.3 144.3 161.2C142.4 156 141.3 150.3 141.3 144.4C141.3 138.5 142.4 132.8 144.3 127.5C151.4 105.7 171.9 90.0004 196 90.0004C200.8 90.0004 205.5 90.6004 209.9 91.8004C217.8 93.9004 225 97.7004 231 102.8C229.9 101.7 228.8 100.7 227.6 99.7004L233.6 92.5004C230.6 90.0004 227.5 87.8004 224.2 85.9004C222.4 84.9004 220.5 83.9004 218.7 83.0004C217.1 82.2004 215.5 81.6004 213.8 81.0004L213.4 82.2004L210.6 89.8004C207.3 88.6004 203.9 87.7004 200.4 87.1004L202 77.9004C198.2 77.3004 194.4 76.9004 190.5 76.9004C188.4 76.9004 186.4 77.0004 184.5 77.2004Z" fill="white"/>
</mask>
<g mask="url(#mask13_2_20591)">
<path d="M257.9 76.9004H122.9V211.9H257.9V76.9004Z" fill="url(#paint13_linear_2_20591)"/>
</g>
<mask id="mask14_2_20591" style="mask-type:luminance" maskUnits="userSpaceOnUse" x="144" y="90" width="107" height="109">
<path d="M144.3 127.5C151.2 108.7 169.2 95.3 190.4 95.3C217.5 95.3 239.5 117.3 239.5 144.4C239.5 171.5 217.5 193.5 190.4 193.5C169.2 193.5 151.2 180.1 144.3 161.3C151.4 183.1 171.9 198.8 196 198.8C200.8 198.8 205.5 198.2 209.9 197C217.8 194.9 224.9 191.1 231 186C232.5 184.7 234 183.3 235.4 181.9C240 177 243.8 171.3 246.4 165C247.8 161.7 248.8 158.2 249.5 154.6C250.1 151.3 250.5 147.9 250.5 144.4C250.5 140.9 250.2 137.5 249.5 134.2C248.8 130.6 247.8 127.1 246.4 123.8C243.8 117.5 240.1 111.8 235.4 106.9C234 105.5 232.6 104.1 231 102.8C225 97.7 217.8 93.9 209.9 91.8C205.5 90.6 200.8 90 196 90C171.9 90 151.4 105.8 144.3 127.5Z" fill="white"/>
</mask>
<g mask="url(#mask14_2_20591)">
<path d="M250.4 90H144.3V198.8H250.4V90Z" fill="url(#paint14_linear_2_20591)"/>
</g>
<mask id="mask15_2_20591" style="mask-type:luminance" maskUnits="userSpaceOnUse" x="230" y="157" width="186" height="85">
<path d="M404.1 162C397.1 196.1 366.7 220.9 331.8 220.9H255.5V212.2L230.3 226.7L255.5 241.2V232.5H331.8C372.2 232.5 407.4 203.8 415.5 164.3C416.1 161.1 414.1 158.1 411 157.4C410.6 157.3 410.2 157.3 409.8 157.3C407.1 157.3 404.7 159.2 404.1 162Z" fill="white"/>
</mask>
<g mask="url(#mask15_2_20591)">
<path d="M416.1 157.3H230.3V241.2H416.1V157.3Z" fill="url(#paint15_linear_2_20591)"/>
</g>
<mask id="mask16_2_20591" style="mask-type:luminance" maskUnits="userSpaceOnUse" x="260" y="76" width="136" height="136">
<path d="M299.6 205.2C306.6 208.4 314.1 210.4 321.8 211.1L322.6 202.2C315.9 202 309.2 200.6 302.9 198L299.6 205.2ZM272.8 182.8C275 185.9 277.5 188.9 280.2 191.6C282.9 194.3 285.9 196.8 289 199L293.4 192.8C290.6 190.9 288 188.7 285.5 186.3C283 183.8 280.9 181.2 279 178.4L272.8 182.8ZM260.7 150C261.4 157.7 263.4 165.2 266.6 172.2L273.7 168.9C271.1 162.6 269.7 155.9 269.5 149.2L260.7 150ZM333.2 85.8996C329.7 85.5996 326.2 85.5996 322.6 85.8996L322.4 83.2996L321.8 76.5996C320.4 76.6996 318.9 76.8996 317.5 77.0996C315.1 77.4996 312.8 77.9996 310.5 78.5996C306.8 79.5996 303.1 80.8996 299.6 82.4996L303.5 90.9996C300.3 92.4996 297.3 94.1996 294.4 96.2996L291.4 92.0996L289 88.6996C287.5 89.7996 286 90.8996 284.6 92.0996C283.1 93.3996 281.6 94.6996 280.2 96.0996C277.5 98.7996 275 101.8 272.8 104.9L280.4 110.3C278.3 113.2 276.6 116.3 275.1 119.4L267.8 116L266.6 115.5C265.9 117.1 265.2 118.7 264.6 120.4C263.9 122.4 263.2 124.3 262.7 126.4C261.7 130.1 261 133.9 260.7 137.7L270 138.5C269.9 140 269.8 141.6 269.8 143.1C270.5 135.2 272.9 127.5 277 120.4C279.3 116.4 282.2 112.7 285.6 109.3C302.7 92.1996 328.3 88.8996 348.7 99.2996C348.7 99.2996 348.7 99.2996 348.8 99.2996C353.9 101.6 358.6 104.9 362.8 109.1C367 113.3 370.3 118.1 372.6 123.1C383 143.5 379.6 169.1 362.6 186.2C359.2 189.6 355.5 192.5 351.5 194.8C344.5 198.9 336.7 201.3 328.8 202C330.3 202 331.9 201.9 333.4 201.8L334.2 211.1C338 210.7 341.8 210.1 345.5 209.1C347.5 208.6 349.5 207.9 351.5 207.2C353.2 206.6 354.8 205.9 356.4 205.2L355.9 204L352.5 196.7C355.7 195.2 358.7 193.5 361.6 191.4L367 199C370.1 196.8 373.1 194.3 375.8 191.6C377.2 190.2 378.5 188.7 379.8 187.2C381 185.8 382.1 184.3 383.2 182.8L379.8 180.4L375.6 177.4C377.7 174.5 379.4 171.4 380.9 168.3L389.4 172.2C391 168.7 392.3 165.1 393.3 161.3C393.9 159 394.4 156.6 394.8 154.3C395 152.9 395.2 151.4 395.3 150L388.6 149.4L386 149.2C386.3 145.7 386.3 142.2 386 138.6L395.3 137.8C394.6 130.8 392.9 123.9 390.1 117.4C389.8 116.8 389.6 116.2 389.3 115.6L381.7 119.1L380.8 119.5C379.3 116.3 377.6 113.3 375.5 110.4L383.1 105C380.9 101.9 378.4 98.8996 375.7 96.1996C373 93.4996 370 90.9996 366.9 88.7996L361.5 96.3996C358.6 94.2996 355.5 92.5996 352.4 91.0996L352.8 90.1996L356.3 82.5996C355.7 82.2996 355.1 82.0996 354.5 81.7996C348 78.9996 341.1 77.2996 334.1 76.6996L333.2 85.8996Z" fill="white"/>
</mask>
<g mask="url(#mask16_2_20591)">
<path d="M462.4 143.899L327.9 278.399L193.5 143.899L327.9 9.39941L462.4 143.899Z" fill="url(#paint16_linear_2_20591)"/>
</g>
<mask id="mask17_2_20591" style="mask-type:luminance" maskUnits="userSpaceOnUse" x="269" y="93" width="110" height="110">
<path d="M285.5 109.4C282.1 112.8 279.2 116.5 276.9 120.5C272.8 127.5 270.4 135.3 269.7 143.2C269.5 145.2 269.5 147.2 269.5 149.2C269.7 155.9 271.1 162.6 273.7 168.9C275.1 172.2 276.8 175.4 278.9 178.4C280.8 181.2 283 183.8 285.4 186.3C287.9 188.8 290.5 190.9 293.3 192.8C296.3 194.9 299.5 196.6 302.8 198C309.1 200.6 315.8 202 322.5 202.2C324.5 202.2 326.5 202.2 328.5 202C336.4 201.3 344.1 198.9 351.2 194.8C355.2 192.5 358.9 189.6 362.3 186.2C379.4 169.1 382.7 143.5 372.3 123.1C380.7 141.2 377.4 163.5 362.5 178.4C343.3 197.6 312.3 197.6 293.1 178.4C273.9 159.2 273.9 128.2 293.1 109C308.1 93.9998 330.3 90.7998 348.5 99.1998C340.8 95.2998 332.3 93.2998 323.8 93.2998C310 93.4998 296.1 98.7998 285.5 109.4Z" fill="white"/>
</mask>
<g mask="url(#mask17_2_20591)">
<path d="M438.5 146.6L326.2 259L213.8 146.6L326.2 34.2998L438.5 146.6Z" fill="url(#paint17_linear_2_20591)"/>
</g>
</g>
<defs>
<linearGradient id="paint0_linear_2_20591" x1="2.09622" y1="130.079" x2="289.051" y2="130.079" gradientUnits="userSpaceOnUse">
<stop stop-color="#2BD3FF"/>
<stop offset="1" stop-color="#FF35C3"/>
</linearGradient>
<linearGradient id="paint1_linear_2_20591" x1="48.7333" y1="130.076" x2="80.4343" y2="130.076" gradientUnits="userSpaceOnUse">
<stop stop-color="#2BD3FF"/>
<stop offset="1" stop-color="#FF35C3"/>
</linearGradient>
<linearGradient id="paint2_linear_2_20591" x1="2.10318" y1="41.1053" x2="289.072" y2="41.1053" gradientUnits="userSpaceOnUse">
<stop stop-color="#2BD3FF"/>
<stop offset="1" stop-color="#FF35C3"/>
</linearGradient>
<linearGradient id="paint3_linear_2_20591" x1="95.1187" y1="41.0868" x2="123.463" y2="41.0868" gradientUnits="userSpaceOnUse">
<stop stop-color="#2BD3FF"/>
<stop offset="1" stop-color="#FF35C3"/>
</linearGradient>
<linearGradient id="paint4_linear_2_20591" x1="2.10539" y1="223.686" x2="289.042" y2="223.686" gradientUnits="userSpaceOnUse">
<stop stop-color="#2BD3FF"/>
<stop offset="1" stop-color="#FF35C3"/>
</linearGradient>
<linearGradient id="paint5_linear_2_20591" x1="92.6848" y1="223.691" x2="121.039" y2="223.691" gradientUnits="userSpaceOnUse">
<stop stop-color="#2BD3FF"/>
<stop offset="1" stop-color="#FF35C3"/>
</linearGradient>
<linearGradient id="paint6_linear_2_20591" x1="516.235" y1="64.6113" x2="229.298" y2="64.6113" gradientUnits="userSpaceOnUse">
<stop stop-color="#FFE15F"/>
<stop offset="0.0027933" stop-color="#FFE15F"/>
<stop offset="1" stop-color="#00B4CB"/>
</linearGradient>
<linearGradient id="paint7_linear_2_20591" x1="425.656" y1="64.6074" x2="397.301" y2="64.6074" gradientUnits="userSpaceOnUse">
<stop stop-color="#FFE15F"/>
<stop offset="0.0027933" stop-color="#FFE15F"/>
<stop offset="1" stop-color="#00B4CB"/>
</linearGradient>
<linearGradient id="paint8_linear_2_20591" x1="516.239" y1="247.191" x2="229.27" y2="247.191" gradientUnits="userSpaceOnUse">
<stop stop-color="#FFE15F"/>
<stop offset="0.0027933" stop-color="#FFE15F"/>
<stop offset="1" stop-color="#00B4CB"/>
</linearGradient>
<linearGradient id="paint9_linear_2_20591" x1="423.222" y1="247.213" x2="394.877" y2="247.213" gradientUnits="userSpaceOnUse">
<stop stop-color="#FFE15F"/>
<stop offset="0.0027933" stop-color="#FFE15F"/>
<stop offset="1" stop-color="#00B4CB"/>
</linearGradient>
<linearGradient id="paint10_linear_2_20591" x1="516.242" y1="158.217" x2="229.287" y2="158.217" gradientUnits="userSpaceOnUse">
<stop stop-color="#FFE15F"/>
<stop offset="0.0027933" stop-color="#FFE15F"/>
<stop offset="1" stop-color="#00B4CB"/>
</linearGradient>
<linearGradient id="paint11_linear_2_20591" x1="469.607" y1="158.223" x2="437.906" y2="158.223" gradientUnits="userSpaceOnUse">
<stop stop-color="#FFE15F"/>
<stop offset="0.0027933" stop-color="#FFE15F"/>
<stop offset="1" stop-color="#00B4CB"/>
</linearGradient>
<linearGradient id="paint12_linear_2_20591" x1="13.6288" y1="89.0294" x2="267.706" y2="89.0294" gradientUnits="userSpaceOnUse">
<stop stop-color="#2BD3FF"/>
<stop offset="1" stop-color="#FF35C3"/>
</linearGradient>
<linearGradient id="paint13_linear_2_20591" x1="15.4767" y1="144.424" x2="274.305" y2="144.424" gradientUnits="userSpaceOnUse">
<stop stop-color="#2BD3FF"/>
<stop offset="1" stop-color="#FF35C3"/>
</linearGradient>
<linearGradient id="paint14_linear_2_20591" x1="144.327" y1="144.414" x2="250.457" y2="144.414" gradientUnits="userSpaceOnUse">
<stop stop-color="#2BD3FF"/>
<stop offset="1" stop-color="#9F35C3"/>
</linearGradient>
<linearGradient id="paint15_linear_2_20591" x1="504.713" y1="199.267" x2="250.636" y2="199.267" gradientUnits="userSpaceOnUse">
<stop stop-color="#FFE15F"/>
<stop offset="0.0027933" stop-color="#FFE15F"/>
<stop offset="1" stop-color="#00B4CB"/>
</linearGradient>
<linearGradient id="paint16_linear_2_20591" x1="451.629" y1="20.1776" x2="268.61" y2="203.197" gradientUnits="userSpaceOnUse">
<stop stop-color="#FFE15F"/>
<stop offset="0.0027933" stop-color="#FFE15F"/>
<stop offset="1" stop-color="#00B4CB"/>
</linearGradient>
<linearGradient id="paint17_linear_2_20591" x1="361.006" y1="111.781" x2="285.961" y2="186.826" gradientUnits="userSpaceOnUse">
<stop stop-color="#00B4CB"/>
<stop offset="0.9972" stop-color="#FFE15F"/>
<stop offset="1" stop-color="#FFE15F"/>
</linearGradient>
<clipPath id="clip0_2_20591">
<rect width="518.3" height="288.3" fill="white"/>
</clipPath>
</defs>
</svg>
