<svg width="284" height="284" viewBox="0 0 284 284" fill="none" xmlns="http://www.w3.org/2000/svg">
<mask id="path-1-outside-1_2_20581" maskUnits="userSpaceOnUse" x="-21.9834" y="-21.6238" width="327.843" height="327.843" fill="black">
<rect fill="white" x="-21.9834" y="-21.6238" width="327.843" height="327.843"/>
<path fill-rule="evenodd" clip-rule="evenodd" d="M216.513 27.2291C201.146 17.2627 184.121 10.5868 165.937 7.38057C147.739 4.17172 129.472 4.62462 111.637 8.73661C94.3916 12.6944 78.2785 19.8729 63.7152 30.0573C49.164 40.259 36.9074 52.9452 27.29 67.797C17.3384 83.1669 10.6625 100.192 7.45628 118.376C4.25002 136.559 4.70033 154.841 8.79499 172.688C12.7527 189.933 19.9312 206.046 30.1157 220.61C40.3027 235.158 53.0036 247.417 67.8554 257.035C83.2252 266.986 100.251 273.662 118.434 276.869C136.618 280.075 154.9 279.624 172.746 275.53C189.992 271.572 206.119 264.396 220.668 254.209C235.219 244.007 247.476 231.321 257.093 216.469C267.045 201.1 273.718 184.089 276.927 165.891C280.133 147.707 279.683 129.425 275.573 111.576C271.616 94.3306 264.44 78.2028 254.253 63.6542C244.051 49.103 231.365 36.8464 216.513 27.2291ZM173.069 276.968C155.018 281.103 136.552 281.566 118.162 278.324C99.7726 275.081 82.5785 268.33 67.045 258.273C52.0441 248.554 39.1994 236.163 28.9033 221.459C18.6071 206.754 11.3567 190.446 7.3539 173.026C3.21936 154.975 2.75603 136.508 5.99864 118.119C9.24124 99.729 15.9951 82.5201 26.0515 66.9866C35.771 51.9858 48.1618 39.1411 62.8663 28.8449C77.5707 18.5487 93.8787 11.2983 111.299 7.29551C129.335 3.15838 147.802 2.69506 166.191 5.93766C184.581 9.18027 201.775 15.9315 217.323 25.9905C232.324 35.71 245.169 48.1008 255.465 62.8053C265.761 77.5097 273.012 93.8177 277.015 111.238C281.149 129.289 281.612 147.755 278.37 166.145C275.127 184.535 268.376 201.729 258.317 217.277C248.597 232.278 236.207 245.123 221.502 255.419C206.798 265.715 190.49 272.966 173.069 276.968ZM186.578 182.19L186.57 182.299C186.485 183.386 185.947 190.273 186.147 199.618C186.344 209.005 187.312 222.884 190.867 235.702C191.822 239.149 190.031 242.765 186.685 244.088C165.231 252.632 141.796 255.013 118.93 250.981C111.23 249.623 103.642 247.542 96.3821 244.804C94.604 244.126 93.2103 242.818 92.4376 241.088C91.6769 239.375 91.6359 237.454 92.3086 235.706C96.3231 225.422 102.736 206.787 100.685 197.499C100.643 197.309 100.521 197.136 100.358 197.031C100.194 196.926 99.9878 196.89 99.7956 196.947L78.3654 202.08C74.2239 202.837 70.0625 202.848 65.9841 202.128C63.643 201.716 61.5954 200.413 60.225 198.456C58.8546 196.499 58.3312 194.13 58.744 191.789L59.6734 186.517L60.4211 182.277C61.1818 177.963 58.7582 175.866 57.2252 175.003C56.0741 174.299 55.6175 172.929 56.1785 171.813C57.3915 169.325 59.1434 168.085 59.1607 168.073C59.3686 167.927 59.4863 167.69 59.469 167.444C59.4663 167.201 59.326 166.963 59.106 166.834C58.0476 166.207 56.8011 164.924 55.5078 163.132C54.8963 162.296 54.9065 161.205 55.5239 160.372C56.8332 158.63 58.6168 155.316 59.6501 149.456C59.7176 149.073 59.4655 148.695 59.0853 148.612C56.6472 148.061 50.0034 146.48 48.472 145.693C46.5787 144.722 45.3417 142.955 45.0937 140.832C44.8431 138.723 45.6491 136.649 47.2771 135.25C51.581 131.592 56.2182 126.99 61.464 121.174C66.7099 115.358 70.2035 108.202 71.569 100.457L71.7586 99.3822C77.9443 64.1288 106.733 38.0985 141.788 36.1121C155.112 35.3645 167.781 37.7349 179.454 43.1636C190.357 48.2286 200.063 55.9517 207.504 65.4922C214.946 75.0326 220.078 86.3064 222.352 98.1236C223.526 104.206 223.947 110.429 223.613 116.624C223.27 123.046 222.107 129.475 220.155 135.72C217.54 144.094 213.512 151.871 208.199 158.843C203.065 165.574 196.848 171.385 189.727 176.126C187.714 177.472 186.54 179.739 186.578 182.19ZM118.673 252.439C141.804 256.517 165.517 254.11 187.218 245.457C191.252 243.846 193.432 239.494 192.271 235.312C185.669 211.505 187.925 183.633 188.031 182.326L188.035 182.28C188.04 182.251 188.045 182.221 188.033 182.204C187.985 180.237 188.926 178.429 190.544 177.348C197.801 172.525 204.129 166.597 209.363 159.732C214.791 152.627 218.891 144.697 221.552 136.149C223.542 129.774 224.726 123.227 225.075 116.685C225.415 110.369 224.985 104.023 223.787 97.8151C221.489 85.7961 216.261 74.2928 208.683 64.5766C201.105 54.8603 191.214 46.983 180.101 41.8202C168.202 36.2911 155.298 33.8792 141.728 34.6441C105.997 36.6783 76.6503 63.2023 70.3451 99.133L70.1556 100.208C68.8367 107.687 65.4635 114.592 60.4064 120.198C55.2004 125.96 50.6152 130.526 46.3633 134.148C44.3759 135.862 43.3785 138.419 43.6786 141.022C43.9838 143.596 45.5482 145.831 47.8452 147.01C49.5428 147.886 55.971 149.399 58.1146 149.899C57.0657 155.331 55.34 158.23 54.3866 159.504C53.3908 160.846 53.3764 162.65 54.3518 164.006C55.4753 165.556 56.5407 166.746 57.5532 167.547C56.8267 168.223 55.7339 169.427 54.8793 171.174C53.9702 172.972 54.6599 175.174 56.4831 176.284L56.4979 176.287C57.9452 177.119 59.5494 178.784 58.9756 182.037L58.2279 186.278L57.2985 191.549C56.8156 194.287 57.424 197.036 59.0248 199.322C60.6135 201.591 63.0006 203.12 65.7392 203.603C69.9943 204.354 74.3549 204.333 78.6687 203.545C78.6834 203.548 78.7008 203.536 78.7008 203.536L99.387 198.575C100.072 202.871 99.596 212.974 90.9419 235.192C90.1133 237.307 90.1752 239.626 91.0969 241.716C92.0335 243.81 93.7269 245.399 95.8601 246.215C103.211 248.953 110.884 251.066 118.673 252.439ZM90.2632 107.913C91.4264 108.118 92.5348 107.342 92.7399 106.179C92.945 105.016 92.1689 103.907 91.0057 103.702C89.8425 103.497 88.7341 104.273 88.529 105.436C88.3092 106.597 89.1 107.708 90.2632 107.913ZM110.695 130.826C110.49 131.989 110.752 133.174 111.431 134.144L116.246 141.02C116.925 141.99 117.949 142.641 119.112 142.846L160.765 150.191C161.928 150.396 163.113 150.134 164.082 149.455L170.958 144.64C171.928 143.961 172.579 142.937 172.785 141.774L180.129 100.121C180.334 98.9582 180.072 97.7734 179.393 96.8035L174.579 89.9276C173.9 88.9577 172.876 88.3065 171.713 88.1014L130.06 80.7569C128.897 80.5518 127.712 80.8135 126.742 81.4927L119.866 86.3072C118.896 86.9864 118.245 88.0102 118.04 89.1733L110.695 130.826ZM100.406 115.136C99.2427 114.931 98.1343 115.707 97.9292 116.87C97.7241 118.034 98.5002 119.142 99.6634 119.347C100.827 119.552 101.935 118.776 102.14 117.613C102.345 116.45 101.569 115.341 100.406 115.136ZM90.8056 128.169C89.6424 127.964 88.534 128.74 88.3289 129.904C88.1238 131.067 88.8999 132.175 90.0631 132.38C91.2262 132.585 92.3347 131.809 92.5398 130.646C92.7449 129.483 91.9687 128.374 90.8056 128.169ZM113.323 158.54C112.16 158.335 111.052 159.111 110.847 160.274C110.641 161.438 111.418 162.546 112.581 162.751C113.744 162.956 114.852 162.18 115.058 161.017C115.263 159.854 114.486 158.745 113.323 158.54ZM125.749 159.274C125.544 160.437 126.32 161.545 127.483 161.75C128.646 161.956 129.755 161.179 129.96 160.016C130.165 158.853 129.389 157.745 128.226 157.539C127.062 157.334 125.954 158.111 125.749 159.274ZM133.652 169.898C133.447 171.061 134.223 172.169 135.387 172.374C136.55 172.579 137.658 171.803 137.863 170.64C138.068 169.477 137.292 168.368 136.129 168.163C134.966 167.958 133.858 168.734 133.652 169.898ZM145.075 160.48C144.869 161.643 145.646 162.752 146.809 162.957C147.972 163.162 149.08 162.386 149.286 161.223C149.491 160.059 148.714 158.951 147.551 158.746C146.388 158.541 145.28 159.317 145.075 160.48ZM159.857 172.56C161.02 172.765 162.128 171.989 162.333 170.825C162.538 169.662 161.762 168.554 160.599 168.349C159.436 168.144 158.328 168.92 158.122 170.083C157.917 171.246 158.693 172.355 159.857 172.56ZM190.213 150.039C191.376 150.244 192.484 149.468 192.689 148.305C192.895 147.142 192.118 146.034 190.955 145.828C189.792 145.623 188.684 146.399 188.479 147.563C188.273 148.726 189.05 149.834 190.213 150.039ZM189.227 135.14C190.39 135.345 191.498 134.569 191.704 133.405C191.909 132.242 191.132 131.134 189.969 130.929C188.806 130.724 187.698 131.5 187.493 132.663C187.287 133.826 188.064 134.935 189.227 135.14ZM199.836 127.234C200.999 127.439 202.108 126.662 202.313 125.499C202.518 124.336 201.742 123.228 200.578 123.023C199.415 122.817 198.307 123.594 198.102 124.757C197.897 125.92 198.673 127.028 199.836 127.234ZM190.433 115.814C191.596 116.019 192.705 115.243 192.91 114.08C193.115 112.917 192.339 111.808 191.176 111.603C190.012 111.398 188.904 112.174 188.699 113.337C188.494 114.5 189.27 115.609 190.433 115.814ZM200.033 102.781C201.197 102.986 202.305 102.21 202.51 101.047C202.715 99.8835 201.939 98.775 200.776 98.5699C199.613 98.3648 198.504 99.141 198.299 100.304C198.094 101.467 198.87 102.576 200.033 102.781ZM177.516 72.41C178.679 72.6151 179.787 71.839 179.992 70.6758C180.198 69.5127 179.421 68.4042 178.258 68.1991C177.095 67.994 175.987 68.7702 175.782 69.9333C175.576 71.0965 176.353 72.205 177.516 72.41ZM165.09 71.6765C165.295 70.5133 164.519 69.4049 163.356 69.1998C162.193 68.9947 161.084 69.7708 160.879 70.934C160.674 72.0971 161.45 73.2056 162.613 73.4107C163.777 73.6158 164.885 72.8396 165.09 71.6765ZM157.187 61.0526C157.392 59.8895 156.616 58.781 155.452 58.5759C154.289 58.3708 153.181 59.147 152.976 60.3101C152.771 61.4733 153.547 62.5817 154.71 62.7868C155.873 62.9919 156.982 62.2158 157.187 61.0526ZM145.75 70.4675C145.955 69.3044 145.179 68.1959 144.015 67.9908C142.852 67.7857 141.744 68.5619 141.539 69.725C141.334 70.8882 142.11 71.9967 143.273 72.2018C144.436 72.4069 145.545 71.6307 145.75 70.4675ZM130.985 58.3758C129.822 58.1707 128.713 58.9468 128.508 60.11C128.303 61.2732 129.079 62.3816 130.242 62.5867C131.406 62.7918 132.514 62.0157 132.719 60.8525C132.922 59.7041 132.148 58.5809 130.985 58.3758ZM100.626 80.9108C99.4631 80.7057 98.3547 81.4819 98.1496 82.6451C97.9445 83.8082 98.7206 84.9167 99.8838 85.1218C101.047 85.3269 102.155 84.5507 102.361 83.3876C102.566 82.2244 101.789 81.1159 100.626 80.9108ZM101.612 95.8106C100.449 95.6055 99.3406 96.3816 99.1355 97.5448C98.9304 98.708 99.7066 99.8164 100.87 100.022C102.033 100.227 103.141 99.4505 103.346 98.2873C103.552 97.1241 102.775 96.0157 101.612 95.8106ZM91.2212 102.48C92.8408 102.765 93.9876 104.182 94.0121 105.765L113.256 109.159L114.712 100.899L104.406 99.0813C103.853 100.578 102.276 101.514 100.657 101.229C98.8164 100.904 97.5915 99.155 97.9161 97.3146C98.2406 95.4742 99.9899 94.2493 101.83 94.5738C103.45 94.8594 104.611 96.2787 104.621 97.8593L114.928 99.6766L116.182 92.5651L104.786 90.5557L101.645 86.0699C101.05 86.3445 100.363 86.4511 99.6562 86.3265C97.8157 86.002 96.5909 84.2527 96.9154 82.4123C97.2399 80.5718 98.9892 79.3469 100.83 79.6715C102.67 79.996 103.895 81.7453 103.57 83.5857C103.448 84.2777 103.113 84.8866 102.649 85.3665L105.499 89.4366L116.38 91.3552L116.803 88.9553C117.068 87.4534 117.903 86.1586 119.136 85.2828L126.012 80.4682C127.259 79.595 128.759 79.2675 130.26 79.5323L132.66 79.9554L134.833 67.6318L131.983 63.5617C131.388 63.8363 130.702 63.9429 129.995 63.8183C128.155 63.4938 126.93 61.7445 127.254 59.9041C127.579 58.0636 129.375 56.8318 131.2 57.1537C133.041 57.4783 134.266 59.2275 133.941 61.068C133.819 61.76 133.484 62.3689 133.02 62.8488L136.161 67.3346L133.9 80.1588L141.011 81.4127L142.45 73.2559C140.955 72.6888 140.031 71.1292 140.317 69.5096C140.641 67.6691 142.391 66.4442 144.231 66.7688C146.071 67.0933 147.296 68.8426 146.972 70.683C146.686 72.3026 145.267 73.4642 143.686 73.474L142.245 81.6455L150.505 83.102L153.901 63.8436C152.407 63.2765 151.483 61.7168 151.768 60.0972C152.093 58.2568 153.842 57.0319 155.683 57.3565C157.523 57.681 158.733 59.4277 158.409 61.2681C158.123 62.8877 156.704 64.0493 155.123 64.0591L151.73 83.3027L159.99 84.7592L161.807 74.4527C160.313 73.8856 159.389 72.326 159.674 70.7064C159.999 68.8659 161.748 67.6411 163.589 67.9656C165.429 68.2901 166.654 70.0394 166.329 71.8798C166.044 73.4994 164.625 74.661 163.044 74.6708L161.227 84.9773L168.338 86.2312L170.348 74.8352L174.833 71.6942C174.559 71.0992 174.452 70.4124 174.577 69.7057C174.901 67.8653 176.651 66.6404 178.491 66.9649C180.331 67.2894 181.556 69.0387 181.232 70.8792C180.907 72.7196 179.158 73.9445 177.318 73.62C176.626 73.498 176.017 73.1629 175.537 72.6987L171.467 75.5487L169.548 86.4294L171.948 86.8525C173.45 87.1173 174.745 87.9529 175.62 89.1852L180.435 96.0612C181.308 97.3082 181.636 98.8082 181.371 100.31L180.948 102.71L193.271 104.883L197.336 102.062C197.062 101.467 196.955 100.781 197.08 100.074C197.404 98.2335 199.154 97.0086 200.994 97.3331C202.834 97.6577 204.059 99.407 203.735 101.247C203.41 103.088 201.661 104.313 199.821 103.988C199.129 103.866 198.52 103.531 198.04 103.067L193.554 106.208L180.73 103.947L179.476 111.058L187.647 112.499C188.214 111.005 189.774 110.081 191.394 110.366C193.234 110.691 194.459 112.44 194.135 114.281C193.81 116.121 192.061 117.346 190.22 117.021C188.601 116.736 187.439 115.316 187.432 113.721L179.26 112.28L177.804 120.54L197.048 123.933C197.615 122.439 199.174 121.515 200.794 121.801C202.634 122.125 203.859 123.874 203.535 125.715C203.21 127.555 201.461 128.78 199.62 128.456C198.001 128.17 196.839 126.751 196.832 125.155L177.588 121.762L176.132 130.022L186.438 131.839C187.006 130.345 188.568 129.406 190.187 129.692C192.028 130.016 193.253 131.766 192.928 133.606C192.604 135.447 190.854 136.671 189.014 136.347C187.394 136.061 186.233 134.642 186.223 133.061L175.916 131.244L174.663 138.356L186.059 140.365L189.2 144.851C189.795 144.576 190.481 144.47 191.188 144.594C193.028 144.919 194.253 146.668 193.929 148.509C193.604 150.349 191.855 151.574 190.015 151.249C188.174 150.925 186.949 149.175 187.274 147.335C187.396 146.643 187.731 146.034 188.195 145.554L185.345 141.484L174.464 139.566L174.041 141.966C173.776 143.467 172.941 144.762 171.709 145.638L164.833 150.453C163.586 151.326 162.086 151.653 160.584 151.388L158.184 150.965L156.011 163.289L158.826 167.383C159.421 167.109 160.108 167.002 160.815 167.127C162.655 167.451 163.88 169.201 163.555 171.041C163.231 172.881 161.482 174.106 159.641 173.782C157.801 173.457 156.576 171.708 156.9 169.867C157.022 169.175 157.357 168.567 157.822 168.087L154.681 163.601L156.942 150.777L149.83 149.523L148.39 157.694C149.884 158.261 150.808 159.821 150.522 161.441C150.198 163.281 148.449 164.506 146.608 164.181C144.768 163.857 143.543 162.108 143.867 160.267C144.153 158.648 145.57 157.501 147.153 157.476L148.594 149.305L140.334 147.848L136.941 167.092C138.435 167.659 139.359 169.219 139.073 170.838C138.749 172.679 136.999 173.904 135.159 173.579C133.319 173.255 132.094 171.505 132.418 169.665C132.706 168.03 134.123 166.884 135.704 166.874L139.097 147.63L130.837 146.174L129.02 156.48C130.514 157.047 131.438 158.607 131.152 160.227C130.828 162.067 129.079 163.292 127.238 162.967C125.398 162.643 124.173 160.893 124.497 159.053C124.783 157.433 126.2 156.287 127.783 156.262L129.6 145.956L122.489 144.702L120.479 156.098L115.994 159.239C116.268 159.834 116.375 160.52 116.25 161.227C115.928 163.053 114.176 164.292 112.336 163.968C110.495 163.643 109.271 161.894 109.595 160.054C109.92 158.213 111.669 156.988 113.509 157.313C114.201 157.435 114.81 157.77 115.29 158.234L119.36 155.384L121.279 144.504L118.879 144.08C117.392 143.818 116.082 142.98 115.206 141.748L110.392 134.872C109.519 133.625 109.191 132.125 109.456 130.623L109.879 128.223L97.5554 126.05L93.4853 128.9C93.7599 129.495 93.8666 130.182 93.7419 130.888C93.4174 132.729 91.6681 133.954 89.8277 133.629C88.002 133.307 86.7624 131.555 87.0869 129.715C87.4114 127.874 89.1607 126.65 91.0012 126.974C91.6932 127.096 92.302 127.431 92.7819 127.895L97.2677 124.754L110.092 127.016L111.346 119.904L103.174 118.463C102.622 119.96 101.048 120.882 99.428 120.596C97.5875 120.272 96.3627 118.522 96.6872 116.682C97.0117 114.841 98.761 113.617 100.601 113.941C102.221 114.227 103.383 115.646 103.39 117.241L111.561 118.682L113.018 110.422L93.7741 107.029C93.2218 108.526 91.6448 109.462 90.0252 109.177C88.1847 108.852 86.9599 107.103 87.2844 105.262C87.6089 103.422 89.3807 102.155 91.2212 102.48ZM128.771 123.022C128.685 123.508 128.796 123.998 129.072 124.411L131.425 127.771C131.704 128.169 132.127 128.441 132.627 128.53L152.975 132.118C153.461 132.203 153.951 132.092 154.364 131.816L157.724 129.463C158.123 129.184 158.397 128.747 158.483 128.261L162.068 107.928C162.154 107.442 162.043 106.952 161.767 106.539L159.414 103.179C159.135 102.78 158.698 102.506 158.212 102.42L137.864 98.8322C137.378 98.7465 136.888 98.8574 136.475 99.1338L133.115 101.486C132.716 101.765 132.442 102.203 132.356 102.689L128.771 123.022ZM135.774 98.1145C136.449 97.6415 137.272 97.4526 138.082 97.5954L158.43 101.183C159.24 101.326 159.948 101.785 160.421 102.46L162.774 105.821C163.247 106.496 163.436 107.319 163.293 108.129L159.705 128.476C159.562 129.286 159.103 129.995 158.428 130.468L155.068 132.82C154.392 133.293 153.57 133.482 152.76 133.34L132.412 129.752C131.602 129.609 130.894 129.15 130.421 128.474L128.068 125.114C127.595 124.439 127.406 123.616 127.549 122.806L131.134 102.473C131.277 101.663 131.736 100.955 132.411 100.482L135.774 98.1145ZM114.465 132.007C114.355 131.851 114.313 131.661 114.347 131.47L114.376 131.475L121.721 89.8222C121.754 89.6308 121.859 89.4671 122.015 89.358L128.891 84.5434C129.047 84.4343 129.237 84.3918 129.428 84.4255L171.081 91.7701C171.272 91.8038 171.436 91.9086 171.545 92.0645L176.36 98.9404C176.469 99.0963 176.511 99.2859 176.478 99.4774L169.133 141.13C169.099 141.322 168.995 141.485 168.839 141.595L161.948 146.407C161.792 146.516 161.602 146.558 161.411 146.524L119.743 139.177C119.552 139.144 119.388 139.039 119.279 138.883L114.465 132.007ZM129.634 83.1714C129.119 83.0806 128.596 83.201 128.163 83.5042L121.285 88.3335C120.867 88.6393 120.575 89.0888 120.484 89.6042L113.142 131.242C113.051 131.758 113.157 132.277 113.46 132.71L118.275 139.586C118.58 140.005 119.03 140.296 119.545 140.387L161.198 147.732C161.714 147.823 162.233 147.717 162.666 147.414L169.542 142.599C169.975 142.296 170.267 141.846 170.358 141.331L177.702 99.6781C177.793 99.1628 177.673 98.6406 177.369 98.2076L172.555 91.3316C172.252 90.8986 171.802 90.6068 171.287 90.516L129.634 83.1714ZM149.904 117.595L149.201 112.112L149.142 112.101L146.621 117.016L149.904 117.595ZM151.198 109.913L153.393 123.463L150.596 122.969L150.184 119.709L145.664 118.912L144.162 121.835L141.349 121.339L148.047 109.358L151.198 109.913ZM140.039 121.107L142.29 108.342L139.61 107.869L137.359 120.634L140.039 121.107Z"/>
</mask>
<path d="M216.513 27.2291L214.882 29.7472L214.881 29.7461L216.513 27.2291ZM111.637 8.73661L112.311 11.6599L112.308 11.6606L111.637 8.73661ZM63.7152 30.0573L61.993 27.6008L61.9959 27.5988L63.7152 30.0573ZM27.29 67.797L24.7718 66.1666L24.7719 66.1664L27.29 67.797ZM8.79499 172.688L5.87101 173.359L5.87098 173.359L8.79499 172.688ZM30.1157 220.61L27.6582 222.33L27.6572 222.329L30.1157 220.61ZM67.8554 257.035L66.2249 259.553L66.2248 259.553L67.8554 257.035ZM172.746 275.53L173.417 278.454L173.417 278.454L172.746 275.53ZM220.668 254.209L222.39 256.666L222.389 256.667L220.668 254.209ZM257.093 216.469L259.611 218.1L259.611 218.1L257.093 216.469ZM275.573 111.576L272.65 112.249L272.649 112.247L275.573 111.576ZM254.253 63.6542L256.709 61.932L256.71 61.9335L254.253 63.6542ZM173.069 276.968L173.741 279.892L173.739 279.893L173.069 276.968ZM67.045 258.273L65.4146 260.792L65.4136 260.791L67.045 258.273ZM28.9033 221.459L31.3607 219.738L28.9033 221.459ZM7.3539 173.026L4.4301 173.697L4.42962 173.695L7.3539 173.026ZM26.0515 66.9866L23.5331 65.3562L23.5338 65.3553L26.0515 66.9866ZM62.8663 28.8449L64.587 31.3024L62.8663 28.8449ZM111.299 7.29551L110.627 4.3717L110.628 4.37145L111.299 7.29551ZM217.323 25.9905L218.953 23.4716L218.955 23.4728L217.323 25.9905ZM255.465 62.8053L253.008 64.526L255.465 62.8053ZM277.015 111.238L279.938 110.566L279.939 110.568L277.015 111.238ZM258.317 217.277L260.836 218.907L260.835 218.909L258.317 217.277ZM221.502 255.419L219.781 252.961L219.781 252.961L221.502 255.419ZM186.57 182.299L189.561 182.531L189.561 182.533L186.57 182.299ZM186.578 182.19L189.578 182.143L189.58 182.283L189.569 182.422L186.578 182.19ZM186.147 199.618L189.146 199.554L189.146 199.555L186.147 199.618ZM190.867 235.702L193.757 234.9L193.758 234.9L190.867 235.702ZM186.685 244.088L185.576 241.301L185.582 241.299L186.685 244.088ZM96.3821 244.804L95.3237 247.611L95.3134 247.607L96.3821 244.804ZM92.4376 241.088L89.6983 242.311L89.6957 242.305L92.4376 241.088ZM92.3086 235.706L89.5086 234.629L89.5113 234.622L89.514 234.615L92.3086 235.706ZM100.685 197.499L103.613 196.843L103.615 196.852L100.685 197.499ZM99.7956 196.947L100.651 199.823L100.573 199.846L100.494 199.865L99.7956 196.947ZM78.3654 202.08L79.0642 204.997L78.9851 205.016L78.9052 205.031L78.3654 202.08ZM60.225 198.456L62.6825 196.735L62.6825 196.735L60.225 198.456ZM57.2252 175.003L55.7543 177.618L55.7067 177.591L55.66 177.563L57.2252 175.003ZM56.1785 171.813L58.8752 173.128L58.867 173.144L58.8586 173.161L56.1785 171.813ZM59.469 167.444L56.4764 167.655L56.4701 167.566L56.4691 167.476L59.469 167.444ZM59.106 166.834L57.5808 169.417L57.5772 169.415L59.106 166.834ZM55.5078 163.132L57.9297 161.362L57.935 161.369L57.9403 161.377L55.5078 163.132ZM55.5239 160.372L53.1144 158.585L53.1198 158.578L53.1254 158.57L55.5239 160.372ZM59.0853 148.612L58.4511 151.544L58.4373 151.542L58.4236 151.538L59.0853 148.612ZM48.472 145.693L49.8416 143.024L49.8422 143.025L48.472 145.693ZM45.0937 140.832L48.0727 140.478L48.0734 140.484L45.0937 140.832ZM47.2771 135.25L45.3227 132.975L45.3283 132.97L45.334 132.965L47.2771 135.25ZM71.7586 99.3822L74.7134 99.9007L74.713 99.9032L71.7586 99.3822ZM141.788 36.1121L141.618 33.1169L141.62 33.1168L141.788 36.1121ZM179.454 43.1636L178.19 45.8843L178.189 45.8838L179.454 43.1636ZM207.504 65.4922L209.87 63.647L209.87 63.647L207.504 65.4922ZM222.352 98.1236L219.406 98.6924L219.406 98.6904L222.352 98.1236ZM223.613 116.624L220.618 116.464L220.618 116.463L223.613 116.624ZM220.155 135.72L217.292 134.826L217.292 134.825L220.155 135.72ZM208.199 158.843L210.585 160.661L210.584 160.663L208.199 158.843ZM189.727 176.126L188.061 173.632L188.065 173.629L189.727 176.126ZM187.218 245.457L188.331 248.243L188.329 248.244L187.218 245.457ZM192.271 235.312L189.38 236.114L189.38 236.113L192.271 235.312ZM188.031 182.326L191.022 182.564L191.021 182.568L188.031 182.326ZM188.035 182.28L185.044 182.042L185.056 181.9L185.08 181.759L188.035 182.28ZM188.033 182.204L185.576 183.925L185.056 183.183L185.034 182.277L188.033 182.204ZM190.544 177.348L188.877 174.854L188.883 174.85L190.544 177.348ZM209.363 159.732L206.977 157.913L206.979 157.91L209.363 159.732ZM221.552 136.149L218.688 135.257L218.689 135.255L221.552 136.149ZM225.075 116.685L222.08 116.525L222.08 116.524L225.075 116.685ZM223.787 97.8151L220.842 98.3835L220.841 98.3786L223.787 97.8151ZM208.683 64.5766L211.049 62.7316L208.683 64.5766ZM180.101 41.8202L178.837 44.5409L178.837 44.5408L180.101 41.8202ZM141.728 34.6441L141.558 31.6489L141.559 31.6488L141.728 34.6441ZM70.3451 99.133L73.2999 99.6515L73.2995 99.6539L70.3451 99.133ZM60.4064 120.198L62.634 122.208L62.6324 122.209L60.4064 120.198ZM46.3633 134.148L44.4038 131.876L44.4107 131.87L44.4177 131.864L46.3633 134.148ZM43.6786 141.022L40.6994 141.376L40.6983 141.366L43.6786 141.022ZM47.8452 147.01L49.2154 144.341L49.2212 144.344L47.8452 147.01ZM58.1146 149.899L58.7953 146.977L61.6077 147.632L61.0602 150.467L58.1146 149.899ZM54.3866 159.504L51.9771 157.717L51.9846 157.706L54.3866 159.504ZM54.3518 164.006L51.9231 165.768L51.9163 165.758L54.3518 164.006ZM57.5532 167.547L59.4145 165.194L62.1545 167.361L59.5976 169.742L57.5532 167.547ZM54.8793 171.174L57.5741 172.492L57.5655 172.51L57.5566 172.528L54.8793 171.174ZM56.4831 176.284L55.9622 179.239L55.4052 179.141L54.9221 178.846L56.4831 176.284ZM56.4979 176.287L57.0188 173.333L57.537 173.424L57.9931 173.686L56.4979 176.287ZM59.0248 199.322L56.5673 201.043L56.5673 201.043L59.0248 199.322ZM78.6687 203.545L78.1297 200.594L78.6594 200.497L79.1897 200.591L78.6687 203.545ZM78.7008 203.536L76.9775 201.08L77.4454 200.752L78.0012 200.618L78.7008 203.536ZM99.387 198.575L98.6875 195.658L101.839 194.902L102.35 198.103L99.387 198.575ZM90.9419 235.192L93.7373 236.28L93.7354 236.285L90.9419 235.192ZM91.0969 241.716L88.3585 242.942L88.3552 242.934L88.3519 242.927L91.0969 241.716ZM95.8601 246.215L94.8128 249.026L94.8003 249.022L94.7878 249.017L95.8601 246.215ZM88.529 105.436L91.4834 105.957L91.4801 105.976L91.4766 105.994L88.529 105.436ZM111.431 134.144L113.888 132.423L111.431 134.144ZM116.246 141.02L113.788 142.741L116.246 141.02ZM119.112 142.846L118.591 145.801L119.112 142.846ZM160.765 150.191L161.286 147.236L160.765 150.191ZM164.082 149.455L165.803 151.912L165.803 151.912L164.082 149.455ZM170.958 144.64L169.238 142.183L169.238 142.183L170.958 144.64ZM171.713 88.1014L171.192 91.0559L171.713 88.1014ZM130.06 80.7569L130.581 77.8025L130.06 80.7569ZM126.742 81.4927L128.463 83.9501L128.463 83.9501L126.742 81.4927ZM119.866 86.3072L118.145 83.8498L118.145 83.8498L119.866 86.3072ZM94.0121 105.765L93.4912 108.72L91.0508 108.29L91.0125 105.812L94.0121 105.765ZM113.256 109.159L116.21 109.68L115.689 112.634L112.735 112.113L113.256 109.159ZM114.712 100.899L115.233 97.9442L118.188 98.4652L117.667 101.42L114.712 100.899ZM104.406 99.0813L101.591 98.0426L102.459 95.6918L104.927 96.1269L104.406 99.0813ZM104.621 97.8593L104.1 100.814L101.637 100.379L101.621 97.8778L104.621 97.8593ZM114.928 99.6766L117.882 100.198L117.361 103.152L114.407 102.631L114.928 99.6766ZM116.182 92.5651L116.703 89.6107L119.657 90.1316L119.136 93.0861L116.182 92.5651ZM104.786 90.5557L104.265 93.5101L103.041 93.2943L102.328 92.2764L104.786 90.5557ZM101.645 86.0699L100.387 83.3461L102.664 82.2952L104.102 84.3492L101.645 86.0699ZM102.649 85.3665L100.192 87.0872L98.7721 85.0598L100.493 83.2808L102.649 85.3665ZM105.499 89.4366L104.978 92.391L103.754 92.1753L103.042 91.1574L105.499 89.4366ZM116.38 91.3552L119.334 91.8761L118.813 94.8306L115.859 94.3096L116.38 91.3552ZM116.803 88.9553L113.849 88.4343L116.803 88.9553ZM119.136 85.2828L117.398 82.8374L117.406 82.8313L117.415 82.8253L119.136 85.2828ZM126.012 80.4682L124.291 78.0107L124.291 78.0107L126.012 80.4682ZM132.66 79.9554L135.615 80.4764L135.094 83.4308L132.139 82.9099L132.66 79.9554ZM134.833 67.6318L137.291 65.9111L138.004 66.929L137.788 68.1528L134.833 67.6318ZM131.983 63.5617L130.726 60.8379L133.003 59.787L134.441 61.841L131.983 63.5617ZM133.02 62.8488L130.563 64.5695L129.143 62.5421L130.864 60.7631L133.02 62.8488ZM136.161 67.3346L138.618 65.6138L139.331 66.6317L139.115 67.8555L136.161 67.3346ZM133.9 80.1588L133.379 83.1132L130.424 82.5923L130.945 79.6378L133.9 80.1588ZM141.011 81.4127L143.966 81.9337L143.445 84.8881L140.49 84.3672L141.011 81.4127ZM142.45 73.2559L143.514 70.4511L145.835 71.332L145.404 73.7768L142.45 73.2559ZM143.686 73.474L140.732 72.953L141.166 70.4894L143.668 70.474L143.686 73.474ZM142.245 81.6455L141.724 84.6L138.77 84.079L139.291 81.1246L142.245 81.6455ZM150.505 83.102L153.46 83.6229L152.939 86.5774L149.984 86.0564L150.505 83.102ZM153.901 63.8436L154.966 61.0388L157.287 61.9197L156.856 64.3645L153.901 63.8436ZM155.123 64.0591L152.169 63.5381L152.603 61.0745L155.105 61.0591L155.123 64.0591ZM151.73 83.3027L151.209 86.2572L148.255 85.7362L148.776 82.7818L151.73 83.3027ZM159.99 84.7592L162.944 85.2801L162.423 88.2346L159.469 87.7136L159.99 84.7592ZM161.807 74.4527L162.872 71.6479L165.193 72.5288L164.762 74.9736L161.807 74.4527ZM163.044 74.6708L160.09 74.1498L160.524 71.6863L163.025 71.6708L163.044 74.6708ZM161.227 84.9773L160.706 87.9317L157.751 87.4107L158.272 84.4563L161.227 84.9773ZM168.338 86.2312L171.293 86.7522L170.772 89.7066L167.817 89.1856L168.338 86.2312ZM170.348 74.8352L167.393 74.3142L167.609 73.0905L168.627 72.3777L170.348 74.8352ZM174.833 71.6942L177.557 70.4369L178.608 72.7134L176.554 74.1516L174.833 71.6942ZM175.537 72.6987L173.816 70.2413L175.843 68.8216L177.622 70.5424L175.537 72.6987ZM171.467 75.5487L168.512 75.0277L168.728 73.804L169.746 73.0912L171.467 75.5487ZM169.548 86.4294L169.027 89.3838L166.073 88.8628L166.594 85.9084L169.548 86.4294ZM175.62 89.1852L178.066 87.4474L178.072 87.4559L178.078 87.4645L175.62 89.1852ZM180.435 96.0612L177.978 97.7819L177.978 97.7819L180.435 96.0612ZM180.948 102.71L180.427 105.664L177.472 105.143L177.993 102.189L180.948 102.71ZM193.271 104.883L194.982 107.348L193.967 108.052L192.751 107.837L193.271 104.883ZM197.336 102.062L200.06 100.805L201.116 103.092L199.047 104.527L197.336 102.062ZM198.04 103.067L196.319 100.609L198.346 99.1899L200.125 100.911L198.04 103.067ZM193.554 106.208L195.275 108.665L194.257 109.378L193.033 109.162L193.554 106.208ZM180.73 103.947L177.775 103.426L178.296 100.471L181.251 100.992L180.73 103.947ZM179.476 111.058L178.955 114.013L176 113.492L176.521 110.537L179.476 111.058ZM187.647 112.499L190.452 113.564L189.571 115.885L187.126 115.453L187.647 112.499ZM187.432 113.721L187.953 110.767L190.421 111.202L190.432 113.708L187.432 113.721ZM179.26 112.28L176.306 111.759L176.827 108.805L179.781 109.326L179.26 112.28ZM177.804 120.54L177.283 123.495L174.329 122.974L174.849 120.019L177.804 120.54ZM197.048 123.933L199.852 124.998L198.971 127.319L196.527 126.888L197.048 123.933ZM196.832 125.155L197.353 122.201L199.821 122.636L199.832 125.142L196.832 125.155ZM177.588 121.762L174.634 121.241L175.155 118.287L178.109 118.808L177.588 121.762ZM176.132 130.022L175.611 132.977L172.657 132.456L173.178 129.501L176.132 130.022ZM186.438 131.839L189.243 132.904L188.362 135.225L185.918 134.794L186.438 131.839ZM186.223 133.061L186.744 130.107L189.208 130.541L189.223 133.043L186.223 133.061ZM175.916 131.244L172.962 130.723L173.483 127.769L176.437 128.29L175.916 131.244ZM174.663 138.356L174.142 141.31L171.187 140.789L171.708 137.835L174.663 138.356ZM186.059 140.365L186.58 137.411L187.803 137.626L188.516 138.644L186.059 140.365ZM189.2 144.851L190.457 147.575L188.18 148.626L186.742 146.572L189.2 144.851ZM188.195 145.554L190.652 143.834L192.072 145.861L190.351 147.64L188.195 145.554ZM185.345 141.484L185.866 138.53L187.09 138.745L187.803 139.763L185.345 141.484ZM174.464 139.566L171.51 139.045L172.031 136.09L174.985 136.611L174.464 139.566ZM174.041 141.966L171.087 141.445L174.041 141.966ZM171.709 145.638L173.446 148.083L173.438 148.089L173.429 148.095L171.709 145.638ZM164.833 150.453L163.112 147.995L163.112 147.995L164.833 150.453ZM158.184 150.965L155.229 150.444L155.75 147.49L158.705 148.011L158.184 150.965ZM156.011 163.289L153.539 164.989L152.843 163.977L153.056 162.768L156.011 163.289ZM158.826 167.383L160.084 170.107L157.787 171.167L156.354 169.083L158.826 167.383ZM157.822 168.087L160.279 166.366L161.699 168.393L159.978 170.172L157.822 168.087ZM154.681 163.601L152.223 165.322L151.51 164.304L151.726 163.08L154.681 163.601ZM156.942 150.777L157.463 147.822L160.417 148.343L159.896 151.298L156.942 150.777ZM149.83 149.523L146.876 149.002L147.397 146.047L150.351 146.568L149.83 149.523ZM148.39 157.694L147.325 160.499L145.004 159.618L145.435 157.173L148.39 157.694ZM147.153 157.476L150.107 157.997L149.677 160.438L147.199 160.476L147.153 157.476ZM148.594 149.305L149.115 146.35L152.069 146.871L151.548 149.826L148.594 149.305ZM140.334 147.848L137.379 147.327L137.9 144.373L140.855 144.894L140.334 147.848ZM136.941 167.092L135.876 169.897L133.555 169.016L133.986 166.571L136.941 167.092ZM135.704 166.874L138.658 167.395L138.224 169.858L135.722 169.874L135.704 166.874ZM139.097 147.63L139.618 144.676L142.572 145.197L142.051 148.151L139.097 147.63ZM130.837 146.174L127.883 145.653L128.404 142.698L131.358 143.219L130.837 146.174ZM129.02 156.48L127.955 159.285L125.634 158.404L126.065 155.959L129.02 156.48ZM127.783 156.262L130.737 156.783L130.307 159.223L127.829 159.262L127.783 156.262ZM129.6 145.956L130.121 143.001L133.076 143.522L132.555 146.477L129.6 145.956ZM122.489 144.702L119.534 144.181L120.055 141.226L123.01 141.747L122.489 144.702ZM120.479 156.098L123.434 156.619L123.218 157.842L122.2 158.555L120.479 156.098ZM115.994 159.239L113.27 160.496L112.219 158.219L114.273 156.781L115.994 159.239ZM115.29 158.234L117.011 160.692L114.983 162.111L113.204 160.39L115.29 158.234ZM119.36 155.384L122.315 155.905L122.099 157.129L121.081 157.842L119.36 155.384ZM121.279 144.504L121.8 141.549L124.754 142.07L124.233 145.024L121.279 144.504ZM118.879 144.08L119.4 141.126L118.879 144.08ZM115.206 141.748L112.761 143.486L112.755 143.477L112.749 143.468L115.206 141.748ZM109.879 128.223L110.4 125.269L113.354 125.79L112.833 128.744L109.879 128.223ZM97.5554 126.05L95.8347 123.593L96.8526 122.88L98.0764 123.096L97.5554 126.05ZM93.4853 128.9L90.7615 130.157L89.7106 127.881L91.7646 126.442L93.4853 128.9ZM92.7819 127.895L94.5026 130.353L92.4752 131.772L90.6962 130.052L92.7819 127.895ZM97.2677 124.754L95.547 122.297L96.5649 121.584L97.7887 121.8L97.2677 124.754ZM110.092 127.016L113.046 127.537L112.525 130.491L109.571 129.97L110.092 127.016ZM111.346 119.904L111.867 116.95L114.821 117.471L114.3 120.425L111.346 119.904ZM103.174 118.463L100.36 117.425L101.227 115.074L103.695 115.509L103.174 118.463ZM103.39 117.241L102.869 120.196L100.401 119.761L100.39 117.255L103.39 117.241ZM111.561 118.682L114.516 119.203L113.995 122.157L111.04 121.637L111.561 118.682ZM113.018 110.422L113.539 107.468L116.493 107.989L115.972 110.943L113.018 110.422ZM93.7741 107.029L90.9597 105.99L91.8273 103.639L94.2951 104.075L93.7741 107.029ZM129.072 124.411L126.615 126.132L126.597 126.106L126.579 126.079L129.072 124.411ZM128.771 123.022L125.816 122.501L128.771 123.022ZM131.425 127.771L133.883 126.05L133.883 126.05L131.425 127.771ZM154.364 131.816L156.085 134.273L156.059 134.292L156.032 134.309L154.364 131.816ZM157.724 129.463L159.445 131.921L159.445 131.921L157.724 129.463ZM161.767 106.539L164.224 104.818L164.242 104.844L164.26 104.871L161.767 106.539ZM159.414 103.179L161.871 101.458L161.871 101.458L159.414 103.179ZM158.212 102.42L157.691 105.375L158.212 102.42ZM137.864 98.8322L138.385 95.8778L137.864 98.8322ZM136.475 99.1338L134.754 96.6763L134.78 96.658L134.807 96.6403L136.475 99.1338ZM133.115 101.486L134.835 103.944L134.835 103.944L133.115 101.486ZM132.356 102.689L135.311 103.21L132.356 102.689ZM135.774 98.1145L134.047 95.6615L134.053 95.657L135.774 98.1145ZM160.421 102.46L157.964 104.181L160.421 102.46ZM162.774 105.821L165.231 104.1L165.231 104.1L162.774 105.821ZM158.428 130.468L160.149 132.925L160.149 132.925L158.428 130.468ZM155.068 132.82L153.347 130.363L153.347 130.363L155.068 132.82ZM152.76 133.34L153.281 130.385L152.76 133.34ZM132.412 129.752L131.891 132.706L132.412 129.752ZM128.068 125.114L125.61 126.835L125.61 126.835L128.068 125.114ZM132.411 100.482L134.138 102.935L134.132 102.939L132.411 100.482ZM114.347 131.47L111.392 130.949L111.913 127.995L114.868 128.516L114.347 131.47ZM114.465 132.007L112.007 133.728L112.007 133.728L114.465 132.007ZM114.376 131.475L117.331 131.996L116.81 134.951L113.855 134.43L114.376 131.475ZM122.015 89.358L123.736 91.8154L122.015 89.358ZM128.891 84.5434L127.17 82.0859L128.891 84.5434ZM171.545 92.0645L174.003 90.3437L174.003 90.3437L171.545 92.0645ZM176.36 98.9404L173.902 100.661L176.36 98.9404ZM168.839 141.595L170.56 144.052L170.556 144.054L168.839 141.595ZM161.948 146.407L160.227 143.949L160.23 143.947L161.948 146.407ZM119.279 138.883L121.737 137.162L119.279 138.883ZM128.163 83.5042L126.44 81.0489L126.443 81.0467L128.163 83.5042ZM121.285 88.3335L119.514 85.9117L119.538 85.8947L119.561 85.8782L121.285 88.3335ZM113.46 132.71L111.003 134.431L111.003 134.431L113.46 132.71ZM118.275 139.586L115.853 141.357L115.835 141.332L115.817 141.307L118.275 139.586ZM169.542 142.599L171.263 145.057L171.263 145.057L169.542 142.599ZM170.358 141.331L167.403 140.81L170.358 141.331ZM177.702 99.6781L180.657 100.199L177.702 99.6781ZM177.369 98.2076L174.912 99.9283L174.912 99.9283L177.369 98.2076ZM172.555 91.3316L175.012 89.6109L172.555 91.3316ZM149.201 112.112L149.722 109.157L151.896 109.54L152.176 111.73L149.201 112.112ZM149.904 117.595L152.88 117.213L153.398 121.257L149.383 120.549L149.904 117.595ZM149.142 112.101L146.473 110.732L147.483 108.762L149.663 109.147L149.142 112.101ZM146.621 117.016L146.1 119.97L142.095 119.264L143.951 115.646L146.621 117.016ZM153.393 123.463L156.355 122.983L157.03 127.15L152.872 126.417L153.393 123.463ZM151.198 109.913L151.719 106.959L153.818 107.329L154.159 109.433L151.198 109.913ZM150.596 122.969L150.075 125.924L147.897 125.54L147.619 123.345L150.596 122.969ZM150.184 119.709L150.705 116.754L152.883 117.138L153.16 119.333L150.184 119.709ZM145.664 118.912L142.996 117.54L144.007 115.573L146.185 115.957L145.664 118.912ZM144.162 121.835L146.83 123.206L145.819 125.173L143.641 124.789L144.162 121.835ZM141.349 121.339L140.829 124.293L136.671 123.56L138.731 119.875L141.349 121.339ZM148.047 109.358L145.428 107.894L146.468 106.033L148.568 106.403L148.047 109.358ZM142.29 108.342L142.811 105.387L145.765 105.908L145.244 108.863L142.29 108.342ZM140.039 121.107L142.994 121.628L142.473 124.582L139.518 124.061L140.039 121.107ZM139.61 107.869L136.656 107.348L137.177 104.394L140.131 104.915L139.61 107.869ZM137.359 120.634L136.838 123.589L133.884 123.068L134.405 120.113L137.359 120.634ZM166.458 4.42615C185.033 7.7015 202.437 14.5246 218.145 24.7121L214.881 29.7461C199.854 20.0009 183.208 13.4722 165.416 10.335L166.458 4.42615ZM110.963 5.8133C129.194 1.60987 147.868 1.14819 166.458 4.42615L165.416 10.335C147.61 7.19524 129.749 7.63937 112.311 11.6599L110.963 5.8133ZM61.9959 27.5988C76.8727 17.1951 93.3413 9.85741 110.966 5.81262L112.308 11.6606C95.4419 15.5313 79.6842 22.5506 65.4344 32.5158L61.9959 27.5988ZM24.7719 66.1664C34.6008 50.9879 47.1286 38.0222 61.993 27.6008L65.4374 32.5137C51.1995 42.4958 39.214 54.9025 29.8082 69.4277L24.7719 66.1664ZM4.50186 117.855C7.77721 99.2794 14.6001 81.8762 24.7718 66.1666L29.8083 69.4275C20.0767 84.4575 13.5479 101.105 10.4107 118.897L4.50186 117.855ZM5.87098 173.359C1.68576 155.117 1.22651 136.43 4.50186 117.855L10.4107 118.897C7.27354 136.688 7.7149 154.565 11.719 172.017L5.87098 173.359ZM27.6572 222.329C17.2535 207.452 9.9158 190.984 5.87101 173.359L11.719 172.017C15.5897 188.883 22.609 204.641 32.5741 218.89L27.6572 222.329ZM66.2248 259.553C51.0472 249.725 38.066 237.194 27.6582 222.33L32.5731 218.889C42.5394 233.122 54.96 245.11 69.4861 254.517L66.2248 259.553ZM117.913 279.823C99.3377 276.548 81.9346 269.725 66.2249 259.553L69.4859 254.517C84.5158 264.248 101.163 270.777 118.955 273.914L117.913 279.823ZM173.417 278.454C155.176 282.639 136.489 283.098 117.913 279.823L118.955 273.914C136.747 277.051 154.623 276.61 172.075 272.606L173.417 278.454ZM222.389 256.667C207.525 267.074 191.041 274.409 173.417 278.454L172.075 272.606C188.942 268.735 204.714 261.718 218.947 251.752L222.389 256.667ZM259.611 218.1C249.782 233.278 237.255 246.244 222.39 256.666L218.946 251.753C233.184 241.771 245.169 229.364 254.575 214.839L259.611 218.1ZM279.881 166.412C276.603 185.002 269.783 202.39 259.611 218.1L254.575 214.839C264.307 199.809 270.833 183.176 273.972 165.37L279.881 166.412ZM278.497 110.903C282.698 129.148 283.157 147.836 279.881 166.412L273.972 165.37C277.11 147.578 276.668 129.702 272.65 112.249L278.497 110.903ZM256.71 61.9335C267.118 76.7973 274.453 93.2813 278.497 110.905L272.649 112.247C268.779 95.3799 261.762 79.6082 251.795 65.3749L256.71 61.9335ZM218.144 24.7109C233.322 34.5398 246.288 47.0676 256.709 61.932L251.796 65.3764C241.814 51.1385 229.408 39.1531 214.882 29.7472L218.144 24.7109ZM118.683 275.369C136.68 278.542 154.742 278.089 172.4 274.044L173.739 279.893C155.295 284.117 136.424 284.59 117.641 281.278L118.683 275.369ZM68.6753 255.755C83.8697 265.592 100.686 272.196 118.683 275.369L117.641 281.278C98.8591 277.966 81.2872 271.068 65.4146 260.792L68.6753 255.755ZM31.3607 219.738C41.4359 234.127 54.0002 246.247 68.6763 255.756L65.4136 260.791C50.088 250.861 36.963 238.199 26.4458 223.179L31.3607 219.738ZM10.2777 172.354C14.1939 189.397 21.2856 205.349 31.3607 219.738L26.4458 223.179C15.9286 208.159 8.51959 191.495 4.4301 173.697L10.2777 172.354ZM8.95306 118.64C5.77971 136.637 6.23366 154.698 10.2782 172.356L4.42962 173.695C0.205069 155.252 -0.267652 136.38 3.04421 117.598L8.95306 118.64ZM28.5698 68.6169C18.7331 83.811 12.1265 100.642 8.95306 118.64L3.04421 117.598C6.35599 98.8157 13.257 81.2292 23.5331 65.3562L28.5698 68.6169ZM64.587 31.3024C50.1982 41.3775 38.0783 53.9419 28.5692 68.6179L23.5338 65.3553C33.4638 50.0296 46.1254 36.9047 61.1455 26.3874L64.587 31.3024ZM111.971 10.2193C94.9277 14.1355 78.9757 21.2272 64.587 31.3024L61.1455 26.3874C76.1657 15.8702 92.8297 8.46118 110.627 4.3717L111.971 10.2193ZM165.67 8.89209C147.673 5.71871 129.612 6.17276 111.97 10.2196L110.628 4.37145C129.058 0.143989 147.93 -0.328596 166.712 2.98324L165.67 8.89209ZM215.694 28.5093C200.484 18.6693 183.667 12.0654 165.67 8.89209L166.712 2.98324C185.495 6.2951 203.066 13.1936 218.953 23.4716L215.694 28.5093ZM253.008 64.526C242.933 50.1373 230.368 38.0173 215.692 28.5082L218.955 23.4728C234.28 33.4028 247.405 46.0644 257.923 61.0845L253.008 64.526ZM274.091 111.91C270.175 94.8667 263.083 78.9148 253.008 64.526L257.923 61.0845C268.44 76.1047 275.849 92.7687 279.938 110.566L274.091 111.91ZM275.415 165.624C278.589 147.627 278.135 129.566 274.09 111.908L279.939 110.568C284.163 129.012 284.636 147.884 281.324 166.666L275.415 165.624ZM255.798 215.648C265.638 200.438 272.242 183.621 275.415 165.624L281.324 166.666C278.012 185.449 271.114 203.02 260.836 218.907L255.798 215.648ZM219.781 252.961C234.17 242.886 246.29 230.322 255.799 215.646L260.835 218.909C250.905 234.234 238.243 247.359 223.223 257.876L219.781 252.961ZM172.397 274.044C189.441 270.128 205.393 263.037 219.781 252.961L223.223 257.876C208.203 268.394 191.539 275.803 173.741 279.892L172.397 274.044ZM183.579 182.068L183.587 181.959L189.569 182.422L189.561 182.531L183.579 182.068ZM183.147 199.682C182.945 190.198 183.49 183.201 183.579 182.066L189.561 182.533C189.48 183.571 188.949 190.349 189.146 199.554L183.147 199.682ZM187.976 236.503C184.324 223.336 183.347 209.17 183.147 199.681L189.146 199.555C189.341 208.839 190.3 222.433 193.757 234.9L187.976 236.503ZM185.582 241.299C187.5 240.54 188.522 238.474 187.976 236.503L193.758 234.9C195.123 239.825 192.561 244.991 187.789 246.878L185.582 241.299ZM119.451 248.027C141.772 251.963 164.642 249.638 185.576 241.301L187.795 246.875C165.82 255.627 141.82 258.064 118.409 253.936L119.451 248.027ZM97.4406 241.997C104.526 244.669 111.934 246.701 119.451 248.027L118.409 253.936C110.526 252.546 102.758 250.414 95.3237 247.611L97.4406 241.997ZM95.1768 239.864C95.6205 240.858 96.4079 241.603 97.4508 242.001L95.3134 247.607C92.8001 246.649 90.8001 244.778 89.6983 242.311L95.1768 239.864ZM95.1086 236.783C94.7182 237.798 94.7451 238.892 95.1794 239.87L89.6957 242.305C88.6087 239.857 88.5536 237.111 89.5086 234.629L95.1086 236.783ZM103.615 196.852C104.811 202.271 103.521 209.888 101.675 216.985C99.7841 224.252 97.1304 231.604 95.1032 236.797L89.514 234.615C91.5013 229.524 94.0616 222.417 95.8682 215.474C97.7192 208.36 98.6102 202.015 97.7557 198.146L103.615 196.852ZM101.975 194.504C102.805 195.036 103.397 195.882 103.613 196.843L97.7576 198.154C97.8879 198.736 98.2375 199.236 98.7405 199.558L101.975 194.504ZM98.9402 194.072C100.031 193.747 101.134 193.966 101.975 194.504L98.7405 199.558C99.254 199.887 99.9446 200.033 100.651 199.823L98.9402 194.072ZM77.6666 199.162L99.0968 194.03L100.494 199.865L79.0642 204.997L77.6666 199.162ZM66.505 199.174C70.2311 199.831 74.0333 199.823 77.8256 199.129L78.9052 205.031C74.4146 205.852 69.8939 205.864 65.4631 205.083L66.505 199.174ZM62.6825 196.735C63.5968 198.041 64.948 198.899 66.505 199.174L65.4631 205.083C62.3381 204.532 59.5941 202.785 57.7676 200.177L62.6825 196.735ZM61.6984 192.309C61.4239 193.867 61.7682 195.43 62.6825 196.735L57.7676 200.177C55.9411 197.568 55.2385 194.393 55.7896 191.268L61.6984 192.309ZM62.6278 187.038L61.6984 192.309L55.7896 191.268L56.719 185.997L62.6278 187.038ZM63.3755 182.798L62.6278 187.038L56.719 185.997L57.4667 181.756L63.3755 182.798ZM58.696 172.389C59.7536 172.984 61.2035 174.048 62.2561 175.803C63.3477 177.623 63.8753 179.964 63.3755 182.798L57.4667 181.756C57.7276 180.276 57.4238 179.411 57.1104 178.889C56.7582 178.301 56.2298 177.886 55.7543 177.618L58.696 172.389ZM58.8586 173.161C58.9596 172.96 58.9522 172.755 58.909 172.624C58.8685 172.5 58.8049 172.453 58.7903 172.444L55.66 177.563C53.3689 176.162 52.1397 173.167 53.4984 170.465L58.8586 173.161ZM60.8815 170.53C61.082 170.39 59.7785 171.274 58.8752 173.128L53.4818 170.498C55.0045 167.375 57.2049 165.78 57.44 165.615L60.8815 170.53ZM62.4615 167.233C62.557 168.586 61.9057 169.813 60.8815 170.53L57.44 165.615C56.8315 166.042 56.4157 166.794 56.4764 167.655L62.4615 167.233ZM60.6312 164.25C61.709 164.886 62.4543 166.066 62.4688 167.412L56.4691 167.476C56.4784 168.335 56.943 169.04 57.5808 169.417L60.6312 164.25ZM57.9403 161.377C59.1545 163.059 60.11 163.941 60.6348 164.252L57.5772 169.415C55.9851 168.472 54.4478 166.79 53.0753 164.888L57.9403 161.377ZM57.9335 162.16C57.9986 162.072 58.0538 161.936 58.0549 161.771C58.0561 161.606 58.0017 161.461 57.9297 161.362L53.086 164.903C51.6891 162.992 51.7243 160.459 53.1144 158.585L57.9335 162.16ZM62.6045 149.977C61.5009 156.235 59.5529 160.004 57.9224 162.174L53.1254 158.57C54.1134 157.255 55.7327 154.396 56.6956 148.935L62.6045 149.977ZM59.7194 145.68C61.688 146.106 62.9496 148.019 62.6045 149.977L56.6956 148.935C56.4855 150.127 57.243 151.283 58.4511 151.544L59.7194 145.68ZM49.8422 143.025C49.84 143.023 49.8741 143.041 49.9588 143.076C50.0396 143.109 50.1463 143.15 50.2815 143.198C50.5534 143.296 50.8986 143.409 51.3092 143.534C52.1298 143.785 53.1359 144.062 54.1956 144.338C56.3116 144.89 58.5486 145.415 59.747 145.686L58.4236 151.538C57.1839 151.258 54.8799 150.717 52.6816 150.144C51.5842 149.858 50.4898 149.557 49.5579 149.273C48.7021 149.012 47.7552 148.698 47.1019 148.362L49.8422 143.025ZM48.0734 140.484C48.2045 141.606 48.8314 142.506 49.8416 143.024L47.1025 148.363C44.326 146.938 42.4789 144.305 42.1139 141.18L48.0734 140.484ZM49.2316 137.526C48.3592 138.276 47.9405 139.365 48.0727 140.478L42.1147 141.186C41.7457 138.081 42.9391 135.021 45.3227 132.975L49.2316 137.526ZM63.6916 123.183C58.3885 129.062 53.6553 133.766 49.2203 137.536L45.334 132.965C49.5068 129.417 54.0478 124.917 59.2364 119.165L63.6916 123.183ZM74.5235 100.978C73.0604 109.276 69.3156 116.949 63.6916 123.183L59.2364 119.165C64.1041 113.768 67.3466 107.128 68.6146 99.9361L74.5235 100.978ZM74.713 99.9032L74.5235 100.978L68.6146 99.9361L68.8041 98.8613L74.713 99.9032ZM141.958 39.1073C108.334 41.0126 80.6655 65.979 74.7134 99.9007L68.8037 98.8637C75.2231 62.2787 105.132 35.1844 141.618 33.1169L141.958 39.1073ZM178.189 45.8838C166.98 40.6713 154.806 38.3864 141.956 39.1074L141.62 33.1168C155.418 32.3427 168.581 34.7986 180.719 40.4433L178.189 45.8838ZM205.139 67.3373C197.988 58.1698 188.659 50.7478 178.19 45.8843L180.718 40.4428C192.055 45.7094 202.137 53.7336 209.87 63.647L205.139 67.3373ZM219.406 98.6904C217.223 87.3424 212.291 76.5061 205.139 67.3373L209.87 63.647C217.601 73.5591 222.934 85.2704 225.298 97.5569L219.406 98.6904ZM220.618 116.463C220.938 110.51 220.534 104.532 219.406 98.6924L225.297 97.5549C226.518 103.88 226.956 110.347 226.609 116.786L220.618 116.463ZM217.292 134.825C219.17 128.815 220.288 122.633 220.618 116.464L226.609 116.784C226.253 123.46 225.043 130.136 223.019 136.615L217.292 134.825ZM205.813 157.025C210.915 150.329 214.781 142.865 217.292 134.826L223.019 136.614C220.299 145.324 216.109 153.413 210.585 160.661L205.813 157.025ZM188.065 173.629C194.913 169.07 200.884 163.486 205.814 157.024L210.584 160.663C205.246 167.662 198.783 173.701 191.39 178.624L188.065 173.629ZM183.579 182.237C183.524 178.788 185.184 175.554 188.061 173.632L191.394 178.621C190.244 179.389 189.555 180.691 189.578 182.143L183.579 182.237ZM188.329 248.244C166.106 257.105 141.828 259.568 118.152 255.393L119.194 249.484C141.78 253.467 164.927 251.115 186.107 242.671L188.329 248.244ZM195.162 234.51C196.735 240.18 193.773 246.07 188.331 248.243L186.105 242.672C188.732 241.622 190.128 238.808 189.38 236.114L195.162 234.51ZM191.021 182.568C190.916 183.865 188.715 211.263 195.162 234.51L189.38 236.113C182.623 211.747 184.934 183.401 185.041 182.084L191.021 182.568ZM191.025 182.518L191.022 182.564L185.041 182.088L185.044 182.042L191.025 182.518ZM190.491 180.483C191.058 181.293 191.046 182.106 191.039 182.335C191.034 182.493 191.018 182.618 191.008 182.683C191.003 182.719 190.998 182.748 190.995 182.767C190.992 182.784 190.99 182.799 190.989 182.801L185.08 181.759C185.093 181.69 185.05 181.898 185.042 182.14C185.036 182.342 185.02 183.132 185.576 183.925L190.491 180.483ZM192.211 179.843C191.45 180.351 191.009 181.189 191.032 182.131L185.034 182.277C184.961 179.286 186.403 176.508 188.877 174.854L192.211 179.843ZM211.749 161.55C206.312 168.683 199.738 174.84 192.205 179.847L188.883 174.85C195.864 170.21 201.947 164.511 206.977 157.913L211.749 161.55ZM224.417 137.04C221.651 145.924 217.388 154.169 211.747 161.553L206.979 157.91C212.193 151.085 216.131 143.47 218.688 135.257L224.417 137.04ZM228.071 116.845C227.709 123.641 226.478 130.434 224.416 137.042L218.689 135.255C220.605 129.114 221.744 122.814 222.08 116.525L228.071 116.845ZM226.733 97.2467C227.978 103.697 228.424 110.287 228.071 116.846L222.08 116.524C222.406 110.45 221.993 104.349 220.842 98.3835L226.733 97.2467ZM211.049 62.7316C218.917 72.82 224.346 84.7619 226.734 97.2516L220.841 98.3786C218.632 86.8303 213.605 75.7656 206.317 66.4215L211.049 62.7316ZM181.365 39.0995C192.913 44.4641 203.18 52.6427 211.049 62.7316L206.317 66.4215C199.03 57.0779 189.516 49.502 178.837 44.5409L181.365 39.0995ZM141.559 31.6488C155.604 30.8572 169.002 33.3547 181.365 39.0996L178.837 44.5408C167.403 39.2276 154.993 36.9012 141.897 37.6393L141.559 31.6488ZM67.3902 98.6145C73.9292 61.3514 104.396 33.7645 141.558 31.6489L141.899 37.6392C107.597 39.592 79.3713 65.0532 73.2999 99.6515L67.3902 98.6145ZM67.2012 99.6869L67.3907 98.612L73.2995 99.6539L73.11 100.729L67.2012 99.6869ZM58.1788 118.189C62.8578 113.002 65.9799 106.613 67.2012 99.6869L73.11 100.729C71.6936 108.762 68.0691 116.182 62.634 122.208L58.1788 118.189ZM44.4177 131.864C48.5383 128.354 53.0282 123.889 58.1804 118.187L62.6324 122.209C57.3726 128.031 52.6921 132.697 48.3088 136.432L44.4177 131.864ZM40.6983 141.366C40.2845 137.775 41.6643 134.239 44.4038 131.876L48.3227 136.42C47.0874 137.485 46.4726 139.063 46.6588 140.679L40.6983 141.366ZM46.475 149.679C43.2959 148.047 41.123 144.948 40.6994 141.376L46.6577 140.669C46.8445 142.245 47.8006 143.615 49.2154 144.341L46.475 149.679ZM57.4339 152.82C56.3585 152.57 54.1798 152.058 52.0479 151.496C50.9836 151.216 49.9062 150.916 48.9713 150.625C48.0981 150.352 47.151 150.028 46.4692 149.676L49.2212 144.344C49.3882 144.43 49.8813 144.623 50.7578 144.897C51.5726 145.151 52.5545 145.425 53.5774 145.695C55.6199 146.233 57.7271 146.728 58.7953 146.977L57.4339 152.82ZM51.9846 157.706C52.6534 156.813 54.2019 154.338 55.169 149.33L61.0602 150.467C59.9294 156.323 58.0266 159.647 56.7886 161.301L51.9846 157.706ZM51.9163 165.758C50.1773 163.34 50.2052 160.106 51.9771 157.717L56.7962 161.291C56.5765 161.587 56.5754 161.96 56.7872 162.255L51.9163 165.758ZM55.692 169.899C54.3783 168.86 53.1275 167.428 51.9232 165.768L56.7804 162.245C57.823 163.683 58.7031 164.631 59.4145 165.194L55.692 169.899ZM52.1845 169.856C53.2408 167.696 54.5904 166.206 55.5089 165.351L59.5976 169.742C59.063 170.24 58.227 171.158 57.5741 172.492L52.1845 169.856ZM54.9221 178.846C51.8862 176.997 50.5233 173.141 52.202 169.82L57.5566 172.528C57.4171 172.804 57.4336 173.351 58.0441 173.723L54.9221 178.846ZM55.9769 179.241L55.9622 179.239L57.0041 173.33L57.0188 173.333L55.9769 179.241ZM56.0212 181.516C56.2029 180.486 56.0108 179.963 55.8666 179.701C55.6969 179.393 55.4075 179.121 55.0026 178.888L57.9931 173.686C59.0355 174.286 60.2719 175.262 61.1227 176.807C61.999 178.399 62.3221 180.335 61.93 182.558L56.0212 181.516ZM55.2735 185.757L56.0212 181.516L61.93 182.558L61.1824 186.799L55.2735 185.757ZM54.3441 191.028L55.2735 185.757L61.1824 186.799L60.2529 192.07L54.3441 191.028ZM56.5673 201.043C54.5106 198.106 53.7229 194.551 54.3441 191.028L60.2529 192.07C59.9083 194.024 60.3374 195.967 61.4822 197.602L56.5673 201.043ZM65.2182 206.558C61.6922 205.936 58.6101 203.961 56.5673 201.043L61.4822 197.602C62.6168 199.222 64.309 200.305 66.2601 200.649L65.2182 206.558ZM79.2077 206.496C74.5496 207.347 69.83 207.371 65.2182 206.558L66.2601 200.649C70.1586 201.336 74.1603 201.319 78.1297 200.594L79.2077 206.496ZM78.7008 203.536C80.424 205.991 80.4234 205.992 80.4228 205.992C80.4226 205.992 80.422 205.993 80.4216 205.993C80.4208 205.994 80.42 205.994 80.4192 205.995C80.4175 205.996 80.4159 205.997 80.4142 205.998C80.411 206.001 80.4076 206.003 80.4042 206.005C80.3974 206.01 80.3904 206.015 80.3833 206.02C80.3689 206.029 80.3536 206.039 80.3375 206.05C80.3054 206.071 80.2686 206.094 80.2274 206.118C80.1487 206.165 80.0369 206.227 79.8978 206.288C79.727 206.363 79.0444 206.658 78.1478 206.5L79.1897 200.591C78.7114 200.507 78.3136 200.557 78.0649 200.609C77.8099 200.662 77.6103 200.739 77.4827 200.795C77.3498 200.854 77.2433 200.912 77.1682 200.957C77.1289 200.98 77.0936 201.002 77.0625 201.023C77.0468 201.033 77.0319 201.043 77.0179 201.052C77.0108 201.057 77.0039 201.062 76.9972 201.066C76.9938 201.069 76.9905 201.071 76.9872 201.073C76.9856 201.074 76.984 201.076 76.9824 201.077C76.9815 201.077 76.9807 201.078 76.9799 201.078C76.9795 201.079 76.9789 201.079 76.9787 201.079C76.9781 201.08 76.9775 201.08 78.7008 203.536ZM100.087 201.493L79.4003 206.453L78.0012 200.618L98.6875 195.658L100.087 201.493ZM88.1465 234.103C96.7491 212.017 96.98 202.533 96.4244 199.048L102.35 198.103C103.164 203.209 102.443 213.931 93.7373 236.28L88.1465 234.103ZM88.3519 242.927C87.114 240.119 87.0231 236.971 88.1484 234.098L93.7354 236.285C93.2036 237.643 93.2364 239.133 93.842 240.506L88.3519 242.927ZM94.7878 249.017C91.9196 247.919 89.6228 245.767 88.3585 242.942L93.8353 240.491C94.4441 241.852 95.5341 242.878 96.9324 243.413L94.7878 249.017ZM118.152 255.393C110.179 253.987 102.329 251.826 94.8128 249.026L96.9074 243.404C104.092 246.08 111.59 248.144 119.194 249.484L118.152 255.393ZM95.6943 106.7C95.2015 109.494 92.5371 111.36 89.7423 110.867L90.7841 104.958C90.3156 104.876 89.8681 105.189 89.7855 105.658L95.6943 106.7ZM91.5266 100.748C94.3215 101.24 96.1871 103.905 95.6943 106.7L89.7855 105.658C89.7029 106.126 90.0162 106.574 90.4848 106.656L91.5266 100.748ZM85.5746 104.915C86.0674 102.12 88.7318 100.255 91.5266 100.748L90.4848 106.656C90.9533 106.739 91.4008 106.426 91.4834 105.957L85.5746 104.915ZM89.7423 110.867C86.982 110.381 85.0412 107.73 85.5814 104.878L91.4766 105.994C91.5771 105.464 91.2181 105.035 90.7841 104.958L89.7423 110.867ZM108.974 135.865C107.838 134.243 107.398 132.251 107.741 130.305L113.65 131.347C113.583 131.727 113.666 132.106 113.888 132.423L108.974 135.865ZM113.788 142.741L108.974 135.865L113.888 132.423L118.703 139.299L113.788 142.741ZM118.591 145.801C116.645 145.457 114.924 144.363 113.788 142.741L118.703 139.299C118.925 139.617 119.252 139.825 119.633 139.892L118.591 145.801ZM160.244 153.145L118.591 145.801L119.633 139.892L161.286 147.236L160.244 153.145ZM165.803 151.912C164.181 153.048 162.19 153.488 160.244 153.145L161.286 147.236C161.666 147.303 162.044 147.22 162.362 146.997L165.803 151.912ZM172.679 147.098L165.803 151.912L162.362 146.997L169.238 142.183L172.679 147.098ZM175.739 142.295C175.396 144.241 174.301 145.962 172.679 147.098L169.238 142.183C169.555 141.961 169.763 141.634 169.83 141.253L175.739 142.295ZM183.083 100.642L175.739 142.295L169.83 141.253L177.175 99.6004L183.083 100.642ZM181.851 95.0828C182.987 96.705 183.427 98.6962 183.083 100.642L177.175 99.6004C177.242 99.2201 177.158 98.8419 176.936 98.5243L181.851 95.0828ZM177.036 88.2069L181.851 95.0828L176.936 98.5243L172.121 91.6483L177.036 88.2069ZM172.234 85.147C174.18 85.4902 175.9 86.5847 177.036 88.2069L172.121 91.6483C171.899 91.3307 171.572 91.1229 171.192 91.0559L172.234 85.147ZM130.581 77.8025L172.234 85.147L171.192 91.0559L129.539 83.7113L130.581 77.8025ZM125.021 79.0352C126.643 77.8993 128.635 77.4593 130.581 77.8025L129.539 83.7113C129.158 83.6443 128.78 83.7277 128.463 83.9501L125.021 79.0352ZM118.145 83.8498L125.021 79.0352L128.463 83.9501L121.587 88.7647L118.145 83.8498ZM115.085 88.6524C115.429 86.7063 116.523 84.9857 118.145 83.8498L121.587 88.7647C121.269 88.9871 121.061 89.314 120.994 89.6943L115.085 88.6524ZM107.741 130.305L115.085 88.6524L120.994 89.6943L113.65 131.347L107.741 130.305ZM94.9747 116.35C95.4675 113.555 98.132 111.689 100.927 112.182L99.8849 118.091C100.353 118.173 100.801 117.86 100.884 117.391L94.9747 116.35ZM99.1424 122.302C96.3476 121.809 94.4819 119.144 94.9747 116.35L100.884 117.391C100.966 116.923 100.653 116.475 100.184 116.393L99.1424 122.302ZM105.095 118.134C104.602 120.929 101.937 122.794 99.1424 122.302L100.184 116.393C99.7158 116.31 99.2683 116.623 99.1857 117.092L105.095 118.134ZM100.927 112.182C103.722 112.675 105.587 115.339 105.095 118.134L99.1857 117.092C99.1031 117.561 99.4164 118.008 99.8849 118.091L100.927 112.182ZM85.3744 129.383C85.8672 126.588 88.5317 124.722 91.3265 125.215L90.2846 131.124C90.7531 131.206 91.2007 130.893 91.2833 130.424L85.3744 129.383ZM89.5421 135.335C86.7473 134.842 84.8816 132.177 85.3744 129.383L91.2833 130.424C91.3659 129.956 91.0526 129.508 90.584 129.426L89.5421 135.335ZM95.4942 131.167C95.0014 133.962 92.337 135.828 89.5421 135.335L90.584 129.426C90.1155 129.343 89.668 129.657 89.5854 130.125L95.4942 131.167ZM91.3265 125.215C94.1214 125.708 95.987 128.372 95.4942 131.167L89.5854 130.125C89.5028 130.594 89.8161 131.041 90.2846 131.124L91.3265 125.215ZM107.892 159.753C108.385 156.959 111.049 155.093 113.844 155.586L112.802 161.495C113.271 161.577 113.718 161.264 113.801 160.795L107.892 159.753ZM112.06 165.706C109.265 165.213 107.399 162.548 107.892 159.753L113.801 160.795C113.884 160.327 113.57 159.879 113.102 159.797L112.06 165.706ZM118.012 161.538C117.519 164.333 114.855 166.198 112.06 165.706L113.102 159.797C112.633 159.714 112.186 160.027 112.103 160.496L118.012 161.538ZM113.844 155.586C116.639 156.079 118.505 158.743 118.012 161.538L112.103 160.496C112.021 160.964 112.334 161.412 112.802 161.495L113.844 155.586ZM126.962 164.705C124.167 164.212 122.302 161.548 122.795 158.753L128.703 159.795C128.786 159.326 128.473 158.879 128.004 158.796L126.962 164.705ZM132.914 160.537C132.421 163.332 129.757 165.198 126.962 164.705L128.004 158.796C127.536 158.713 127.088 159.027 127.005 159.495L132.914 160.537ZM128.747 154.585C131.541 155.078 133.407 157.742 132.914 160.537L127.005 159.495C126.923 159.964 127.236 160.411 127.705 160.494L128.747 154.585ZM122.795 158.753C123.287 155.958 125.952 154.092 128.747 154.585L127.705 160.494C128.173 160.577 128.621 160.263 128.703 159.795L122.795 158.753ZM134.866 175.329C132.071 174.836 130.205 172.171 130.698 169.377L136.607 170.419C136.689 169.95 136.376 169.502 135.908 169.42L134.866 175.329ZM140.818 171.161C140.325 173.956 137.661 175.822 134.866 175.329L135.908 169.42C135.439 169.337 134.992 169.651 134.909 170.119L140.818 171.161ZM136.65 165.209C139.445 165.702 141.311 168.366 140.818 171.161L134.909 170.119C134.826 170.588 135.14 171.035 135.608 171.118L136.65 165.209ZM130.698 169.377C131.191 166.582 133.855 164.716 136.65 165.209L135.608 171.118C136.077 171.2 136.524 170.887 136.607 170.419L130.698 169.377ZM146.288 165.911C143.493 165.418 141.627 162.754 142.12 159.959L148.029 161.001C148.112 160.532 147.798 160.085 147.33 160.002L146.288 165.911ZM152.24 161.744C151.747 164.538 149.083 166.404 146.288 165.911L147.33 160.002C146.861 159.92 146.414 160.233 146.331 160.702L152.24 161.744ZM148.072 155.791C150.867 156.284 152.733 158.949 152.24 161.744L146.331 160.702C146.248 161.17 146.562 161.618 147.03 161.7L148.072 155.791ZM142.12 159.959C142.613 157.164 145.277 155.299 148.072 155.791L147.03 161.7C147.499 161.783 147.946 161.47 148.029 161.001L142.12 159.959ZM165.288 171.346C164.795 174.141 162.131 176.007 159.336 175.514L160.378 169.605C159.909 169.523 159.462 169.836 159.379 170.305L165.288 171.346ZM161.12 165.394C163.915 165.887 165.781 168.552 165.288 171.346L159.379 170.305C159.296 170.773 159.61 171.221 160.078 171.303L161.12 165.394ZM155.168 169.562C155.661 166.767 158.325 164.902 161.12 165.394L160.078 171.303C160.547 171.386 160.994 171.072 161.077 170.604L155.168 169.562ZM159.336 175.514C156.541 175.021 154.675 172.357 155.168 169.562L161.077 170.604C161.159 170.135 160.846 169.688 160.378 169.605L159.336 175.514ZM195.644 148.826C195.151 151.621 192.487 153.487 189.692 152.994L190.734 147.085C190.265 147.002 189.818 147.316 189.735 147.784L195.644 148.826ZM191.476 142.874C194.271 143.367 196.137 146.031 195.644 148.826L189.735 147.784C189.652 148.253 189.966 148.7 190.434 148.783L191.476 142.874ZM185.524 147.042C186.017 144.247 188.681 142.381 191.476 142.874L190.434 148.783C190.903 148.865 191.35 148.552 191.433 148.084L185.524 147.042ZM189.692 152.994C186.897 152.501 185.031 149.837 185.524 147.042L191.433 148.084C191.516 147.615 191.202 147.168 190.734 147.085L189.692 152.994ZM194.658 133.926C194.165 136.721 191.501 138.587 188.706 138.094L189.748 132.185C189.279 132.103 188.832 132.416 188.749 132.884L194.658 133.926ZM190.49 127.974C193.285 128.467 195.151 131.132 194.658 133.926L188.749 132.884C188.666 133.353 188.98 133.801 189.448 133.883L190.49 127.974ZM184.538 132.142C185.031 129.347 187.695 127.481 190.49 127.974L189.448 133.883C189.917 133.966 190.364 133.652 190.447 133.184L184.538 132.142ZM188.706 138.094C185.911 137.601 184.045 134.937 184.538 132.142L190.447 133.184C190.53 132.715 190.216 132.268 189.748 132.185L188.706 138.094ZM205.267 126.02C204.774 128.815 202.11 130.681 199.315 130.188L200.357 124.279C199.888 124.196 199.441 124.51 199.358 124.978L205.267 126.02ZM201.099 120.068C203.894 120.561 205.76 123.225 205.267 126.02L199.358 124.978C199.276 125.447 199.589 125.894 200.057 125.977L201.099 120.068ZM195.147 124.236C195.64 121.441 198.305 119.575 201.099 120.068L200.057 125.977C200.526 126.06 200.974 125.746 201.056 125.278L195.147 124.236ZM199.315 130.188C196.52 129.695 194.654 127.031 195.147 124.236L201.056 125.278C201.139 124.809 200.825 124.362 200.357 124.279L199.315 130.188ZM195.864 114.601C195.371 117.396 192.707 119.261 189.912 118.768L190.954 112.86C190.486 112.777 190.038 113.09 189.955 113.559L195.864 114.601ZM191.697 108.649C194.491 109.141 196.357 111.806 195.864 114.601L189.955 113.559C189.873 114.027 190.186 114.475 190.655 114.557L191.697 108.649ZM185.744 112.816C186.237 110.021 188.902 108.156 191.697 108.649L190.655 114.557C191.123 114.64 191.571 114.327 191.653 113.858L185.744 112.816ZM189.912 118.768C187.117 118.276 185.252 115.611 185.744 112.816L191.653 113.858C191.736 113.39 191.423 112.942 190.954 112.86L189.912 118.768ZM205.465 101.568C204.972 104.362 202.307 106.228 199.513 105.735L200.554 99.8264C200.086 99.7438 199.638 100.057 199.556 100.526L205.465 101.568ZM201.297 95.6155C204.092 96.1083 205.957 98.7728 205.465 101.568L199.556 100.526C199.473 100.994 199.786 101.442 200.255 101.524L201.297 95.6155ZM195.345 99.7832C195.838 96.9884 198.502 95.1227 201.297 95.6155L200.255 101.524C200.724 101.607 201.171 101.294 201.254 100.825L195.345 99.7832ZM199.513 105.735C196.718 105.242 194.852 102.578 195.345 99.7832L201.254 100.825C201.336 100.357 201.023 99.909 200.554 99.8264L199.513 105.735ZM182.947 71.1968C182.454 73.9916 179.79 75.8573 176.995 75.3645L178.037 69.4556C177.568 69.373 177.121 69.6864 177.038 70.1549L182.947 71.1968ZM178.779 65.2447C181.574 65.7375 183.44 68.4019 182.947 71.1968L177.038 70.1549C176.955 70.6234 177.269 71.0709 177.737 71.1535L178.779 65.2447ZM172.827 69.4124C173.32 66.6175 175.984 64.7519 178.779 65.2447L177.737 71.1535C178.206 71.2361 178.653 70.9228 178.736 70.4543L172.827 69.4124ZM176.995 75.3645C174.2 74.8717 172.334 72.2072 172.827 69.4124L178.736 70.4543C178.819 69.9858 178.505 69.5382 178.037 69.4556L176.995 75.3645ZM163.877 66.2453C166.672 66.7381 168.537 69.4026 168.045 72.1974L162.136 71.1555C162.053 71.624 162.366 72.0716 162.835 72.1542L163.877 66.2453ZM157.925 70.413C158.418 67.6182 161.082 65.7525 163.877 66.2453L162.835 72.1542C163.303 72.2368 163.751 71.9235 163.834 71.4549L157.925 70.413ZM162.092 76.3651C159.298 75.8723 157.432 73.2079 157.925 70.413L163.834 71.4549C163.916 70.9864 163.603 70.5389 163.134 70.4563L162.092 76.3651ZM168.045 72.1974C167.552 74.9923 164.887 76.8579 162.092 76.3651L163.134 70.4563C162.666 70.3737 162.218 70.687 162.136 71.1555L168.045 72.1974ZM155.973 55.6215C158.768 56.1143 160.634 58.7787 160.141 61.5736L154.232 60.5317C154.15 61.0002 154.463 61.4477 154.931 61.5303L155.973 55.6215ZM150.021 59.7892C150.514 56.9943 153.178 55.1287 155.973 55.6215L154.931 61.5303C155.4 61.6129 155.847 61.2996 155.93 60.8311L150.021 59.7892ZM154.189 65.7413C151.394 65.2485 149.528 62.584 150.021 59.7892L155.93 60.8311C156.013 60.3625 155.699 59.915 155.231 59.8324L154.189 65.7413ZM160.141 61.5736C159.648 64.3684 156.984 66.2341 154.189 65.7413L155.231 59.8324C154.762 59.7498 154.315 60.0632 154.232 60.5317L160.141 61.5736ZM144.536 65.0364C147.331 65.5292 149.197 68.1936 148.704 70.9885L142.795 69.9466C142.713 70.4151 143.026 70.8626 143.495 70.9452L144.536 65.0364ZM138.584 69.2041C139.077 66.4093 141.742 64.5436 144.536 65.0364L143.495 70.9452C143.963 71.0279 144.411 70.7145 144.493 70.246L138.584 69.2041ZM142.752 75.1562C139.957 74.6634 138.092 71.9989 138.584 69.2041L144.493 70.246C144.576 69.7775 144.262 69.33 143.794 69.2473L142.752 75.1562ZM148.704 70.9885C148.211 73.7833 145.547 75.649 142.752 75.1562L143.794 69.2473C143.325 69.1647 142.878 69.4781 142.795 69.9466L148.704 70.9885ZM125.554 59.5891C126.047 56.7942 128.711 54.9286 131.506 55.4214L130.464 61.3302C130.933 61.4128 131.38 61.0995 131.463 60.631L125.554 59.5891ZM129.722 65.5412C126.927 65.0484 125.061 62.3839 125.554 59.5891L131.463 60.631C131.545 60.1624 131.232 59.7149 130.763 59.6323L129.722 65.5412ZM135.674 61.3735C135.181 64.1683 132.516 66.034 129.722 65.5412L130.763 59.6323C130.295 59.5497 129.847 59.863 129.765 60.3316L135.674 61.3735ZM131.506 55.4214C134.314 55.9165 136.161 58.6068 135.674 61.3735L129.765 60.3316C129.682 60.8014 129.982 61.2452 130.464 61.3302L131.506 55.4214ZM95.1952 82.1241C95.688 79.3293 98.3524 77.4636 101.147 77.9564L100.105 83.8653C100.574 83.9479 101.021 83.6345 101.104 83.166L95.1952 82.1241ZM99.3629 88.0762C96.568 87.5834 94.7024 84.9189 95.1952 82.1241L101.104 83.166C101.187 82.6975 100.873 82.25 100.405 82.1673L99.3629 88.0762ZM105.315 83.9085C104.822 86.7034 102.158 88.569 99.3629 88.0762L100.405 82.1673C99.9362 82.0847 99.4887 82.3981 99.4061 82.8666L105.315 83.9085ZM101.147 77.9564C103.942 78.4492 105.808 81.1137 105.315 83.9085L99.4061 82.8666C99.3235 83.3351 99.6368 83.7826 100.105 83.8653L101.147 77.9564ZM96.1811 97.0238C96.6739 94.229 99.3384 92.3634 102.133 92.8562L101.091 98.765C101.56 98.8476 102.007 98.5343 102.09 98.0657L96.1811 97.0238ZM100.349 102.976C97.554 102.483 95.6883 99.8187 96.1811 97.0238L102.09 98.0657C102.173 97.5972 101.859 97.1497 101.391 97.0671L100.349 102.976ZM106.301 98.8082C105.808 101.603 103.144 103.469 100.349 102.976L101.391 97.0671C100.922 96.9845 100.475 97.2978 100.392 97.7664L106.301 98.8082ZM102.133 92.8562C104.928 93.349 106.794 96.0134 106.301 98.8082L100.392 97.7664C100.309 98.2349 100.623 98.6824 101.091 98.765L102.133 92.8562ZM91.0125 105.812C91.0112 105.732 90.9805 105.641 90.9148 105.562C90.8533 105.489 90.7803 105.448 90.7002 105.434L91.7421 99.5255C94.8225 100.069 96.9658 102.743 97.0117 105.719L91.0125 105.812ZM112.735 112.113L93.4912 108.72L94.5331 102.811L113.777 106.204L112.735 112.113ZM117.667 101.42L116.21 109.68L110.301 108.638L111.758 100.378L117.667 101.42ZM104.927 96.1269L115.233 97.9442L114.191 103.853L103.885 102.036L104.927 96.1269ZM101.178 98.2744C101.26 98.289 101.346 98.275 101.428 98.2273C101.514 98.1773 101.567 98.1075 101.591 98.0426L107.22 100.12C106.172 102.961 103.202 104.724 100.136 104.183L101.178 98.2744ZM100.87 97.8355C100.834 98.0443 100.969 98.2376 101.178 98.2744L100.136 104.183C96.6638 103.571 94.3494 100.266 94.9616 96.7937L100.87 97.8355ZM101.309 97.5282C101.101 97.4914 100.907 97.6268 100.87 97.8355L94.9616 96.7937C95.5739 93.3215 98.8791 91.0071 102.351 91.6194L101.309 97.5282ZM101.621 97.8778C101.621 97.8203 101.598 97.7392 101.532 97.6606C101.47 97.5858 101.392 97.5428 101.309 97.5282L102.351 91.6194C105.411 92.1588 107.603 94.8244 107.621 97.8408L101.621 97.8778ZM114.407 102.631L104.1 100.814L105.142 94.9049L115.449 96.7222L114.407 102.631ZM119.136 93.0861L117.882 100.198L111.973 99.1557L113.227 92.0442L119.136 93.0861ZM105.307 87.6013L116.703 89.6107L115.661 95.5195L104.265 93.5101L105.307 87.6013ZM104.102 84.3492L107.243 88.835L102.328 92.2764L99.1872 87.7906L104.102 84.3492ZM100.177 83.3721C100.257 83.3862 100.325 83.375 100.387 83.3461L102.902 88.7937C101.775 89.3141 100.469 89.5161 99.1352 89.2809L100.177 83.3721ZM99.8698 82.9332C99.833 83.142 99.9684 83.3353 100.177 83.3721L99.1352 89.2809C95.6631 88.6687 93.3488 85.3634 93.961 81.8913L99.8698 82.9332ZM100.309 82.6259C100.1 82.5891 99.9066 82.7244 99.8698 82.9332L93.961 81.8913C94.5732 78.4192 97.8784 76.1048 101.351 76.717L100.309 82.6259ZM100.616 83.0648C100.653 82.856 100.517 82.6627 100.309 82.6259L101.351 76.717C104.823 77.3293 107.137 80.6345 106.525 84.1067L100.616 83.0648ZM100.493 83.2808C100.578 83.1932 100.607 83.1172 100.616 83.0648L106.525 84.1067C106.29 85.4382 105.649 86.5801 104.806 87.4522L100.493 83.2808ZM103.042 91.1574L100.192 87.0872L105.107 83.6458L107.957 87.7159L103.042 91.1574ZM115.859 94.3096L104.978 92.391L106.02 86.4822L116.901 88.4008L115.859 94.3096ZM119.757 89.4762L119.334 91.8761L113.425 90.8342L113.849 88.4343L119.757 89.4762ZM120.874 87.7281C120.27 88.1573 119.882 88.7679 119.757 89.4762L113.849 88.4343C114.253 86.139 115.537 84.1598 117.398 82.8374L120.874 87.7281ZM127.732 82.9257L120.856 87.7402L117.415 82.8253L124.291 78.0107L127.732 82.9257ZM129.739 82.4867C129.014 82.3587 128.321 82.5134 127.732 82.9257L124.291 78.0107C126.196 76.6767 128.504 76.1762 130.781 76.5778L129.739 82.4867ZM132.139 82.9099L129.739 82.4867L130.781 76.5778L133.181 77.001L132.139 82.9099ZM137.788 68.1528L135.615 80.4764L129.706 79.4345L131.879 67.1109L137.788 68.1528ZM134.441 61.841L137.291 65.9111L132.376 69.3525L129.526 65.2824L134.441 61.841ZM130.516 60.8639C130.596 60.878 130.663 60.8668 130.726 60.8379L133.241 66.2855C132.113 66.8058 130.808 67.0079 129.474 66.7727L130.516 60.8639ZM130.209 60.425C130.172 60.6338 130.307 60.8271 130.516 60.8639L129.474 66.7727C126.002 66.1605 123.688 62.8553 124.3 59.3831L130.209 60.425ZM130.68 60.1082C130.589 60.0921 130.479 60.1107 130.374 60.1833C130.272 60.2541 130.223 60.3421 130.209 60.425L124.3 59.3831C124.916 55.8858 128.289 53.5941 131.721 54.1993L130.68 60.1082ZM130.987 60.547C131.024 60.3383 130.888 60.145 130.68 60.1082L131.721 54.1993C135.194 54.8115 137.508 58.1168 136.896 61.5889L130.987 60.547ZM130.864 60.7631C130.948 60.6755 130.978 60.5995 130.987 60.547L136.896 61.5889C136.661 62.9205 136.02 64.0623 135.176 64.9345L130.864 60.7631ZM133.704 69.0553L130.563 64.5695L135.477 61.128L138.618 65.6138L133.704 69.0553ZM130.945 79.6378L133.207 66.8136L139.115 67.8555L136.854 80.6797L130.945 79.6378ZM140.49 84.3672L133.379 83.1132L134.421 77.2044L141.532 78.4583L140.49 84.3672ZM145.404 73.7768L143.966 81.9337L138.057 80.8918L139.495 72.7349L145.404 73.7768ZM143.271 70.0305C143.241 70.2013 143.338 70.3842 143.514 70.4511L141.385 76.0606C138.573 74.9935 136.821 72.057 137.362 68.9886L143.271 70.0305ZM143.71 69.7232C143.501 69.6864 143.308 69.8217 143.271 70.0305L137.362 68.9886C137.975 65.5165 141.28 63.2021 144.752 63.8143L143.71 69.7232ZM144.017 70.1621C144.054 69.9533 143.919 69.76 143.71 69.7232L144.752 63.8143C148.224 64.4266 150.538 67.7318 149.926 71.204L144.017 70.1621ZM143.668 70.474C143.725 70.4737 143.806 70.4512 143.885 70.3852C143.96 70.3224 144.003 70.2448 144.017 70.1621L149.926 71.204C149.387 74.2632 146.721 76.4553 143.705 76.4739L143.668 70.474ZM139.291 81.1246L140.732 72.953L146.641 73.9949L145.2 82.1665L139.291 81.1246ZM149.984 86.0564L141.724 84.6L142.766 78.6911L151.026 80.1476L149.984 86.0564ZM156.856 64.3645L153.46 83.6229L147.551 82.581L150.947 63.3226L156.856 64.3645ZM154.723 60.6182C154.693 60.7889 154.789 60.9719 154.966 61.0388L152.837 66.6483C150.025 65.5811 148.273 62.6447 148.814 59.5763L154.723 60.6182ZM155.162 60.3109C154.953 60.2741 154.76 60.4094 154.723 60.6182L148.814 59.5763C149.426 56.1042 152.731 53.7898 156.204 54.402L155.162 60.3109ZM155.454 60.7472C155.494 60.5213 155.353 60.3447 155.162 60.3109L156.204 54.402C159.693 55.0173 161.972 58.334 161.363 61.7891L155.454 60.7472ZM155.105 61.0591C155.162 61.0588 155.243 61.0363 155.322 60.9703C155.397 60.9074 155.44 60.8299 155.454 60.7472L161.363 61.7891C160.824 64.8483 158.158 67.0404 155.142 67.059L155.105 61.0591ZM148.776 82.7818L152.169 63.5381L158.078 64.58L154.684 83.8237L148.776 82.7818ZM159.469 87.7136L151.209 86.2572L152.251 80.3483L160.511 81.8048L159.469 87.7136ZM164.762 74.9736L162.944 85.2801L157.035 84.2382L158.853 73.9317L164.762 74.9736ZM162.629 71.2273C162.599 71.3981 162.695 71.581 162.872 71.6479L160.743 77.2575C157.931 76.1903 156.179 73.2539 156.72 70.1854L162.629 71.2273ZM163.068 70.92C162.859 70.8832 162.666 71.0186 162.629 71.2273L156.72 70.1854C157.332 66.7133 160.638 64.3989 164.11 65.0112L163.068 70.92ZM163.375 71.3589C163.412 71.1501 163.277 70.9568 163.068 70.92L164.11 65.0112C167.582 65.6234 169.896 68.9287 169.284 72.4008L163.375 71.3589ZM163.025 71.6708C163.083 71.6705 163.164 71.648 163.243 71.582C163.317 71.5192 163.36 71.4416 163.375 71.3589L169.284 72.4008C168.744 75.46 166.079 77.6521 163.062 77.6707L163.025 71.6708ZM158.272 84.4563L160.09 74.1498L165.998 75.1917L164.181 85.4982L158.272 84.4563ZM167.817 89.1856L160.706 87.9317L161.748 82.0228L168.859 83.2768L167.817 89.1856ZM173.302 75.3561L171.293 86.7522L165.384 85.7103L167.393 74.3142L173.302 75.3561ZM176.554 74.1516L172.068 77.2926L168.627 72.3777L173.113 69.2367L176.554 74.1516ZM177.531 70.2267C177.517 70.3065 177.528 70.3743 177.557 70.4369L172.11 72.9515C171.589 71.8242 171.387 70.5184 171.622 69.1848L177.531 70.2267ZM177.97 69.9193C177.761 69.8825 177.568 70.0179 177.531 70.2267L171.622 69.1848C172.235 65.7126 175.54 63.3983 179.012 64.0105L177.97 69.9193ZM178.277 70.3582C178.314 70.1495 178.179 69.9562 177.97 69.9193L179.012 64.0105C182.484 64.6227 184.798 67.928 184.186 71.4001L178.277 70.3582ZM177.839 70.6655C178.047 70.7024 178.241 70.567 178.277 70.3582L184.186 71.4001C183.574 74.8722 180.269 77.1866 176.797 76.5744L177.839 70.6655ZM177.622 70.5424C177.71 70.6271 177.786 70.6563 177.839 70.6655L176.797 76.5744C175.465 76.3396 174.323 75.6987 173.451 74.8551L177.622 70.5424ZM169.746 73.0912L173.816 70.2413L177.258 75.1562L173.187 78.0061L169.746 73.0912ZM166.594 85.9084L168.512 75.0277L174.421 76.0696L172.503 86.9503L166.594 85.9084ZM171.427 89.807L169.027 89.3838L170.069 83.4749L172.469 83.8981L171.427 89.807ZM173.175 90.9231C172.746 90.3192 172.135 89.9319 171.427 89.807L172.469 83.8981C174.764 84.3028 176.744 85.5867 178.066 87.4474L173.175 90.9231ZM177.978 97.7819L173.163 90.906L178.078 87.4645L182.893 94.3404L177.978 97.7819ZM178.417 99.789C178.545 99.063 178.39 98.3707 177.978 97.7819L182.893 94.3404C184.227 96.2456 184.727 98.5533 184.325 100.831L178.417 99.789ZM177.993 102.189L178.417 99.789L184.325 100.831L183.902 103.231L177.993 102.189ZM192.751 107.837L180.427 105.664L181.469 99.7555L193.792 101.928L192.751 107.837ZM199.047 104.527L194.982 107.348L191.561 102.418L195.626 99.5976L199.047 104.527ZM200.034 100.595C200.02 100.675 200.031 100.742 200.06 100.805L194.613 103.32C194.092 102.192 193.89 100.887 194.125 99.553L200.034 100.595ZM200.473 100.288C200.264 100.251 200.071 100.386 200.034 100.595L194.125 99.553C194.738 96.0809 198.043 93.7665 201.515 94.3787L200.473 100.288ZM200.78 100.726C200.817 100.518 200.682 100.324 200.473 100.288L201.515 94.3787C204.987 94.991 207.301 98.2962 206.689 101.768L200.78 100.726ZM200.342 101.034C200.55 101.071 200.744 100.935 200.78 100.726L206.689 101.768C206.077 105.24 202.772 107.555 199.3 106.943L200.342 101.034ZM200.125 100.911C200.213 100.995 200.289 101.025 200.342 101.034L199.3 106.943C197.968 106.708 196.826 106.067 195.954 105.223L200.125 100.911ZM191.833 103.75L196.319 100.609L199.761 105.524L195.275 108.665L191.833 103.75ZM181.251 100.992L194.075 103.254L193.033 109.162L180.209 106.901L181.251 100.992ZM176.521 110.537L177.775 103.426L183.684 104.468L182.43 111.579L176.521 110.537ZM187.126 115.453L178.955 114.013L179.997 108.104L188.168 109.545L187.126 115.453ZM190.873 113.321C190.702 113.291 190.519 113.387 190.452 113.564L184.843 111.434C185.91 108.623 188.846 106.871 191.915 107.412L190.873 113.321ZM191.18 113.76C191.217 113.551 191.082 113.357 190.873 113.321L191.915 107.412C195.387 108.024 197.701 111.329 197.089 114.801L191.18 113.76ZM190.741 114.067C190.95 114.104 191.143 113.968 191.18 113.76L197.089 114.801C196.477 118.274 193.171 120.588 189.699 119.976L190.741 114.067ZM190.432 113.708C190.432 113.777 190.458 113.861 190.522 113.937C190.583 114.01 190.659 114.052 190.741 114.067L189.699 119.976C186.633 119.435 184.446 116.762 184.432 113.735L190.432 113.708ZM179.781 109.326L187.953 110.767L186.911 116.676L178.739 115.235L179.781 109.326ZM174.849 120.019L176.306 111.759L182.215 112.801L180.758 121.061L174.849 120.019ZM196.527 126.888L177.283 123.495L178.325 117.586L197.569 120.979L196.527 126.888ZM200.273 124.755C200.102 124.725 199.919 124.821 199.852 124.998L194.243 122.869C195.31 120.057 198.246 118.305 201.315 118.846L200.273 124.755ZM200.58 125.194C200.617 124.985 200.482 124.792 200.273 124.755L201.315 118.846C204.787 119.458 207.101 122.764 206.489 126.236L200.58 125.194ZM200.141 125.501C200.35 125.538 200.543 125.403 200.58 125.194L206.489 126.236C205.877 129.708 202.572 132.022 199.1 131.41L200.141 125.501ZM199.832 125.142C199.832 125.211 199.858 125.295 199.922 125.371C199.983 125.444 200.059 125.487 200.141 125.501L199.1 131.41C196.033 130.869 193.846 128.197 193.832 125.169L199.832 125.142ZM178.109 118.808L197.353 122.201L196.311 128.11L177.067 124.717L178.109 118.808ZM173.178 129.501L174.634 121.241L180.543 122.283L179.086 130.543L173.178 129.501ZM185.918 134.794L175.611 132.977L176.653 127.068L186.959 128.885L185.918 134.794ZM189.666 132.646C189.587 132.632 189.506 132.645 189.426 132.692C189.34 132.742 189.276 132.819 189.243 132.904L183.634 130.775C184.694 127.981 187.621 126.193 190.708 126.737L189.666 132.646ZM189.974 133.085C190.011 132.876 189.875 132.683 189.666 132.646L190.708 126.737C194.18 127.35 196.495 130.655 195.883 134.127L189.974 133.085ZM189.535 133.393C189.744 133.429 189.937 133.294 189.974 133.085L195.883 134.127C195.27 137.599 191.965 139.914 188.493 139.301L189.535 133.393ZM189.223 133.043C189.223 133.1 189.246 133.182 189.312 133.26C189.375 133.335 189.452 133.378 189.535 133.393L188.493 139.301C185.434 138.762 183.242 136.096 183.223 133.08L189.223 133.043ZM176.437 128.29L186.744 130.107L185.702 136.016L175.396 134.199L176.437 128.29ZM171.708 137.835L172.962 130.723L178.871 131.765L177.617 138.877L171.708 137.835ZM185.538 143.319L174.142 141.31L175.183 135.401L186.58 137.411L185.538 143.319ZM186.742 146.572L183.601 142.086L188.516 138.644L191.657 143.13L186.742 146.572ZM190.667 147.549C190.587 147.535 190.52 147.546 190.457 147.575L187.942 142.127C189.07 141.607 190.375 141.405 191.709 141.64L190.667 147.549ZM190.974 147.988C191.011 147.779 190.876 147.585 190.667 147.549L191.709 141.64C195.181 142.252 197.495 145.557 196.883 149.029L190.974 147.988ZM190.536 148.295C190.744 148.332 190.938 148.196 190.974 147.988L196.883 149.029C196.271 152.502 192.966 154.816 189.494 154.204L190.536 148.295ZM190.228 147.856C190.191 148.065 190.327 148.258 190.536 148.295L189.494 154.204C186.022 153.591 183.707 150.286 184.319 146.814L190.228 147.856ZM190.351 147.64C190.267 147.728 190.237 147.803 190.228 147.856L184.319 146.814C184.554 145.483 185.195 144.341 186.039 143.469L190.351 147.64ZM187.803 139.763L190.652 143.834L185.738 147.275L182.888 143.205L187.803 139.763ZM174.985 136.611L185.866 138.53L184.824 144.439L173.943 142.52L174.985 136.611ZM171.087 141.445L171.51 139.045L177.419 140.087L176.996 142.486L171.087 141.445ZM169.971 143.193C170.575 142.763 170.962 142.153 171.087 141.445L176.996 142.486C176.591 144.782 175.307 146.761 173.446 148.083L169.971 143.193ZM163.112 147.995L169.988 143.181L173.429 148.095L166.553 152.91L163.112 147.995ZM161.105 148.434C161.831 148.562 162.523 148.407 163.112 147.995L166.553 152.91C164.648 154.244 162.34 154.745 160.063 154.343L161.105 148.434ZM158.705 148.011L161.105 148.434L160.063 154.343L157.663 153.92L158.705 148.011ZM153.056 162.768L155.229 150.444L161.138 151.486L158.965 163.81L153.056 162.768ZM156.354 169.083L153.539 164.989L158.483 161.589L161.298 165.684L156.354 169.083ZM160.294 170.081C160.214 170.067 160.146 170.078 160.084 170.107L157.569 164.66C158.696 164.139 160.002 163.937 161.336 164.172L160.294 170.081ZM160.601 170.52C160.638 170.311 160.502 170.118 160.294 170.081L161.336 164.172C164.808 164.784 167.122 168.09 166.51 171.562L160.601 170.52ZM160.162 170.827C160.371 170.864 160.564 170.729 160.601 170.52L166.51 171.562C165.898 175.034 162.592 177.348 159.12 176.736L160.162 170.827ZM159.855 170.388C159.818 170.597 159.953 170.79 160.162 170.827L159.12 176.736C155.648 176.124 153.334 172.819 153.946 169.347L159.855 170.388ZM159.978 170.172C159.893 170.26 159.864 170.336 159.855 170.388L153.946 169.347C154.181 168.015 154.822 166.873 155.665 166.001L159.978 170.172ZM157.138 161.88L160.279 166.366L155.364 169.807L152.223 165.322L157.138 161.88ZM159.896 151.298L157.635 164.122L151.726 163.08L153.987 150.256L159.896 151.298ZM150.351 146.568L157.463 147.822L156.421 153.731L149.309 152.477L150.351 146.568ZM145.435 157.173L146.876 149.002L152.785 150.044L151.344 158.215L145.435 157.173ZM147.568 160.92C147.598 160.749 147.501 160.566 147.325 160.499L149.454 154.89C152.266 155.957 154.018 158.893 153.477 161.962L147.568 160.92ZM147.129 161.227C147.338 161.264 147.531 161.128 147.568 160.92L153.477 161.962C152.865 165.434 149.559 167.748 146.087 167.136L147.129 161.227ZM146.822 160.788C146.785 160.997 146.92 161.19 147.129 161.227L146.087 167.136C142.615 166.524 140.301 163.218 140.913 159.746L146.822 160.788ZM147.199 160.476C147.119 160.477 147.028 160.508 146.95 160.574C146.876 160.635 146.836 160.708 146.822 160.788L140.913 159.746C141.456 156.666 144.13 154.523 147.106 154.477L147.199 160.476ZM151.548 149.826L150.107 157.997L144.198 156.955L145.639 148.784L151.548 149.826ZM140.855 144.894L149.115 146.35L148.073 152.259L139.813 150.803L140.855 144.894ZM133.986 166.571L137.379 147.327L143.288 148.369L139.895 167.613L133.986 166.571ZM136.119 170.317C136.149 170.147 136.052 169.964 135.876 169.897L138.005 164.287C140.817 165.354 142.569 168.291 142.028 171.359L136.119 170.317ZM135.68 170.625C135.889 170.661 136.082 170.526 136.119 170.317L142.028 171.359C141.415 174.831 138.11 177.146 134.638 176.533L135.68 170.625ZM135.373 170.186C135.336 170.394 135.471 170.588 135.68 170.625L134.638 176.533C131.166 175.921 128.852 172.616 129.464 169.144L135.373 170.186ZM135.722 169.874C135.656 169.874 135.575 169.899 135.502 169.96C135.435 170.017 135.389 170.091 135.373 170.186L129.464 169.144C130.007 166.062 132.677 163.892 135.685 163.874L135.722 169.874ZM142.051 148.151L138.658 167.395L132.749 166.353L136.142 147.109L142.051 148.151ZM131.358 143.219L139.618 144.676L138.576 150.585L130.316 149.128L131.358 143.219ZM126.065 155.959L127.883 145.653L133.791 146.695L131.974 157.001L126.065 155.959ZM128.198 159.706C128.228 159.535 128.132 159.352 127.955 159.285L130.084 153.675C132.896 154.743 134.648 157.679 134.107 160.747L128.198 159.706ZM127.759 160.013C127.968 160.05 128.161 159.914 128.198 159.706L134.107 160.747C133.495 164.22 130.189 166.534 126.717 165.922L127.759 160.013ZM127.452 159.574C127.415 159.783 127.55 159.976 127.759 160.013L126.717 165.922C123.245 165.309 120.931 162.004 121.543 158.532L127.452 159.574ZM127.829 159.262C127.75 159.263 127.658 159.294 127.58 159.359C127.506 159.421 127.466 159.494 127.452 159.574L121.543 158.532C122.086 155.452 124.761 153.308 127.737 153.262L127.829 159.262ZM132.555 146.477L130.737 156.783L124.828 155.741L126.646 145.435L132.555 146.477ZM123.01 141.747L130.121 143.001L129.079 148.91L121.968 147.656L123.01 141.747ZM117.525 155.577L119.534 144.181L125.443 145.223L123.434 156.619L117.525 155.577ZM114.273 156.781L118.759 153.64L122.2 158.555L117.714 161.696L114.273 156.781ZM113.296 160.706C113.31 160.626 113.299 160.559 113.27 160.496L118.717 157.981C119.238 159.109 119.44 160.414 119.205 161.748L113.296 160.706ZM112.857 161.014C113.057 161.049 113.26 160.909 113.296 160.706L119.205 161.748C118.596 165.197 115.296 167.536 111.815 166.922L112.857 161.014ZM112.55 160.575C112.513 160.783 112.648 160.977 112.857 161.014L111.815 166.922C108.343 166.31 106.028 163.005 106.641 159.533L112.55 160.575ZM112.988 160.267C112.78 160.231 112.586 160.366 112.55 160.575L106.641 159.533C107.253 156.061 110.558 153.746 114.03 154.358L112.988 160.267ZM113.204 160.39C113.117 160.306 113.041 160.277 112.988 160.267L114.03 154.358C115.362 154.593 116.504 155.234 117.376 156.078L113.204 160.39ZM121.081 157.842L117.011 160.692L113.569 155.777L117.64 152.927L121.081 157.842ZM124.233 145.024L122.315 155.905L116.406 154.863L118.324 143.983L124.233 145.024ZM119.4 141.126L121.8 141.549L120.758 147.458L118.358 147.035L119.4 141.126ZM117.652 140.01C118.079 140.61 118.702 141.003 119.4 141.126L118.358 147.035C116.081 146.633 114.086 145.35 112.761 143.486L117.652 140.01ZM112.849 133.151L117.664 140.027L112.749 143.468L107.934 136.592L112.849 133.151ZM112.41 131.144C112.282 131.87 112.437 132.562 112.849 133.151L107.934 136.592C106.6 134.687 106.1 132.38 106.501 130.102L112.41 131.144ZM112.833 128.744L112.41 131.144L106.501 130.102L106.925 127.702L112.833 128.744ZM98.0764 123.096L110.4 125.269L109.358 131.177L97.0345 129.004L98.0764 123.096ZM91.7646 126.442L95.8347 123.593L99.2762 128.507L95.206 131.357L91.7646 126.442ZM90.7875 130.367C90.8016 130.288 90.7904 130.22 90.7615 130.157L96.2091 127.643C96.7295 128.77 96.9315 130.076 96.6964 131.409L90.7875 130.367ZM90.3486 130.675C90.5574 130.712 90.7507 130.576 90.7875 130.367L96.6964 131.409C96.0841 134.881 92.7789 137.196 89.3068 136.584L90.3486 130.675ZM90.0413 130.236C90.006 130.436 90.146 130.639 90.3486 130.675L89.3068 136.584C85.8579 135.975 83.5187 132.675 84.1325 129.194L90.0413 130.236ZM90.4802 129.929C90.2714 129.892 90.0781 130.027 90.0413 130.236L84.1325 129.194C84.7447 125.722 88.05 123.407 91.5221 124.02L90.4802 129.929ZM90.6962 130.052C90.6086 129.967 90.5327 129.938 90.4802 129.929L91.5221 124.02C92.8536 124.254 93.9955 124.895 94.8676 125.739L90.6962 130.052ZM98.9884 127.212L94.5026 130.353L91.0612 125.438L95.547 122.297L98.9884 127.212ZM109.571 129.97L96.7468 127.709L97.7887 121.8L110.613 124.061L109.571 129.97ZM114.3 120.425L113.046 127.537L107.138 126.495L108.391 119.383L114.3 120.425ZM103.695 115.509L111.867 116.95L110.825 122.859L102.653 121.418L103.695 115.509ZM99.9489 117.642C100.141 117.676 100.31 117.559 100.36 117.425L105.989 119.502C104.934 122.361 101.954 124.088 98.907 123.551L99.9489 117.642ZM99.6416 117.203C99.6048 117.412 99.7402 117.605 99.9489 117.642L98.907 123.551C95.4349 122.938 93.1206 119.633 93.7328 116.161L99.6416 117.203ZM100.081 116.895C99.8718 116.859 99.6784 116.994 99.6416 117.203L93.7328 116.161C94.345 112.689 97.6502 110.374 101.122 110.987L100.081 116.895ZM100.39 117.255C100.39 117.186 100.364 117.102 100.3 117.025C100.238 116.952 100.163 116.91 100.081 116.895L101.122 110.987C104.189 111.527 106.376 114.2 106.39 117.228L100.39 117.255ZM111.04 121.637L102.869 120.196L103.911 114.287L112.082 115.728L111.04 121.637ZM115.972 110.943L114.516 119.203L108.607 118.161L110.063 109.901L115.972 110.943ZM94.2951 104.075L113.539 107.468L112.497 113.377L93.2532 109.983L94.2951 104.075ZM90.5461 106.222C90.6285 106.237 90.714 106.223 90.7966 106.175C90.8828 106.125 90.9357 106.055 90.9597 105.99L96.5886 108.068C95.5402 110.908 92.5706 112.672 89.5042 112.131L90.5461 106.222ZM90.2388 105.783C90.202 105.992 90.3374 106.185 90.5461 106.222L89.5042 112.131C86.0321 111.519 83.7178 108.213 84.33 104.741L90.2388 105.783ZM90.7002 105.434C90.6177 105.42 90.5202 105.435 90.4199 105.506C90.3176 105.579 90.2572 105.679 90.2388 105.783L84.33 104.741C84.9363 101.303 88.2365 98.9073 91.7421 99.5255L90.7002 105.434ZM126.579 126.079C125.893 125.054 125.59 123.785 125.816 122.501L131.725 123.543C131.78 123.231 131.699 122.942 131.566 122.743L126.579 126.079ZM128.968 129.492L126.615 126.132L131.53 122.69L133.883 126.05L128.968 129.492ZM132.106 131.484C130.831 131.259 129.708 130.549 128.968 129.492L133.883 126.05C133.7 125.79 133.422 125.624 133.148 125.575L132.106 131.484ZM152.454 135.072L132.106 131.484L133.148 125.575L153.496 129.163L152.454 135.072ZM156.032 134.309C155.007 134.995 153.738 135.298 152.454 135.072L153.496 129.163C153.184 129.108 152.895 129.189 152.696 129.322L156.032 134.309ZM159.445 131.921L156.085 134.273L152.644 129.358L156.004 127.006L159.445 131.921ZM161.437 128.782C161.217 130.03 160.513 131.173 159.445 131.921L156.004 127.006C155.733 127.196 155.577 127.464 155.529 127.74L161.437 128.782ZM165.023 108.449L161.437 128.782L155.529 127.74L159.114 107.407L165.023 108.449ZM164.26 104.871C164.946 105.896 165.249 107.165 165.023 108.449L159.114 107.407C159.059 107.719 159.14 108.008 159.273 108.207L164.26 104.871ZM161.871 101.458L164.224 104.818L159.309 108.259L156.956 104.899L161.871 101.458ZM158.733 99.4657C159.981 99.6857 161.124 100.39 161.871 101.458L156.957 104.899C157.146 105.17 157.415 105.326 157.691 105.375L158.733 99.4657ZM138.385 95.8778L158.733 99.4657L157.691 105.375L137.343 101.787L138.385 95.8778ZM134.807 96.6403C135.832 95.9545 137.101 95.6514 138.385 95.8778L137.343 101.787C137.655 101.842 137.944 101.76 138.143 101.627L134.807 96.6403ZM131.394 99.029L134.754 96.6763L138.195 101.591L134.835 103.944L131.394 99.029ZM129.402 102.168C129.622 100.92 130.326 99.7768 131.394 99.029L134.835 103.944C135.106 103.754 135.262 103.486 135.311 103.21L129.402 102.168ZM125.816 122.501L129.402 102.168L135.311 103.21L131.725 123.543L125.816 122.501ZM137.561 100.55C137.552 100.548 137.546 100.549 137.539 100.55C137.532 100.552 137.516 100.557 137.495 100.572L134.053 95.657C135.365 94.7383 136.991 94.3569 138.603 94.641L137.561 100.55ZM157.909 104.138L137.561 100.55L138.603 94.641L158.951 98.2289L157.909 104.138ZM157.964 104.181C157.948 104.159 157.935 104.15 157.929 104.145C157.923 104.142 157.918 104.139 157.909 104.138L158.951 98.2289C160.562 98.513 161.96 99.4276 162.879 100.74L157.964 104.181ZM160.316 107.541L157.964 104.181L162.879 100.74L165.231 104.1L160.316 107.541ZM160.338 107.608C160.34 107.599 160.34 107.593 160.338 107.586C160.336 107.579 160.332 107.563 160.316 107.541L165.231 104.1C166.15 105.412 166.531 107.038 166.247 108.649L160.338 107.608ZM156.751 127.956L160.338 107.608L166.247 108.649L162.659 128.997L156.751 127.956ZM156.707 128.01C156.729 127.995 156.739 127.982 156.743 127.976C156.747 127.97 156.749 127.964 156.751 127.956L162.659 128.997C162.375 130.609 161.461 132.006 160.149 132.925L156.707 128.01ZM153.347 130.363L156.707 128.01L160.149 132.925L156.789 135.278L153.347 130.363ZM153.281 130.385C153.29 130.387 153.296 130.386 153.302 130.385C153.31 130.383 153.325 130.378 153.347 130.363L156.789 135.278C155.476 136.197 153.85 136.578 152.239 136.294L153.281 130.385ZM132.933 126.797L153.281 130.385L152.239 136.294L131.891 132.706L132.933 126.797ZM132.878 126.754C132.893 126.776 132.906 126.785 132.912 126.79C132.918 126.793 132.924 126.796 132.933 126.797L131.891 132.706C130.28 132.422 128.882 131.507 127.963 130.195L132.878 126.754ZM130.525 123.394L132.878 126.754L127.963 130.195L125.61 126.835L130.525 123.394ZM130.503 123.327C130.502 123.336 130.502 123.342 130.503 123.349C130.505 123.356 130.51 123.372 130.525 123.394L125.61 126.835C124.692 125.523 124.31 123.897 124.594 122.286L130.503 123.327ZM134.088 102.994L130.503 123.327L124.594 122.286L128.18 101.952L134.088 102.994ZM134.132 102.939C134.11 102.955 134.1 102.968 134.096 102.974C134.092 102.98 134.09 102.985 134.088 102.994L128.18 101.952C128.464 100.341 129.378 98.9432 130.69 98.0245L134.132 102.939ZM137.501 100.568L134.138 102.935L130.684 98.0289L134.047 95.6615L137.501 100.568ZM117.301 131.991C117.405 131.403 117.272 130.786 116.922 130.286L112.007 133.728C111.439 132.916 111.221 131.92 111.392 130.949L117.301 131.991ZM113.855 134.43L113.826 134.424L114.868 128.516L114.897 128.521L113.855 134.43ZM124.675 90.3432L117.331 131.996L111.422 130.954L118.766 89.3013L124.675 90.3432ZM123.736 91.8154C124.235 91.4657 124.571 90.931 124.675 90.3432L118.766 89.3013C118.937 88.3306 119.483 87.4685 120.294 86.9005L123.736 91.8154ZM130.612 87.0009L123.736 91.8154L120.294 86.9005L127.17 82.0859L130.612 87.0009ZM128.907 87.38C129.495 87.4836 130.112 87.3506 130.612 87.0009L127.17 82.0859C127.982 81.5179 128.978 81.3 129.949 81.4711L128.907 87.38ZM170.56 94.7245L128.907 87.38L129.949 81.4711L171.602 88.8157L170.56 94.7245ZM169.088 93.7853C169.437 94.2846 169.972 94.6208 170.56 94.7245L171.602 88.8157C172.573 88.9868 173.435 89.5326 174.003 90.3437L169.088 93.7853ZM173.902 100.661L169.088 93.7852L174.003 90.3437L178.817 97.2197L173.902 100.661ZM173.523 98.9564C173.42 99.5443 173.553 100.162 173.902 100.661L178.817 97.2197C179.385 98.0308 179.603 99.0276 179.432 99.9983L173.523 98.9564ZM166.179 140.609L173.523 98.9564L179.432 99.9983L172.088 141.651L166.179 140.609ZM167.118 139.137C166.619 139.487 166.282 140.021 166.179 140.609L172.088 141.651C171.916 142.622 171.37 143.484 170.56 144.052L167.118 139.137ZM160.23 143.947L167.121 139.135L170.556 144.054L163.666 148.866L160.23 143.947ZM161.932 143.57C161.344 143.466 160.727 143.599 160.227 143.949L163.669 148.864C162.858 149.432 161.861 149.65 160.89 149.479L161.932 143.57ZM120.264 136.223L161.932 143.57L160.89 149.479L119.222 142.132L120.264 136.223ZM121.737 137.162C121.387 136.663 120.852 136.326 120.264 136.223L119.222 142.132C118.252 141.961 117.39 141.415 116.822 140.604L121.737 137.162ZM116.922 130.286L121.737 137.162L116.822 140.604L112.007 133.728L116.922 130.286ZM126.443 81.0467C127.508 80.3009 128.833 79.9839 130.155 80.217L129.113 86.1259C129.404 86.1772 129.685 86.1012 129.884 85.9617L126.443 81.0467ZM119.561 85.8782L126.44 81.0489L129.887 85.9595L123.009 90.7888L119.561 85.8782ZM117.529 89.0832C117.761 87.7678 118.502 86.6516 119.514 85.9117L123.055 90.7554C123.231 90.627 123.388 90.4099 123.438 90.1251L117.529 89.0832ZM110.188 130.721L117.529 89.0832L123.438 90.1251L116.096 131.763L110.188 130.721ZM111.003 134.431C110.223 133.318 109.965 131.986 110.188 130.721L116.096 131.763C116.138 131.53 116.091 131.237 115.918 130.99L111.003 134.431ZM115.817 141.307L111.003 134.431L115.917 130.99L120.732 137.866L115.817 141.307ZM119.024 143.342C117.709 143.11 116.593 142.369 115.853 141.357L120.696 137.816C120.568 137.64 120.351 137.483 120.066 137.433L119.024 143.342ZM160.677 150.686L119.024 143.342L120.066 137.433L161.719 144.777L160.677 150.686ZM164.387 149.871C163.274 150.651 161.941 150.909 160.677 150.686L161.719 144.777C161.486 144.736 161.193 144.783 160.945 144.956L164.387 149.871ZM171.263 145.057L164.387 149.871L160.945 144.956L167.821 140.142L171.263 145.057ZM173.312 141.852C173.079 143.174 172.328 144.311 171.263 145.057L167.821 140.142C167.622 140.281 167.455 140.519 167.403 140.81L173.312 141.852ZM180.657 100.199L173.312 141.852L167.403 140.81L174.748 99.1572L180.657 100.199ZM179.827 96.4868C180.573 97.552 180.89 98.877 180.657 100.199L174.748 99.1572C174.696 99.4486 174.773 99.7291 174.912 99.9283L179.827 96.4868ZM175.012 89.6109L179.827 96.4868L174.912 99.9283L170.097 93.0524L175.012 89.6109ZM171.808 87.5616C173.13 87.7947 174.266 88.5457 175.012 89.6109L170.097 93.0524C170.237 93.2516 170.475 93.419 170.766 93.4704L171.808 87.5616ZM130.155 80.217L171.808 87.5616L170.766 93.4704L129.113 86.1259L130.155 80.217ZM152.176 111.73L152.88 117.213L146.928 117.976L146.225 112.493L152.176 111.73ZM149.663 109.147L149.722 109.157L148.68 115.066L148.621 115.056L149.663 109.147ZM143.951 115.646L146.473 110.732L151.811 113.471L149.29 118.385L143.951 115.646ZM149.383 120.549L146.1 119.97L147.142 114.061L150.425 114.64L149.383 120.549ZM150.432 123.942L148.236 110.393L154.159 109.433L156.355 122.983L150.432 123.942ZM151.117 120.015L153.914 120.508L152.872 126.417L150.075 125.924L151.117 120.015ZM153.16 119.333L153.572 122.593L147.619 123.345L147.208 120.085L153.16 119.333ZM146.185 115.957L150.705 116.754L149.663 122.663L145.143 121.866L146.185 115.957ZM141.493 120.464L142.996 117.54L148.332 120.283L146.83 123.206L141.493 120.464ZM141.87 118.385L144.683 118.88L143.641 124.789L140.829 124.293L141.87 118.385ZM150.665 110.821L143.968 122.803L138.731 119.875L145.428 107.894L150.665 110.821ZM150.677 112.868L147.526 112.312L148.568 106.403L151.719 106.959L150.677 112.868ZM145.244 108.863L142.994 121.628L137.085 120.586L139.336 107.821L145.244 108.863ZM140.131 104.915L142.811 105.387L141.769 111.296L139.089 110.824L140.131 104.915ZM134.405 120.113L136.656 107.348L142.565 108.39L140.314 121.155L134.405 120.113ZM139.518 124.061L136.838 123.589L137.88 117.68L140.56 118.153L139.518 124.061Z" fill="url(#paint0_linear_2_20581)" mask="url(#path-1-outside-1_2_20581)"/>
<defs>
<linearGradient id="paint0_linear_2_20581" x1="118.17" y1="278.325" x2="166.199" y2="5.93896" gradientUnits="userSpaceOnUse">
<stop stop-color="#574F9A"/>
<stop offset="1" stop-color="#6CA8DC"/>
</linearGradient>
</defs>
</svg>
