<svg width="140" height="56" viewBox="0 0 140 56" fill="none" xmlns="http://www.w3.org/2000/svg">
<path d="M136.664 46.7888C135.749 46.7888 134.964 46.4687 134.308 45.8286C133.661 45.1794 133.337 44.4021 133.337 43.4969C133.337 42.6007 133.661 41.8326 134.308 41.1926C134.964 40.5525 135.749 40.2324 136.664 40.2324C137.551 40.2324 138.328 40.5525 138.993 41.1926C139.658 41.8326 139.991 42.6007 139.991 43.4969C139.991 44.1004 139.834 44.6536 139.52 45.1565C139.215 45.6503 138.813 46.0481 138.314 46.3498C137.815 46.6425 137.265 46.7888 136.664 46.7888Z" fill="#FDBCB4"/>
<path d="M119.977 46.8447C117.787 46.8447 115.901 46.4058 114.321 45.5279C112.75 44.641 111.54 43.3882 110.689 41.7697C109.839 40.142 109.414 38.2172 109.414 35.9952C109.414 33.828 109.839 31.9261 110.689 30.2893C111.54 28.6525 112.736 27.3769 114.28 26.4624C115.832 25.548 117.653 25.0908 119.741 25.0908C121.146 25.0908 122.453 25.3149 123.664 25.7629C124.884 26.2018 125.947 26.8648 126.852 27.7518C127.767 28.6387 128.479 29.7543 128.987 31.0985C129.495 32.4335 129.749 33.9972 129.749 35.7894V37.3942H111.771V33.7732H124.191C124.191 32.9319 124.006 32.1867 123.636 31.5374C123.267 30.8882 122.754 30.3807 122.098 30.0149C121.451 29.64 120.698 29.4526 119.838 29.4526C118.942 29.4526 118.147 29.6583 117.454 30.0698C116.77 30.4721 116.234 31.0162 115.846 31.702C115.458 32.3787 115.259 33.1331 115.25 33.9652V37.408C115.25 38.4504 115.444 39.3511 115.832 40.11C116.229 40.869 116.789 41.4542 117.509 41.8657C118.23 42.2772 119.085 42.4829 120.074 42.4829C120.73 42.4829 121.331 42.3915 121.876 42.2086C122.421 42.0257 122.888 41.7514 123.276 41.3856C123.664 41.0199 123.96 40.5718 124.163 40.0415L129.625 40.3981C129.347 41.6965 128.779 42.8304 127.92 43.7997C127.069 44.7598 125.97 45.5096 124.621 46.0492C123.281 46.5795 121.733 46.8447 119.977 46.8447Z" fill="#0778B1"/>
<path d="M95.6826 46.4323V25.3643H101.408V29.0402H101.629C102.017 27.7326 102.669 26.745 103.584 26.0775C104.499 25.4008 105.552 25.0625 106.744 25.0625C107.04 25.0625 107.359 25.0808 107.701 25.1174C108.043 25.1539 108.343 25.2042 108.602 25.2682V30.453C108.325 30.3707 107.941 30.2975 107.451 30.2335C106.962 30.1695 106.513 30.1375 106.107 30.1375C105.238 30.1375 104.462 30.3249 103.778 30.6999C103.103 31.0656 102.567 31.5777 102.17 32.2361C101.782 32.8944 101.588 33.6534 101.588 34.513V46.4323H95.6826Z" fill="#0778B1"/>
<path d="M58.1528 46.4323V25.3643H63.8778V29.0402H64.0996C64.4877 27.7326 65.1392 26.745 66.0541 26.0775C66.969 25.4008 68.0225 25.0625 69.2146 25.0625C69.5103 25.0625 69.8291 25.0808 70.1711 25.1174C70.513 25.1539 70.8133 25.2042 71.0721 25.2682V30.453C70.7948 30.3707 70.4113 30.2975 69.9215 30.2335C69.4318 30.1695 68.9836 30.1375 68.5769 30.1375C67.7083 30.1375 66.932 30.3249 66.2482 30.6999C65.5735 31.0656 65.0375 31.5777 64.6402 32.2361C64.252 32.8944 64.058 33.6534 64.058 34.513V46.4323H58.1528Z" fill="#0778B1"/>
<path d="M44.9167 46.8447C42.7266 46.8447 40.8413 46.4058 39.2611 45.5279C37.6901 44.641 36.4795 43.3882 35.6293 41.7697C34.7791 40.142 34.354 38.2172 34.354 35.9952C34.354 33.828 34.7791 31.9261 35.6293 30.2893C36.4795 28.6525 37.6762 27.3769 39.2195 26.4624C40.772 25.548 42.5926 25.0908 44.6811 25.0908C46.0857 25.0908 47.3934 25.3149 48.604 25.7629C49.8238 26.2018 50.8866 26.8648 51.7922 27.7518C52.7071 28.6387 53.4187 29.7543 53.9269 31.0985C54.4352 32.4335 54.6893 33.9972 54.6893 35.7894V37.3942H36.7105V33.7732H49.1307C49.1307 32.9319 48.9459 32.1867 48.5763 31.5374C48.2066 30.8882 47.6937 30.3807 47.0376 30.0149C46.3907 29.64 45.6375 29.4526 44.7781 29.4526C43.8817 29.4526 43.087 29.6583 42.3939 30.0698C41.71 30.4721 41.174 31.0162 40.7859 31.702C40.3978 32.3787 40.1991 33.1331 40.1898 33.9652V37.408C40.1898 38.4504 40.3839 39.3511 40.772 40.11C41.1694 40.869 41.7285 41.4542 42.4493 41.8657C43.1701 42.2772 44.025 42.4829 45.0138 42.4829C45.6699 42.4829 46.2706 42.3915 46.8158 42.2086C47.361 42.0257 47.8277 41.7514 48.2158 41.3856C48.604 41.0199 48.8997 40.5718 49.103 40.0415L54.5646 40.3981C54.2873 41.6965 53.719 42.8304 52.8596 43.7997C52.0094 44.7598 50.9097 45.5096 49.5604 46.0492C48.2205 46.5795 46.6726 46.8447 44.9167 46.8447Z" fill="#0778B1"/>
<path d="M0 46.4332V25.3651H5.62791V29.0822H5.87742C6.321 27.8478 7.0603 26.8739 8.09532 26.1607C9.13033 25.4474 10.3687 25.0908 11.8103 25.0908C13.2704 25.0908 14.5133 25.452 15.5391 26.1744C16.5649 26.8876 17.2488 27.8569 17.5907 29.0822H17.8125C18.2468 27.8752 19.0323 26.9105 20.169 26.1881C21.3149 25.4566 22.6687 25.0908 24.2305 25.0908C26.2174 25.0908 27.83 25.7172 29.0683 26.9699C30.3158 28.2135 30.9396 29.9784 30.9396 32.2644V46.4332H25.0483V33.4165C25.0483 32.2461 24.7341 31.3683 24.1057 30.783C23.4773 30.1978 22.6918 29.9052 21.7492 29.9052C20.6772 29.9052 19.8409 30.2435 19.2402 30.9202C18.6396 31.5877 18.3392 32.4701 18.3392 33.5674V46.4332H12.6143V33.2931C12.6143 32.2598 12.3139 31.4368 11.7133 30.8242C11.1218 30.2115 10.3409 29.9052 9.37061 29.9052C8.71448 29.9052 8.12304 30.0698 7.59629 30.399C7.07878 30.719 6.66755 31.1717 6.36259 31.7569C6.05763 32.333 5.90514 33.0096 5.90514 33.7869V46.4332H0Z" fill="#0778B1"/>
<path d="M81.6961 18.8046C82.4166 17.9415 83.0139 17.2192 83.6301 16.5157C86.0002 13.814 88.6262 11.3844 91.5272 9.25501C93.4327 7.85729 95.452 6.6378 97.5946 5.6153C98.0781 5.38078 98.4289 5.42769 98.6848 5.78415C98.9408 6.13124 98.9218 6.61904 98.59 6.94736C98.1634 7.36949 97.7178 7.76348 97.2723 8.15747C94.3049 10.831 91.6504 13.7671 89.3088 16.9941C87.0999 20.0334 85.1754 23.2416 83.412 26.5436C83.0423 27.2284 82.5493 27.6599 81.753 27.6599C80.9756 27.6599 80.4731 27.2284 80.1224 26.5718C78.1979 22.9883 76.2544 19.4049 74.3204 15.8215C73.9128 15.071 74.055 14.5363 74.7565 14.0485C74.9461 13.9172 75.1452 13.7765 75.3443 13.6452C75.9036 13.2887 76.4535 13.345 76.9275 13.814C78.3875 15.2868 79.838 16.7689 81.2885 18.2511C81.4212 18.3918 81.5255 18.5794 81.6961 18.8046Z" fill="#FDBCB4"/>
<path fill-rule="evenodd" clip-rule="evenodd" d="M85.4124 25.5244C85.116 26.0568 84.8243 26.5924 84.5366 27.1311L84.5339 27.1361C84.2954 27.5779 83.9678 28.0327 83.4903 28.3761C82.9913 28.735 82.4037 28.918 81.7528 28.918C80.3538 28.918 79.4887 28.0782 78.9982 27.1606C78.7463 26.6916 78.4941 26.2227 78.2417 25.7538C77.7197 25.9473 77.2226 26.1832 76.7503 26.4614C75.207 27.3758 74.0103 28.6514 73.1601 30.2882C72.3099 31.925 71.8848 33.827 71.8848 35.9941C71.8848 38.2162 72.3099 40.141 73.1601 41.7687C74.0103 43.3872 75.2209 44.6399 76.7919 45.5269C78.3721 46.4047 80.2573 46.8436 82.4475 46.8436C84.2033 46.8436 85.7512 46.5785 87.0912 46.0481C88.4404 45.5086 89.5401 44.7588 90.3903 43.7987C91.2498 42.8294 91.8181 41.6955 92.0953 40.397L86.6338 40.0404C86.4305 40.5708 86.1347 41.0188 85.7466 41.3846C85.3585 41.7504 84.8918 42.0247 84.3466 42.2076C83.8013 42.3905 83.2007 42.4819 82.5445 42.4819C81.5557 42.4819 80.7009 42.2762 79.9801 41.8647C79.2593 41.4532 78.7002 40.868 78.3028 40.109C77.9147 39.35 77.7206 38.4493 77.7206 37.4069V37.3932H92.2201V35.7884C92.2201 33.9962 91.966 32.4325 91.4577 31.0975C90.9494 29.7533 90.2378 28.6377 89.323 27.7507C88.4173 26.8637 87.3546 26.2008 86.1347 25.7619C85.8977 25.6741 85.6569 25.595 85.4124 25.5244ZM78.3167 31.701C77.9586 32.3252 77.7618 33.0156 77.7262 33.7721H86.6615C86.6615 32.9309 86.4767 32.1856 86.107 31.5364C85.7374 30.8872 85.2245 30.3797 84.5684 30.0139C83.9215 29.639 83.1683 29.4515 82.3089 29.4515C81.4125 29.4515 80.6177 29.6573 79.9246 30.0687C79.2408 30.4711 78.7048 31.0152 78.3167 31.701Z" fill="#0778B1"/>
</svg>
