<svg width="53" height="52" viewBox="0 0 53 52" fill="none" xmlns="http://www.w3.org/2000/svg">
<rect x="0.5" width="52" height="52" rx="25" fill="#AFDA02"/>
<path d="M26.5497 36.0002C25.2314 36.0029 23.9281 35.7197 22.7297 35.1702C22.5509 35.0835 22.4126 34.931 22.3436 34.7446C22.2747 34.5582 22.2805 34.3524 22.3597 34.1702C22.4445 33.9896 22.5969 33.8496 22.784 33.7804C22.971 33.7112 23.1778 33.7183 23.3597 33.8002C24.3346 34.2438 25.3913 34.4792 26.4624 34.4912C27.5334 34.5033 28.5951 34.2918 29.5797 33.8702C29.7619 33.8013 29.9635 33.8049 30.1431 33.8803C30.3226 33.9558 30.4664 34.0973 30.5446 34.2756C30.6229 34.4539 30.6297 34.6555 30.5637 34.8387C30.4976 35.0219 30.3638 35.1728 30.1897 35.2602C29.0403 35.7548 27.8011 36.0067 26.5497 36.0002ZM34.9597 26.7502C35.0584 26.7402 35.1542 26.7108 35.2414 26.6635C35.3287 26.6163 35.4057 26.5523 35.468 26.4751C35.5303 26.3979 35.5767 26.3091 35.6045 26.2138C35.6322 26.1186 35.6408 26.0188 35.6297 25.9202C35.4983 24.6698 35.1108 23.4598 34.4915 22.3656C33.8721 21.2714 33.0342 20.3165 32.0297 19.5602C31.8684 19.46 31.6755 19.4238 31.4888 19.4587C31.3022 19.4936 31.1354 19.5972 31.0213 19.7489C30.9071 19.9007 30.8539 20.0897 30.8722 20.2787C30.8904 20.4677 30.9787 20.643 31.1197 20.7702C31.9556 21.4015 32.6531 22.1976 33.1691 23.1092C33.6851 24.0208 34.0087 25.0286 34.1197 26.0702C34.1394 26.2559 34.2267 26.4278 34.365 26.5532C34.5034 26.6787 34.683 26.7488 34.8697 26.7502H34.9597ZM18.9597 26.0702C19.0747 25.004 19.4128 23.9739 19.952 23.047C20.4913 22.1201 21.2197 21.317 22.0897 20.6902C22.1829 20.6373 22.2638 20.5654 22.3272 20.479C22.3906 20.3927 22.435 20.294 22.4575 20.1893C22.4801 20.0846 22.4803 19.9763 22.458 19.8715C22.4358 19.7667 22.3917 19.6678 22.3286 19.5813C22.2655 19.4948 22.1848 19.4226 22.0918 19.3694C21.9988 19.3163 21.8956 19.2834 21.7891 19.2729C21.6825 19.2624 21.5749 19.2745 21.4733 19.3085C21.3717 19.3425 21.2785 19.3976 21.1997 19.4702C20.1671 20.2253 19.3042 21.1886 18.6669 22.2979C18.0296 23.4071 17.632 24.6377 17.4997 25.9102C17.4887 26.0088 17.4972 26.1086 17.525 26.2038C17.5528 26.2991 17.5991 26.3879 17.6615 26.4651C17.7238 26.5423 17.8008 26.6063 17.888 26.6535C17.9753 26.7008 18.071 26.7302 18.1697 26.7402H18.2497C18.4297 26.7319 18.6009 26.6601 18.7327 26.5373C18.8646 26.4146 18.9486 26.2491 18.9697 26.0702H18.9597ZM30.1397 18.9102C30.1417 18.185 29.9282 17.4756 29.5264 16.872C29.1245 16.2684 28.5524 15.7977 27.8826 15.5198C27.2129 15.2418 26.4756 15.1691 25.7645 15.3108C25.0533 15.4525 24.4003 15.8023 23.8882 16.3158C23.3761 16.8292 23.0281 17.4832 22.8884 18.1948C22.7486 18.9064 22.8234 19.6434 23.1032 20.3124C23.3829 20.9814 23.8552 21.5522 24.4599 21.9524C25.0646 22.3526 25.7746 22.5641 26.4997 22.5602C27.4652 22.5549 28.3895 22.1683 29.0713 21.4847C29.7531 20.801 30.1371 19.8757 30.1397 18.9102ZM28.6397 18.9102C28.6397 19.3382 28.5125 19.7566 28.2743 20.1123C28.036 20.4679 27.6975 20.7447 27.3016 20.9076C26.9058 21.0705 26.4705 21.1121 26.0509 21.0271C25.6314 20.9421 25.2466 20.7344 24.9453 20.4303C24.644 20.1262 24.4399 19.7395 24.3588 19.3192C24.2778 18.8989 24.3234 18.464 24.49 18.0696C24.6565 17.6753 24.9365 17.3394 25.2943 17.1044C25.6521 16.8695 26.0717 16.7462 26.4997 16.7502C27.0691 16.7555 27.6134 16.9853 28.0142 17.3899C28.4149 17.7944 28.6398 18.3408 28.6397 18.9102ZM23.1497 30.9102C23.1597 30.1838 22.9532 29.471 22.5567 28.8623C22.1602 28.2537 21.5915 27.7768 20.923 27.4924C20.2546 27.208 19.5167 27.1289 18.8032 27.2652C18.0896 27.4016 17.4328 27.7471 16.9164 28.258C16.3999 28.7688 16.0471 29.4217 15.9029 30.1337C15.7587 30.8457 15.8296 31.5844 16.1067 32.256C16.3837 32.9275 16.8543 33.5014 17.4585 33.9046C18.0628 34.3078 18.7733 34.5221 19.4997 34.5202C20.4687 34.5175 21.3971 34.1308 22.0813 33.4447C22.7655 32.7586 23.1497 31.8291 23.1497 30.8602V30.9102ZM21.6497 30.9102C21.6399 31.3355 21.5046 31.7485 21.2609 32.0973C21.0172 32.4461 20.676 32.7151 20.2799 32.8707C19.8839 33.0262 19.4508 33.0613 19.0348 32.9716C18.6189 32.8819 18.2388 32.6713 17.9421 32.3664C17.6454 32.0614 17.4454 31.6756 17.3672 31.2574C17.2889 30.8391 17.3359 30.4071 17.5023 30.0155C17.6687 29.6239 17.947 29.2902 18.3024 29.0562C18.6577 28.8222 19.0743 28.6983 19.4997 28.7002C20.0709 28.7028 20.6177 28.9316 21.0206 29.3364C21.4235 29.7411 21.6497 30.289 21.6497 30.8602V30.9102ZM37.1597 30.9102C37.1697 30.1843 36.9635 29.4718 36.5674 28.8634C36.1713 28.2549 35.6032 27.778 34.9354 27.4933C34.2675 27.2086 33.5301 27.129 32.8169 27.2645C32.1036 27.4 31.4468 27.7446 30.9299 28.2544C30.4131 28.7642 30.0595 29.4163 29.9142 30.1276C29.7688 30.8389 29.8383 31.5773 30.1138 32.249C30.3893 32.9207 30.8583 33.4953 31.4613 33.8997C32.0642 34.3041 32.7737 34.5201 33.4997 34.5202C34.4704 34.5202 35.4014 34.1346 36.0877 33.4482C36.7741 32.7618 37.1597 31.8309 37.1597 30.8602V30.9102ZM35.6597 30.9102C35.6499 31.3351 35.5149 31.7477 35.2717 32.0963C35.0284 32.4449 34.6877 32.7139 34.2923 32.8698C33.8968 33.0256 33.4642 33.0613 33.0485 32.9724C32.6329 32.8835 32.2527 32.6739 31.9556 32.37C31.6585 32.066 31.4577 31.6811 31.3783 31.2635C31.2989 30.8459 31.3445 30.4142 31.5094 30.0224C31.6742 29.6307 31.951 29.2962 32.3051 29.061C32.6591 28.8258 33.0747 28.7003 33.4997 28.7002C34.0726 28.7002 34.622 28.9278 35.0271 29.3328C35.4322 29.7379 35.6597 30.2873 35.6597 30.8602V30.9102Z" fill="white"/>
</svg>
