<svg width="53" height="52" viewBox="0 0 53 52" fill="none" xmlns="http://www.w3.org/2000/svg">
<rect x="0.5" width="52" height="52" rx="25" fill="#756A6A"/>
<path d="M32.2398 35.2498H20.7598C19.4337 35.2498 18.1619 34.723 17.2242 33.7853C16.2865 32.8476 15.7598 31.5758 15.7598 30.2498V21.7598C15.7598 20.4337 16.2865 19.1619 17.2242 18.2242C18.1619 17.2866 19.4337 16.7598 20.7598 16.7598H32.2398C33.5658 16.7598 34.8376 17.2866 35.7753 18.2242C36.713 19.1619 37.2398 20.4337 37.2398 21.7598V30.2398C37.2411 30.8972 37.1127 31.5485 36.862 32.1563C36.6114 32.764 36.2433 33.3164 35.7788 33.7818C35.3144 34.2471 34.7628 34.6163 34.1555 34.8682C33.5482 35.1201 32.8972 35.2498 32.2398 35.2498ZM20.7598 18.2498C19.8289 18.2498 18.9361 18.6196 18.2778 19.2778C17.6196 19.9361 17.2498 20.8289 17.2498 21.7598V30.2398C17.2498 31.1707 17.6196 32.0635 18.2778 32.7217C18.9361 33.38 19.8289 33.7498 20.7598 33.7498H32.2398C33.1707 33.7498 34.0635 33.38 34.7217 32.7217C35.38 32.0635 35.7498 31.1707 35.7498 30.2398V21.7598C35.7498 20.8289 35.38 19.9361 34.7217 19.2778C34.0635 18.6196 33.1707 18.2498 32.2398 18.2498H20.7598ZM28.6898 26.1898L31.9798 23.3998C32.1283 23.2686 32.2205 23.0852 32.2372 22.8878C32.254 22.6904 32.194 22.4941 32.0698 22.3398C31.9386 22.1905 31.7542 22.0986 31.5561 22.0836C31.358 22.0687 31.1618 22.1319 31.0098 22.2598L27.7198 25.0498C27.3754 25.3396 26.9398 25.4985 26.4898 25.4985C26.0397 25.4985 25.6041 25.3396 25.2598 25.0498L21.8798 22.2498C21.7273 22.1172 21.5283 22.0506 21.3267 22.0646C21.1251 22.0787 20.9374 22.1723 20.8048 22.3248C20.6722 22.4773 20.6056 22.6762 20.6196 22.8778C20.6337 23.0794 20.7273 23.2672 20.8798 23.3998L24.2998 26.2098C24.9117 26.7324 25.69 27.0195 26.4948 27.0195C27.2995 27.0195 28.0778 26.7324 28.6898 26.2098V26.1898Z" fill="white"/>
</svg>
