<svg width="53" height="52" viewBox="0 0 53 52" fill="none" xmlns="http://www.w3.org/2000/svg">
<rect x="0.5" width="52" height="52" rx="25" fill="#365094"/>
<path d="M37.2604 21.9C37.2498 20.1273 36.5382 18.4309 35.281 17.1811C34.0238 15.9314 32.3231 15.2299 30.5504 15.23H22.4204C21.5337 15.23 20.6557 15.4054 19.8371 15.7463C19.0186 16.0871 18.2755 16.5866 17.6509 17.2159C17.0262 17.8452 16.5322 18.5919 16.1975 19.413C15.8627 20.2341 15.6938 21.1133 15.7004 22V30.08C15.7029 30.9671 15.8814 31.8449 16.2254 32.6626C16.5694 33.4803 17.0721 34.2217 17.7045 34.8438C18.3369 35.466 19.0864 35.9565 19.9096 36.2872C20.7328 36.6178 21.6133 36.7819 22.5004 36.77H23.5004H28.5004H30.6204C31.5041 36.7661 32.3783 36.5876 33.1929 36.2449C34.0075 35.9022 34.7463 35.4019 35.367 34.7729C35.9877 34.1438 36.478 33.3984 36.8098 32.5793C37.1416 31.7602 37.3083 30.8837 37.3004 30L37.2604 21.9ZM30.1804 26.77L29.6004 28.21H27.0104V35.21H25.0104V28.21H22.6404V26.77H24.9904V23.06C24.9904 22.3253 25.2822 21.6208 25.8017 21.1013C26.3212 20.5818 27.0257 20.29 27.7604 20.29H30.3604V21.73H28.9404C28.4293 21.7326 27.9399 21.9368 27.5786 22.2982C27.2172 22.6595 27.013 23.1489 27.0104 23.66V26.77H30.1804ZM34.2904 33.68C33.8112 34.1678 33.2402 34.5559 32.6104 34.8219C31.9805 35.0879 31.3041 35.2266 30.6204 35.23H28.5004V29.71H29.7604C30.0106 29.7095 30.2549 29.634 30.4617 29.4931C30.6685 29.3523 30.8283 29.1526 30.9204 28.92L31.7104 27C31.7839 26.8088 31.8105 26.6027 31.7879 26.3991C31.7652 26.1956 31.6941 26.0004 31.5804 25.83C31.4693 25.6655 31.3207 25.5298 31.1468 25.4342C30.9729 25.3386 30.7788 25.2857 30.5804 25.28H28.5004V23.66C28.5004 23.5459 28.5457 23.4366 28.6263 23.3559C28.707 23.2753 28.8163 23.23 28.9304 23.23H30.6004C30.9302 23.2327 31.2477 23.1049 31.4837 22.8745C31.7197 22.6441 31.8551 22.3298 31.8604 22V20C31.8604 19.6685 31.7287 19.3505 31.4943 19.1161C31.2598 18.8817 30.9419 18.75 30.6104 18.75H27.7604C27.1975 18.7526 26.6406 18.8662 26.1217 19.0844C25.6028 19.3025 25.132 19.6209 24.7363 20.0212C24.3405 20.4216 24.0277 20.8961 23.8156 21.4175C23.6036 21.9389 23.4964 22.4971 23.5004 23.06V25.27H22.3904C22.0589 25.27 21.7409 25.4017 21.5065 25.6361C21.2721 25.8705 21.1404 26.1885 21.1404 26.52V28.46C21.1404 28.7915 21.2721 29.1094 21.5065 29.3439C21.7409 29.5783 22.0589 29.71 22.3904 29.71H23.5004V35.27H22.5004C21.1246 35.2674 19.8054 34.7218 18.8298 33.7517C17.8542 32.7817 17.3009 31.4657 17.2904 30.09L17.2004 22C17.1977 20.6207 17.741 19.2965 18.7116 18.3165C19.6822 17.3365 21.0012 16.7805 22.3804 16.77H30.5204C31.8962 16.7726 33.2153 17.3182 34.191 18.2882C35.1666 19.2583 35.7198 20.5742 35.7304 21.95V30.03C35.7497 31.3888 35.2323 32.7004 34.2904 33.68Z" fill="white"/>
</svg>
