<svg width="299" height="101" viewBox="0 0 299 101" fill="none" xmlns="http://www.w3.org/2000/svg">
<g clip-path="url(#clip0_1316_9401)">
<path d="M70.9105 82V94.3H65.1505V84.96C65.1505 82.97 64.9705 81.62 64.3205 80.9C64.0005 80.56 63.5605 80.27 62.8105 80.27C62.1605 80.27 61.6205 80.48 61.1205 81.03C60.1505 82.13 60.0805 83.69 60.0805 84.62V94.3H54.3205V84.96C54.3205 83.14 54.2105 81.71 53.5605 80.9C53.0605 80.27 52.4105 80.14 51.8305 80.14C51.2205 80.14 50.7105 80.27 50.2505 80.82C49.2405 81.96 49.2405 83.78 49.2405 84.96V94.3H43.4805V75.41H49.2405V77.69C50.6105 75.75 52.4905 75.34 54.0805 75.34C54.0805 75.34 56.6605 75.16 58.2705 77.1C58.2705 77.1 60.2405 75 64.3405 75.34C64.3405 75.34 70.4305 75.41 70.9005 82.01H70.9105V82Z" fill="white"/>
<path d="M6.14 80.05L13.66 70.05H20.46L11.4 81.48L21.24 94.3H14.16L6.14 83.79V94.3H0V70.04H6.14V80.04V80.05Z" fill="white"/>
<path d="M37.8697 91.6001C35.7097 93.9801 33.1797 94.6401 30.5397 94.6401C28.1597 94.6401 25.5197 94.1101 23.2497 91.6001C21.4597 89.6301 20.7197 87.2901 20.7197 84.8301C20.7197 81.5501 22.0397 79.4201 23.2497 78.1001C24.6097 76.6201 26.9897 75.0601 30.5397 75.0601C34.0897 75.0601 36.5097 76.6601 37.8697 78.1001C39.0797 79.4101 40.3997 81.5501 40.3997 84.8301C40.3997 87.2901 39.6697 89.6301 37.8697 91.6001ZM27.9397 81.8101C27.2097 82.6601 26.7997 83.9201 26.7997 85.0801C26.7997 86.2401 27.2797 87.4601 27.9397 88.2701C28.6397 89.1201 29.5897 89.6201 30.5797 89.6201C31.5697 89.6201 32.4797 89.1301 33.1797 88.2701C33.9097 87.4201 34.3197 86.2501 34.3197 85.0801C34.3197 84.0001 33.9197 82.7001 33.1797 81.8101C32.5197 81.0501 31.4997 80.5101 30.5797 80.5101C29.6597 80.5101 28.5997 81.0501 27.9397 81.8101Z" fill="white"/>
<path d="M102.3 82V94.3H96.5401V84.96C96.5401 82.97 96.3601 81.62 95.7101 80.9C95.3901 80.56 94.9501 80.27 94.2001 80.27C93.5501 80.27 93.0101 80.48 92.5101 81.03C91.5401 82.13 91.4701 83.69 91.4701 84.62V94.3H85.7101V84.96C85.7101 83.14 85.6001 81.71 84.9501 80.9C84.4501 80.27 83.8001 80.14 83.2201 80.14C82.6101 80.14 82.1001 80.27 81.6401 80.82C80.6301 81.96 80.6301 83.78 80.6301 84.96V94.3H74.8701V75.41H80.6301V77.69C82.0001 75.75 83.8801 75.34 85.4701 75.34C85.4701 75.34 88.0501 75.16 89.6601 77.1C89.6601 77.1 91.6301 75 95.7301 75.34C95.7301 75.34 101.82 75.41 102.29 82.01H102.3V82Z" fill="white"/>
<path d="M133.55 82V94.3H127.79V84.96C127.79 82.97 127.61 81.62 126.96 80.9C126.64 80.56 126.2 80.27 125.45 80.27C124.8 80.27 124.26 80.48 123.76 81.03C122.79 82.13 122.72 83.69 122.72 84.62V94.3H116.96V84.96C116.96 83.14 116.85 81.71 116.2 80.9C115.7 80.27 115.05 80.14 114.47 80.14C113.86 80.14 113.35 80.27 112.89 80.82C111.88 81.96 111.88 83.78 111.88 84.96V94.3H106.12V75.41H111.88V77.69C113.25 75.75 115.13 75.34 116.72 75.34C116.72 75.34 119.3 75.16 120.91 77.1C120.91 77.1 122.88 75 126.98 75.34C126.98 75.34 133.07 75.41 133.54 82.01H133.55V82Z" fill="white"/>
<path d="M298.2 82V94.3H292.44V84.96C292.44 82.97 292.26 81.62 291.61 80.9C291.29 80.56 290.85 80.27 290.1 80.27C289.45 80.27 288.91 80.48 288.41 81.03C287.44 82.13 287.37 83.69 287.37 84.62V94.3H281.61V84.96C281.61 83.14 281.5 81.71 280.85 80.9C280.35 80.27 279.7 80.14 279.12 80.14C278.51 80.14 278 80.27 277.54 80.82C276.53 81.96 276.53 83.78 276.53 84.96V94.3H270.77V75.41H276.53V77.69C277.9 75.75 279.78 75.34 281.37 75.34C281.37 75.34 283.95 75.16 285.56 77.1C285.56 77.1 287.53 75 291.63 75.34C291.63 75.34 297.72 75.41 298.19 82.01H298.2V82Z" fill="white"/>
<path d="M265.11 91.55C262.95 93.93 260.42 94.59 257.78 94.59C255.4 94.59 252.76 94.06 250.49 91.55C248.7 89.58 247.96 87.24 247.96 84.78C247.96 81.5 249.28 79.37 250.49 78.05C251.85 76.57 254.23 75.01 257.78 75.01C261.33 75.01 263.75 76.61 265.11 78.05C266.32 79.36 267.64 81.5 267.64 84.78C267.64 87.24 266.91 89.58 265.11 91.55ZM255.18 81.75C254.45 82.6 254.04 83.86 254.04 85.02C254.04 86.18 254.52 87.4 255.18 88.21C255.88 89.06 256.83 89.56 257.82 89.56C258.81 89.56 259.72 89.07 260.42 88.21C261.15 87.36 261.56 86.19 261.56 85.02C261.56 83.94 261.16 82.64 260.42 81.75C259.76 80.99 258.74 80.45 257.82 80.45C256.9 80.45 255.84 80.99 255.18 81.75Z" fill="white"/>
<path d="M176.31 82.4699V94.2999H170.42V84.8899C170.42 83.8099 170.46 82.1799 169.68 81.2699C169.13 80.5999 168.39 80.4799 167.8 80.4799C166.88 80.4799 166.11 80.8499 165.63 81.3499C165.04 81.9699 164.67 83.1799 164.67 84.3099V94.3099H158.78V75.6899H164.67V77.2599C164.67 77.2599 165.39 75.4599 169.51 75.2799C169.51 75.2799 173.59 74.9399 175.67 78.8499C175.67 78.8499 176.31 80.0299 176.31 82.4799V82.4699Z" fill="white"/>
<path d="M137.41 87.62V75.79H143.3V85.2C143.3 86.28 143.26 87.91 144.04 88.82C144.59 89.49 145.33 89.61 145.92 89.61C146.84 89.61 147.61 89.24 148.09 88.74C148.68 88.12 149.05 86.91 149.05 85.78V75.78H154.94V94.4H149.05V92.83C149.05 92.83 148.33 94.63 144.21 94.81C144.21 94.81 140.13 95.15 138.05 91.24C138.05 91.24 137.41 90.06 137.41 87.61V87.62Z" fill="white"/>
<path d="M186.15 75.79V94.3H180.47V75.79H186.15Z" fill="white"/>
<path d="M183.54 66.3101C185.44 66.3101 186.96 67.8501 186.96 69.7801C186.96 71.7101 185.44 73.2501 183.54 73.2501C181.64 73.2501 180.12 71.7101 180.12 69.7801C180.12 67.8501 181.64 66.3101 183.54 66.3101Z" fill="white"/>
<path d="M198.29 80.4401V94.0801H192.61V80.4401H189.55V75.7901H192.61V70.5701H198.29V75.7901H201.97V80.4401H198.29Z" fill="white"/>
<path d="M209.55 92.5301L202.88 75.8301L208.84 75.7601L212.79 85.2901L216.41 75.6801L222.4 75.6101L212.64 100.08H206.55L209.55 92.5401V92.5301Z" fill="white"/>
<path d="M222.8 93.52C222.35 93.07 221.74 92.25 221.74 91.02C221.74 89.79 222.36 88.96 222.8 88.52C223.62 87.7 224.55 87.46 225.3 87.46C226.16 87.46 227.08 87.8 227.84 88.56C228.42 89.14 228.83 89.9 228.83 91.03C228.83 92.16 228.42 92.92 227.8 93.53C227.08 94.25 226.19 94.59 225.3 94.59C224.55 94.59 223.62 94.35 222.8 93.53V93.52Z" fill="white"/>
<path d="M245.45 81.3399C244.5 80.7299 243.33 80.4299 241.79 80.4299C240.07 80.4299 238.98 81.0399 238.26 81.6899C237.26 82.5799 236.86 83.7599 236.86 84.8099C236.86 85.8599 237.07 87.1899 237.93 88.0399C238.61 88.6899 239.57 89.4499 241.42 89.4499C242.46 89.4499 243.66 89.4899 245.55 88.4499V93.7999C244.34 94.3199 242.45 94.4399 240.91 94.4499C237.42 94.4699 235.31 92.9499 234.02 91.6999C232.33 90.0399 231.25 87.6099 231.25 84.9299C231.25 82.2499 232.33 79.6999 234.14 77.9199C235.83 76.2999 238.3 75.3799 241.36 75.3799C242.48 75.3799 243.94 75.3799 245.55 76.1799L245.45 81.3499V81.3399Z" fill="white"/>
<path d="M172 0H127.17C122.68 0 119.05 3.64 119.05 8.12V52.66C119.05 57.15 122.69 60.78 127.17 60.78H172C176.49 60.78 180.12 57.14 180.12 52.66V8.12C180.12 3.63 176.48 0 172 0ZM172.26 42.16L167.53 48.36L153.53 37.51V51.36H145.77V36.2L130.97 47.26L126.35 40.98L141.45 29.69L127.41 18.81L132.14 12.61L145.77 23.17V9.42H153.53V24.7L168.2 13.73L172.82 20.01L157.99 31.1L172.26 42.16Z" fill="white"/>
</g>
<defs>
<clipPath id="clip0_1316_9401">
<rect width="298.2" height="100.08" fill="white"/>
</clipPath>
</defs>
</svg>
