<svg width="53" height="52" viewBox="0 0 53 52" fill="none" xmlns="http://www.w3.org/2000/svg">
<rect x="0.5" width="52" height="52" rx="25" fill="#29A71A"/>
<path d="M26.5 36.7502C24.6994 36.7518 22.9278 36.2977 21.35 35.4302L18.35 36.2502C18.1251 36.3146 17.8896 36.3327 17.6576 36.3035C17.4255 36.2743 17.2018 36.1983 17 36.0802C16.6639 35.8825 16.4031 35.5789 16.2583 35.2169C16.1135 34.8549 16.093 34.4551 16.2 34.0802L17.01 31.0802C16.0473 29.3359 15.5868 27.359 15.6797 25.3688C15.7726 23.3787 16.4151 21.4532 17.536 19.8062C18.657 18.1591 20.2124 16.8549 22.0297 16.0383C23.847 15.2218 25.855 14.9248 27.8308 15.1804C29.8067 15.436 31.6731 16.2341 33.2228 17.4862C34.7725 18.7383 35.9449 20.3953 36.6098 22.2734C37.2748 24.1514 37.4063 26.177 36.9897 28.1253C36.5731 30.0736 35.6248 31.8683 34.25 33.3102C33.2582 34.3782 32.0599 35.2337 30.7278 35.825C29.3956 36.4163 27.9573 36.731 26.5 36.7502ZM21.55 33.8202L21.82 33.9802C23.2693 34.805 24.9133 35.2259 26.5807 35.1989C28.2481 35.1719 29.8776 34.6981 31.2995 33.8268C32.7214 32.9555 33.8834 31.7187 34.6644 30.2453C35.4455 28.7719 35.8169 27.116 35.74 25.4502C35.6597 24.1563 35.3095 22.8935 34.7119 21.743C34.1142 20.5925 33.2824 19.5799 32.27 18.7702C30.5822 17.444 28.4862 16.7453 26.3403 16.7936C24.1944 16.8419 22.1319 17.6342 20.5055 19.035C18.8792 20.4357 17.7899 22.358 17.4241 24.4731C17.0583 26.5881 17.4386 28.7645 18.5 30.6302L18.66 30.8902L17.66 34.5002C17.6456 34.5316 17.6381 34.5657 17.6381 34.6002C17.6381 34.6347 17.6456 34.6688 17.66 34.7002C17.6784 34.734 17.7062 34.7618 17.74 34.7802C17.7694 34.7951 17.802 34.8029 17.835 34.8029C17.868 34.8029 17.9005 34.7951 17.93 34.7802L21.55 33.8202ZM29.19 31.8202C28.15 31.7432 27.1476 31.3988 26.28 30.8202C24.2649 29.6055 22.6058 27.8808 21.47 25.8202C20.39 23.6902 20.47 22.0902 21.76 20.9002C22.1246 20.5345 22.6058 20.3081 23.12 20.2602C23.4143 20.2116 23.7165 20.2478 23.991 20.3647C24.2655 20.4816 24.501 20.6743 24.67 20.9202L26.12 23.1002C26.1645 23.2509 26.1979 23.4046 26.22 23.5602C26.2467 23.8681 26.1654 24.1757 25.99 24.4302C25.99 24.4802 25.7 24.7802 25.5 25.0202C26.0653 25.781 26.7392 26.4548 27.5 27.0202C27.67 26.8602 27.89 26.6702 28.06 26.5402C28.2681 26.3954 28.5103 26.3072 28.7628 26.2844C29.0152 26.2616 29.2693 26.305 29.5 26.4102L29.61 26.4802L31.71 27.9302C31.8605 28.0677 31.9947 28.2221 32.11 28.3902C32.3008 28.7787 32.3401 29.2244 32.22 29.6402C32.1272 29.9934 31.962 30.3234 31.7347 30.6092C31.5075 30.895 31.2232 31.1303 30.9 31.3002C30.3841 31.6125 29.793 31.7785 29.19 31.7802V31.8202ZM23.36 21.7102C23.2489 21.7177 23.1404 21.7472 23.0409 21.797C22.9413 21.8468 22.8526 21.9158 22.78 22.0002C22.28 22.4502 21.84 23.2202 22.78 25.1302C23.777 26.9333 25.2328 28.4409 27 29.5002C28.68 30.5002 29.42 30.4202 30.12 30.0102C30.2933 29.9306 30.4421 29.8061 30.5511 29.6496C30.6601 29.4931 30.7253 29.3103 30.74 29.1202L30.68 29.0602L28.88 27.8002C28.6743 27.9629 28.4805 28.14 28.3 28.3302C28.1491 28.4932 27.9483 28.6013 27.7292 28.6375C27.5101 28.6737 27.2852 28.636 27.09 28.5302C25.8628 27.7592 24.813 26.7367 24.01 25.5302C23.8968 25.3381 23.8511 25.1137 23.8801 24.8927C23.9091 24.6716 24.0111 24.4666 24.17 24.3102L24.7 23.6902L23.44 21.7602L23.36 21.7102Z" fill="white"/>
</svg>
