<svg width="28" height="28" viewBox="0 0 28 28" fill="none" xmlns="http://www.w3.org/2000/svg">
<path d="M2.33301 3.5H24.6607C24.7629 3.49983 24.8634 3.52654 24.9521 3.57745C25.0408 3.62836 25.1145 3.70169 25.1659 3.79008C25.2173 3.87847 25.2446 3.97882 25.245 4.08107C25.2454 4.18332 25.2189 4.28388 25.1682 4.37267L20.9997 11.6667L25.1682 18.9607C25.2189 19.0495 25.2454 19.15 25.245 19.2523C25.2446 19.3545 25.2173 19.4549 25.1659 19.5433C25.1145 19.6316 25.0408 19.705 24.9521 19.7559C24.8634 19.8068 24.7629 19.8335 24.6607 19.8333H4.66634V25.6667H2.33301V3.5Z" fill="#006497"/>
</svg>
