<svg width="28" height="28" viewBox="0 0 28 28" fill="none" xmlns="http://www.w3.org/2000/svg">
<path d="M6.06667 23.7329C5.49833 23.7329 5.01181 23.5306 4.60708 23.1259C4.20236 22.7211 4 22.2346 4 21.6663V10.2996C4 9.73128 4.20236 9.24475 4.60708 8.84003C5.01181 8.4353 5.49833 8.23294 6.06667 8.23294H10.2V6.16628C10.2 5.59794 10.4024 5.11141 10.8071 4.70669C11.2118 4.30197 11.6983 4.09961 12.2667 4.09961H16.4C16.9683 4.09961 17.4549 4.30197 17.8596 4.70669C18.2643 5.11141 18.4667 5.59794 18.4667 6.16628V8.23294H22.6C23.1683 8.23294 23.6549 8.4353 24.0596 8.84003C24.4643 9.24475 24.6667 9.73128 24.6667 10.2996V21.6663C24.6667 22.2346 24.4643 22.7211 24.0596 23.1259C23.6549 23.5306 23.1683 23.7329 22.6 23.7329H6.06667ZM12.2667 8.23294H16.4V6.16628H12.2667V8.23294Z" fill="#006497"/>
</svg>
