<svg width="27" height="28" viewBox="0 0 27 28" fill="none" xmlns="http://www.w3.org/2000/svg">
<path d="M6.8214 13.936L11.4257 9.34714C11.8494 8.92485 11.8506 8.23902 11.4283 7.8153C11.006 7.39159 10.3202 7.39043 9.89649 7.81272L4.52506 13.166C4.10128 13.5884 4.10012 14.2743 4.52247 14.6981L9.8758 20.0695C10.2981 20.4933 10.9839 20.4944 11.4076 20.0721C11.8313 19.6498 11.8325 18.964 11.4102 18.5403L6.8214 13.936Z" fill="#006497"/>
<path fill-rule="evenodd" clip-rule="evenodd" d="M20.6726 14.0137C20.6736 13.4154 20.1894 12.9295 19.5911 12.9285L6.04947 12.9056C5.45116 12.9046 4.96532 13.3888 4.96431 13.9872C4.9633 14.5855 5.44751 15.0713 6.04582 15.0723L19.5875 15.0952C20.1858 15.0962 20.6716 14.612 20.6726 14.0137Z" fill="#006497"/>
</svg>
