<svg width="25" height="24" viewBox="0 0 25 24" fill="none" xmlns="http://www.w3.org/2000/svg">
<g clip-path="url(#clip0_4451_26828)">
<path d="M23.4975 18.9992C23.4975 19.5295 23.2868 20.0381 22.9119 20.413C22.5369 20.788 22.0283 20.9987 21.4981 20.9987H3.50332C2.97304 20.9987 2.46449 20.788 2.08952 20.413C1.71456 20.0381 1.50391 19.5295 1.50391 18.9992V8.00245C1.50391 7.47217 1.71456 6.96361 2.08952 6.58865C2.46449 6.21368 2.97304 6.00303 3.50332 6.00303H7.50216L9.50157 3.00391H15.4998L17.4992 6.00303H21.4981C22.0283 6.00303 22.5369 6.21368 22.9119 6.58865C23.2868 6.96361 23.4975 7.47217 23.4975 8.00245V18.9992Z" fill="white"/>
<path d="M12.5007 16.9998C14.7092 16.9998 16.4995 15.2095 16.4995 13.001C16.4995 10.7925 14.7092 9.00216 12.5007 9.00216C10.2922 9.00216 8.50186 10.7925 8.50186 13.001C8.50186 15.2095 10.2922 16.9998 12.5007 16.9998Z" fill="white"/>
<path d="M23.4975 18.9992C23.4975 19.5295 23.2868 20.0381 22.9119 20.413C22.5369 20.788 22.0283 20.9987 21.4981 20.9987H3.50332C2.97304 20.9987 2.46449 20.788 2.08952 20.413C1.71456 20.0381 1.50391 19.5295 1.50391 18.9992V8.00245C1.50391 7.47217 1.71456 6.96361 2.08952 6.58865C2.46449 6.21368 2.97304 6.00303 3.50332 6.00303H7.50216L9.50157 3.00391H15.4998L17.4992 6.00303H21.4981C22.0283 6.00303 22.5369 6.21368 22.9119 6.58865C23.2868 6.96361 23.4975 7.47217 23.4975 8.00245V18.9992Z" stroke="#006497" stroke-width="2.49927" stroke-linecap="round" stroke-linejoin="round"/>
<path d="M12.5007 16.9998C14.7092 16.9998 16.4995 15.2095 16.4995 13.001C16.4995 10.7925 14.7092 9.00216 12.5007 9.00216C10.2922 9.00216 8.50186 10.7925 8.50186 13.001C8.50186 15.2095 10.2922 16.9998 12.5007 16.9998Z" stroke="#006497" stroke-width="2.49927" stroke-linecap="round" stroke-linejoin="round"/>
</g>
<defs>
<clipPath id="clip0_4451_26828">
<rect width="23.993" height="23.993" fill="white" transform="translate(0.503906 0.00390625)"/>
</clipPath>
</defs>
</svg>
