<svg width="24" height="24" viewBox="0 0 24 24" fill="none" xmlns="http://www.w3.org/2000/svg">
<path d="M8.13904 13.837C8.72089 13.1425 9.20322 12.5613 9.70086 11.9951C11.6149 9.8211 13.7356 7.86598 16.0783 6.15243C17.6172 5.02768 19.2479 4.04634 20.9782 3.22354C21.3686 3.03482 21.6519 3.07256 21.8586 3.35941C22.0653 3.63872 22.05 4.03125 21.782 4.29545C21.4375 4.63514 21.0777 4.95219 20.7179 5.26923C18.3215 7.42061 16.1778 9.78335 14.2868 12.3801C12.503 14.8259 10.9488 17.4075 9.52478 20.0647C9.22619 20.6157 8.82808 20.963 8.18498 20.963C7.55718 20.963 7.15141 20.6157 6.86814 20.0873C5.31397 17.2037 3.74449 14.3201 2.18266 11.4365C1.85345 10.8326 1.96829 10.4023 2.53484 10.0098C2.68796 9.90413 2.84874 9.7909 3.00951 9.68522C3.46122 9.39837 3.90527 9.44366 4.28807 9.8211C5.46709 11.0062 6.63846 12.1989 7.80983 13.3916C7.91701 13.5049 8.00123 13.6558 8.13904 13.837Z" fill="#00476D"/>
</svg>
