<svg width="25" height="25" viewBox="0 0 25 25" fill="none" xmlns="http://www.w3.org/2000/svg">
<mask id="mask0_2775_25852" style="mask-type:alpha" maskUnits="userSpaceOnUse" x="0" y="0" width="25" height="25">
<rect x="0.9104" y="0.125" width="23.993" height="23.993" fill="#D9D9D9"/>
</mask>
<g mask="url(#mask0_2775_25852)">
<path d="M5.90701 19.1205H7.16817L17.4018 8.88687L16.1406 7.62571L5.90701 17.8593V19.1205ZM4.40747 20.62V17.2364L17.594 4.05565C17.7452 3.91834 17.9121 3.81224 18.0948 3.73734C18.2774 3.66245 18.469 3.625 18.6694 3.625C18.8699 3.625 19.064 3.66057 19.2519 3.73172C19.4398 3.80285 19.6062 3.91595 19.751 4.07102L20.9718 5.30718C21.1269 5.45201 21.2374 5.61866 21.3034 5.80714C21.3695 5.9956 21.4025 6.18406 21.4025 6.37252C21.4025 6.57355 21.3681 6.76539 21.2995 6.94806C21.2308 7.13074 21.1216 7.29766 20.9718 7.44884L7.79106 20.62H4.40747ZM16.7601 8.26735L16.1406 7.62571L17.4018 8.88687L16.7601 8.26735Z" fill="#81BFEC"/>
</g>
</svg>
