<svg width="24" height="24" viewBox="0 0 24 24" fill="none" xmlns="http://www.w3.org/2000/svg">
<path d="M21.7873 1.48027L22.3773 2.07027C23.1903 2.88427 23.0673 4.32727 22.1003 5.29327L9.93334 17.4603L5.99134 18.9023C5.49634 19.0843 5.01434 18.8483 4.91634 18.3773C4.88333 18.2064 4.89892 18.0297 4.96134 17.8673L6.43134 13.8913L18.5643 1.75727C19.5313 0.791269 20.9743 0.666269 21.7873 1.48027ZM9.40234 2.69027C9.53367 2.69027 9.6637 2.71614 9.78503 2.76639C9.90635 2.81664 10.0166 2.8903 10.1095 2.98316C10.2023 3.07602 10.276 3.18626 10.3262 3.30759C10.3765 3.42891 10.4023 3.55895 10.4023 3.69027C10.4023 3.82159 10.3765 3.95163 10.3262 4.07295C10.276 4.19428 10.2023 4.30452 10.1095 4.39738C10.0166 4.49023 9.90635 4.56389 9.78503 4.61415C9.6637 4.6644 9.53367 4.69027 9.40234 4.69027H5.40234C4.87191 4.69027 4.3632 4.90098 3.98813 5.27606C3.61306 5.65113 3.40234 6.15984 3.40234 6.69027V18.6903C3.40234 19.2207 3.61306 19.7294 3.98813 20.1045C4.3632 20.4796 4.87191 20.6903 5.40234 20.6903H17.4023C17.9328 20.6903 18.4415 20.4796 18.8166 20.1045C19.1916 19.7294 19.4023 19.2207 19.4023 18.6903V14.6903C19.4023 14.4251 19.5077 14.1707 19.6952 13.9832C19.8828 13.7956 20.1371 13.6903 20.4023 13.6903C20.6676 13.6903 20.9219 13.7956 21.1095 13.9832C21.297 14.1707 21.4023 14.4251 21.4023 14.6903V18.6903C21.4023 19.7511 20.9809 20.7686 20.2308 21.5187C19.4806 22.2688 18.4632 22.6903 17.4023 22.6903H5.40234C4.34148 22.6903 3.32406 22.2688 2.57392 21.5187C1.82377 20.7686 1.40234 19.7511 1.40234 18.6903V6.69027C1.40234 5.6294 1.82377 4.61199 2.57392 3.86184C3.32406 3.1117 4.34148 2.69027 5.40234 2.69027H9.40234Z" fill="#006497"/>
</svg>
