<svg width="24" height="24" viewBox="0 0 24 24" fill="none" xmlns="http://www.w3.org/2000/svg">
<path fill-rule="evenodd" clip-rule="evenodd" d="M13.7154 2.9314C14.3118 2.33503 15.1206 2 15.964 2C16.3816 2 16.7951 2.08225 17.1809 2.24206C17.5667 2.40187 17.9173 2.63611 18.2126 2.9314C18.5079 3.22669 18.7421 3.57725 18.9019 3.96307C18.9315 4.03448 18.9584 4.10684 18.9827 4.18H21.25C21.8023 4.18 22.25 4.62772 22.25 5.18C22.25 5.73228 21.8023 6.18 21.25 6.18H18.9827C18.9584 6.25316 18.9315 6.32552 18.9019 6.39693C18.7421 6.78275 18.5079 7.13331 18.2126 7.4286C17.9173 7.72389 17.5667 7.95813 17.1809 8.11794C16.7951 8.27775 16.3816 8.36 15.964 8.36C15.1206 8.36 14.3118 8.02496 13.7154 7.4286C13.3616 7.0748 13.0998 6.64621 12.9453 6.18H2.75C2.19772 6.18 1.75 5.73228 1.75 5.18C1.75 4.62772 2.19772 4.18 2.75 4.18H12.9453C13.0998 3.71379 13.3616 3.2852 13.7154 2.9314ZM15.964 4C15.651 4 15.3509 4.12432 15.1296 4.34561C14.9083 4.56691 14.784 4.86704 14.784 5.18C14.784 5.49296 14.9083 5.79309 15.1296 6.01439C15.3509 6.23568 15.651 6.36 15.964 6.36C16.119 6.36 16.2724 6.32948 16.4156 6.27018C16.5587 6.21088 16.6888 6.12396 16.7984 6.01439C16.908 5.90481 16.9949 5.77473 17.0542 5.63157C17.1135 5.48841 17.144 5.33496 17.144 5.18C17.144 5.02504 17.1135 4.87159 17.0542 4.72843C16.9949 4.58527 16.908 4.45519 16.7984 4.34561C16.6888 4.23604 16.5587 4.14912 16.4156 4.08982C16.2724 4.03052 16.119 4 15.964 4ZM4.4654 9.7514C5.06177 9.15503 5.87061 8.82 6.714 8.82C7.55739 8.82 8.36623 9.15503 8.9626 9.7514C9.3164 10.1052 9.57822 10.5338 9.73268 11H21.25C21.8023 11 22.25 11.4477 22.25 12C22.25 12.5523 21.8023 13 21.25 13H9.73268C9.57822 13.4662 9.3164 13.8948 8.9626 14.2486C8.36623 14.845 7.55739 15.18 6.714 15.18C5.87061 15.18 5.06177 14.845 4.4654 14.2486C4.1116 13.8948 3.84978 13.4662 3.69532 13H2.75C2.19772 13 1.75 12.5523 1.75 12C1.75 11.4477 2.19772 11 2.75 11H3.69532C3.84978 10.5338 4.1116 10.1052 4.4654 9.7514ZM6.714 10.82C6.40105 10.82 6.10091 10.9443 5.87961 11.1656C5.65832 11.3869 5.534 11.687 5.534 12C5.534 12.313 5.65832 12.6131 5.87961 12.8344C6.10091 13.0557 6.40105 13.18 6.714 13.18C7.02696 13.18 7.32709 13.0557 7.54839 12.8344C7.76968 12.6131 7.894 12.313 7.894 12C7.894 11.687 7.76968 11.3869 7.54839 11.1656C7.32709 10.9443 7.02696 10.82 6.714 10.82ZM11.0724 16.5704C11.6688 15.974 12.4776 15.639 13.321 15.639C14.1645 15.639 14.9735 15.9741 15.57 16.5705C15.9236 16.9242 16.1858 17.3526 16.3405 17.819H21.25C21.8023 17.819 22.25 18.2667 22.25 18.819C22.25 19.3713 21.8023 19.819 21.25 19.819H16.3406C16.1859 20.2857 15.9238 20.7146 15.57 21.0684C14.9735 21.6649 14.1645 22 13.321 22C12.4764 22 11.6679 21.6631 11.0724 21.0676C10.7186 20.7138 10.4568 20.2852 10.3023 19.819H2.75C2.19772 19.819 1.75 19.3713 1.75 18.819C1.75 18.2667 2.19772 17.819 2.75 17.819H10.3023C10.4568 17.3528 10.7186 16.9242 11.0724 16.5704ZM13.321 17.639C13.008 17.639 12.7079 17.7633 12.4866 17.9846C12.2653 18.2059 12.141 18.506 12.141 18.819C12.141 19.1319 12.2653 19.4321 12.4866 19.6534C12.7087 19.8755 13.0092 20 13.321 20C13.6341 20 13.9344 19.8756 14.1557 19.6542C14.3774 19.4326 14.502 19.1317 14.502 18.819C14.502 18.5067 14.3777 18.2067 14.1557 17.9847C13.9344 17.7634 13.6341 17.639 13.321 17.639Z" fill="#52525B"/>
</svg>
