<svg width="21" height="20" viewBox="0 0 21 20" fill="none" xmlns="http://www.w3.org/2000/svg">
<path d="M18.7388 8.37462H10.4951V11.7911H15.2392C14.7976 13.9622 12.9493 15.2096 10.4951 15.2096C9.80836 15.2108 9.12816 15.0763 8.49349 14.8141C7.85882 14.5518 7.28218 14.1668 6.79664 13.6811C6.31109 13.1955 5.9262 12.6188 5.66403 11.9841C5.40186 11.3493 5.26758 10.6691 5.26888 9.98238C5.26771 9.29573 5.40209 8.61561 5.66431 7.98101C5.92654 7.3464 6.31145 6.76981 6.79699 6.28427C7.28252 5.79874 7.85912 5.41383 8.49372 5.1516C9.12832 4.88937 9.80845 4.755 10.4951 4.75617C11.7415 4.75617 12.8681 5.1987 13.7522 5.92239L16.3262 3.34938C14.758 1.98219 12.7473 1.13871 10.4951 1.13871C9.33264 1.13531 8.18099 1.36177 7.10637 1.80505C6.03175 2.24833 5.05538 2.89969 4.2334 3.72167C3.41142 4.54365 2.76005 5.52003 2.31677 6.59465C1.87349 7.66927 1.64703 8.82092 1.65043 9.98337C1.6469 11.1459 1.87327 12.2976 2.3165 13.3722C2.75974 14.4469 3.4111 15.4234 4.2331 16.2454C5.05511 17.0674 6.03154 17.7187 7.10622 18.162C8.18089 18.6052 9.3326 18.8316 10.4951 18.828C14.9174 18.828 18.9388 15.6115 18.9388 9.98337C18.9388 9.46065 18.8586 8.89734 18.7388 8.37462Z" fill="#006497"/>
</svg>
