<svg width="26" height="26" viewBox="0 0 26 26" fill="none" xmlns="http://www.w3.org/2000/svg">
<path d="M23.5625 22.75H21.125V3.25H21.9375C22.153 3.25 22.3597 3.1644 22.512 3.01202C22.6644 2.85965 22.75 2.65299 22.75 2.4375C22.75 2.22201 22.6644 2.01535 22.512 1.86298C22.3597 1.7106 22.153 1.625 21.9375 1.625H4.0625C3.84701 1.625 3.64035 1.7106 3.48798 1.86298C3.3356 2.01535 3.25 2.22201 3.25 2.4375C3.25 2.65299 3.3356 2.85965 3.48798 3.01202C3.64035 3.1644 3.84701 3.25 4.0625 3.25H4.875V22.75H2.4375C2.22201 22.75 2.01535 22.8356 1.86298 22.988C1.7106 23.1403 1.625 23.347 1.625 23.5625C1.625 23.778 1.7106 23.9847 1.86298 24.137C2.01535 24.2894 2.22201 24.375 2.4375 24.375H23.5625C23.778 24.375 23.9847 24.2894 24.137 24.137C24.2894 23.9847 24.375 23.778 24.375 23.5625C24.375 23.347 24.2894 23.1403 24.137 22.988C23.9847 22.8356 23.778 22.75 23.5625 22.75ZM6.5 3.25H19.5V22.75H16.25V18.6875C16.25 18.472 16.1644 18.2653 16.012 18.113C15.8597 17.9606 15.653 17.875 15.4375 17.875H10.5625C10.347 17.875 10.1403 17.9606 9.98798 18.113C9.8356 18.2653 9.75 18.472 9.75 18.6875V22.75H6.5V3.25ZM14.625 22.75H11.375V19.5H14.625V22.75ZM8.9375 6.5C8.9375 6.28451 9.0231 6.07785 9.17548 5.92548C9.32785 5.7731 9.53451 5.6875 9.75 5.6875H11.375C11.5905 5.6875 11.7972 5.7731 11.9495 5.92548C12.1019 6.07785 12.1875 6.28451 12.1875 6.5C12.1875 6.71549 12.1019 6.92215 11.9495 7.07452C11.7972 7.2269 11.5905 7.3125 11.375 7.3125H9.75C9.53451 7.3125 9.32785 7.2269 9.17548 7.07452C9.0231 6.92215 8.9375 6.71549 8.9375 6.5ZM13.8125 6.5C13.8125 6.28451 13.8981 6.07785 14.0505 5.92548C14.2028 5.7731 14.4095 5.6875 14.625 5.6875H16.25C16.4655 5.6875 16.6722 5.7731 16.8245 5.92548C16.9769 6.07785 17.0625 6.28451 17.0625 6.5C17.0625 6.71549 16.9769 6.92215 16.8245 7.07452C16.6722 7.2269 16.4655 7.3125 16.25 7.3125H14.625C14.4095 7.3125 14.2028 7.2269 14.0505 7.07452C13.8981 6.92215 13.8125 6.71549 13.8125 6.5ZM8.9375 10.5625C8.9375 10.347 9.0231 10.1403 9.17548 9.98798C9.32785 9.8356 9.53451 9.75 9.75 9.75H11.375C11.5905 9.75 11.7972 9.8356 11.9495 9.98798C12.1019 10.1403 12.1875 10.347 12.1875 10.5625C12.1875 10.778 12.1019 10.9847 11.9495 11.137C11.7972 11.2894 11.5905 11.375 11.375 11.375H9.75C9.53451 11.375 9.32785 11.2894 9.17548 11.137C9.0231 10.9847 8.9375 10.778 8.9375 10.5625ZM13.8125 10.5625C13.8125 10.347 13.8981 10.1403 14.0505 9.98798C14.2028 9.8356 14.4095 9.75 14.625 9.75H16.25C16.4655 9.75 16.6722 9.8356 16.8245 9.98798C16.9769 10.1403 17.0625 10.347 17.0625 10.5625C17.0625 10.778 16.9769 10.9847 16.8245 11.137C16.6722 11.2894 16.4655 11.375 16.25 11.375H14.625C14.4095 11.375 14.2028 11.2894 14.0505 11.137C13.8981 10.9847 13.8125 10.778 13.8125 10.5625ZM8.9375 14.625C8.9375 14.4095 9.0231 14.2028 9.17548 14.0505C9.32785 13.8981 9.53451 13.8125 9.75 13.8125H11.375C11.5905 13.8125 11.7972 13.8981 11.9495 14.0505C12.1019 14.2028 12.1875 14.4095 12.1875 14.625C12.1875 14.8405 12.1019 15.0472 11.9495 15.1995C11.7972 15.3519 11.5905 15.4375 11.375 15.4375H9.75C9.53451 15.4375 9.32785 15.3519 9.17548 15.1995C9.0231 15.0472 8.9375 14.8405 8.9375 14.625ZM13.8125 14.625C13.8125 14.4095 13.8981 14.2028 14.0505 14.0505C14.2028 13.8981 14.4095 13.8125 14.625 13.8125H16.25C16.4655 13.8125 16.6722 13.8981 16.8245 14.0505C16.9769 14.2028 17.0625 14.4095 17.0625 14.625C17.0625 14.8405 16.9769 15.0472 16.8245 15.1995C16.6722 15.3519 16.4655 15.4375 16.25 15.4375H14.625C14.4095 15.4375 14.2028 15.3519 14.0505 15.1995C13.8981 15.0472 13.8125 14.8405 13.8125 14.625Z" fill="black"/>
</svg>
