<svg width="24" height="24" viewBox="0 0 24 24" fill="none" xmlns="http://www.w3.org/2000/svg">
<path d="M11.9498 17.5358L16.1928 13.2928C16.5833 12.9024 17.2164 12.9024 17.6068 13.2928C17.9973 13.6833 17.9973 14.3164 17.6068 14.7068L12.657 19.6567C12.2664 20.0473 11.6333 20.0473 11.2427 19.6567L6.29285 14.7068C5.90238 14.3164 5.90238 13.6833 6.29285 13.2928C6.68331 12.9024 7.31638 12.9024 7.70685 13.2928L11.9498 17.5358Z" fill="#006497"/>
<path fill-rule="evenodd" clip-rule="evenodd" d="M12 5C12.5523 5 13 5.44772 13 6V18.5C13 19.0523 12.5523 19.5 12 19.5C11.4477 19.5 11 19.0523 11 18.5V6C11 5.44772 11.4477 5 12 5Z" fill="#006497"/>
</svg>
