<svg width="28" height="28" viewBox="0 0 28 28" fill="none" xmlns="http://www.w3.org/2000/svg">
<path d="M8.16667 6.9987V3.4987C8.16667 3.18928 8.28958 2.89253 8.50838 2.67374C8.72717 2.45495 9.02391 2.33203 9.33333 2.33203H23.3333C23.6428 2.33203 23.9395 2.45495 24.1583 2.67374C24.3771 2.89253 24.5 3.18928 24.5 3.4987V19.832C24.5 20.1414 24.3771 20.4382 24.1583 20.657C23.9395 20.8758 23.6428 20.9987 23.3333 20.9987H19.8333V24.4987C19.8333 25.1427 19.3083 25.6654 18.6585 25.6654H4.67483C4.52098 25.6663 4.36846 25.6368 4.22604 25.5786C4.08362 25.5204 3.95411 25.4346 3.84494 25.3262C3.73576 25.2178 3.64909 25.0889 3.5899 24.9469C3.5307 24.8049 3.50015 24.6526 3.5 24.4987L3.5035 8.16536C3.5035 7.52136 4.0285 6.9987 4.67717 6.9987H8.16667ZM5.83567 9.33203L5.83333 23.332H17.5V9.33203H5.83567ZM10.5 6.9987H19.8333V18.6654H22.1667V4.66536H10.5V6.9987ZM8.16667 12.832H15.1667V15.1654H8.16667V12.832ZM8.16667 17.4987H15.1667V19.832H8.16667V17.4987Z" fill="#006497"/>
</svg>
