<svg width="27" height="27" viewBox="0 0 27 27" fill="none" xmlns="http://www.w3.org/2000/svg">
<path d="M8.82624 13.9183L17.8236 22.6083C17.9738 22.7533 18.174 22.8351 18.3827 22.8365C18.5915 22.8379 18.7928 22.7589 18.9449 22.6159L18.9547 22.6062C19.0287 22.5369 19.0878 22.4532 19.1284 22.3603C19.169 22.2674 19.1903 22.1672 19.191 22.0658C19.1917 21.9645 19.1717 21.864 19.1324 21.7705C19.093 21.6771 19.0351 21.5927 18.962 21.5223L10.4893 13.3397L19.0722 5.27596C19.1462 5.20663 19.2053 5.12297 19.2459 5.03008C19.2866 4.93719 19.3079 4.837 19.3085 4.73561C19.3092 4.63423 19.2893 4.53376 19.2499 4.44033C19.2106 4.34689 19.1526 4.26244 19.0796 4.19211L19.0699 4.18229C18.9198 4.03722 18.7196 3.95551 18.5108 3.95409C18.302 3.95267 18.1007 4.03167 17.9487 4.17469L8.83422 12.7418C8.75406 12.8172 8.69004 12.908 8.64603 13.0088C8.60202 13.1096 8.57894 13.2183 8.5782 13.3283C8.57745 13.4383 8.59905 13.5474 8.64169 13.6488C8.68432 13.7502 8.74711 13.8419 8.82624 13.9183Z" fill="black"/>
</svg>
