<svg width="20" height="20" viewBox="0 0 20 20" fill="none" xmlns="http://www.w3.org/2000/svg">
<path d="M6.78249 11.5304C7.26737 10.9517 7.66931 10.4673 8.08401 9.99549C9.67902 8.1838 11.4463 6.55454 13.3986 5.12658C14.6809 4.18928 16.0399 3.37151 17.4818 2.68583C17.8071 2.52857 18.0432 2.56002 18.2155 2.79906C18.3877 3.03182 18.375 3.35893 18.1517 3.5791C17.8646 3.86217 17.5647 4.12638 17.2648 4.39058C15.2679 6.18339 13.4815 8.15235 11.9056 10.3163C10.4191 12.3545 9.12396 14.5058 7.93727 16.7201C7.68845 17.1793 7.35669 17.4687 6.82077 17.4687C6.29761 17.4687 5.95947 17.1793 5.72341 16.739C4.42827 14.336 3.12037 11.933 1.81885 9.52998C1.5445 9.02674 1.6402 8.66817 2.11233 8.34106C2.23993 8.253 2.37391 8.15864 2.50789 8.07057C2.88431 7.83153 3.25435 7.86927 3.57335 8.1838C4.55587 9.17142 5.53201 10.1653 6.50815 11.1592C6.59747 11.2536 6.66765 11.3794 6.78249 11.5304Z" fill="#81BFEC"/>
</svg>
