<svg width="21" height="20" viewBox="0 0 21 20" fill="none" xmlns="http://www.w3.org/2000/svg">
<path d="M18.7388 8.37657H10.4951V11.7931H15.2392C14.7976 13.9641 12.9493 15.2115 10.4951 15.2115C9.80836 15.2127 9.12816 15.0783 8.49349 14.816C7.85882 14.5537 7.28218 14.1687 6.79664 13.6831C6.31109 13.1974 5.9262 12.6207 5.66403 11.986C5.40186 11.3513 5.26758 10.6711 5.26888 9.98433C5.26771 9.29769 5.40209 8.61756 5.66431 7.98296C5.92654 7.34836 6.31145 6.77176 6.79699 6.28623C7.28252 5.80069 7.85912 5.41578 8.49372 5.15355C9.12832 4.89133 9.80845 4.75695 10.4951 4.75812C11.7415 4.75812 12.8681 5.20065 13.7522 5.92434L16.3262 3.35133C14.758 1.98414 12.7473 1.14066 10.4951 1.14066C9.33264 1.13726 8.18099 1.36372 7.10637 1.807C6.03175 2.25028 5.05538 2.90165 4.2334 3.72363C3.41142 4.54561 2.76005 5.52198 2.31677 6.5966C1.87349 7.67122 1.64703 8.82287 1.65043 9.98532C1.6469 11.1478 1.87327 12.2995 2.3165 13.3742C2.75974 14.4489 3.4111 15.4253 4.2331 16.2473C5.05511 17.0693 6.03154 17.7207 7.10622 18.1639C8.18089 18.6071 9.3326 18.8335 10.4951 18.83C14.9174 18.83 18.9388 15.6135 18.9388 9.98532C18.9388 9.4626 18.8586 8.89929 18.7388 8.37657Z" fill="#006497"/>
</svg>
