<svg width="26" height="26" viewBox="0 0 26 26" fill="none" xmlns="http://www.w3.org/2000/svg">
<path d="M17.2577 12.4117L8.2016 3.783C8.0505 3.63895 7.84974 3.55859 7.64098 3.55859C7.43221 3.55859 7.23146 3.63895 7.08035 3.783L7.0706 3.79275C6.9971 3.86258 6.93856 3.94664 6.89857 4.0398C6.85857 4.13297 6.83794 4.2333 6.83794 4.33469C6.83794 4.43608 6.85857 4.5364 6.89857 4.62957C6.93856 4.72274 6.9971 4.80679 7.0706 4.87662L15.5986 13.0016L7.0706 21.1234C6.9971 21.1932 6.93856 21.2773 6.89857 21.3704C6.85857 21.4636 6.83794 21.5639 6.83794 21.6653C6.83794 21.7667 6.85857 21.867 6.89857 21.9602C6.93856 22.0534 6.9971 22.1374 7.0706 22.2072L7.08035 22.217C7.23146 22.361 7.43221 22.4414 7.64098 22.4414C7.84974 22.4414 8.0505 22.361 8.2016 22.217L17.2577 13.5882C17.3374 13.5124 17.4008 13.4211 17.4441 13.32C17.4874 13.2189 17.5098 13.11 17.5098 13C17.5098 12.89 17.4874 12.7811 17.4441 12.68C17.4008 12.5789 17.3374 12.4876 17.2577 12.4117Z" fill="black"/>
</svg>
