<svg width="20" height="20" viewBox="0 0 20 20" fill="none" xmlns="http://www.w3.org/2000/svg">
<path d="M0 17.273V14.7275C0 14.2124 0.132575 13.7389 0.397726 13.3071C0.662877 12.8752 1.01515 12.5457 1.45454 12.3184C2.39393 11.8487 3.34848 11.4965 4.31817 11.2616C5.28787 11.0268 6.27271 10.9093 7.27271 10.9093C8.27271 10.9093 9.25756 11.0268 10.2273 11.2616C11.1969 11.4965 12.1515 11.8487 13.0909 12.3184C13.5303 12.5457 13.8825 12.8752 14.1477 13.3071C14.4129 13.7389 14.5454 14.2124 14.5454 14.7275V17.273H0ZM16.3636 17.273V14.5457C16.3636 13.879 16.178 13.2389 15.8068 12.6252C15.4356 12.0116 14.9091 11.4851 14.2272 11.0457C15 11.1366 15.7272 11.2919 16.4091 11.5116C17.0909 11.7313 17.7272 12.0002 18.3181 12.3184C18.8636 12.6215 19.2803 12.9586 19.5681 13.3298C19.856 13.701 20 14.1063 20 14.5457V17.273H16.3636ZM7.27271 10.0003C6.27271 10.0003 5.41666 9.64419 4.70454 8.93207C3.99242 8.21995 3.63636 7.36389 3.63636 6.3639C3.63636 5.3639 3.99242 4.50784 4.70454 3.79572C5.41666 3.0836 6.27271 2.72754 7.27271 2.72754C8.27271 2.72754 9.12877 3.0836 9.84089 3.79572C10.553 4.50784 10.9091 5.3639 10.9091 6.3639C10.9091 7.36389 10.553 8.21995 9.84089 8.93207C9.12877 9.64419 8.27271 10.0003 7.27271 10.0003ZM16.3636 6.3639C16.3636 7.36389 16.0075 8.21995 15.2954 8.93207C14.5833 9.64419 13.7272 10.0003 12.7272 10.0003C12.5606 10.0003 12.3485 9.98131 12.0909 9.94343C11.8333 9.90555 11.6212 9.86389 11.4545 9.81843C11.8636 9.33359 12.178 8.79571 12.3977 8.2048C12.6174 7.61389 12.7272 7.00026 12.7272 6.3639C12.7272 5.72753 12.6174 5.1139 12.3977 4.52299C12.178 3.93208 11.8636 3.3942 11.4545 2.90936C11.6666 2.8336 11.8788 2.78436 12.0909 2.76163C12.303 2.7389 12.5151 2.72754 12.7272 2.72754C13.7272 2.72754 14.5833 3.0836 15.2954 3.79572C16.0075 4.50784 16.3636 5.3639 16.3636 6.3639ZM1.81818 15.4548H12.7272V14.7275C12.7272 14.5608 12.6856 14.4093 12.6022 14.273C12.5189 14.1366 12.4091 14.0305 12.2727 13.9548C11.4545 13.5457 10.6288 13.2389 9.79544 13.0343C8.9621 12.8298 8.1212 12.7275 7.27271 12.7275C6.42423 12.7275 5.58332 12.8298 4.74999 13.0343C3.91666 13.2389 3.0909 13.5457 2.27272 13.9548C2.13636 14.0305 2.02651 14.1366 1.94318 14.273C1.85984 14.4093 1.81818 14.5608 1.81818 14.7275V15.4548ZM7.27271 8.18207C7.77271 8.18207 8.20074 8.00404 8.5568 7.64798C8.91286 7.29192 9.09089 6.86389 9.09089 6.3639C9.09089 5.8639 8.91286 5.43587 8.5568 5.07981C8.20074 4.72375 7.77271 4.54572 7.27271 4.54572C6.77271 4.54572 6.34468 4.72375 5.98862 5.07981C5.63257 5.43587 5.45454 5.8639 5.45454 6.3639C5.45454 6.86389 5.63257 7.29192 5.98862 7.64798C6.34468 8.00404 6.77271 8.18207 7.27271 8.18207Z" fill="#81BFEC"/>
<path fill-rule="evenodd" clip-rule="evenodd" d="M0 17.273V14.7275C0 14.2124 0.132575 13.7389 0.397726 13.3071C0.662877 12.8752 1.01515 12.5457 1.45454 12.3184C2.39393 11.8487 3.34848 11.4965 4.31817 11.2616C5.28787 11.0268 6.27271 10.9093 7.27271 10.9093C8.27271 10.9093 9.25756 11.0268 10.2273 11.2616C11.1969 11.4965 12.1515 11.8487 13.0909 12.3184C13.5303 12.5457 13.8825 12.8752 14.1477 13.3071C14.4129 13.7389 14.5454 14.2124 14.5454 14.7275V17.273H0ZM16.3636 17.273V14.5457C16.3636 13.879 16.178 13.2389 15.8068 12.6252C15.4356 12.0116 14.9091 11.4851 14.2272 11.0457C15 11.1366 15.7272 11.2919 16.4091 11.5116C17.0909 11.7313 17.7272 12.0002 18.3181 12.3184C18.8636 12.6215 19.2803 12.9586 19.5681 13.3298C19.856 13.701 20 14.1063 20 14.5457V17.273H16.3636ZM7.27271 10.0003C6.27271 10.0003 5.41666 9.64419 4.70454 8.93207C3.99242 8.21995 3.63636 7.36389 3.63636 6.3639C3.63636 5.3639 3.99242 4.50784 4.70454 3.79572C5.41666 3.0836 6.27271 2.72754 7.27271 2.72754C8.27271 2.72754 9.12877 3.0836 9.84089 3.79572C10.553 4.50784 10.9091 5.3639 10.9091 6.3639C10.9091 7.36389 10.553 8.21995 9.84089 8.93207C9.12877 9.64419 8.27271 10.0003 7.27271 10.0003ZM16.3636 6.3639C16.3636 7.36389 16.0075 8.21995 15.2954 8.93207C14.5833 9.64419 13.7272 10.0003 12.7272 10.0003C12.5606 10.0003 12.3485 9.98131 12.0909 9.94343C11.8333 9.90555 11.6212 9.86389 11.4545 9.81843C11.8636 9.33359 12.178 8.79571 12.3977 8.2048C12.6174 7.61389 12.7272 7.00026 12.7272 6.3639C12.7272 5.72753 12.6174 5.1139 12.3977 4.52299C12.178 3.93208 11.8636 3.3942 11.4545 2.90936C11.6666 2.8336 11.8788 2.78436 12.0909 2.76163C12.303 2.7389 12.5151 2.72754 12.7272 2.72754C13.7272 2.72754 14.5833 3.0836 15.2954 3.79572C16.0075 4.50784 16.3636 5.3639 16.3636 6.3639ZM12.7272 15.4548V14.7275C12.7272 14.5608 12.6856 14.4093 12.6022 14.273C12.5189 14.1366 12.4091 14.0305 12.2727 13.9548C11.4545 13.5457 10.6288 13.2389 9.79544 13.0343C8.9621 12.8298 8.1212 12.7275 7.27271 12.7275C6.42423 12.7275 5.58332 12.8298 4.74999 13.0343C3.91666 13.2389 3.0909 13.5457 2.27272 13.9548C2.13636 14.0305 2.02651 14.1366 1.94318 14.273C1.85984 14.4093 1.81818 14.5608 1.81818 14.7275V15.4548H12.7272ZM8.5568 7.64798C8.20074 8.00404 7.77271 8.18207 7.27271 8.18207C6.77271 8.18207 6.34468 8.00404 5.98862 7.64798C5.63257 7.29192 5.45454 6.86389 5.45454 6.3639C5.45454 5.8639 5.63257 5.43587 5.98862 5.07981C6.34468 4.72375 6.77271 4.54572 7.27271 4.54572C7.77271 4.54572 8.20074 4.72375 8.5568 5.07981C8.91286 5.43587 9.09089 5.8639 9.09089 6.3639C9.09089 6.86389 8.91286 7.29192 8.5568 7.64798Z" fill="#81BFEC"/>
</svg>
