<svg width="24" height="24" viewBox="0 0 24 24" fill="none" xmlns="http://www.w3.org/2000/svg">
<path d="M4 3C4.55228 3 5 3.44772 5 4V19H20C20.5523 19 21 19.4477 21 20C21 20.5523 20.5523 21 20 21H4C3.44772 21 3 20.5523 3 20V4C3 3.44772 3.44772 3 4 3ZM19.586 6.99988C19.9765 6.60947 20.6095 6.6095 21 6.99996C21.3904 7.39045 21.3904 8.02355 21 8.41404L16.707 12.707C16.3165 13.0975 15.6834 13.0975 15.2929 12.7071L13 10.415L9.41404 14.0001C9.02354 14.3905 8.3905 14.3905 8.00004 14C7.60955 13.6096 7.60955 12.9764 8.00004 12.586L12.293 8.29299C12.6835 7.90251 13.3166 7.90246 13.7071 8.29287L16 10.585L19.586 6.99988Z" fill="#0778B1"/>
</svg>
