<svg width="25" height="25" viewBox="0 0 25 25" fill="none" xmlns="http://www.w3.org/2000/svg">
<path d="M12.1726 6.69446L8.01221 11.0185C7.62935 11.4164 6.9964 11.4286 6.59848 11.0457C6.20056 10.6629 6.18835 10.0299 6.57122 9.63199L11.4248 4.58759C11.8077 4.18961 12.4407 4.17741 12.8387 4.56033L17.8831 9.41388C18.281 9.79675 18.2932 10.4297 17.9104 10.8276C17.5275 11.2255 16.8946 11.2377 16.4966 10.8549L12.1726 6.69446Z" fill="#006497"/>
<path fill-rule="evenodd" clip-rule="evenodd" d="M12.3642 19.2289C11.812 19.2396 11.3557 18.8006 11.3451 18.2484L11.1041 5.75073C11.0934 5.19855 11.5324 4.74229 12.0846 4.73164C12.6368 4.721 13.0931 5.16 13.1037 5.71218L13.3447 18.2099C13.3553 18.762 12.9163 19.2183 12.3642 19.2289Z" fill="#006497"/>
</svg>
