<svg width="24" height="24" viewBox="0 0 24 24" fill="none" xmlns="http://www.w3.org/2000/svg">
<path fill-rule="evenodd" clip-rule="evenodd" d="M16.431 15.3538C17.3499 14.4199 17.976 13.2373 18.2318 11.9516C18.4911 10.6479 18.358 9.29669 17.8493 8.06871C17.3407 6.84072 16.4793 5.79114 15.3742 5.0527C14.269 4.31425 12.9697 3.92011 11.6405 3.92011C10.3113 3.92011 9.01203 4.31425 7.90687 5.0527C6.80171 5.79114 5.94034 6.84072 5.43168 8.06871C4.92303 9.29669 4.78994 10.6479 5.04924 11.9516C5.30499 13.2374 5.93115 14.4199 6.85004 15.3538L11.6405 19.5963L16.431 15.3538ZM5.53071 16.7502C4.32233 15.5418 3.49941 14.0022 3.16602 12.3261C2.83263 10.6501 3.00375 8.91274 3.65773 7.3339C4.31172 5.75506 5.41919 4.40561 6.84011 3.45618C8.26104 2.50675 9.93159 2 11.6405 2C13.3494 2 15.02 2.50675 16.4409 3.45618C17.8618 4.40561 18.9693 5.75506 19.6233 7.3339C20.2773 8.91274 20.4484 10.6501 20.115 12.3261C19.7816 14.0022 18.9587 15.5418 17.7503 16.7502L11.9588 21.8793C11.7771 22.0402 11.5039 22.0402 11.3223 21.8793L5.53071 16.7502ZM16.4408 10.6405C16.4408 13.2916 14.2916 15.4408 11.6405 15.4408C8.98939 15.4408 6.84023 13.2916 6.84023 10.6405C6.84023 7.98939 8.98939 5.84023 11.6405 5.84023C14.2916 5.84023 16.4408 7.98939 16.4408 10.6405ZM14.5207 10.6405C14.5207 12.2312 13.2312 13.5207 11.6405 13.5207C10.0498 13.5207 8.76034 12.2312 8.76034 10.6405C8.76034 9.04983 10.0498 7.76034 11.6405 7.76034C13.2312 7.76034 14.5207 9.04983 14.5207 10.6405Z" fill="#52525B"/>
</svg>
