<svg width="21" height="20" viewBox="0 0 21 20" fill="none" xmlns="http://www.w3.org/2000/svg">
<path d="M2.06666 19.7329C1.49833 19.7329 1.0118 19.5305 0.60708 19.1258C0.20236 18.7211 0 18.2345 0 17.6662V6.29958C0 5.73125 0.20236 5.24472 0.60708 4.84C1.0118 4.43528 1.49833 4.23292 2.06666 4.23292H6.19997V2.16627C6.19997 1.59794 6.40233 1.11141 6.80705 0.70669C7.21177 0.301969 7.6983 0.0996094 8.26663 0.0996094H12.3999C12.9683 0.0996094 13.4548 0.301969 13.8595 0.70669C14.2642 1.11141 14.4666 1.59794 14.4666 2.16627V4.23292H18.5999C19.1682 4.23292 19.6548 4.43528 20.0595 4.84C20.4642 5.24472 20.6666 5.73125 20.6666 6.29958V17.6662C20.6666 18.2345 20.4642 18.7211 20.0595 19.1258C19.6548 19.5305 19.1682 19.7329 18.5999 19.7329H2.06666ZM2.06666 17.6662H18.5999V6.29958H2.06666V17.6662ZM8.26663 4.23292H12.3999V2.16627H8.26663V4.23292Z" fill="#81BFEC"/>
</svg>
