<svg width="26" height="26" viewBox="0 0 26 26" fill="none" xmlns="http://www.w3.org/2000/svg">
<path d="M23.4532 21.5321C21.9064 18.8579 19.5228 16.9404 16.741 16.0314C18.117 15.2123 19.186 13.9641 19.784 12.4786C20.382 10.993 20.4757 9.35228 20.051 7.80828C19.6262 6.26428 18.7063 4.90241 17.4326 3.93181C16.1589 2.96121 14.6018 2.43555 13.0004 2.43555C11.3991 2.43555 9.84197 2.96121 8.56827 3.93181C7.29457 4.90241 6.37469 6.26428 5.9499 7.80828C5.52511 9.35228 5.61889 10.993 6.21685 12.4786C6.81481 13.9641 7.88388 15.2123 9.25988 16.0314C6.47808 16.9394 4.09441 18.8569 2.54762 21.5321C2.49089 21.6246 2.45327 21.7275 2.43696 21.8347C2.42066 21.942 2.426 22.0515 2.45268 22.1566C2.47936 22.2618 2.52683 22.3605 2.59229 22.4471C2.65776 22.5336 2.73989 22.6061 2.83384 22.6604C2.9278 22.7147 3.03167 22.7496 3.13933 22.763C3.24699 22.7765 3.35625 22.7683 3.46068 22.7389C3.56511 22.7094 3.66259 22.6594 3.74736 22.5916C3.83213 22.5239 3.90248 22.4399 3.95426 22.3446C5.86769 19.0377 9.24972 17.0633 13.0004 17.0633C16.7511 17.0633 20.1332 19.0377 22.0466 22.3446C22.0984 22.4399 22.1687 22.5239 22.2535 22.5916C22.3383 22.6594 22.4357 22.7094 22.5402 22.7389C22.6446 22.7683 22.7539 22.7765 22.8615 22.763C22.9692 22.7496 23.0731 22.7147 23.167 22.6604C23.261 22.6061 23.3431 22.5336 23.4086 22.4471C23.474 22.3605 23.5215 22.2618 23.5482 22.1566C23.5749 22.0515 23.5802 21.942 23.5639 21.8347C23.5476 21.7275 23.51 21.6246 23.4532 21.5321ZM7.31293 9.75081C7.31293 8.62593 7.64649 7.52631 8.27144 6.591C8.89639 5.6557 9.78466 4.92672 10.8239 4.49624C11.8632 4.06577 13.0067 3.95314 14.11 4.17259C15.2133 4.39205 16.2267 4.93373 17.0221 5.72914C17.8175 6.52455 18.3592 7.53797 18.5786 8.64123C18.7981 9.7445 18.6855 10.8881 18.255 11.9273C17.8245 12.9666 17.0955 13.8548 16.1602 14.4798C15.2249 15.1047 14.1253 15.4383 13.0004 15.4383C11.4925 15.4367 10.0468 14.837 8.98054 13.7707C7.91428 12.7044 7.31454 11.2587 7.31293 9.75081Z" fill="black"/>
</svg>
