<svg width="24" height="24" viewBox="0 0 24 24" fill="none" xmlns="http://www.w3.org/2000/svg">
<path d="M12 2.25C7.73954 2.25 4.28575 5.77576 4.28575 10.125V14.8314L3.37661 15.7594C3.0089 16.1348 2.89891 16.6993 3.09791 17.1898C3.29691 17.6803 3.76573 18 4.28575 18H19.7142C20.2343 18 20.7031 17.6803 20.9021 17.1898C21.1011 16.6993 20.9911 16.1348 20.6233 15.7594L19.7142 14.8314V10.125C19.7142 5.77576 16.2604 2.25 12 2.25Z" fill="#006497"/>
<path d="M7.00003 18C7.00003 20.7615 9.23861 23 12 23C14.7615 23 17 20.7615 17 18H15C15 19.6569 13.6569 21 12 21C10.3432 21 9.00003 19.6569 9.00003 18H7.00003Z" fill="#006497"/>
</svg>
