<svg width="20" height="20" viewBox="0 0 20 20" fill="none" xmlns="http://www.w3.org/2000/svg">
<mask id="mask0_918_4858" style="mask-type:alpha" maskUnits="userSpaceOnUse" x="0" y="0" width="20" height="20">
<rect width="20" height="20" fill="#D9D9D9"/>
</mask>
<g mask="url(#mask0_918_4858)">
<path d="M3.33366 17.5C2.87533 17.5 2.48296 17.3368 2.15658 17.0104C1.83019 16.684 1.66699 16.2917 1.66699 15.8333V6.66666C1.66699 6.20832 1.83019 5.81596 2.15658 5.48957C2.48296 5.16318 2.87533 4.99999 3.33366 4.99999H6.66699V3.33332C6.66699 2.87499 6.83019 2.48263 7.15658 2.15624C7.48296 1.82985 7.87533 1.66666 8.33366 1.66666H11.667C12.1253 1.66666 12.5177 1.82985 12.8441 2.15624C13.1705 2.48263 13.3337 2.87499 13.3337 3.33332V4.99999H16.667C17.1253 4.99999 17.5177 5.16318 17.8441 5.48957C18.1705 5.81596 18.3337 6.20832 18.3337 6.66666V15.8333C18.3337 16.2917 18.1705 16.684 17.8441 17.0104C17.5177 17.3368 17.1253 17.5 16.667 17.5H3.33366ZM3.33366 15.8333H16.667V6.66666H3.33366V15.8333ZM8.33366 4.99999H11.667V3.33332H8.33366V4.99999Z" fill="#52525B"/>
</g>
</svg>
