<svg width="20" height="20" viewBox="0 0 20 20" fill="none" xmlns="http://www.w3.org/2000/svg">
<path d="M9.99996 9.16666C11.105 9.16666 12.1648 9.60564 12.9462 10.387C13.7276 11.1684 14.1666 12.2283 14.1666 13.3333V18.3333H12.5V13.3333C12.5 12.6956 12.2564 12.0821 11.8189 11.6181C11.3814 11.1542 10.7832 10.8749 10.1466 10.8375L9.99996 10.8333C9.36228 10.8333 8.7487 11.0769 8.28474 11.5144C7.82079 11.9519 7.54154 12.5501 7.50413 13.1867L7.49996 13.3333V18.3333H5.83329V13.3333C5.83329 12.2283 6.27228 11.1684 7.05368 10.387C7.83508 9.60564 8.89489 9.16666 9.99996 9.16666ZM4.58329 11.6667C4.81579 11.6667 5.04163 11.6942 5.25829 11.745C5.11581 12.1692 5.03143 12.6107 5.00746 13.0575L4.99996 13.3333V13.405C4.90417 13.3707 4.80454 13.3483 4.70329 13.3383L4.58329 13.3333C4.27256 13.3333 3.97297 13.4491 3.74294 13.658C3.51292 13.8669 3.36896 14.154 3.33913 14.4633L3.33329 14.5833V18.3333H1.66663V14.5833C1.66663 13.8098 1.97392 13.0679 2.5209 12.5209C3.06788 11.9739 3.80974 11.6667 4.58329 11.6667V11.6667ZM15.4166 11.6667C16.1902 11.6667 16.932 11.9739 17.479 12.5209C18.026 13.0679 18.3333 13.8098 18.3333 14.5833V18.3333H16.6666V14.5833C16.6666 14.2726 16.5509 13.973 16.3419 13.743C16.133 13.513 15.8459 13.369 15.5366 13.3392L15.4166 13.3333C15.2708 13.3333 15.1308 13.3583 15 13.4042V13.3333C15 12.7783 14.91 12.245 14.7425 11.7467C14.9583 11.6942 15.1841 11.6667 15.4166 11.6667ZM4.58329 6.66666C5.13583 6.66666 5.66573 6.88615 6.05643 7.27685C6.44713 7.66755 6.66663 8.19746 6.66663 8.74999C6.66663 9.30252 6.44713 9.83243 6.05643 10.2231C5.66573 10.6138 5.13583 10.8333 4.58329 10.8333C4.03076 10.8333 3.50085 10.6138 3.11015 10.2231C2.71945 9.83243 2.49996 9.30252 2.49996 8.74999C2.49996 8.19746 2.71945 7.66755 3.11015 7.27685C3.50085 6.88615 4.03076 6.66666 4.58329 6.66666V6.66666ZM15.4166 6.66666C15.9692 6.66666 16.4991 6.88615 16.8898 7.27685C17.2805 7.66755 17.5 8.19746 17.5 8.74999C17.5 9.30252 17.2805 9.83243 16.8898 10.2231C16.4991 10.6138 15.9692 10.8333 15.4166 10.8333C14.8641 10.8333 14.3342 10.6138 13.9435 10.2231C13.5528 9.83243 13.3333 9.30252 13.3333 8.74999C13.3333 8.19746 13.5528 7.66755 13.9435 7.27685C14.3342 6.88615 14.8641 6.66666 15.4166 6.66666V6.66666ZM4.58329 8.33332C4.47279 8.33332 4.36681 8.37722 4.28867 8.45536C4.21052 8.5335 4.16663 8.63948 4.16663 8.74999C4.16663 8.8605 4.21052 8.96648 4.28867 9.04462C4.36681 9.12276 4.47279 9.16666 4.58329 9.16666C4.6938 9.16666 4.79978 9.12276 4.87792 9.04462C4.95606 8.96648 4.99996 8.8605 4.99996 8.74999C4.99996 8.63948 4.95606 8.5335 4.87792 8.45536C4.79978 8.37722 4.6938 8.33332 4.58329 8.33332ZM15.4166 8.33332C15.3061 8.33332 15.2001 8.37722 15.122 8.45536C15.0439 8.5335 15 8.63948 15 8.74999C15 8.8605 15.0439 8.96648 15.122 9.04462C15.2001 9.12276 15.3061 9.16666 15.4166 9.16666C15.5271 9.16666 15.6331 9.12276 15.7113 9.04462C15.7894 8.96648 15.8333 8.8605 15.8333 8.74999C15.8333 8.63948 15.7894 8.5335 15.7113 8.45536C15.6331 8.37722 15.5271 8.33332 15.4166 8.33332ZM9.99996 1.66666C10.884 1.66666 11.7319 2.01785 12.357 2.64297C12.9821 3.26809 13.3333 4.11593 13.3333 4.99999C13.3333 5.88405 12.9821 6.73189 12.357 7.35701C11.7319 7.98213 10.884 8.33332 9.99996 8.33332C9.1159 8.33332 8.26806 7.98213 7.64294 7.35701C7.01782 6.73189 6.66663 5.88405 6.66663 4.99999C6.66663 4.11593 7.01782 3.26809 7.64294 2.64297C8.26806 2.01785 9.1159 1.66666 9.99996 1.66666V1.66666ZM9.99996 3.33332C9.55793 3.33332 9.13401 3.50892 8.82145 3.82148C8.50889 4.13404 8.33329 4.55796 8.33329 4.99999C8.33329 5.44202 8.50889 5.86594 8.82145 6.1785C9.13401 6.49106 9.55793 6.66666 9.99996 6.66666C10.442 6.66666 10.8659 6.49106 11.1785 6.1785C11.491 5.86594 11.6666 5.44202 11.6666 4.99999C11.6666 4.55796 11.491 4.13404 11.1785 3.82148C10.8659 3.50892 10.442 3.33332 9.99996 3.33332V3.33332Z" fill="#91C3FD"/>
</svg>
