<svg width="25" height="25" viewBox="0 0 25 25" fill="none" xmlns="http://www.w3.org/2000/svg">
<path fill-rule="evenodd" clip-rule="evenodd" d="M12.8968 3.26172C13.4489 3.26172 13.8965 3.7093 13.8965 4.26143V11.2594H20.8945C21.4466 11.2594 21.8942 11.707 21.8942 12.2591C21.8942 12.8112 21.4466 13.2588 20.8945 13.2588H13.8965V20.2568C13.8965 20.8089 13.4489 21.2565 12.8968 21.2565C12.3447 21.2565 11.8971 20.8089 11.8971 20.2568V13.2588H4.89912C4.347 13.2588 3.89941 12.8112 3.89941 12.2591C3.89941 11.707 4.347 11.2594 4.89912 11.2594L11.8971 11.2594V4.26143C11.8971 3.7093 12.3447 3.26172 12.8968 3.26172Z" fill="#81BFEC"/>
</svg>
