<svg width="27" height="26" viewBox="0 0 27 26" fill="none" xmlns="http://www.w3.org/2000/svg">
<path d="M19.3952 2.97789C19.3952 2.6862 19.1969 2.43194 18.9142 2.3612L18.5662 2.27411C18.2175 2.18683 17.8991 2.00635 17.645 1.75196C17.3909 1.49757 17.2106 1.17884 17.1234 0.829837L17.0364 0.481775C16.9657 0.198633 16.7116 0 16.42 0C16.1287 0 15.8747 0.198277 15.8038 0.481081L15.7162 0.829837C15.6291 1.17872 15.449 1.49737 15.195 1.75174C14.9411 2.00612 14.6229 2.18667 14.2744 2.27411L13.9264 2.3612C13.6437 2.43194 13.4454 2.6862 13.4454 2.97789C13.4454 3.26957 13.6437 3.52383 13.9264 3.59457L14.2744 3.68166C14.6231 3.76894 14.9415 3.94942 15.1956 4.20381C15.4497 4.4582 15.63 4.77693 15.7172 5.12593L15.8042 5.47428C15.8749 5.75725 16.1289 5.95577 16.4203 5.95577C16.7117 5.95577 16.9657 5.75725 17.0364 5.47428L17.1234 5.12593C17.2106 4.77693 17.3909 4.4582 17.645 4.20381C17.8991 3.94942 18.2175 3.76894 18.5662 3.68166L18.9142 3.59457C19.1969 3.52383 19.3952 3.26957 19.3952 2.97789Z" fill="#006497"/>
<path d="M26.5001 8.75C26.5001 8.35003 26.2278 8.00139 25.8398 7.90439L25.3622 7.78497C24.8836 7.66529 24.4466 7.41781 24.0977 7.06899C23.7489 6.72017 23.5014 6.28312 23.3818 5.80456L23.2623 5.3269C23.1653 4.93888 22.8167 4.66667 22.4167 4.66667C22.0168 4.66667 21.6681 4.93888 21.5711 5.3269L21.4517 5.80456C21.332 6.28312 21.0845 6.72017 20.7357 7.06899C20.3869 7.41781 19.9498 7.66529 19.4713 7.78497L18.9936 7.90439C18.6056 8.00139 18.3334 8.35003 18.3334 8.75C18.3334 9.14997 18.6056 9.49861 18.9936 9.59561L19.4713 9.71503C19.9498 9.83471 20.3869 10.0822 20.7357 10.431C21.0845 10.7798 21.332 11.2169 21.4517 11.6954L21.5711 12.1731C21.6681 12.5611 22.0168 12.8333 22.4167 12.8333C22.8167 12.8333 23.1653 12.5611 23.2623 12.1731L23.3818 11.6954C23.5014 11.2169 23.7489 10.7798 24.0977 10.431C24.4466 10.0822 24.8836 9.83471 25.3622 9.71503L25.8398 9.59561C26.2278 9.49861 26.5001 9.14997 26.5001 8.75Z" fill="#006497"/>
<path d="M9.83244 5.26608C10.1478 4.46686 11.3532 4.46686 11.6686 5.26608L13.9433 11.2808C14.0424 11.5321 14.2537 12.3867 14.5216 12.4797L20.0275 14.9051C20.8798 15.2009 20.8798 16.3313 20.0275 16.627L14.5216 18.4738C14.2537 18.5667 14.0424 19.4213 13.9433 19.6726L11.6686 25.0673C11.3532 25.8665 10.1478 25.8665 9.83244 25.0673L7.55773 19.6726C7.45859 19.4213 7.24733 18.5667 6.97938 18.4738L1.47256 16.627C0.620311 16.3313 0.620311 15.2009 1.47256 14.9051L6.97938 12.4797C7.24733 12.3867 7.45859 11.5321 7.55773 11.2808L9.83244 5.26608Z" fill="#006497"/>
</svg>
