<svg width="29" height="28" viewBox="0 0 29 28" fill="none" xmlns="http://www.w3.org/2000/svg">
<path d="M14.5 2.33333C20.9435 2.33333 26.1667 7.5565 26.1667 14C26.1667 20.4435 20.9435 25.6667 14.5 25.6667C8.05654 25.6667 2.83337 20.4435 2.83337 14H5.16671C5.16671 19.1543 9.34571 23.3333 14.5 23.3333C19.6544 23.3333 23.8334 19.1543 23.8334 14C23.8334 8.84567 19.6544 4.66667 14.5 4.66667C11.6254 4.66667 9.05404 5.96633 7.34254 8.00917L9.83337 10.5H2.83337V3.5L5.68821 6.35367C7.82671 3.892 10.9814 2.33333 14.5 2.33333ZM15.6667 8.16667V13.5158L19.4502 17.2993L17.7994 18.9502L13.3334 14.4818V8.16667H15.6667Z" fill="#006497"/>
</svg>
