<svg width="21" height="20" viewBox="0 0 21 20" fill="none" xmlns="http://www.w3.org/2000/svg">
<mask id="mask0_918_4863" style="mask-type:alpha" maskUnits="userSpaceOnUse" x="0" y="0" width="21" height="20">
<rect x="0.5" width="20" height="20" fill="#D9D9D9"/>
</mask>
<g mask="url(#mask0_918_4863)">
<path d="M1.33301 16.6667V14.3333C1.33301 13.8611 1.45454 13.4271 1.69759 13.0313C1.94065 12.6354 2.26356 12.3333 2.66634 12.125C3.52745 11.6945 4.40245 11.3715 5.29134 11.1563C6.18023 10.941 7.08301 10.8333 7.99967 10.8333C8.91634 10.8333 9.81912 10.941 10.708 11.1563C11.5969 11.3715 12.4719 11.6945 13.333 12.125C13.7358 12.3333 14.0587 12.6354 14.3018 13.0313C14.5448 13.4271 14.6663 13.8611 14.6663 14.3333V16.6667H1.33301ZM16.333 16.6667V14.1667C16.333 13.5556 16.1629 12.9688 15.8226 12.4063C15.4823 11.8438 14.9997 11.3611 14.3747 10.9583C15.083 11.0417 15.7497 11.184 16.3747 11.3854C16.9997 11.5868 17.583 11.8333 18.1247 12.125C18.6247 12.4028 19.0066 12.7118 19.2705 13.0521C19.5344 13.3924 19.6663 13.7639 19.6663 14.1667V16.6667H16.333ZM7.99967 10C7.08301 10 6.29829 9.67362 5.64551 9.02084C4.99273 8.36807 4.66634 7.58334 4.66634 6.66668C4.66634 5.75001 4.99273 4.96529 5.64551 4.31251C6.29829 3.65973 7.08301 3.33334 7.99967 3.33334C8.91634 3.33334 9.70106 3.65973 10.3538 4.31251C11.0066 4.96529 11.333 5.75001 11.333 6.66668C11.333 7.58334 11.0066 8.36807 10.3538 9.02084C9.70106 9.67362 8.91634 10 7.99967 10ZM16.333 6.66668C16.333 7.58334 16.0066 8.36807 15.3538 9.02084C14.7011 9.67362 13.9163 10 12.9997 10C12.8469 10 12.6525 9.98265 12.4163 9.94793C12.1802 9.9132 11.9858 9.87501 11.833 9.83334C12.208 9.3889 12.4962 8.89584 12.6976 8.35418C12.899 7.81251 12.9997 7.25001 12.9997 6.66668C12.9997 6.08334 12.899 5.52084 12.6976 4.97918C12.4962 4.43751 12.208 3.94445 11.833 3.50001C12.0275 3.43057 12.2219 3.38543 12.4163 3.36459C12.6108 3.34376 12.8052 3.33334 12.9997 3.33334C13.9163 3.33334 14.7011 3.65973 15.3538 4.31251C16.0066 4.96529 16.333 5.75001 16.333 6.66668ZM2.99967 15H12.9997V14.3333C12.9997 14.1806 12.9615 14.0417 12.8851 13.9167C12.8087 13.7917 12.708 13.6945 12.583 13.625C11.833 13.25 11.0761 12.9688 10.3122 12.7813C9.54829 12.5938 8.77745 12.5 7.99967 12.5C7.2219 12.5 6.45106 12.5938 5.68717 12.7813C4.92329 12.9688 4.16634 13.25 3.41634 13.625C3.29134 13.6945 3.19065 13.7917 3.11426 13.9167C3.03787 14.0417 2.99967 14.1806 2.99967 14.3333V15ZM7.99967 8.33334C8.45801 8.33334 8.85037 8.17015 9.17676 7.84376C9.50315 7.51737 9.66634 7.12501 9.66634 6.66668C9.66634 6.20834 9.50315 5.81598 9.17676 5.48959C8.85037 5.1632 8.45801 5.00001 7.99967 5.00001C7.54134 5.00001 7.14898 5.1632 6.82259 5.48959C6.4962 5.81598 6.33301 6.20834 6.33301 6.66668C6.33301 7.12501 6.4962 7.51737 6.82259 7.84376C7.14898 8.17015 7.54134 8.33334 7.99967 8.33334Z" fill="#52525B"/>
</g>
</svg>
