<svg width="33" height="33" viewBox="0 0 33 33" fill="none" xmlns="http://www.w3.org/2000/svg">
<path d="M18.9945 23.76L12.1832 20.0451C11.5293 20.6941 10.698 21.135 9.79398 21.3122C8.88994 21.4895 7.95368 21.3951 7.10321 21.041C6.25275 20.6868 5.52616 20.0889 5.01505 19.3224C4.50395 18.5559 4.2312 17.6553 4.2312 16.7341C4.2312 15.8128 4.50395 14.9122 5.01505 14.1458C5.52616 13.3793 6.25275 12.7813 7.10321 12.4272C7.95368 12.0731 8.88994 11.9787 9.79398 12.1559C10.698 12.3331 11.5293 12.774 12.1832 13.423L18.9945 9.70813C18.7609 8.6121 18.9296 7.4686 19.4698 6.48674C20.01 5.50489 20.8856 4.75029 21.9364 4.36094C22.9873 3.97159 24.1432 3.9735 25.1927 4.36634C26.2423 4.75917 27.1153 5.51668 27.6523 6.50032C28.1892 7.48396 28.3541 8.62801 28.1169 9.72327C27.8796 10.8185 27.2561 11.7918 26.3602 12.4651C25.4644 13.1383 24.3561 13.4667 23.2381 13.39C22.1201 13.3133 21.067 12.8367 20.2715 12.0474L13.4601 15.7624C13.596 16.4031 13.596 17.0651 13.4601 17.7058L20.2715 21.4207C21.067 20.6314 22.1201 20.1549 23.2381 20.0782C24.3561 20.0015 25.4644 20.3298 26.3602 21.0031C27.2561 21.6764 27.8796 22.6496 28.1169 23.7449C28.3541 24.8401 28.1892 25.9842 27.6523 26.9678C27.1153 27.9515 26.2423 28.709 25.1927 29.1018C24.1432 29.4947 22.9873 29.4966 21.9364 29.1072C20.8856 28.7179 20.01 27.9633 19.4698 26.9814C18.9296 25.9996 18.7609 24.8561 18.9945 23.76Z" fill="#81BFEC"/>
</svg>
