<svg width="20" height="20" viewBox="0 0 20 20" fill="none" xmlns="http://www.w3.org/2000/svg">
<path d="M10 0.833328L16.8475 2.35499C17.2283 2.43999 17.5 2.77749 17.5 3.16833V11.4908C17.5 13.1625 16.6642 14.7242 15.2733 15.6508L10 19.1667L4.72667 15.6508C3.335 14.7233 2.5 13.1625 2.5 11.4917V3.16833C2.5 2.77749 2.77167 2.43999 3.1525 2.35499L10 0.833328ZM10 2.54083L4.16667 3.83666V11.4908C4.16667 12.605 4.72333 13.6458 5.65083 14.2642L10 17.1642L14.3492 14.2642C15.2767 13.6458 15.8333 12.6058 15.8333 11.4917V3.83666L10 2.54166V2.54083ZM13.71 6.85166L14.8892 8.02999L9.58583 13.3333L6.05 9.79749L7.22833 8.61916L9.585 10.9758L13.71 6.85083V6.85166Z" fill="#006497"/>
</svg>
