<svg width="21" height="20" viewBox="0 0 21 20" fill="none" xmlns="http://www.w3.org/2000/svg">
<mask id="mask0_918_4868" style="mask-type:alpha" maskUnits="userSpaceOnUse" x="0" y="0" width="21" height="20">
<rect x="0.5" width="20" height="20" fill="#D9D9D9"/>
</mask>
<g mask="url(#mask0_918_4868)">
<path d="M1.5 17V13.5C1.5 13.0833 1.64583 12.7292 1.9375 12.4375C2.22917 12.1458 2.58333 12 3 12H5.77083C6.02083 12 6.25 12.059 6.45833 12.1771C6.66667 12.2951 6.84722 12.4514 7 12.6458C7.40278 13.2292 7.90972 13.684 8.52083 14.0104C9.13194 14.3368 9.79167 14.5 10.5 14.5C11.2083 14.5 11.8681 14.3368 12.4792 14.0104C13.0903 13.684 13.5972 13.2292 14 12.6458C14.1528 12.4514 14.3333 12.2951 14.5417 12.1771C14.75 12.059 14.9792 12 15.2292 12H18C18.4167 12 18.7708 12.1458 19.0625 12.4375C19.3542 12.7292 19.5 13.0833 19.5 13.5V17H13.5V15.125C13.0694 15.4444 12.5938 15.6701 12.0729 15.8021C11.5521 15.934 11.0278 16 10.5 16C9.97222 16 9.45139 15.934 8.9375 15.8021C8.42361 15.6701 7.94444 15.4444 7.5 15.125V17H1.5ZM10.5 13.75C9.91667 13.75 9.375 13.6146 8.875 13.3438C8.375 13.0729 7.95833 12.7014 7.625 12.2292C7.43056 11.9653 7.20139 11.75 6.9375 11.5833C6.67361 11.4167 6.38194 11.3194 6.0625 11.2917C6.71528 10.8472 7.42014 10.5208 8.17708 10.3125C8.93403 10.1042 9.70833 10 10.5 10C11.2917 10 12.066 10.1042 12.8229 10.3125C13.5799 10.5208 14.2847 10.8472 14.9375 11.2917C14.6181 11.3194 14.3264 11.4167 14.0625 11.5833C13.7986 11.75 13.5694 11.9653 13.375 12.2292C13.0417 12.7014 12.625 13.0729 12.125 13.3438C11.625 13.6146 11.0833 13.75 10.5 13.75ZM4 11C3.30556 11 2.71528 10.7569 2.22917 10.2708C1.74306 9.78472 1.5 9.19444 1.5 8.5C1.5 7.80556 1.74306 7.21528 2.22917 6.72917C2.71528 6.24306 3.30556 6 4 6C4.69444 6 5.28472 6.24306 5.77083 6.72917C6.25694 7.21528 6.5 7.80556 6.5 8.5C6.5 9.19444 6.25694 9.78472 5.77083 10.2708C5.28472 10.7569 4.69444 11 4 11ZM17 11C16.3056 11 15.7153 10.7569 15.2292 10.2708C14.7431 9.78472 14.5 9.19444 14.5 8.5C14.5 7.80556 14.7431 7.21528 15.2292 6.72917C15.7153 6.24306 16.3056 6 17 6C17.6944 6 18.2847 6.24306 18.7708 6.72917C19.2569 7.21528 19.5 7.80556 19.5 8.5C19.5 9.19444 19.2569 9.78472 18.7708 10.2708C18.2847 10.7569 17.6944 11 17 11ZM10.5 9C9.80556 9 9.21528 8.75694 8.72917 8.27083C8.24306 7.78472 8 7.19444 8 6.5C8 5.80556 8.24306 5.21528 8.72917 4.72917C9.21528 4.24306 9.80556 4 10.5 4C11.1944 4 11.7847 4.24306 12.2708 4.72917C12.7569 5.21528 13 5.80556 13 6.5C13 7.19444 12.7569 7.78472 12.2708 8.27083C11.7847 8.75694 11.1944 9 10.5 9Z" fill="#52525B"/>
</g>
</svg>
