<svg width="24" height="24" viewBox="0 0 24 24" fill="none" xmlns="http://www.w3.org/2000/svg">
<path d="M3 5.99883H4.99942H20.9947" fill="white"/>
<path d="M18.9953 5.99883V19.9947C18.9953 20.525 18.7847 21.0336 18.4097 21.4085C18.0348 21.7835 17.5262 21.9942 16.9959 21.9942H6.99883C6.46855 21.9942 5.96 21.7835 5.58503 21.4085C5.21007 21.0336 4.99942 20.525 4.99942 19.9947V5.99883M7.99854 5.99883V3.99942C7.99854 3.46914 8.20919 2.96058 8.58416 2.58562C8.95912 2.21065 9.46768 2 9.99796 2H13.9968C14.5271 2 15.0356 2.21065 15.4106 2.58562C15.7856 2.96058 15.9962 3.46914 15.9962 3.99942V5.99883" fill="white"/>
<path d="M3 5.99883H4.99942M4.99942 5.99883H20.9947M4.99942 5.99883V19.9947C4.99942 20.525 5.21007 21.0336 5.58503 21.4085C5.96 21.7835 6.46855 21.9942 6.99883 21.9942H16.9959C17.5262 21.9942 18.0348 21.7835 18.4097 21.4085C18.7847 21.0336 18.9953 20.525 18.9953 19.9947V5.99883M7.99854 5.99883V3.99942C7.99854 3.46914 8.20919 2.96058 8.58416 2.58562C8.95912 2.21065 9.46768 2 9.99796 2H13.9968C14.5271 2 15.0356 2.21065 15.4106 2.58562C15.7856 2.96058 15.9962 3.46914 15.9962 3.99942V5.99883M9.99796 10.9974V16.9956M13.9968 10.9974V16.9956" stroke="#006497" stroke-width="1.75" stroke-linecap="round" stroke-linejoin="round"/>
</svg>
