<svg width="24" height="20" viewBox="0 0 24 20" fill="none" xmlns="http://www.w3.org/2000/svg">
<path d="M21.3333 16.666V11.3327H2.66667V16.666H21.3333ZM21.3333 8.66602V3.33268H2.66667V8.66602H21.3333ZM2.66667 19.3327C1.93333 19.3327 1.30556 19.0716 0.783333 18.5493C0.261111 18.0271 0 17.3993 0 16.666V3.33268C0 2.59935 0.261111 1.97157 0.783333 1.44935C1.30556 0.927127 1.93333 0.666016 2.66667 0.666016H21.3333C22.0667 0.666016 22.6944 0.927127 23.2167 1.44935C23.7389 1.97157 24 2.59935 24 3.33268V16.666C24 17.3993 23.7389 18.0271 23.2167 18.5493C22.6944 19.0716 22.0667 19.3327 21.3333 19.3327H2.66667Z" fill="#006497"/>
</svg>
