<svg width="27" height="22" viewBox="0 0 27 22" fill="none" xmlns="http://www.w3.org/2000/svg">
<path d="M9.66634 19.0007H24.333V15.434H9.66634V19.0007ZM2.99967 6.56732H6.99967V3.00065H2.99967V6.56732ZM2.99967 12.8007H6.99967V9.23398H2.99967V12.8007ZM2.99967 19.0007H6.99967V15.434H2.99967V19.0007ZM9.66634 12.8007H24.333V9.23398H9.66634V12.8007ZM9.66634 6.56732H24.333V3.00065H9.66634V6.56732ZM2.99967 21.6673C2.26634 21.6673 1.63856 21.4062 1.11634 20.884C0.594119 20.3618 0.333008 19.734 0.333008 19.0007V3.00065C0.333008 2.26732 0.594119 1.63954 1.11634 1.11732C1.63856 0.595096 2.26634 0.333984 2.99967 0.333984H24.333C25.0663 0.333984 25.6941 0.595096 26.2163 1.11732C26.7386 1.63954 26.9997 2.26732 26.9997 3.00065V19.0007C26.9997 19.734 26.7386 20.3618 26.2163 20.884C25.6941 21.4062 25.0663 21.6673 24.333 21.6673H2.99967Z" fill="#006497"/>
</svg>
